<svg width="181" height="22" viewBox="0 0 181 22" fill="none" xmlns="http://www.w3.org/2000/svg">
<g clip-path="url(#clip0_51_27)">
<path d="M2.55333 7.25829C3.24667 5.87766 4.31031 4.71705 5.62536 3.90618C6.94041 3.09532 8.45505 2.66614 10 2.66663C12.2458 2.66663 14.1325 3.49163 15.575 4.83746L13.1858 7.22746C12.3217 6.40163 11.2233 5.98079 10 5.98079C7.82916 5.98079 5.99167 7.44746 5.3375 9.41663C5.17083 9.91663 5.07583 10.45 5.07583 11C5.07583 11.55 5.17083 12.0833 5.3375 12.5833C5.9925 14.5533 7.82916 16.0191 10 16.0191C11.1208 16.0191 12.075 15.7233 12.8217 15.2233C13.2545 14.9383 13.6251 14.5685 13.911 14.1362C14.1969 13.7039 14.3922 13.2182 14.485 12.7083H10V9.48496H17.8483C17.9467 10.03 18 10.5983 18 11.1891C18 13.7275 17.0917 15.8641 15.515 17.3141C14.1367 18.5875 12.25 19.3333 10 19.3333C8.90553 19.3337 7.8217 19.1185 6.81045 18.6999C5.79921 18.2812 4.88037 17.6674 4.10646 16.8935C3.33256 16.1196 2.71874 15.2008 2.30011 14.1895C1.88148 13.1783 1.66623 12.0944 1.66666 11C1.66666 9.65496 1.98833 8.38329 2.55333 7.25829Z" fill="#2E279D"/>
</g>
<path d="M35.3938 5.04C37.7298 5.04 39.4258 6.192 39.8258 8.144L37.2338 8.672C37.0418 7.664 36.2098 7.168 35.3618 7.168C34.4818 7.168 33.9218 7.648 33.9218 8.256C33.9218 8.688 34.1138 9.008 34.7858 9.152L37.0098 9.648C38.8658 10.064 39.9538 11.072 39.9538 12.768C39.9538 15.056 37.9218 16.24 35.5378 16.24C33.1218 16.24 31.1378 15.088 30.8498 12.992L33.5698 12.464C33.8418 13.568 34.6098 14.048 35.6818 14.048C36.6738 14.048 37.2658 13.6 37.2658 12.944C37.2658 12.464 37.0418 12.16 36.2738 12L34.0338 11.52C32.4978 11.168 31.1538 10.368 31.1538 8.416C31.1538 6.336 32.8818 5.04 35.3938 5.04ZM42.9376 4.144C43.8016 4.144 44.4256 4.816 44.4256 5.6C44.4256 6.416 43.8016 7.024 42.9376 7.024C42.0736 7.024 41.4656 6.416 41.4656 5.6C41.4656 4.816 42.0736 4.144 42.9376 4.144ZM44.2176 16H41.6576V7.968H44.2176V16ZM54.4734 7.968V15.2C54.4734 17.68 52.5854 19.04 49.9774 19.04C48.1374 19.04 46.7294 18.4 45.9454 17.104L48.0734 15.952C48.6814 16.672 49.1294 16.944 49.9614 16.944C51.1294 16.944 51.9614 16.256 51.9614 14.992V14.768C51.3854 15.264 50.5854 15.536 49.5454 15.536C47.4494 15.536 45.6734 13.872 45.6734 11.6C45.6734 9.376 47.4494 7.728 49.5454 7.728C50.5854 7.728 51.3854 8 51.9614 8.496V7.968H54.4734ZM50.0894 13.44C51.1134 13.44 51.9614 12.672 51.9614 11.6C51.9614 10.528 51.1134 9.776 50.0894 9.776C48.9694 9.776 48.1694 10.528 48.1694 11.6C48.1694 12.672 48.9694 13.44 50.0894 13.44ZM61.3661 7.728C63.2381 7.728 64.4861 9.056 64.4861 11.072V16H61.9421V11.616C61.9421 10.672 61.3821 10.032 60.5661 10.032C59.5581 10.032 58.9021 10.72 58.9021 12.272V16H56.3421V7.968H58.9021V8.736C59.5101 8.096 60.3581 7.728 61.3661 7.728ZM71.3594 4.144C72.2234 4.144 72.8474 4.816 72.8474 5.6C72.8474 6.416 72.2234 7.024 71.3594 7.024C70.4954 7.024 69.8874 6.416 69.8874 5.6C69.8874 4.816 70.4954 4.144 71.3594 4.144ZM72.6394 16H70.0794V7.968H72.6394V16ZM79.6473 7.728C81.5193 7.728 82.7673 9.056 82.7673 11.072V16H80.2233V11.616C80.2233 10.672 79.6633 10.032 78.8473 10.032C77.8393 10.032 77.1833 10.72 77.1833 12.272V16H74.6233V7.968H77.1833V8.736C77.7913 8.096 78.6393 7.728 79.6473 7.728ZM99.9127 7.968L97.3367 16.016H95.1127L93.6727 11.664L92.2167 16.016H89.9927L87.4167 7.968H89.9287L91.2407 12.288L92.7607 7.968H94.5687L96.0887 12.304L97.4007 7.968H99.9127ZM102.359 4.144C103.223 4.144 103.847 4.816 103.847 5.6C103.847 6.416 103.223 7.024 102.359 7.024C101.495 7.024 100.887 6.416 100.887 5.6C100.887 4.816 101.495 4.144 102.359 4.144ZM103.639 16H101.079V7.968H103.639V16ZM110.983 13.632L111.575 15.648C110.951 15.984 110.295 16.24 109.383 16.24C107.383 16.24 106.183 15.152 106.183 13.04V10H104.727V7.968H106.183V5.6H108.743V7.968H111.111V10H108.743V12.784C108.743 13.616 109.143 13.952 109.815 13.952C110.167 13.952 110.647 13.824 110.983 13.632ZM117.585 7.728C119.441 7.728 120.689 9.056 120.689 11.072V16H118.145V11.616C118.145 10.672 117.585 10.032 116.753 10.032C115.761 10.032 115.105 10.72 115.105 12.272V16H112.545V4.48H115.105V8.736C115.729 8.096 116.561 7.728 117.585 7.728ZM131.162 9.68H137.066C137.114 10.064 137.13 10.384 137.13 10.656C137.13 13.904 134.81 16.24 131.578 16.24C128.33 16.24 125.802 13.792 125.802 10.64C125.802 7.504 128.314 5.04 131.53 5.04C133.914 5.04 136.01 6.16 136.762 8.256L134.218 8.992C133.594 7.776 132.57 7.456 131.53 7.456C129.786 7.456 128.458 8.832 128.458 10.64C128.458 12.464 129.818 13.84 131.61 13.84C133.018 13.84 134.042 13.104 134.442 11.92H131.162V9.68ZM142.543 7.76C144.927 7.76 146.943 9.456 146.943 11.984C146.943 14.528 144.927 16.224 142.543 16.224C140.111 16.224 138.095 14.528 138.095 11.984C138.095 9.456 140.111 7.76 142.543 7.76ZM142.543 14.064C143.535 14.064 144.479 13.248 144.479 11.984C144.479 10.736 143.535 9.904 142.543 9.904C141.503 9.904 140.559 10.736 140.559 11.984C140.559 13.248 141.503 14.064 142.543 14.064ZM152.184 7.76C154.568 7.76 156.584 9.456 156.584 11.984C156.584 14.528 154.568 16.224 152.184 16.224C149.752 16.224 147.736 14.528 147.736 11.984C147.736 9.456 149.752 7.76 152.184 7.76ZM152.184 14.064C153.176 14.064 154.12 13.248 154.12 11.984C154.12 10.736 153.176 9.904 152.184 9.904C151.144 9.904 150.2 10.736 150.2 11.984C150.2 13.248 151.144 14.064 152.184 14.064ZM166.177 7.968V15.2C166.177 17.68 164.289 19.04 161.681 19.04C159.841 19.04 158.433 18.4 157.649 17.104L159.777 15.952C160.385 16.672 160.833 16.944 161.665 16.944C162.833 16.944 163.665 16.256 163.665 14.992V14.768C163.089 15.264 162.289 15.536 161.249 15.536C159.153 15.536 157.377 13.872 157.377 11.6C157.377 9.376 159.153 7.728 161.249 7.728C162.289 7.728 163.089 8 163.665 8.496V7.968H166.177ZM161.793 13.44C162.817 13.44 163.665 12.672 163.665 11.6C163.665 10.528 162.817 9.776 161.793 9.776C160.673 9.776 159.873 10.528 159.873 11.6C159.873 12.672 160.673 13.44 161.793 13.44ZM170.605 16H168.045V4.48H170.605V16ZM180.339 11.984V12.64H174.451C174.659 13.6 175.315 14.192 176.179 14.192C176.771 14.192 177.459 14.048 177.891 13.264L180.163 13.728C179.475 15.424 178.019 16.24 176.179 16.24C173.859 16.24 171.939 14.528 171.939 11.984C171.939 9.456 173.859 7.728 176.195 7.728C178.467 7.728 180.291 9.36 180.339 11.984ZM176.195 9.808C175.475 9.808 174.739 10.256 174.499 11.072H177.811C177.571 10.208 176.931 9.808 176.195 9.808Z" fill="#2E279D"/>
<defs>
<clipPath id="clip0_51_27">
<rect width="20" height="20" fill="white" transform="translate(0 1)"/>
</clipPath>
</defs>
</svg>
