<svg width="307" height="487" viewBox="0 0 307 487" fill="none" xmlns="http://www.w3.org/2000/svg">
<g opacity="0.3">
<path fill-rule="evenodd" clip-rule="evenodd" d="M-105.807 481.839C4.41531 512.796 58.0477 393.997 152.488 403.036C204.185 407.983 307.23 433.059 307 250.393C306.424 132.463 197.588 102.932 85.3551 163.411C52.3294 176.31 26.2553 172.313 -2.05429 159.496C-30.3639 146.68 -66.7732 89.464 -135.394 77.6932C-341.898 42.2712 -518.589 365.906 -105.807 481.839Z" fill="#DFF6E4"/>
<path fill-rule="evenodd" clip-rule="evenodd" d="M155.887 185.264C157.939 184.265 161.619 186.203 159.484 189.324C154.756 196.232 173.042 210.033 167.172 197.872C166.545 196.572 163.326 187.58 167.88 192.222C172.434 196.864 178.783 217.379 174.676 224.448C171.073 230.651 161.536 233.602 148.517 233.951L147.93 233.964L147.654 233.981C139.979 234.339 134.159 229.579 130.403 220.308L130.223 219.856C126.42 210.152 127.463 202.373 133.612 197.129C133.724 197.034 133.843 196.948 133.969 196.873L134.163 196.769L155.887 185.264Z" fill="white"/>
<path fill-rule="evenodd" clip-rule="evenodd" d="M156.967 188.354L134.801 198.956C129.488 203.404 128.585 210.02 132.091 218.803C133.321 221.884 136.398 229.225 136.398 226.342C136.398 225.441 156.967 212.213 160.913 213.507C164.562 214.704 158.007 203.916 156.169 198.956L156.967 188.083L157.576 187" fill="#E7EAEE"/>
<path fill-rule="evenodd" clip-rule="evenodd" d="M127.829 196C129.273 196 121.093 199.886 121.514 207.054C121.936 214.221 127.48 227.431 126.132 227.952C124.783 228.473 122.227 224.621 121.711 223.259C118.505 214.783 117.898 211.324 118.013 206.38C118.163 199.908 121.531 196 127.829 196Z" fill="#E7EAEE"/>
<ellipse cx="164.5" cy="203" rx="5.5" ry="13" fill="#E7EAEE"/>
<path fill-rule="evenodd" clip-rule="evenodd" d="M-232 338.305C-232 316.083 -229.53 306.421 -203.003 294.293C-148.634 272.328 -148.634 271.481 -44.4761 231.232C-16.9309 220.643 41.1408 246.01 66.3934 235.379C83.2285 228.291 98.9714 223.029 112.88 216C114.227 224.791 122.933 239.674 126 242.232C109.713 245.648 93.9576 250.931 78.7347 258.081C45.8266 273.538 65.3274 269.326 13.2034 318.455C8.78619 322.619 -7.44635 332.112 -30.9175 342C-30.9175 342 -78.1853 335.656 -97.143 327.774C-116.436 319.753 -145.671 294.293 -145.671 294.293C-145.671 294.293 -179.767 316.525 -199.369 326.519C-208.543 331.196 -232 338.305 -232 338.305Z" fill="white"/>
<path fill-rule="evenodd" clip-rule="evenodd" d="M-231.755 327C-231.755 321.754 -232.306 318.092 -231.755 314.043C-229.958 300.841 -222.917 294.087 -202.623 284.753C-148.275 262.663 -148.42 259.797 -44.3012 219.319C-16.7663 208.669 41.2838 234.18 66.5269 223.489C83.3557 216.361 99.0928 211.069 112.996 204C113.036 204.253 111.589 216.334 111.589 216.334C111.589 216.334 77.2656 234.559 54.5615 238.424C30.4383 242.53 -2.69603 223.489 -35.781 232.854C-86.165 247.116 -202.272 291.942 -216.007 303.175C-226.799 312.002 -231.755 327 -231.755 327Z" fill="#E7EAEE"/>
<path fill-rule="evenodd" clip-rule="evenodd" d="M-241.7 2.20623L-241.448 2.65684L-241.14 3.23527C-240.954 3.5913 -240.746 4.00441 -240.519 4.4709C-239.733 6.08785 -238.939 7.91762 -238.179 9.93563C-236.04 15.6158 -234.544 21.7461 -234.034 28.1328C-233.341 36.7997 -234.592 44.9792 -237.76 52.4203L-238.032 53.045C-240.606 58.8578 -244.356 64.1837 -249.224 68.9621L-249.707 69.4294L-249.297 69.4492C-242.286 69.7437 -235.353 69.1162 -229.259 67.1729C-227.952 66.7563 -226.527 66.9714 -225.401 67.7544C-224.277 68.5361 -223.579 69.794 -223.509 71.1609L-223.493 71.5853L-223.483 72.146V72.3617C-223.483 73.1443 -223.506 74.0215 -223.562 74.9829C-223.715 77.638 -224.083 80.5022 -224.724 83.4921C-226.535 91.9389 -230.155 99.8503 -236.072 106.516C-236.857 107.401 -237.962 107.931 -239.137 107.994L-239.408 108C-240.662 107.977 -241.808 107.458 -242.621 106.573L-243.218 105.88L-243.51 105.548L-244.131 104.859L-244.811 104.124C-245.048 103.873 -245.294 103.614 -245.549 103.35C-247.721 101.097 -250.119 98.8636 -252.666 96.8086C-259.724 91.1129 -266.533 87.897 -272.348 88.2456C-281.859 88.8171 -289.736 88.3727 -297.044 86.3224C-306.491 83.6717 -313.91 78.4708 -318.819 70.1913L-319.094 69.7194C-321.636 65.2869 -325.389 60.181 -329.817 54.8665C-331.186 53.2241 -332.535 51.6624 -333.822 50.2181L-334.369 49.6063C-335.246 48.6313 -335.964 47.8545 -336.265 47.5381C-337.376 46.3672 -337.762 44.6871 -337.277 43.1507L-337.205 42.9432C-336.672 41.5076 -335.432 40.4438 -333.92 40.1455L-325.814 38.5434L-325.719 38.4068C-322.819 34.2839 -318.677 30.7917 -313.176 29.3851C-307.438 27.9178 -301.4 29.1935 -295.319 33.0519L-294.895 33.3253C-294.549 33.5515 -294.203 33.7676 -293.858 33.9739C-287.335 31.674 -281.722 26.6216 -277.008 19.5751C-274.662 16.0681 -272.697 12.2982 -271.1 8.52107C-270.539 7.19243 -270.063 5.95709 -269.671 4.84412C-269.534 4.45427 -269.417 4.10763 -269.318 3.80493L-269.188 3.39487C-268.702 1.86153 -267.366 0.750174 -265.767 0.556276C-264.207 0.365129 -262.745 1.1021 -261.843 2.38188C-261.344 3.09107 -260.869 3.81091 -260.42 4.54085C-257.513 9.26563 -255.762 14.0725 -254.88 18.7555C-251.854 13.7067 -250.076 8.48957 -249.935 4.27748C-249.87 2.30796 -248.511 0.616913 -246.601 0.134701C-244.688 -0.348671 -242.689 0.49808 -241.7 2.20623ZM-270.802 34.3537C-277.448 37.8289 -284.391 38.5382 -291.421 35.2671C-285.753 32.5726 -277.134 27.3296 -273.512 21.914C-271.005 18.1669 -268.92 14.166 -267.226 10.1589C-266.715 8.95002 -266.27 7.81119 -265.889 6.76026L-265.704 6.24221C-265.554 5.8189 -265.426 5.43935 -265.317 5.10419C-265.29 4.86508 -265.264 4.78508 -265.241 4.86418C-259.348 8.89535 -257.47 15.8477 -256.954 21.9116C-260.815 27.2967 -265.698 31.685 -270.802 34.3537ZM-268.485 37.7845C-264.433 35.6655 -260.393 32.7948 -256.844 29.2375C-256.864 29.7484 -256.885 30.2253 -256.905 30.6627L-256.905 30.6637C-256.99 32.5015 -257.042 33.6411 -256.771 33.6644C-255.666 33.7593 -254.688 32.9821 -254.514 31.9047L-254.384 30.8002L-254.347 30.4301C-254.223 29.0815 -254.159 27.7035 -254.165 26.3025C-253.209 25.1553 -252.306 23.9506 -251.468 22.6899C-247.859 17.2593 -245.863 10.0599 -245.151 4.89026L-245.099 4.48635L-244.775 5.15852C-244.133 6.5171 -243.484 8.03642 -242.859 9.69784C-241.478 13.3638 -240.709 18.2372 -239.986 22.8185L-239.986 22.8186L-239.986 22.8188C-239.67 24.8205 -239.363 26.7663 -239.018 28.5313C-235.198 48.0522 -248.57 64.1642 -254.027 70.7401C-255.69 72.7439 -256.619 73.8622 -256.102 73.9219C-246.939 74.9789 -237.548 74.7437 -229.202 72.3767L-228.481 72.1654V72.5466C-228.483 73.0603 -228.5 73.6754 -228.536 74.3799L-228.553 74.6938C-228.693 77.1039 -229.028 79.716 -229.613 82.4441C-231.161 89.6644 -234.15 98.4169 -238.924 104.164L-239.366 104.685L-240.085 103.874C-240.216 103.729 -240.355 103.577 -240.5 103.419L-241.196 102.67L-241.95 101.879C-244.258 99.4854 -249.898 94.5136 -251.763 92.935L-253.27 91.6663C-260.322 85.7669 -265.943 81.7644 -272.647 83.2546L-273.505 83.4385C-298.811 88.666 -311.788 73.5657 -323.846 57.7505L-327.892 52.4203C-328.359 51.8079 -329.147 50.8086 -330.255 49.4224L-333.936 44.8493L-323.827 43.2483C-323.219 43.1281 -322.68 42.7868 -322.311 42.2939L-322.205 42.1416C-319.904 38.539 -317.314 34.656 -311.983 33.3253C-306.651 31.9946 -302.766 33.6071 -297.645 36.9561L-297.216 37.2328C-287.472 43.4081 -277.576 42.5379 -268.485 37.7845ZM155.849 184.926C157.916 183.921 161.624 185.87 159.473 189.006C156.216 193.754 159.834 204.779 162.038 211.495C163.058 214.602 163.774 216.786 163.367 216.999C162.08 217.671 160.492 217.173 159.819 215.886C156.177 208.918 154.086 203.384 153.565 199.178C153.305 197.085 153.248 195.06 153.394 193.107L153.413 192.881L136.577 201.065L136.364 201.261C132.564 204.827 130.891 208.965 133.673 216.298L133.837 216.723C136.856 224.411 141.967 229.925 147.285 229.695L147.701 229.674C159.518 229.437 166.58 225.881 169.101 221.551C172.271 216.107 173.131 209.823 167.218 197.599C166.586 196.292 163.343 187.253 167.931 191.919C172.519 196.586 178.915 217.207 174.778 224.312C171.324 230.244 162.462 233.217 150.317 233.795C150.388 234.104 150.403 234.431 150.354 234.764C149.204 242.572 145.641 247.483 139.681 248.904C135.124 249.99 130.227 248.551 125.741 245.083C109.98 248.467 94.7242 253.626 79.9705 260.559L77.7851 261.594C70.2583 265.189 65.9417 267.599 62.7899 269.942C60.9409 271.316 59.4142 272.724 57.7726 274.535L57.5077 274.836C56.7106 275.76 54.9737 277.882 52.998 280.295L52.9974 280.296L52.9918 280.303C50.3625 283.515 47.3118 287.241 45.4907 289.349L44.6113 290.362C37.2067 298.846 27.8744 308.472 15.0475 320.568L14.6884 320.897C9.879 325.195 -2.90063 332.46 -18.8372 339.787C25.144 338.224 56.8577 321.438 76.6072 289.398C77.4763 287.988 79.4167 287.724 80.6317 288.849C114.592 320.302 153.942 334.857 198.832 332.584C243.841 330.305 276.871 318.606 298.022 297.604C299.052 296.581 300.717 296.587 301.74 297.617C302.763 298.647 302.757 300.312 301.727 301.335C279.538 323.368 232.431 339.9 186.234 342.24C141.306 344.514 114.5 326.003 80.2236 295.577L79.3861 294.828L79.0858 295.289C57.3777 328.188 10.2149 352.182 -36.8515 352.522L-38.3264 352.527C-86.4675 352.527 -114.232 329.217 -146.711 297.357L-146.964 297.107L-147.08 297.206C-148.033 298.008 -148.979 298.803 -149.917 299.593C-180.35 325.204 -203.058 344.314 -237.217 349.196L-238.307 349.348C-276.822 357.141 -335.234 336.384 -344.21 326.21C-352.435 316.888 -342.841 322.682 -340.208 324.273C-339.967 324.418 -339.785 324.529 -339.679 324.589C-314.187 339.184 -284.796 344.742 -249.534 339.932C-244.667 339.268 -239.831 338.389 -235.026 337.295L-235.082 336.777C-236.622 322.154 -236.631 315.762 -234.412 308.426C-231.394 298.448 -224.068 290.866 -210.889 284.837L-207.26 283.233C-190.981 276.058 -178.052 270.672 -164.641 265.439L-163.659 265.056C-162.155 264.471 -160.632 263.882 -159.076 263.285L-157.552 262.704C-157.001 262.509 -149.818 259.662 -138.899 255.333L-138.895 255.331L-138.883 255.326L-138.879 255.325L-138.879 255.325C-113.686 245.337 -68.6308 227.475 -39.2361 216.111C-32.876 213.665 -25.1746 212.851 -15.7292 213.339L-14.9154 213.384C-7.83926 213.801 -0.879272 214.761 10.5306 216.735L20.555 218.491C31.7494 220.429 37.1736 221.192 43.5063 221.644C45.496 221.785 47.387 221.961 49.1835 222.128L49.1857 222.128L49.1872 222.129L49.1874 222.129C55.8465 222.748 61.2058 223.246 65.476 221.447C69.2743 219.847 72.9977 218.303 76.6462 216.789L76.6479 216.789L76.6495 216.788C88.5809 211.839 99.711 207.222 110.039 202.088C110.748 197.494 112.557 194.103 115.394 191.869C119.769 188.424 125.962 188.366 131.334 190.455C132.687 190.981 133.357 192.505 132.831 193.858C132.661 194.296 131.567 194.094 130.019 193.809C126.782 193.212 121.561 192.249 118.647 196C115.406 200.173 114.329 206.566 117.2 219.155C119.28 228.277 132.766 243.789 138.462 243.789C144.812 243.789 146.298 237.624 147.14 234.127L147.193 233.908C139.64 234.104 133.901 229.324 130.176 220.151L129.994 219.697C126.163 209.943 127.214 202.124 133.409 196.852C133.522 196.756 133.642 196.67 133.769 196.595L133.963 196.49L155.849 184.926ZM120.89 240.33C120.624 240.008 120.361 239.678 120.101 239.34C120.076 239.313 120.051 239.287 120.027 239.26C120.008 239.239 119.99 239.219 119.971 239.199C119.92 239.141 119.871 239.084 119.826 239.029C119.749 238.936 119.672 238.843 119.594 238.749L119.444 238.568C119.327 238.427 119.209 238.285 119.09 238.142L119.09 238.142L119.089 238.142L119.089 238.141L119.089 238.141L119.089 238.141C117.051 235.694 114.691 232.858 112.843 228.769L112.575 228.173C109.609 221.53 109.255 214.068 109.437 207.915L109.465 207.2L109.308 207.28C97.0551 213.344 83.727 219.427 69.3232 225.53L67.5171 226.293C61.3499 228.891 53.6472 230.726 43.8875 230.095L43.1326 230.044C36.465 229.568 30.8561 228.771 19.0954 226.729L10.3153 225.19C-14.4364 220.905 -26.8225 220.236 -37.0292 224.052C-37.0292 224.052 -189.236 281.308 -208.729 289.632C-220.585 295.055 -224.607 300.158 -229.51 308.426C-232.046 312.703 -231.79 324.501 -231.612 332.696L-231.612 332.698C-231.582 334.072 -231.554 335.344 -231.542 336.463C-202.763 329.265 -175.098 314.302 -148.531 291.541C-147.484 290.644 -145.921 290.708 -144.951 291.689C-142.802 293.862 -140.617 295.961 -138.395 297.987L-28.7894 252.195C-28.489 252.069 -28.1784 252.004 -27.8712 251.992C-27.0455 251.603 -26.1553 251.281 -25.1999 251.027C-15.6426 248.486 -8.01001 252.62 -2.73685 262.795L6.81696 255.826C8.22592 254.799 10.2268 255.402 10.832 257.038C19.5504 280.6 17.0102 296.745 2.65408 304.535C-11.8234 312.39 -24.4134 305.913 -34.2292 286.278C-34.7273 285.281 -34.5317 284.13 -33.8427 283.354C-36.1826 273.849 -36.6167 266.275 -35.0248 260.79L-131.054 304.309C-116.695 315.966 -100.927 324.759 -83.7404 330.689C-83.3471 330.313 -82.9216 329.989 -82.5032 329.76C-68.0266 321.83 -32.3612 312.568 -23.5491 310.279L-23.5489 310.279L-23.5486 310.279L-23.5078 310.269C-23.1883 310.186 -22.9049 310.112 -22.66 310.048L-22.4109 309.983L-22.2683 309.946C-22.1223 309.908 -21.9978 309.875 -21.8957 309.847C-17.7622 308.74 -21.9972 312.602 -23.2451 313.178L-23.4044 313.246L-75.4625 333.293C-59.976 337.703 -43.3934 339.908 -25.7068 339.908C-24.7011 339.908 -23.7016 339.9 -22.7081 339.885L-21.5436 339.128C-10.4112 331.892 8.20767 319.791 11.44 316.742L12.948 315.316C23.6662 304.916 31.6432 294.938 38.6063 286.229C46.246 276.673 52.6651 268.644 60.1451 263.258C65.9611 259.071 68.0688 258.114 73.0221 255.865C74.3473 255.264 75.8762 254.57 77.7342 253.696C90.8733 247.522 105.795 243.947 119.801 240.591L119.801 240.591L120.89 240.33ZM-23.8488 256.109C-16.2757 254.095 -10.6038 257.652 -6.28058 267.583L-6.14447 268.26C-4.54526 276.506 -5.23276 281.121 -7.42236 282.349C-9.48969 283.508 -11.5257 282.379 -14.1592 277.64C-14.7797 276.477 -16.187 275.94 -17.4421 276.435L-17.462 276.443L-29.004 280.997L-29.2926 279.73C-32.4535 265.403 -30.394 257.849 -23.8488 256.109ZM-151.092 375.534C-149.871 374.748 -141.443 370.636 -148.949 378.365C-156.454 386.094 -214.908 418.884 -246.462 420.7C-276.874 422.45 -303.876 409.749 -327.369 393.126L-328.147 392.57L-328.303 392.771C-329.343 394.089 -330.411 395.286 -331.509 396.36L-331.982 396.813C-333.972 398.681 -337.416 400.795 -342.392 403.253C-343.693 403.896 -348.293 404.487 -345.913 402.06C-343.533 399.633 -338.323 396.138 -335.289 394.134C-333.306 392.824 -332.68 391.293 -332.058 389.773C-331.729 388.967 -331.401 388.165 -330.873 387.401C-330.025 386.174 -328.327 385.898 -327.134 386.792C-303.974 404.15 -276.919 413.403 -246.462 411.65C-215.878 409.89 -184.293 396.896 -151.092 375.534ZM28.7882 392.296C29.8553 391.312 29.8553 384.287 28.7882 385.272C16.9754 396.172 -7.75565 405.759 -38.2734 407.515C-68.8295 409.274 -92.8532 404.47 -110.391 393.192C-111.612 392.407 -117.658 390.33 -114.024 393.982C-110.391 397.634 -69.5521 416.685 -37.9713 414.868L-37.0255 414.812C-5.90808 412.913 16.0299 404.069 28.7882 392.296ZM7.21783 262.628L7.05978 262.156L-0.855896 267.931L-0.71048 268.748C0.881439 278.058 -0.204559 284.143 -4.61917 286.801L-4.85056 286.935C-9.4523 289.516 -13.7836 287.693 -17.4051 282.391L-17.5643 282.155L-28.2079 286.454L-27.9621 286.901C-19.8261 301.582 -10.8087 305.666 -0.196594 300.096L0.146301 299.913C10.8039 294.13 13.429 282.327 7.58615 263.773L7.21783 262.628ZM-303.305 48.3757C-303.305 50.4053 -304.956 52.0564 -306.985 52.0564C-309.015 52.0564 -310.666 50.405 -310.666 48.3757C-310.666 46.3461 -309.015 44.6949 -306.985 44.6949C-304.956 44.6949 -303.305 46.3461 -303.305 48.3757Z" fill="#00160A"/>
</g>
</svg>
