<svg width="366" height="674" viewBox="0 0 366 674" fill="none" xmlns="http://www.w3.org/2000/svg">
<g opacity="0.6">
<g opacity="0.5">
<path d="M279.487 499.299C275.32 580.563 210.209 654.205 130.395 670.045C50.5808 685.886 -36.7707 643.753 -75.6611 572.278C-79.9529 564.39 -83.7748 556.117 -87.5963 547.845C-97.4622 526.489 -107.325 505.14 -125.26 490.451C-145.737 473.678 -172.073 469.192 -198.675 464.661C-215.567 461.784 -232.565 458.888 -248.239 452.817C-286.023 438.181 -315.361 403.508 -323.539 363.822C-336.791 299.511 -294.813 233.85 -238.834 199.531C-182.854 165.211 -115.587 155.652 -50.3386 148.287C-25.3787 145.47 -5.10382 126.66 9.37689 106.136C14.9829 98.1906 20.0267 89.8415 25.0667 81.4985C33.0456 68.2909 41.0152 55.0988 51.191 43.5474C94.2794 -5.36538 174.518 -13.6192 229.401 21.552C284.283 56.7232 310.552 129.045 295.957 192.575C293.443 203.517 289.875 214.172 286.306 224.827L286.306 224.829C282.89 235.029 279.474 245.229 276.982 255.683C271.656 278.028 270.64 301.152 270.034 324.115C269.311 351.493 269.141 378.943 271.705 406.211C272.596 415.697 273.819 425.17 275.042 434.642C277.819 456.165 280.596 477.678 279.487 499.299Z" fill="#DFF6E4"/>
<path d="M-50.4293 128.878C-20.5863 114.032 3.16599 88.248 18.1235 58.4605C20.0847 54.5549 21.9433 50.4051 21.8745 46.0352C21.8058 41.6654 19.2632 37.0368 15.0361 35.927C8.9783 34.3366 3.76865 40.1448 -0.00897217 45.1404C-25.9595 79.4578 -63.7304 106.399 -106.352 112.274C-122.721 114.531 -139.341 113.683 -155.843 112.831L-181.619 111.5C-202.379 110.428 -223.428 109.378 -243.749 113.759C-264.07 118.139 -283.926 128.675 -295.087 146.213C-298.64 151.795 -301.301 158.373 -300.318 164.917C-299.311 171.622 -294.544 177.313 -288.803 180.921C-283.062 184.528 -276.391 186.333 -269.781 187.843C-264.941 188.949 -259.998 189.928 -255.046 189.58C-246.949 189.01 -239.602 184.984 -232.453 181.066C-231.976 180.805 -231.501 180.545 -231.026 180.286C-218.531 173.469 -205.584 167.415 -192.08 162.917C-172.387 156.358 -151.681 153.148 -131.025 149.946C-103.199 145.632 -75.4648 141.333 -50.4293 128.878Z" fill="#DFF6E4"/>
<path d="M-205.623 524.395L-205.605 524.396C-204.389 524.444 -203.174 524.493 -201.961 524.556C-182.784 525.553 -163.807 530.255 -146.383 538.325C-139.739 541.402 -133.011 545.253 -129.279 551.552C-124.663 559.347 -119.12 566.593 -112.807 573.089C-110.357 575.609 -107.705 578.074 -104.435 579.362C-101.165 580.649 -97.1266 580.531 -94.4733 578.227C-91.2498 575.427 -91.0408 570.455 -92.0342 566.303C-93.662 559.498 -97.7217 553.568 -101.74 547.84C-114.925 529.044 -128.807 510.251 -147.155 496.449C-165.504 482.648 -189.184 474.291 -211.643 479.059C-219.398 480.705 -227.084 484.06 -232.225 490.095C-237.367 496.129 -239.399 505.211 -235.696 512.22C-232.758 517.781 -226.803 521.203 -220.706 522.745C-215.791 523.987 -210.702 524.191 -205.624 524.395H-205.623Z" fill="#DFF6E4"/>
<path d="M313.085 241.686C307.959 239.753 302.153 242.087 297.814 245.432C289.244 252.039 284.174 262.374 281.867 272.946C279.56 283.518 279.746 294.454 279.944 305.274L281.638 398.235C281.762 405.026 282.064 412.346 286.24 417.703C287.547 419.379 289.336 420.851 291.451 421.067C294.014 421.328 296.385 419.71 298.236 417.918C308.358 408.117 309.687 392.679 310.899 378.608L310.943 378.097C312.723 357.441 315.806 336.898 320.167 316.63C321.393 310.93 322.741 305.194 325.306 299.959C333.348 283.546 331.425 262.711 320.514 248.048C318.54 245.396 316.179 242.852 313.085 241.686Z" fill="#DFF6E4"/>
</g>
<path d="M129.456 367.515C134.865 369.005 139.71 373.51 140.241 379.095C141.267 376.873 143.521 375.268 145.956 375.023L142.421 378.78L146.894 378.869L140.739 382.307C144.555 389.364 143.937 398.068 141.491 405.709C139.994 410.385 137.828 415.07 138.251 419.962C138.666 424.774 142.939 429.69 147.61 428.705L147.843 428.651C153.457 427.232 159.605 428.054 164.65 430.896C171.898 434.979 176.295 442.562 181.277 449.225C185.675 455.107 190.88 460.577 197.386 463.985C203.892 467.392 211.869 468.517 218.647 465.688C222.01 464.284 225.02 461.96 228.589 461.221C232.157 460.481 235.813 462.465 237.124 465.847C237.704 467.343 236.457 472.885 233.281 479.359C233.798 479.211 234.338 479.115 234.904 479.079C251.596 477.995 268.442 474.366 282.806 465.796C287.372 463.072 291.638 459.88 295.872 456.661L298.34 454.78L299.834 453.63C309.126 446.432 318.299 438.408 322.119 427.459L322.319 426.87L322.742 425.576C323.56 423.126 324.596 420.594 326.961 419.833C330.234 418.78 333.215 421.948 335.204 424.753L349.541 444.966C349.91 445.485 350.286 446.022 350.426 446.643C351.048 449.389 346.948 450.777 344.306 449.802C339.501 448.028 335.645 442.744 330.605 443.651C327.061 444.288 324.944 447.719 323.193 450.951L322.75 451.775C312.141 471.639 294.288 487.53 273.328 495.766C267.926 497.889 262.343 499.516 256.77 501.139L245.51 504.419L247.494 504.773C264.294 507.719 282.218 509.517 297.476 502.072C307.633 497.115 315.459 488.582 322.84 479.958L325.519 476.81L326.624 475.496C331.154 470.061 335.459 464.242 336.781 457.355C337.289 454.71 340.627 453.449 343.223 454.165C345.82 454.882 347.796 456.935 349.635 458.904L363.573 473.821C364.671 474.996 365.826 476.294 365.987 477.894C366.148 479.494 364.713 481.305 363.169 480.856L348.055 476.467C346.638 476.055 345.068 475.653 343.733 476.283C342.71 476.767 342.05 477.758 341.464 478.736L325.216 506.175C320.641 513.902 312.162 518.381 303.83 521.732C283.851 529.766 262.172 533.541 240.653 532.732C238.316 532.645 235.976 532.503 233.666 532.139C224.985 530.771 217.146 526.357 209.555 521.893C210.886 526.76 209.7 530.866 201.795 531.178C194.794 531.454 177.644 502.626 172.311 501.131C143.2 492.968 138.42 476.854 129.067 465.847C129.067 465.847 110.167 468.289 97.6893 465.688C68.4392 459.59 48.7822 440.831 41.6956 439.636C34.6089 438.442 29.9358 442.984 27.7474 440.229L27.7474 438.233C28.086 437.684 31.4728 434.52 41.1329 436.575C54.6226 439.445 76.1869 450.279 92.6551 452.303C109.942 454.427 124.587 451.615 124.506 451.143C124.342 450.181 128.687 446.09 125.215 444.025C121.743 441.959 71.3404 421.73 60.3852 404.871L60.2539 404.661C58.3704 401.535 56.9395 393.765 60.7295 397.322L61.7906 395.44C65.872 399.289 79.271 408.086 93.1901 416.759C107.906 425.928 128.687 431.8 129.067 431.543C137.537 425.815 130.025 421.668 128.623 420.45C125.342 417.6 120.986 416.047 118.159 412.746C111.377 404.829 116.221 390.667 108.469 383.697C107.296 382.642 105.874 381.812 105.024 380.483C103.568 378.207 104.284 375.038 106.047 372.99C107.811 370.942 110.39 369.798 112.941 368.907C118.238 367.058 124.046 366.025 129.456 367.515Z" fill="white"/>
<circle cx="134" cy="408" r="2" fill="#FFE352"/>
<ellipse cx="121.806" cy="408" rx="1.48322" ry="2" fill="#FFE352"/>
<path d="M49.3284 417.692C30.7337 412.884 11.1904 411.774 -7.82912 414.447C-6.39068 407.338 -4.58925 400.304 -2.43419 393.379C-8.62279 395.376 -15.929 389.704 -15.5288 383.214C-15.1287 376.723 -7.1811 371.992 -1.28469 374.734C0.740774 370.061 0.869232 364.597 -0.93436 359.833C-1.79969 357.548 1.64909 356.229 4.09291 356.229L17.595 356.226C19.4824 356.225 22.114 355.349 21.6451 353.52C20.5332 349.185 23.5144 344.232 27.8656 343.184C32.1378 342.156 36.9473 345.081 38.051 349.321L38.1084 349.557C39.1333 354.11 44.9009 355.556 49.567 355.467L51.8897 355.411C55.9256 355.326 60.1315 355.457 62.8328 358.28C66.0635 361.656 65.3414 367.033 64.2767 371.617L64.2052 371.921C62.6965 378.283 61.0878 384.622 59.3799 390.934C62.6965 417.626 54.4832 419.025 49.3284 417.692Z" fill="white"/>
<path d="M23.4843 269.607L63.2953 270.408L63.9458 270.423C65.1413 270.461 66.3459 270.566 67.4225 271.068C69.8561 272.204 70.9717 275.004 71.7118 277.586C75.6619 291.366 75.1743 306.382 70.3384 319.877L70.1351 320.429C69.5057 322.09 68.6827 323.745 67.1964 324.679C65.9729 325.448 64.4816 325.609 63.0308 325.686L62.7207 325.702C56.8008 325.983 50.8605 325.831 44.9626 325.249C48.0342 323.358 48.8097 318.755 46.8594 315.721C44.9091 312.687 40.7882 311.42 37.3186 312.405C35.2036 313.006 33.2339 314.451 32.4685 316.512C31.703 318.573 32.4429 321.22 34.3977 322.227C35.7496 322.923 35.5166 325.115 34.3329 326.069C33.1493 327.024 31.5041 327.092 29.9838 327.116L10.0098 327.44C8.50851 327.465 6.92996 327.471 5.61191 326.752C3.74279 325.732 2.88325 323.535 2.35662 321.472C1.08594 316.494 0.914186 311.238 1.85713 306.188C2.99256 310.176 7.90785 312.599 11.7625 311.069C15.6171 309.54 17.5346 304.407 15.6267 300.725C13.7188 297.043 8.41926 295.649 4.947 297.916L4.80258 296.629C4.30425 292.119 3.91721 287.549 4.78348 283.107C5.73226 278.241 8.43862 273.462 12.8756 271.251C16.1116 269.638 19.8484 269.549 23.4843 269.607Z" fill="white"/>
<path fill-rule="evenodd" clip-rule="evenodd" d="M308.836 121.355C313.088 121.863 317.042 122.335 317.042 117.38C317.042 116.2 302.731 105.842 298.491 109.831C293.038 114.961 288.707 120.843 284.512 126.541C275.706 138.502 267.499 149.65 250.765 151.311L250.563 151.333C244.077 152.116 256.162 157.874 269.734 151.311C279.065 146.798 291.48 132.523 297.377 125.742C298.92 123.968 300.017 122.706 300.496 122.268L300.619 122.163C302.628 120.613 305.808 120.993 308.836 121.355ZM329.024 134.767L343.183 146.006C345.941 148.196 342.711 152.915 339.197 153.141C337.157 153.272 335.202 152.644 333.236 152.014C331.814 151.557 330.386 151.099 328.918 150.926C320.603 149.943 314.263 157.774 309.105 164.369C304.392 170.396 299.23 176.074 293.677 181.338L292.926 182.044L292.144 182.764C287.678 186.825 282.668 190.503 276.776 191.562C268.099 193.123 259.481 188.68 252.394 183.438C250.665 182.158 248.967 180.816 247.267 179.473C242.004 175.314 236.732 171.147 230.49 168.812C225.081 171.763 220.019 175.33 215.396 179.399L215.602 179.236C223.363 187.015 228.79 197.094 231.013 207.856L229.528 207.595L228.548 207.428C219.377 205.89 209.555 204.98 201.805 209.888C199.074 211.617 196.638 214.033 194.229 216.421C192.552 218.083 190.889 219.733 189.148 221.129C189.59 221.391 190.042 221.664 190.505 221.948C199.082 225.456 208.172 227.703 217.395 228.594C218.805 228.73 220.23 228.838 221.658 228.947C228.274 229.449 234.974 229.958 240.628 233.279L242.611 234.465C245.793 236.348 249.335 238.141 252.001 235.96C252.768 235.333 253.269 234.473 253.773 233.609L253.773 233.609C254.08 233.083 254.387 232.556 254.756 232.079C255.73 230.818 257.662 229.931 258.873 230.966L259.364 234.82C259.721 232.341 262.113 230.326 264.616 230.395C267.119 230.465 269.396 232.61 269.614 235.105C270.01 239.634 264.875 242.344 260.517 243.786L237.928 251.066C229.857 253.666 220.909 252.319 213.128 248.947C205.884 245.808 199.493 241.03 193.385 236.009L192.032 234.889C187.419 231.051 181.185 226.882 175.952 229.817C185.045 230.37 191.677 238.206 197.1 245.617L197.621 246.333C198.499 247.543 199.403 248.817 199.62 250.297C200.227 254.438 195.523 257.187 191.549 258.504C194.897 260.297 193.238 265.505 190.644 268.279C186.869 272.315 181.926 275.22 176.594 276.658L176.107 278.343C176.076 278.456 176.062 278.515 176.065 278.517C178.58 278.342 180.131 281.721 179.106 284.024C178.082 286.328 175.553 287.554 173.127 288.24C165.133 290.5 156.104 288.717 149.569 283.588L148.299 284.25C142.778 287.107 137.067 289.764 130.931 290.665C124.323 291.635 117.049 290.273 112.272 285.606L112.587 286.293C113.262 287.791 113.869 289.341 113.891 290.974C113.915 292.857 112.941 294.891 111.157 295.495C108.213 296.493 105.641 293.346 104.113 290.639C103.276 292.723 104.139 295.068 104.978 297.349C105.936 299.95 106.862 302.467 105.198 304.415C103.465 306.443 100.177 305.924 97.7917 304.727C88.8574 300.246 84.66 288.966 86.5954 279.16C88.5309 269.353 95.5818 261.141 103.978 255.718C98.2776 251.54 94.1077 245.319 92.4087 238.459C92.8613 239.043 94.8823 237.164 97.7532 234.496L97.7533 234.496C103.005 229.614 111.101 222.09 117.642 222.16C118.895 222.173 120.919 223.143 122.9 224.092L122.901 224.092L122.901 224.092C124.336 224.78 125.749 225.457 126.833 225.754C126.923 225.638 127.032 225.533 127.157 225.442L125.92 224.553C123.43 222.784 120.831 221.121 117.883 220.388C114.444 219.533 110.372 220.237 108.181 223.022C102.823 229.832 96.0352 235.512 88.3865 239.585L92.9205 247.956C91.0466 248.851 88.7123 248.687 86.9728 247.558L86.759 247.413L86.8932 247.58C89.5045 250.986 87.2097 256.925 82.9352 257.598C78.5966 259.419 74.2216 253.981 74.649 249.296C74.9484 246.012 76.5749 243.102 78.2047 240.187C78.9003 238.942 79.5965 237.697 80.1903 236.421C82.1962 232.111 83.0782 227.323 83.9545 222.565C85.1557 216.044 86.3464 209.581 90.4062 204.484C93.2496 200.914 97.2318 198.432 101.316 196.396C117.527 188.316 136.71 186.384 154.206 191.069C157.186 180.393 163.093 170.549 171.113 162.898L171.591 162.449C174.659 159.623 178.475 157.097 182.545 157.561L182.867 157.604C186.907 158.22 190.42 155.102 193.357 152.216L194.263 151.327L194.972 150.643C200.801 145.077 207.567 139.939 215.53 139.385C222.614 138.892 229.395 142.144 235.509 145.755C242.427 149.841 249.008 154.498 255.162 159.662L256.243 160.579L256.56 160.85L256.912 161.153L257.114 161.326C262.917 166.311 269.268 171.766 276.823 171.314C284.568 170.85 290.227 164.421 295.441 158.496L295.442 158.494L295.445 158.492C295.865 158.014 296.283 157.539 296.699 157.071C303.131 149.831 310.455 143.457 317.868 137.213L321.048 134.543C322.01 133.736 323.046 132.896 324.291 132.734C326.043 132.507 327.64 133.669 329.024 134.767ZM189.029 257.499C187.456 257.185 185.308 257.322 182.587 257.909C184.379 257.916 185.887 257.884 187.112 257.813C187.705 257.74 188.295 257.648 188.875 257.531L189.029 257.499ZM130.726 222.831C131.3 222.241 131.906 221.62 132.578 221.088C133.828 220.429 135.236 220.095 136.653 220.229C141.45 220.685 145.082 225.787 144.455 230.564C141.923 236.838 135.657 240.419 129.459 243.96L129.459 243.96C125.641 246.141 121.849 248.308 118.973 251.08C119.695 249.889 120.485 248.939 121.286 248.356C123.788 246.535 126.403 244.957 128.868 243.47L128.869 243.469C130.941 242.219 132.907 241.033 134.609 239.821C137.288 237.914 139.087 236.101 140.481 234.696L140.481 234.696L140.481 234.696L140.481 234.696L140.482 234.696C141.547 233.622 142.377 232.787 143.181 232.33C143.247 232.292 146.27 226.165 138.963 222.16C133.445 219.136 130.987 222.961 129.666 225.017C129.237 225.684 128.928 226.165 128.673 226.165C128.607 226.165 128.515 226.155 128.399 226.134C128.582 225.482 128.859 224.852 129.215 224.263C129.709 223.873 130.205 223.365 130.726 222.831ZM132.285 221.25C131.031 221.977 129.954 223.033 129.215 224.263L129.033 224.4C128.669 224.665 128.304 224.859 127.927 224.948C127.168 225.127 125.36 223.74 123.828 222.565C122.912 221.862 122.095 221.235 121.66 221.065C118.796 219.941 118.46 219.926 116.474 219.831C116.138 219.815 115.756 219.797 115.306 219.771L114.482 219.72C114.302 219.709 114.103 219.701 113.891 219.692L113.891 219.692L113.89 219.692C112.244 219.623 109.875 219.523 110.348 218.243C118.81 195.341 154.965 190.357 148.987 216.246C148.493 218.387 147.195 220.26 145.897 222.134C145.248 223.071 144.599 224.008 144.051 224.978C141.715 221.658 139.169 219.908 136.414 219.728C134.878 219.627 133.645 220.244 132.578 221.088L132.285 221.25ZM197.867 200.704L197.875 200.691C195.885 204.473 193.748 209.026 191.465 214.349C193.182 209.619 195.333 205.051 197.867 200.704ZM213.987 204.192L213.71 204.203C211.504 204.295 209.525 204.625 207.773 205.193C205.83 205.823 203.761 206.876 201.568 208.352C205.406 206.227 209.646 204.805 213.987 204.192Z" fill="white"/>
<path fill-rule="evenodd" clip-rule="evenodd" d="M101.175 300.113C99.4422 302.141 96.93 301.487 94.6281 299.243C89.8113 294.547 87.8759 285.487 89.8113 275.681C91.7468 265.874 99.2905 261.834 107.687 256.411C103.919 254.859 97.0937 245.02 96.4085 235.459C98.7308 238.455 98.8532 243.834 101.175 246.83C103.379 249.674 107.783 253.136 109.987 255.979C110.268 256.342 110.511 256.952 110.111 257.179C102.062 261.751 96.8463 263.264 92.0989 275.68C87.3515 288.096 96.9902 299.581 98.2709 299.243C99.8485 298.826 99.2894 296.733 98.3833 295.376C95.8272 291.547 98.2587 286.443 100.342 282.338C101.456 283.587 98.7783 287.17 99.3424 290.895C99.8934 294.532 102.719 298.306 101.175 300.113Z" fill="#252525"/>
<circle cx="134" cy="259" r="2" fill="#FFE352"/>
<circle cx="127" cy="251" r="2" fill="#FFE352"/>
<path fill-rule="evenodd" clip-rule="evenodd" d="M-159.982 192.793C-160.946 202.21 -157.421 211.989 -150.67 218.625C-148.263 217.172 -146.723 214.385 -146.777 211.574C-144.247 215.733 -145.664 221.374 -148.81 225.09C-151.956 228.805 -156.469 231.033 -160.849 233.159C-163.358 234.377 -165.963 235.62 -168.752 235.703C-173.006 235.831 -176.817 233.272 -180.295 230.82L-190.5 223.625C-185.227 233.463 -173.227 239.192 -162.261 237.105C-154.636 247.803 -149.967 260.585 -148.902 273.679L-150.952 269.892C-150.971 269.845 -150.995 269.799 -151.026 269.754L-150.952 269.892C-150.657 270.618 -151.809 271.421 -152.585 271.046C-153.41 270.646 -153.721 269.653 -153.965 268.769C-156.967 257.883 -162.347 247.66 -169.62 239.021L-158.608 262.352C-156.254 267.338 -153.734 272.532 -149.299 275.807C-145.462 272.325 -146.777 266.084 -148.6 261.234C-151.999 252.19 -156.12 243.417 -160.911 235.027C-159.882 233.11 -157.628 232.495 -155.449 231.9L-155.448 231.899L-155.448 231.899L-155.448 231.899L-155.448 231.899L-155.447 231.899C-154.944 231.762 -154.444 231.625 -153.964 231.474C-149.162 229.96 -145.24 225.914 -143.874 221.068C-142.508 216.222 -143.741 210.724 -147.045 206.925C-147.804 210.011 -148.96 212.999 -150.474 215.792C-155.001 210.114 -157.629 202.947 -157.848 195.689C-157.952 192.234 -158.304 187.668 -161.681 186.932C-161.135 190.951 -163.826 195.166 -167.701 196.362C-171.576 197.558 -176.175 195.592 -177.988 191.964C-182.855 182.227 -187.818 172.366 -195.093 164.269C-202.368 156.172 -212.363 149.915 -223.241 149.51C-235.018 149.071 -246.144 155.518 -254.405 163.923C-251.471 157.445 -252.078 149.488 -255.959 143.528C-259.841 137.569 -266.874 133.798 -273.986 133.863C-275.79 133.88 -277.691 134.09 -279.598 134.302C-285.039 134.905 -290.519 135.513 -293.886 131.615C-296.263 128.863 -296.308 125.131 -296.353 121.366C-296.373 119.624 -296.394 117.876 -296.646 116.213C-297.622 109.758 -302.496 104.25 -308.498 101.681C-314.499 99.1108 -321.442 99.2606 -327.668 101.225C-329.549 101.818 -331.467 102.633 -332.691 104.179C-335.476 107.696 -333.257 113.118 -329.761 115.928C-327.922 117.407 -325.807 118.471 -323.69 119.536C-321.785 120.495 -319.879 121.455 -318.171 122.718C-314.564 125.384 -311.928 130.489 -314.266 134.316C-317.757 140.031 -312.341 147.723 -305.866 149.43C-300.512 150.84 -294.957 149.632 -289.48 148.441C-288.331 148.191 -287.186 147.942 -286.047 147.718C-279.476 146.426 -271.843 146.266 -267.006 150.898C-261.171 156.486 -262.305 165.934 -263.88 173.859C-264.07 174.817 -264.301 175.846 -265.034 176.491C-265.683 177.06 -266.589 177.205 -267.444 177.327L-300.076 181.998C-302.573 182.356 -303.42 185.966 -301.953 188.018C-300.486 190.07 -297.739 190.748 -295.218 190.827C-291.364 190.949 -287.602 190.038 -283.834 189.126C-281.922 188.663 -280.009 188.199 -278.081 187.87C-272.351 186.892 -265.7 187.43 -261.885 191.815C-255.75 198.866 -244.106 200.248 -236.491 194.828C-230.606 205.356 -220.365 212.057 -210.078 218.787C-200.816 224.847 -191.517 230.931 -185.328 239.855C-178.506 249.691 -176.245 261.886 -174.149 273.671C-171.701 273.636 -169.883 270.55 -171.039 268.392L-173.339 271.426C-174.189 252.852 -183.676 234.85 -198.518 223.649C-202.193 220.876 -206.224 218.444 -210.246 216.018C-219.084 210.686 -227.88 205.38 -232.773 196.524C-233.214 195.727 -233.624 194.882 -233.696 193.974C-233.786 192.824 -233.328 191.716 -232.886 190.647L-232.823 190.494C-231.059 186.215 -229.826 181.519 -230.693 176.972C-231.559 172.426 -234.982 168.126 -239.56 167.442C-231.811 172.398 -230.223 184.698 -236.458 191.461C-242.694 198.223 -255.082 197.635 -260.649 190.313C-265.111 184.445 -274.033 185.163 -281.214 186.828C-288.395 188.492 -296.852 190.234 -302.4 185.379C-290.531 182.116 -278.318 180.106 -266.029 179.395C-263.102 179.226 -261.954 175.574 -261.559 172.668C-260.953 168.202 -260.347 163.663 -261.011 159.204C-261.675 154.746 -263.794 150.298 -267.578 147.848C-272.121 144.905 -277.986 145.361 -283.37 145.924L-297.677 147.421C-300.76 147.744 -303.928 148.06 -306.917 147.239C-309.906 146.418 -312.718 144.19 -313.291 141.144C-313.653 139.22 -313.102 137.325 -312.547 135.415C-312.147 134.04 -311.745 132.657 -311.68 131.249C-311.493 127.241 -314.083 123.568 -317.229 121.077C-319.157 119.552 -321.305 118.351 -323.456 117.149C-324.815 116.389 -326.175 115.629 -327.481 114.786C-329.939 113.199 -332.46 110.636 -331.777 107.791C-331.34 105.972 -329.694 104.711 -328.039 103.838C-322.451 100.893 -315.466 100.76 -309.771 103.492C-304.075 106.224 -299.806 111.753 -298.605 117.955C-298.309 119.485 -298.175 121.082 -298.04 122.677C-297.73 126.366 -297.42 130.037 -295.116 132.808C-292.363 136.119 -287.605 136.953 -283.304 136.748C-281.83 136.677 -280.355 136.512 -278.882 136.347C-276.059 136.031 -273.24 135.715 -270.432 136.069C-260.993 137.258 -253.556 147.079 -254.971 156.487C-255.049 157.007 -255.15 157.532 -255.251 158.058C-255.611 159.935 -255.975 161.83 -255.334 163.593C-254.513 165.85 -250.923 167.052 -249.785 164.937C-244.688 155.458 -232.996 150.683 -222.307 151.935C-211.618 153.186 -202.052 159.623 -195.034 167.782C-188.017 175.942 -183.243 185.76 -178.889 195.603C-177.355 199.069 -172.789 200.325 -169.142 199.293C-165.494 198.262 -162.599 195.535 -159.982 192.793ZM-179.137 209.313C-179.033 209.298 -178.793 209.769 -178.43 210.479C-177.538 212.225 -175.906 215.419 -173.755 216.39C-173.851 217.295 -175.274 216.811 -175.866 216.119C-177.548 214.154 -179.333 211.892 -179.137 209.313ZM-174.059 224.827C-172.948 226.454 -179.599 227.264 -181.809 225.844C-181.42 225.769 -180.907 225.809 -180.339 225.854C-179.665 225.906 -178.914 225.964 -178.2 225.844C-177.155 225.669 -176.146 225.348 -175.384 225.105C-174.645 224.87 -174.139 224.709 -174.059 224.827ZM-175.655 218.78C-178.302 219.233 -181.555 215.708 -181.555 212.391C-180.792 214.843 -178.081 216.788 -176.583 217.863C-175.821 218.41 -175.373 218.731 -175.655 218.78ZM-166.17 232.646C-169.696 232.646 -171.294 226.701 -169.696 226.319C-169.314 226.145 -169.296 226.678 -169.269 227.464C-169.241 228.291 -169.204 229.399 -168.723 230.261C-168.189 231.219 -167.058 231.86 -166.398 232.234C-165.899 232.516 -165.669 232.646 -166.17 232.646ZM-162.242 224.551C-161.468 224.977 -160.762 225.638 -160.561 226.499C-160.361 227.36 -160.842 228.403 -161.708 228.583C-161.979 228.184 -161.832 227.931 -161.677 227.664C-161.449 227.272 -161.204 226.85 -162.242 225.893C-162.679 225.491 -163.188 225.316 -163.545 225.193C-163.819 225.098 -164.004 225.035 -163.997 224.922C-163.952 224.207 -162.87 224.205 -162.242 224.551ZM-168.842 216.803C-169.016 216.924 -169.136 217.008 -169.033 217.103C-168.715 217.399 -168.34 217.541 -167.965 217.326C-167.68 217.162 -167.535 216.829 -167.467 216.507C-167.091 214.705 -168.993 212.845 -170.786 213.261C-170.627 213.68 -170.322 213.815 -169.953 213.977C-169.526 214.165 -169.013 214.392 -168.536 215.138C-167.894 216.144 -168.483 216.553 -168.842 216.803ZM-169.445 233.784C-171.521 233.179 -173.574 228.276 -172.469 227.905C-171.779 227.673 -171.783 227.71 -171.823 228.098C-171.86 228.453 -171.927 229.103 -171.521 230.109C-171.016 231.358 -170.31 232.373 -169.86 233.018C-169.552 233.461 -169.364 233.73 -169.445 233.784ZM306.077 122.468C301.62 123.015 298.107 126.61 295.892 130.516C294.82 132.405 293.963 134.404 293.106 136.403C292.191 138.537 291.275 140.672 290.1 142.671C284.491 152.209 273.835 157.423 263.623 161.684C261.862 162.418 258.778 162.073 259.327 160.246C276.046 157.073 290.44 143.836 294.997 127.44C295.534 125.508 293.022 123.878 291.083 124.389C289.329 124.851 288.08 126.314 286.953 127.765L286.601 128.222C277.288 140.335 263.919 150.576 248.654 151.237C247.574 151.284 246.028 150.625 246.503 149.653C257.809 149.274 268.467 143.694 276.862 136.112C285.258 128.529 291.659 119.026 297.648 109.429C298.575 107.944 300.799 108.262 302.455 108.826C307.537 110.559 312.412 112.897 316.945 115.774C319.379 117.318 317.451 121.44 314.684 122.248C313.094 122.712 311.434 122.599 309.766 122.486C308.532 122.402 307.294 122.318 306.077 122.468ZM301.735 113.016L301.344 112.897C300.155 112.556 298.827 112.367 297.87 113.105C297.499 113.391 297.233 113.786 296.989 114.189L293.807 119.555C295.478 119.941 297.078 120.625 298.512 121.565C299.683 122.334 301.296 122.363 302.495 121.638C303.693 120.913 304.416 119.471 304.279 118.077C304.228 117.557 305.08 117.415 305.436 117.798C305.702 118.084 305.781 118.476 305.861 118.866C305.887 118.998 305.914 119.13 305.948 119.258C306.082 119.763 306.494 120.307 307.006 120.203C307.525 119.71 307.809 118.979 307.759 118.264C307.945 117.527 309.095 118.184 309.273 118.924C309.451 119.663 309.785 120.714 310.519 120.516C311.598 120.25 311.938 118.747 311.412 117.767C310.886 116.788 309.828 116.234 308.819 115.767C306.519 114.701 304.152 113.781 301.735 113.016ZM292.064 121.738C293.725 123.409 296.143 124.299 298.491 124.103C297.051 122.29 294.603 121.343 292.318 121.693L292.064 121.738ZM173.127 288.24C165.133 290.5 156.104 288.717 149.569 283.587C143.654 286.688 137.539 289.695 130.931 290.665C124.323 291.635 117.049 290.273 112.272 285.606C113.061 287.316 113.866 289.09 113.891 290.974C113.915 292.857 112.941 294.891 111.157 295.495C108.213 296.492 105.641 293.346 104.113 290.639C103.276 292.723 104.139 295.068 104.978 297.348C105.936 299.95 106.862 302.466 105.198 304.414C103.465 306.443 100.177 305.924 97.7917 304.727C88.8574 300.246 84.66 288.966 86.5955 279.159C88.5309 269.353 95.5818 261.141 103.978 255.718C98.2776 251.54 94.1077 245.319 92.4088 238.458C93.5698 239.957 94.4309 241.697 95.2921 243.438L95.2922 243.438C96.1534 245.179 97.0146 246.919 98.1757 248.418C99.2776 249.839 100.679 251.019 102.081 252.198L102.082 252.198C103.483 253.378 104.885 254.557 105.987 255.979C106.268 256.342 106.511 256.952 106.112 257.179C98.0624 261.751 91.1774 269.036 88.8933 278.006C86.6092 286.977 89.7872 297.566 97.6699 302.419C99.0593 303.275 100.716 303.961 102.293 303.545C103.871 303.128 105.054 301.148 104.148 299.791C101.592 295.962 101.281 290.745 103.365 286.64L109.97 294.046C111.489 293.656 111.864 291.613 111.46 290.098C111.332 289.618 111.157 289.144 110.982 288.671L110.981 288.67C110.604 287.65 110.228 286.635 110.329 285.569C110.477 284.008 112.515 282.611 113.591 283.752C117.887 288.304 124.788 289.596 130.966 288.594C137.145 287.591 142.804 284.626 148.339 281.703L154.872 278.253C154.4 280.138 152.873 281.72 151.006 282.257C157.312 286.787 165.744 288.21 173.188 286.001C174.47 285.621 175.786 285.094 176.618 284.047C177.449 282.999 177.584 281.295 176.579 280.412C176.457 280.304 176.32 280.21 176.183 280.115C175.914 279.93 175.647 279.745 175.494 279.463C175.262 279.037 175.621 278.322 176.065 278.517C178.58 278.342 180.131 281.721 179.106 284.024C178.082 286.327 175.553 287.554 173.127 288.24ZM128.497 254.805C127.061 254.344 125.449 255.334 124.825 256.708C124.201 258.081 124.378 259.695 124.85 261.128C125 259.512 125.206 258.293 125.818 257.231C126.081 256.773 126.898 256.341 127.616 255.961C128.544 255.47 129.307 255.066 128.497 254.805ZM127.279 250.745C129.374 250.223 131.741 251.029 133.081 252.722C134.421 254.415 134.663 256.903 133.675 258.823C133.437 258.536 133.381 258.016 133.311 257.364C133.103 255.438 132.771 252.36 127.279 250.745ZM125.462 265.626C124.799 266.454 127.108 268.64 130.719 267.132C131.388 266.853 130.842 266.821 129.982 266.771C129.197 266.725 128.151 266.663 127.527 266.385C126.999 266.15 126.729 265.772 126.526 265.49C126.226 265.072 126.075 264.862 125.462 265.626ZM132.779 268.394C135.093 267.241 133.641 270.622 128.8 270.207C128.364 270.17 127.793 270.001 127.797 269.561C127.799 269.407 128.208 269.371 128.845 269.316C129.834 269.23 131.371 269.096 132.779 268.394ZM118.501 261.978C119.372 262.829 120.64 262.851 121.486 262.688C122.001 262.589 122.254 262.128 121.781 261.978C121.671 261.944 121.488 261.915 121.268 261.88C120.765 261.801 120.07 261.691 119.604 261.41C119.305 261.23 119.135 260.614 118.988 260.086C118.838 259.543 118.713 259.093 118.501 259.304C118.083 259.72 117.63 261.128 118.501 261.978ZM119.274 264.856C119.695 265.497 118.09 265.277 117.745 264.856C117.399 264.435 117.059 262.851 117.638 262.851C117.805 262.851 117.863 263.101 117.931 263.4C117.995 263.676 118.068 263.994 118.246 264.196C118.593 264.589 118.825 264.647 118.995 264.69C119.111 264.719 119.198 264.741 119.274 264.856ZM191.493 261.671C192.358 263.4 190.844 265.339 189.384 266.607C183.447 271.761 176.353 275.573 168.779 277.679C176.942 277.734 185.068 274.241 190.643 268.279C193.238 265.505 194.897 260.297 191.549 258.504C195.523 257.187 200.227 254.438 199.62 250.296C199.403 248.817 198.499 247.543 197.621 246.333L197.1 245.617C191.677 238.206 185.045 230.37 175.952 229.817C181.185 226.882 187.419 231.051 192.032 234.889L193.385 236.009C199.493 241.03 205.884 245.808 213.128 248.947C220.909 252.319 229.857 253.666 237.928 251.065L260.517 243.786C264.875 242.344 270.01 239.633 269.614 235.105C269.396 232.61 267.119 230.465 264.616 230.395C262.113 230.326 259.721 232.341 259.364 234.82L258.873 230.966C257.662 229.931 255.73 230.818 254.756 232.079C254.387 232.556 254.08 233.083 253.773 233.609C253.269 234.473 252.768 235.333 252.001 235.96C249.335 238.141 245.793 236.348 242.611 234.464L240.628 233.279C234.974 229.958 228.274 229.449 221.658 228.946C220.23 228.838 218.805 228.73 217.395 228.594C208.172 227.703 199.082 225.456 190.505 221.948C198.37 228.397 208.646 229.48 219.012 230.572C224.236 231.122 229.482 231.675 234.454 232.918C238.398 233.904 242.757 235.914 243.725 239.862C245.13 245.595 238.32 250.036 232.441 250.573C222.827 251.45 213.459 247.361 205.297 242.143L204.378 241.548C201.424 239.609 198.561 237.523 195.7 235.437L195.699 235.437L195.698 235.436C190.447 231.61 185.201 227.787 179.405 224.881C185.392 225.183 189.763 220.848 194.229 216.42C196.638 214.032 199.074 211.617 201.805 209.888C209.832 204.805 220.081 205.962 229.528 207.595L231.013 207.856C228.79 197.094 223.363 187.015 215.602 179.236L228.939 205.456C214.897 200.778 198.057 206.623 189.934 218.996C196.204 197.838 211.119 179.382 230.49 168.812C236.732 171.147 242.004 175.314 247.267 179.473L247.268 179.474L247.269 179.474C248.968 180.817 250.665 182.158 252.394 183.438C259.481 188.68 268.099 193.123 276.776 191.562C283.015 190.44 288.264 186.383 292.927 182.044L293.677 181.338C299.23 176.073 304.392 170.396 309.105 164.369C314.263 157.773 320.603 149.942 328.918 150.925C330.386 151.099 331.814 151.557 333.236 152.013C335.202 152.644 337.157 153.272 339.197 153.141C342.711 152.914 345.942 148.196 343.183 146.006L329.024 134.767C327.64 133.669 326.043 132.507 324.291 132.734C323.046 132.896 322.01 133.736 321.048 134.542L317.868 137.213C310.455 143.456 303.131 149.831 296.699 157.071C296.282 157.54 295.863 158.016 295.441 158.496C290.227 164.421 284.568 170.85 276.823 171.314C269.268 171.766 262.917 166.311 257.114 161.326C256.822 161.075 256.532 160.826 256.243 160.579L255.162 159.662C249.008 154.497 242.427 149.841 235.509 145.755C229.395 142.144 222.614 138.892 215.53 139.385C207.242 139.962 200.251 145.504 194.263 151.327L193.357 152.216C190.42 155.102 186.907 158.22 182.867 157.604L182.545 157.561C178.475 157.097 174.659 159.623 171.591 162.449L171.113 162.898C163.093 170.549 157.186 180.393 154.206 191.069C136.71 186.384 117.527 188.316 101.316 196.396C97.2318 198.432 93.2496 200.914 90.4062 204.484C86.3464 209.581 85.1557 216.044 83.9545 222.565L83.9544 222.566C83.0781 227.323 82.1961 232.111 80.1903 236.421C79.5965 237.697 78.9003 238.942 78.2047 240.187C76.5749 243.102 74.9484 246.012 74.649 249.296C74.2216 253.981 78.5966 259.418 82.9352 257.598C87.2809 256.913 89.5805 250.787 86.7585 247.412C88.517 248.672 90.9685 248.888 92.9205 247.956L88.3865 239.585C96.0352 235.512 102.823 229.832 108.181 223.022C110.372 220.236 114.444 219.533 117.883 220.388C120.831 221.121 123.43 222.784 125.92 224.552L127.158 225.441C125.715 226.49 126.546 229.279 128.327 229.367C127.178 224.688 131.857 219.774 136.653 220.229C141.45 220.685 145.082 225.786 144.455 230.564C141.923 236.839 135.656 240.419 129.458 243.96C122.733 247.802 116.09 251.598 114.385 258.739C112.668 265.933 118.216 273.991 125.55 274.953C132.883 275.914 140.322 269.561 140.518 262.167C140.518 262.167 141.603 262.278 141.987 261.128C142.593 259.314 143.166 257.305 143.734 255.315C144.802 251.571 145.852 247.892 147.065 245.694C150.465 239.53 156.793 234.65 163.83 234.48C166.065 234.426 168.286 234.094 170.504 233.763C173.338 233.34 176.168 232.918 179.019 233.075C184.103 233.355 189.677 236.332 190.41 241.371C184.772 240.276 178.889 240.461 173.331 241.907L193.008 244.248C197.33 244.762 198.138 251.452 195.058 254.526C192.155 257.425 187.731 257.902 183.59 258.086L182.84 258.117C183.564 259.593 185.363 259.746 187.164 259.899C188.961 260.051 190.759 260.204 191.493 261.671ZM296.167 175.683C290.066 182.456 282.935 189.735 273.825 190.075C265.86 190.372 258.893 185.238 252.448 180.49L251.972 180.14L250.433 179.016C243.233 173.793 235.776 168.925 228.097 164.435C222.151 160.958 215.312 157.599 208.643 159.324L219.201 162.646C217.42 163.601 216.786 166.199 217.926 167.867C218.171 165.37 221.059 163.783 223.537 164.173C226.016 164.563 228.032 166.383 229.567 168.367C216.257 173.471 204.934 183.575 198.352 196.219C197.128 198.571 196.064 201.003 194.999 203.435C193.557 206.73 192.115 210.024 190.279 213.112C187.087 218.479 182.362 223.362 176.282 224.784C175.43 224.983 174.557 225.114 173.685 225.244C171.938 225.506 170.195 225.767 168.64 226.577C168.504 226.648 168.364 226.722 168.221 226.798L168.099 226.863C166.274 227.838 164.023 229.04 162.898 227.455C161.055 224.859 158.117 223.067 154.965 222.618C160.176 205.108 173.585 190.227 190.46 183.227C191.415 182.831 191.049 181.402 190.528 180.509L182.852 167.375C182.143 166.162 182.973 164.512 184.222 163.868C185.471 163.225 186.96 163.322 188.354 163.495C197.233 164.601 205.782 168.244 212.728 173.883C213.839 174.785 215.66 175.671 216.473 174.493C208.548 166.5 197.212 162.795 186.057 161.301C195.7 160.359 205.672 163.396 213.153 169.553L213.517 169.851C215.304 171.302 217.467 172.844 219.528 171.955C211.174 163.941 199.749 159.211 188.175 158.975C190.557 157.203 192.781 155.235 195.005 153.266L195.006 153.265L195.007 153.264C197.266 151.264 199.525 149.264 201.949 147.472C206.761 143.914 212.512 141.136 218.486 141.485C222.823 141.739 226.889 143.61 230.726 145.647C238.837 149.954 246.474 155.152 253.455 161.118C253.938 161.53 254.423 161.948 254.911 162.369L254.948 162.401C261.583 168.119 268.822 174.357 277.398 173.551C282.628 173.059 287.261 169.9 290.942 166.153C292.978 164.08 294.793 161.809 296.61 159.538L296.611 159.536C298.077 157.703 299.544 155.869 301.127 154.138C303.412 151.64 306.057 149.292 309.305 148.338C312.552 147.385 316.51 148.174 318.439 150.955L296.167 175.683ZM85.9968 222.07C87.1731 215.634 88.3362 209.27 92.6855 204.585C94.8155 202.29 97.5403 200.638 100.314 199.187C114.506 191.764 131.056 188.939 146.906 191.233C150.785 191.794 155.591 193.97 155.528 197.653C155.505 197.878 155.483 198.103 155.463 198.329C155.503 198.098 155.524 197.873 155.528 197.653C157.108 182.254 166.078 167.768 179.181 159.518C180.343 167.621 183.893 175.367 189.273 181.537C175.015 187.543 163.177 199.09 156.817 213.193L156.716 213.416C154.91 217.37 152.045 222.225 147.862 221.24L149.933 208.444C150.123 207.271 150.299 206 149.742 204.95C149.121 203.778 147.793 203.237 146.499 202.847L146.044 202.715C138.547 200.592 130.136 198.555 123.289 202.274C119.667 204.241 117.067 207.538 114.636 210.924L112.831 213.459C108.546 219.442 103.749 225.057 98.5087 230.224C96.3983 232.305 94.1166 234.373 91.2914 235.269C88.466 236.164 84.9552 235.562 83.2784 233.118C84.6161 229.625 85.3087 225.835 85.9968 222.07ZM132.202 271.932C127.751 273.583 124.128 272.769 120.654 270.746C119.167 269.88 117.767 268.766 116.929 267.263C115.674 265.008 115.862 262.21 116.586 259.734C117.669 256.032 119.884 252.669 122.859 250.214C124.915 248.515 127.283 247.269 129.651 246.023L129.652 246.022C130.469 245.593 131.285 245.163 132.089 244.714C139.941 240.334 146.714 234.037 151.652 226.524C152.638 225.024 154.716 224.538 156.455 224.981C158.194 225.424 159.644 226.615 160.898 227.898C161.795 228.817 162.461 230.644 161.263 231.108C152.879 234.353 146.128 241.556 143.43 250.132C143.357 250.366 143.285 250.603 143.214 250.839C142.804 252.196 142.389 253.569 141.509 254.666C140.476 255.955 138.402 260.495 139.46 262.647C139.46 262.647 136.653 270.281 132.202 271.932ZM143.834 203.996C145.192 204.301 146.671 204.739 147.417 205.915C148.027 206.877 147.988 208.101 147.892 209.237C147.514 213.729 146.569 218.174 145.088 222.432C144.838 223.152 144.065 224.017 143.501 223.504C142.862 220.281 139.917 217.66 136.641 217.4C133.365 217.14 130.043 219.263 128.904 222.345C128.679 222.953 127.888 223.18 127.262 223.012C126.792 222.886 126.391 222.602 126.007 222.295L125.627 221.986C121.725 218.816 116.443 217.408 111.48 218.216C114.124 213.767 117.478 209.74 121.376 206.336C122.971 204.943 124.702 203.629 126.716 202.976C128.613 202.361 130.65 202.367 132.641 202.468C136.406 202.659 140.155 203.171 143.834 203.996ZM321.781 147.373C319.884 145.351 317.284 143.998 314.537 143.613L317.653 139.655C318.642 138.414 319.796 137.141 321.355 136.945C322.479 136.804 323.585 137.265 324.608 137.753C328.031 139.384 331.258 141.427 334.196 143.824C335.177 144.624 336.163 145.517 336.589 146.708C337.015 147.9 336.672 149.459 335.53 150.004C334.388 150.549 332.743 149.356 333.211 148.18L333.256 148.048C333.448 147.38 333.146 146.59 332.541 146.238L331.438 148.354C331.337 148.539 331.218 148.718 331.036 148.818C330.3 149.225 329.701 148.081 329.654 147.24L329.645 147.124C329.566 146.297 329.132 145.242 328.371 145.499C328.269 146.916 327.255 148.225 325.909 148.68C324.563 149.134 322.964 148.706 322.024 147.641L321.781 147.373ZM84.1603 251.795L82.828 246.742C82.1949 246.565 81.5771 247.199 81.4873 247.85C81.4275 248.285 81.5237 248.714 81.6538 249.138L81.8589 249.769C82.5432 251.913 82.5264 254.276 81.8114 256.411C80.4908 253.708 79.8017 250.699 79.8145 247.691C78.9535 247.219 78.3671 248.661 78.4294 249.641L78.8011 255.49C76.9959 253.863 76.3595 251.224 76.668 248.813C76.9765 246.403 78.1084 244.177 79.3808 242.107C80.045 241.026 80.7808 239.943 81.8374 239.241C82.894 238.539 84.3493 238.298 85.4285 238.965C86.3249 239.519 86.741 240.502 87.1629 241.5C87.482 242.254 87.8044 243.016 88.3402 243.605C88.5301 243.814 88.7517 244.028 88.9772 244.246C89.8495 245.087 90.7812 245.986 90.1713 246.892C88.293 245.739 86.575 244.325 85.0821 242.703C84.5419 246.052 85.0369 249.561 86.4825 252.629C86.7782 253.257 85.801 253.855 85.1862 253.533C84.5713 253.212 84.3372 252.466 84.1603 251.795ZM264.544 235.264C265.506 234.412 266.386 233.634 266.811 233.846C268.051 234.464 264.683 237.182 262.9 237.949C263.029 238.811 264.278 238.424 265.008 237.949C265.738 237.474 267.781 236.963 267.381 237.48C264.889 240.704 260.077 243.266 255.628 243.767C253.825 243.97 251.595 243.489 251.021 241.767C250.496 240.197 251.664 238.647 252.897 237.48L253.194 237.208C253.713 236.744 254.546 236.291 255.024 236.796C256.295 238.142 258.517 237.041 259.981 235.909C259.981 235.909 263.787 232.238 264.425 232.473C265.059 232.707 262.526 236.846 262.526 236.846C263.154 236.494 263.869 235.861 264.544 235.264L264.544 235.264ZM246.328 238.671C246.784 238.568 247.258 238.752 247.651 239.004C249.081 239.922 249.764 241.857 249.227 243.47C248.689 245.082 246.982 246.221 245.287 246.098C245.046 246.08 244.795 246.035 244.607 245.884C244.211 245.567 244.261 244.961 244.349 244.462L244.988 240.81C245.142 239.929 245.455 238.87 246.328 238.671ZM165.721 230.38C168.173 229.966 170.711 230.067 173.122 230.675C172.983 231.669 171.821 232.121 170.838 232.324C167.804 232.952 164.669 233.087 161.592 232.723C162.363 231.275 164.103 230.653 165.721 230.38ZM319.422 149.405L312.988 145.605C316.158 145.131 319.539 146.797 321.096 149.598C320.65 150.005 319.942 149.712 319.422 149.405ZM178.431 225.609C175.704 226.331 173.007 227.171 170.352 228.125C173.11 229.65 177.026 228.43 178.431 225.609ZM151.769 222.16C152.52 222.315 152.179 223.496 151.58 223.974C149.757 225.431 146.987 225.556 145.039 224.271L151.769 222.16ZM322.99 134.023C323.432 133.919 323.887 134.097 324.3 134.284C326.988 135.497 329.449 137.209 331.522 139.306L322.276 134.584C322.418 134.306 322.686 134.095 322.99 134.023ZM182.122 159.529L182.213 159.593C183.048 159.473 183.909 159.544 184.712 159.798C184.011 161.124 183.035 162.303 181.864 163.24C181.278 162.078 181.381 160.599 182.122 159.529ZM340.343 146.556L340.363 146.615C341.384 147.03 342.08 148.138 342.009 149.239C339.904 148.147 338.201 146.301 337.283 144.115C338.54 144.551 339.639 145.428 340.343 146.556ZM148.9 227.259L148.747 227.468C148.214 228.192 147.579 228.979 146.686 229.082C145.792 229.186 144.877 228.031 145.507 227.389C146.565 226.914 147.808 226.867 148.9 227.259ZM85.6198 236.231C86.4168 236.417 87.3174 236.998 87.1919 237.807C85.3661 237.569 83.5643 237.147 81.8227 236.549C83.0136 236.051 84.3624 235.938 85.6198 236.231ZM255.199 236.075C254.784 236.255 254.409 235.499 254.803 235.277C254.803 235.277 257.526 230.502 257.644 233.846C257.702 234.678 255.942 235.696 255.199 236.075ZM140.152 260.592C140.354 259.143 140.735 256.411 141.509 256.411C142.606 256.295 142.184 258.163 141.887 259.48C141.805 259.843 141.732 260.164 141.704 260.39C141.604 261.18 140.866 261.802 140.019 261.421C140.053 261.305 140.095 261 140.152 260.594L140.152 260.592ZM-115.057 310.699C-109.472 311.181 -103.865 311.412 -98.2586 311.39C-98.6571 316.661 -94.3705 321.852 -89.1191 322.458C-83.8678 323.063 -78.512 318.985 -77.6999 313.761C-77.3737 311.663 -74.5352 311.298 -72.4184 311.463L-58.9454 312.511C-56.636 312.691 -53.368 311.964 -53.6171 309.661L-55.1433 295.552C-55.2809 294.279 -54.8369 292.424 -53.582 292.676C-48.2343 293.749 -42.3923 289.65 -41.6597 284.245C-40.927 278.84 -45.548 273.302 -50.9996 273.131C-53.6191 273.049 -54.8652 269.622 -54.1853 267.091C-53.8197 265.73 -53.1253 264.498 -52.4299 263.264C-51.832 262.204 -51.2334 261.141 -50.8423 259.995C-49.9961 257.514 -50.7061 254.058 -53.2577 253.459C-72.6356 248.916 -92.9774 248.53 -112.514 252.336L-112.871 252.407C-113.946 252.623 -115.023 252.89 -115.952 253.465C-119.003 255.354 -119.238 259.519 -119.089 263.192L-118.989 265.235C-118.454 277.082 -119.386 288.996 -121.76 300.616L-121.813 300.879C-122.344 303.527 -122.776 306.554 -121.008 308.562C-119.697 310.049 -117.6 310.449 -115.599 310.649L-115.057 310.699ZM-80.6879 313.54C-80.5315 314.303 -80.7272 315.098 -81.0339 315.814L-81.132 316.032C-82.9346 319.838 -88.3016 321.47 -91.8981 319.244C-95.5625 316.975 -96.4611 311.276 -93.6723 307.99C-100.759 308.838 -107.94 308.894 -115.039 308.156C-117.236 307.927 -120.108 306.741 -119.659 304.578C-116.569 289.706 -115.604 274.394 -116.802 259.252C-117.019 256.508 -113.641 255.084 -110.933 254.587C-93.4641 251.379 -75.3877 251.512 -57.9674 254.976C-55.7386 255.419 -52.87 257.112 -53.8578 259.159C-56.1831 263.976 -57.1124 269.458 -56.5047 274.773C-56.3498 276.128 -55.2886 277.902 -54.1057 277.223C-50.9195 275.392 -46.308 276.86 -44.7652 280.194C-43.2223 283.529 -45.0892 287.994 -48.5467 289.238C-52.0041 290.481 -56.2873 288.229 -57.2224 284.676C-58.058 291.994 -57.7602 299.441 -56.3429 306.67C-55.8516 309.175 -59.4998 310.121 -62.0461 309.931L-82.3714 308.416C-82.9942 309.398 -82.3556 310.412 -81.6843 311.478C-81.2654 312.144 -80.8336 312.83 -80.6879 313.54ZM24.4846 267.607L64.2957 268.408L64.9461 268.423C66.1417 268.461 67.3463 268.566 68.4228 269.068C70.8565 270.204 71.9721 273.004 72.7121 275.586C76.6622 289.366 76.1746 304.382 71.3387 317.877L71.1354 318.429C70.506 320.09 69.683 321.745 68.1967 322.679C66.9732 323.448 65.4819 323.609 64.0312 323.686L63.721 323.702C57.8011 323.983 51.8608 323.831 45.963 323.249C49.0345 321.358 49.8101 316.755 47.8597 313.721C45.9094 310.687 41.7886 309.42 38.3189 310.405C36.2039 311.006 34.2342 312.451 33.4688 314.512C32.7034 316.573 33.4433 319.22 35.398 320.227C36.7499 320.923 36.5169 323.115 35.3333 324.069C34.1497 325.024 32.5045 325.092 30.9841 325.116L11.0101 325.44C9.50885 325.465 7.9303 325.471 6.61224 324.752C4.74313 323.732 3.88358 321.535 3.35696 319.472C2.08627 314.494 1.91452 309.238 2.85748 304.188C3.99289 308.176 8.90817 310.599 12.7628 309.069C16.6174 307.54 18.5349 302.407 16.627 298.725C14.7191 295.043 9.41959 293.649 5.94733 295.916L5.80292 294.629C5.3046 290.119 4.91754 285.549 5.78381 281.107C6.7326 276.241 9.43896 271.462 13.8759 269.251C17.112 267.638 20.8488 267.549 24.4846 267.607ZM67.9426 271.771C66.9457 271.172 65.7442 271.069 64.5748 271.02L64.2832 271.008C51.8994 270.546 39.507 270.311 27.1145 270.306L22.9837 270.312C20.3705 270.322 17.6722 270.359 15.2806 271.412C11.7116 272.984 9.39911 276.628 8.45578 280.412C7.51245 284.196 7.73849 288.161 7.97061 292.053C14.2457 290.325 20.9964 296.701 20.2516 303.167C19.5067 309.634 12.3384 314.304 5.9501 313.056C5.6601 315.099 5.37524 317.22 5.97513 319.194C6.57498 321.169 8.32712 322.954 10.3895 322.887L28.9078 322.292C30.0547 322.255 31.6389 321.662 31.3056 320.564C29.4137 314.331 34.8732 307.054 41.3868 307.128C47.9004 307.201 53.1943 314.599 51.1621 320.788C55.2323 321.704 59.4643 321.897 63.6009 321.354C64.9444 321.178 66.3465 320.894 67.3754 320.012C68.387 319.145 68.884 317.835 69.3056 316.572C73.6035 303.694 74.0742 289.565 70.643 276.43C70.1994 274.732 69.5839 272.904 68.162 271.914L67.9426 271.771ZM-107.764 394.406C-109.735 381.576 -109.732 368.445 -107.756 355.617L-107.656 354.996C-107.165 352.085 -106.304 349.011 -103.871 347.407C-102.05 346.207 -99.7497 346.117 -97.5562 346.116L-80.7612 346.162C-79.9967 346.164 -79.1591 346.193 -78.5842 346.697C-78.0094 347.201 -78.025 348.358 -78.7619 348.562C-80.5211 349.049 -81.5322 351.078 -81.3186 352.891C-81.105 354.704 -79.9263 356.274 -78.5419 357.464C-75.2406 360.301 -70.1093 361.31 -66.455 358.944C-62.8007 356.577 -61.9413 350.482 -65.4041 347.844C-57.559 347.684 -49.7101 347.709 -41.8661 347.917L-38.9249 348.004C-37.9743 348.035 -36.9231 348.111 -36.2589 348.792C-35.7603 349.303 -35.5963 350.046 -35.4835 350.751C-34.6151 356.181 -35.565 361.886 -38.146 366.742C-38.5571 367.516 -39.5091 368.368 -40.1576 367.779C-42.9137 365.277 -47.5491 365.618 -50.3692 368.048C-53.1894 370.477 -54.2796 374.513 -53.7812 378.201C-53.3014 381.752 -50.7136 385.544 -47.1353 385.365C-46.127 385.314 -45.0784 384.967 -44.0498 384.625L-44.0495 384.625C-42.2031 384.013 -40.4213 383.422 -39.0536 384.611L-42.6414 400.641C-43.2788 403.489 -44.423 406.867 -47.2768 407.478C-63.7512 411.002 -81.0243 410.735 -97.3822 406.705L-98.1757 406.504C-100.161 405.985 -102.138 405.312 -103.687 403.987C-106.383 401.679 -107.225 397.913 -107.764 394.406ZM-42.2337 387.477C-46.8942 389.669 -52.966 387.788 -55.8827 383.543C-58.7993 379.298 -58.5136 373.232 -55.5208 369.041C-52.528 364.85 -47.149 362.622 -42.0175 363.06L-41.5892 363.098C-40.8698 363.159 -40.132 363.185 -39.5212 362.825C-38.7487 362.37 -38.4192 361.436 -38.2044 360.565C-37.3474 357.093 -37.3947 353.402 -38.3402 349.952L-60.0529 350.111C-59.6573 356.138 -64.6186 362.02 -70.6263 362.646C-76.634 363.272 -82.7012 358.539 -83.5565 352.56L-83.6758 351.671C-83.8046 350.774 -84.0059 349.888 -84.6756 349.319C-85.1459 348.919 -85.7637 348.761 -86.3743 348.64L-86.6026 348.596C-92.9199 347.401 -100.929 346.906 -104.244 352.414C-105.373 354.29 -105.676 356.534 -105.906 358.711C-107.225 371.21 -106.912 383.881 -104.975 396.299L-104.881 396.88C-104.566 398.729 -104.073 400.626 -102.698 401.866C-101.752 402.719 -100.511 403.141 -99.2791 403.489L-98.9717 403.575C-83.2182 407.907 -66.4464 408.486 -50.4307 405.257L-49.5417 405.074C-48.7542 404.908 -47.9357 404.717 -47.3169 404.202C-46.5109 403.532 -46.2007 402.451 -45.9323 401.438L-42.2337 387.477ZM74.9373 419.24C74.9373 419.24 75.0274 416.741 75.3425 415.921C75.912 414.438 77.5912 412.331 77.5912 412.331C77.4744 412.901 77.3111 413.512 77.1426 414.142C76.5651 416.301 75.9273 418.685 76.8965 420.45C77.6441 421.811 88.5833 428.98 92.3427 430.66C108.421 437.845 124.579 444.347 140.813 450.879L140.813 450.879L140.815 450.88L140.816 450.88L140.826 450.884C147.461 453.554 154.108 456.229 160.768 458.958C149.324 457.564 138.787 452.235 128.519 446.991C126.303 459.286 133.154 471.681 142.398 480.086C149.128 486.206 157.051 490.743 164.973 495.279L164.973 495.28L164.974 495.28C167.93 496.973 170.887 498.666 173.781 500.442L174.845 501.101C185.115 507.53 194.937 515.645 199.472 526.839C200.303 528.892 202.857 530.061 204.954 529.348C207.052 528.636 208.366 526.154 207.776 524.019C209.971 525.821 208.704 529.848 206.044 530.843C203.384 531.839 200.335 530.488 198.372 528.436C196.893 526.889 195.86 525 194.829 523.113L194.829 523.113L194.828 523.112L194.828 523.112L194.828 523.111L194.825 523.105C194.489 522.491 194.153 521.876 193.801 521.274C187.462 510.405 176.263 503.655 165.153 497.478L159.937 494.59C147.881 487.858 135.528 479.771 130.364 467.026C111.617 470.001 92.1017 467.983 74.36 461.237C70.5653 459.794 66.8493 458.139 63.1351 456.485L63.1349 456.485C57.2183 453.85 51.3061 451.217 45.0865 449.445C41.6209 448.458 36.8445 448.352 35.5467 451.713C35.5464 451.712 35.5448 451.715 35.5411 451.722C35.5035 451.787 35.2571 452.22 34.1516 452.315C33.6332 452.359 33.157 451.449 33.0093 450.848C32.883 450.679 32.8397 450.203 32.8397 449.225C32.8397 448.698 33.9131 446.396 35.9332 444.972C37.3378 443.982 38.9191 443.622 39.7472 443.434C40.1208 443.349 40.3411 443.299 40.3228 443.241C40.2806 443.109 38.8439 442.736 37.5388 443.369C36.5312 443.858 35.5773 444.504 34.7004 445.097L34.7001 445.097C33.3436 446.015 32.1714 446.808 31.2696 446.704C30.049 446.562 29.1826 445.993 29.1692 444.764C29.1558 443.535 29.4817 442.041 30.4298 441.269C32.4557 439.62 35.0713 438.711 37.6835 438.748C38.2477 438.756 38.8728 438.836 39.2408 439.264C39.6089 439.692 39.4277 440.545 38.864 440.571C35.4779 440.723 31.563 441.29 30.2448 444.764C29.8611 445.775 32.2845 445.937 33.2215 445.398C33.7653 445.085 34.2323 444.665 34.7 444.243C35.0382 443.939 35.3766 443.634 35.7447 443.369C36.8458 442.577 38.2134 442.163 39.5688 442.211C40.1154 442.23 40.7171 442.356 41.0393 442.798C41.3615 443.24 41.1343 444.042 40.5875 444.051C37.0771 444.109 33.8726 447.151 33.6324 450.654C33.6454 450.78 33.7427 451.358 34.1516 451.496C34.6289 451.657 35.1567 451.267 35.1781 451.229C37.0059 447.965 40.3433 445.784 43.9302 446.876C45.2863 447.289 46.5914 447.918 47.8907 448.544C50.1635 449.638 52.4182 450.724 54.8962 450.632L53.409 442.746C47.3798 437.219 38.2928 435.271 30.5277 437.84C29.6966 438.115 28.7989 438.513 28.4598 439.32C28.1208 440.127 28.8647 441.3 29.6823 440.987C28.3969 442.176 26.2237 440.158 26.713 438.476C27.2023 436.795 29.0464 435.93 30.7412 435.49C40.2521 433.018 49.7315 437.327 58.892 441.49C60.5923 442.263 62.2816 443.031 63.958 443.749C82.6112 451.744 103.686 453.981 123.602 450.079C122.738 452.443 119.793 453.158 117.292 453.439C99.5527 455.434 81.3322 452.992 64.744 446.399C62.718 448.973 63.683 452.972 65.989 455.298C68.295 457.625 71.5562 458.682 74.6949 459.62C92.2828 464.877 110.93 468.897 128.902 465.159L125.989 448.118L125.93 447.807C125.786 447.127 125.522 446.424 124.886 446.208L124.725 446.153C101.69 438.331 84.1335 432.368 61.3385 410.638C61.2928 410.595 61.2482 410.55 61.2046 410.504C61.0367 417.035 58.9653 418.472 50.3287 416.692C31.4846 412.808 12.1907 410.774 -6.8288 413.447C-5.39035 406.338 -3.58893 399.304 -1.43384 392.379C-7.62247 394.376 -14.9286 388.704 -14.5285 382.214C-14.1283 375.723 -6.18076 370.992 -0.284363 373.734C1.74112 369.061 1.86957 363.597 0.065979 358.833C-0.799347 356.547 2.64941 355.229 5.09323 355.229L18.5954 355.226C20.4827 355.225 23.1143 354.348 22.6454 352.52C21.5336 348.185 24.5147 343.232 28.866 342.184C33.1381 341.156 37.9477 344.081 39.0513 348.32L39.1088 348.557C40.1336 353.11 45.9012 354.556 50.5673 354.466L52.89 354.411C56.9259 354.326 61.1319 354.457 63.8332 357.28C67.0638 360.656 66.3418 366.033 65.277 370.616L65.2056 370.921C64.6862 373.111 63.9291 374.891 63.1675 376.68C61.7168 380.09 60.25 383.538 60.3802 389.933C60.4333 392.541 60.5275 394.934 60.634 397.125C61.0088 395.586 61.3385 394.569 61.3385 394.569C61.3385 394.569 105.347 427.337 132.527 431.785C135.784 428.907 133.904 423.3 130.624 420.45C129.241 419.249 127.667 418.278 126.097 417.31C123.942 415.98 121.795 414.656 120.159 412.746C116.91 408.953 116.33 403.727 115.754 398.545C115.128 392.91 114.508 387.328 110.47 383.697C110.11 383.373 109.726 383.07 109.343 382.768L109.342 382.767C108.477 382.085 107.613 381.404 107.024 380.483C105.568 378.206 106.284 375.038 108.048 372.99C109.811 370.942 112.39 369.798 114.942 368.907C120.239 367.058 126.047 366.025 131.456 367.515C136.865 369.005 141.71 373.51 142.242 379.095C143.268 376.873 145.521 375.267 147.956 375.023L144.421 378.78L148.894 378.869L142.739 382.307C146.555 389.364 145.937 398.068 143.491 405.709C143.192 406.643 142.866 407.577 142.54 408.513L142.54 408.514L142.538 408.518C141.231 412.268 139.913 416.049 140.251 419.962C140.666 424.774 144.939 429.69 149.61 428.705L149.844 428.651C155.458 427.232 161.605 428.053 166.65 430.895C172.533 434.21 176.538 439.829 180.501 445.392C181.421 446.682 182.339 447.97 183.277 449.225C187.675 455.107 192.88 460.577 199.386 463.984C205.892 467.392 213.87 468.517 220.647 465.688C221.893 465.167 223.091 464.521 224.287 463.875C226.318 462.779 228.343 461.686 230.589 461.221C234.157 460.481 238.701 462.227 239.124 465.846C237.278 462.763 232.905 462.216 229.465 463.256C227.523 463.842 225.732 464.802 223.939 465.762L223.938 465.763C222.554 466.504 221.168 467.246 219.711 467.818C212.412 470.684 203.912 468.947 197.193 464.906C190.684 460.99 185.585 455.145 180.985 449.089L180.541 448.502C180.075 447.882 179.61 447.258 179.146 446.633L179.145 446.632L179.143 446.631L179.143 446.629L179.141 446.628L179.141 446.627L179.139 446.625L179.138 446.624L179.137 446.623C175.903 442.276 172.645 437.898 168.376 434.591C163.587 430.882 157.156 428.69 151.391 430.471L151.039 430.585C145.524 432.453 139.683 427.177 138.69 421.439C137.698 415.702 140.037 409.969 142.326 404.615C144.687 399.092 140.351 392.649 134.885 390.159C129.813 387.85 123.722 387.902 118.69 390.298C117.06 391.074 116.765 393.214 116.82 395.043L116.827 395.244C117.11 401.7 118.834 408.487 123.547 412.908C124.948 414.223 126.568 415.285 128.184 416.345C130.206 417.671 132.224 418.994 133.804 420.806C136.648 424.066 137.085 430.172 133.135 431.936C139.913 433.159 146.619 434.779 153.208 436.786C117.758 433.159 85.1631 416.438 61.7617 396.241C61.2825 397.177 60.9454 398.166 60.74 399.181C60.7947 400.193 60.8502 401.157 60.903 402.075C60.9776 403.371 61.0469 404.574 61.1012 405.688C62.2275 409.395 64.8605 412.663 68.4768 414.1C68.1901 411.496 69.0679 408.785 70.8266 406.844C69.6856 409.395 67.8752 414.287 74.9373 419.24ZM129.39 369.334C126.235 368.747 123.029 368.434 119.82 368.401C119.602 368.805 119.52 369.28 119.589 369.734C123.166 370.032 126.689 370.974 129.938 372.503C128.58 373.86 126.337 373.047 124.515 372.387L124.408 372.348C121.294 371.221 117.876 370.948 114.624 371.568C112.965 371.883 111.305 372.452 110.028 373.556C108.75 374.66 107.914 376.379 108.199 378.043C108.563 380.169 110.563 381.622 112.559 382.439C117.507 384.466 123.437 383.895 127.908 380.961C128.27 380.723 128.781 381.12 128.802 381.553C128.823 381.986 128.531 382.369 128.224 382.674C126.442 384.448 123.792 385.012 121.282 385.158C120.549 385.201 119.813 385.215 119.076 385.23H119.076H119.075C117.289 385.265 115.504 385.299 113.779 385.737C114.012 387.16 115.789 387.649 117.227 387.754C122.723 388.153 128.298 387.413 133.5 385.595C134.802 385.14 136 386.445 136.768 387.591L142.371 395.952C144.212 394.22 144.101 391.226 143.233 388.852C142.894 387.924 142.463 387.029 142.031 386.136C141.359 384.743 140.688 383.353 140.373 381.845C140.199 381.015 140.136 380.163 140.074 379.312V379.311C139.986 378.117 139.898 376.925 139.503 375.8C138.109 371.84 133.517 370.103 129.39 369.334ZM61.7031 445.662L56.6172 442.74C56.053 442.416 55.013 442.361 55.0702 443.009C54.8962 445.635 55.1108 448.851 56.7983 451.039C57.8615 452.418 58.6297 453.124 62.3856 454.056L62.1093 446.704C62.0947 446.314 62.0414 445.857 61.7031 445.662ZM139.15 405.665C139.769 405.306 140.163 404.668 140.531 404.055C141.189 402.959 141.867 401.798 141.897 400.52C141.926 399.242 141.042 397.847 139.765 397.797C139.129 397.772 138.525 398.074 138.006 398.442C136.854 399.257 135.964 400.438 135.5 401.771C136.088 402.619 137.418 401.862 138.01 401.017C138.602 400.172 139.479 399.104 140.421 399.526C139.799 401.681 138.7 403.698 137.225 405.388C137.619 405.984 138.532 406.024 139.15 405.665ZM149.325 467.768C147.911 465.522 146.383 463.096 143.863 462.366C149.454 472.889 158.12 481.755 168.512 487.586C172.141 489.621 175.967 491.293 179.791 492.964C185.123 495.294 190.448 497.62 195.217 500.926C201.193 505.068 206.135 510.688 209.479 517.144C208.164 507.939 200.467 500.892 192.249 496.54C188.529 494.569 184.621 492.981 180.714 491.394L180.714 491.393C175.991 489.474 171.271 487.556 166.89 484.966C159.907 480.836 153.923 475.031 149.583 468.177C149.497 468.041 149.411 467.905 149.325 467.768ZM166.887 470.881L167.043 471.228C167.731 472.82 168.208 474.821 166.916 475.899C165.887 476.758 164.326 476.43 163.112 475.86C160.487 474.627 158.317 472.451 157.092 469.822C158.624 469.518 160.061 468.747 161.161 467.638C162.076 466.717 163.693 466.903 164.723 467.692C165.754 468.481 166.339 469.705 166.887 470.881ZM166.054 474.648C167.376 472.274 164.678 468.771 163.361 468.544C162.787 468.445 162.196 469.013 161.56 469.623C160.907 470.249 160.209 470.919 159.437 470.958C159.437 470.958 164.731 477.023 166.054 474.648ZM232.761 481.476C264.878 480.421 296.232 464.775 316.387 439.747C317.43 438.452 319.496 438.43 320.946 439.244C322.396 440.058 323.376 441.488 324.303 442.869C325.314 442.721 325.344 441.153 324.647 440.405C324.304 440.037 323.873 439.769 323.442 439.502C322.998 439.227 322.555 438.952 322.208 438.567C320.805 437.014 321.555 434.569 322.377 432.644L326.041 424.064C326.532 422.915 327.3 421.573 328.55 421.591C329.464 421.604 330.168 422.368 330.748 423.075C337.071 430.778 342.937 438.857 348.304 447.255C344.995 447.767 341.814 446.137 338.676 444.529C335.171 442.733 331.72 440.965 328.205 442.239C325.142 443.349 323.337 446.433 321.715 449.259C316.411 458.502 310.333 467.404 302.636 474.774C284.759 491.889 259.814 499.296 235.512 503.98C250.544 509.67 267.103 511.266 282.945 508.552C292.011 506.999 301.051 503.939 308.117 498.051C310.978 495.666 313.46 492.866 315.93 490.079L334.128 469.536C335.194 468.333 337.16 469.488 338.153 470.751C339.146 472.015 340.492 473.59 342.006 473.051C340.923 470.624 339.042 468.562 336.725 467.26C336.587 464.362 336.501 461.259 338.041 458.801C339.582 456.343 343.422 455.146 345.421 457.248C351.974 464.142 358.253 471.296 364.239 478.687C360.727 479.24 357.389 477.728 354.077 476.228L354.077 476.228L354.076 476.228L354.076 476.227L354.075 476.227L354.074 476.227C353.051 475.764 352.031 475.301 351.008 474.901C346.674 473.206 340.597 473.242 338.621 477.456C333.214 488.98 327.597 500.8 318.317 509.513C302.819 524.066 280.174 527.35 259.049 529.746C249.681 530.809 240.057 531.817 230.935 529.431C224.296 527.695 218.255 524.241 212.303 520.824L207.58 518.112C206.19 518.46 207.307 520.567 208.541 521.295C216.448 525.957 224.599 530.71 233.666 532.139C235.976 532.503 238.316 532.644 240.653 532.732C262.172 533.541 283.852 529.766 303.831 521.732C312.162 518.381 320.641 513.902 325.217 506.175L341.34 478.945C341.958 477.902 342.637 476.801 343.733 476.283C345.068 475.653 346.638 476.055 348.056 476.467L363.169 480.856C364.714 481.305 366.149 479.494 365.988 477.894C365.827 476.293 364.671 474.996 363.573 473.821L349.635 458.903C347.797 456.935 345.82 454.881 343.224 454.165C340.627 453.448 337.289 454.71 336.781 457.355C335.282 465.164 329.948 471.599 324.8 477.658C316.832 487.037 308.536 496.675 297.476 502.072C281.617 509.811 262.875 507.562 245.51 504.419L256.77 501.139C262.344 499.516 267.926 497.889 273.329 495.766C294.288 487.53 312.141 471.639 322.751 451.775C324.592 448.327 326.758 444.343 330.605 443.651C333.766 443.082 336.462 444.949 339.218 446.857C340.856 447.991 342.515 449.141 344.306 449.802C346.948 450.777 351.048 449.389 350.427 446.643C350.286 446.022 349.91 445.485 349.542 444.965L335.204 424.753C333.215 421.948 330.234 418.78 326.961 419.833C324.331 420.679 323.345 423.714 322.475 426.391L322.396 426.635L322.36 426.746L322.319 426.87C318.238 439.305 307.265 447.992 296.85 455.918C292.293 459.386 287.724 462.862 282.807 465.796C268.442 474.366 251.596 477.995 234.904 479.079C230.188 479.385 227.224 483.809 224.511 487.858C224.189 488.34 223.87 488.816 223.552 489.279C218.906 496.049 212.29 501.449 204.727 504.645C205.993 506.043 208.297 505.206 209.896 504.206C217.484 499.464 223.922 492.893 228.507 485.208C229.519 483.513 230.789 481.541 232.761 481.476ZM131.994 408.923C131.255 410.54 129.609 411.705 127.838 411.862C126.067 412.02 124.241 411.164 123.229 409.703C122.857 409.165 122.861 408.117 123.511 408.173C124.866 409.972 127.69 410.437 129.549 409.167C130.354 408.617 131.751 407.979 131.994 408.923ZM117.758 397.17C117.918 395.815 119.061 394.638 120.41 394.437C121.759 394.236 123.195 395.028 123.744 396.277C122.758 396.277 122.096 396.099 121.546 395.95C120.426 395.648 119.765 395.469 117.758 397.17ZM128.215 404.716L126.68 405.374L126.591 405.324C126.193 406.082 125.02 405.223 124.93 404.372C124.912 404.196 124.903 404.009 124.894 403.821C124.86 403.1 124.824 402.35 124.228 402.026C123.482 403.099 123.141 404.512 123.575 405.745C124.009 406.978 125.328 407.914 126.614 407.682C127.9 407.45 128.824 405.873 128.215 404.716ZM130.058 394.25C132 394.406 132.517 394.511 133.052 395.788C133.158 396.039 132.328 395.802 131.537 395.577L131.536 395.577C130.955 395.411 130.394 395.251 130.243 395.296C123.744 397.222 128.116 394.093 130.058 394.25ZM129.51 397.606C130.582 398.457 130.272 401.845 128.688 401.208C128.024 400.94 127.231 395.8 129.51 397.606ZM180.88 488.342C180.368 487.704 180.949 486.565 181.766 486.605C182.127 486.838 182.373 487.242 182.414 487.67C182.104 488.174 181.464 488.449 180.885 488.328L180.88 488.342ZM166.286 481.737L167.402 481.567L167.491 481.535C167.879 480.81 166.612 479.984 166.105 480.631C165.995 481.001 166.064 481.421 166.286 481.737ZM174.232 486.138C173.585 486.313 173.497 485.203 173.861 484.64L175.406 485.343C175.168 485.76 174.726 486.055 174.249 486.114L174.232 486.138ZM154.941 469.947C154.77 469.523 154.156 469.36 153.798 469.644L153.896 469.743C153.586 470.148 153.832 470.839 154.328 470.958C154.783 470.914 155.112 470.371 154.941 469.947ZM121.005 401.287C120.383 401.287 119.733 400.678 119.765 399.622C119.797 398.565 120.084 397.589 121.005 398.108C121.926 398.626 121.646 401.287 121.005 401.287ZM-168.625 272.906C-168.25 273.398 -167.394 273.182 -167.065 272.658C-166.735 272.135 -166.777 271.468 -166.836 270.852C-167.698 261.949 -170.009 253.187 -173.65 245.017C-174.687 242.689 -175.778 239.788 -174.19 237.795C-170.519 246.969 -166.818 256.258 -165.481 266.048C-165.116 268.721 -164.985 271.647 -166.475 273.895C-167.965 276.143 -171.677 277.005 -173.332 274.876C-170.786 274.344 -168.838 271.766 -169.022 269.172C-167.846 269.973 -167.644 271.875 -168.625 272.906ZM-138.954 449.694C-125.634 448.963 -110.204 447.04 -103.217 435.677C-101.406 432.73 -101.792 428.097 -102.111 424.28C-102.366 421.213 -102.578 418.672 -101.571 417.954C-99.3108 416.343 -97.5025 420.498 -97.5025 420.498C-97.4361 420.223 -97.3602 419.883 -97.2746 419.499C-96.6434 416.667 -95.4808 411.452 -93.6542 412.432C-92.9028 412.835 -93.1614 415.37 -93.3392 417.112L-93.3392 417.113C-93.381 417.522 -93.4182 417.887 -93.4368 418.171C-93.4793 418.44 -93.4853 418.665 -93.4534 418.824C-93.428 418.814 -93.4014 418.799 -93.3737 418.78C-93.3627 418.778 -93.3504 418.772 -93.3367 418.76C-93.3265 418.752 -93.3155 418.74 -93.3036 418.726C-93.0083 418.477 -92.6037 417.861 -92.1537 417.176L-92.1535 417.175C-91.2209 415.755 -90.093 414.038 -89.337 414.669C-88.1499 415.661 -92.3704 421.988 -92.3704 421.988C-92.3704 421.988 -87.358 416.48 -86.9352 418.824C-86.5123 421.168 -97.9273 442.34 -108.231 450.644C-118.535 458.947 -133.054 463.596 -146.182 461.931C-145.889 456.724 -144.161 449.98 -138.954 449.694ZM-93.3036 418.726C-93.3277 418.747 -93.3511 418.765 -93.3737 418.78C-93.4532 418.793 -93.4623 418.557 -93.4368 418.171C-93.34 417.558 -93.0538 416.718 -92.5957 415.917C-92.6826 416.192 -92.7694 416.458 -92.8511 416.709C-93.2168 417.831 -93.4816 418.643 -93.2068 418.58C-93.2271 418.615 -93.2458 418.646 -93.2631 418.672C-93.2776 418.693 -93.2911 418.711 -93.3036 418.726ZM-90.8227 413.949C-91.561 414.415 -92.1572 415.149 -92.5957 415.917C-91.9121 413.75 -91.2197 411.019 -92.903 410.8C-95.7577 410.43 -98.5483 415.076 -98.0526 417.545C-98.8449 415.578 -102.142 416.429 -102.94 418.393C-103.553 419.9 -103.292 421.551 -103.033 423.189L-103.033 423.19L-103.033 423.19C-102.955 423.687 -102.877 424.182 -102.823 424.672C-101.965 432.504 -107.837 439.824 -114.955 443.202C-121.666 446.386 -129.282 446.834 -136.732 447.064L-138.469 447.115C-142.722 447.227 -147.328 447.129 -150.574 444.414C-153.918 441.617 -153.914 434.98 -149.715 433.807C-139.055 430.83 -130.924 420.443 -130.593 409.38C-130.495 406.11 -128.374 403.39 -126.325 400.76C-126.141 400.524 -125.957 400.289 -125.776 400.054L-125.326 399.464C-123.032 396.421 -121.146 392.229 -123.072 388.941C-126.056 392.77 -131.647 394.314 -136.173 392.559C-138.062 391.827 -139.735 390.604 -141.398 389.388C-143.624 387.76 -145.832 386.146 -148.514 385.742C-153.758 384.953 -158.96 390.263 -158.062 395.489C-159.482 394.298 -161.685 396.102 -161.839 397.948C-161.929 399.034 -161.644 400.09 -161.357 401.151C-161.156 401.895 -160.954 402.642 -160.881 403.402C-160.796 404.288 -160.887 405.174 -160.977 406.061C-161.039 406.661 -161.1 407.261 -161.107 407.862C-161.145 410.973 -159.759 413.852 -158.394 416.688L-158.392 416.692L-158.391 416.695C-158.254 416.979 -158.118 417.263 -157.983 417.546L-157.618 418.324C-156.063 421.694 -154.91 425.704 -156.567 429.025C-158.223 432.346 -163.862 433.387 -165.459 430.037C-173.288 413.619 -191.033 402.441 -209.222 402.468C-230.282 402.5 -249.23 416.378 -261.641 433.393C-263.189 435.515 -264.704 437.8 -265.042 440.405C-265.379 443.01 -264.17 446 -261.692 446.871C-259.215 447.742 -256.002 445.305 -256.809 442.806C-255.552 444.273 -252.981 442.885 -252.389 441.046C-252.056 440.013 -252.06 438.923 -252.064 437.829C-252.067 436.976 -252.07 436.121 -251.914 435.289C-251.146 431.209 -246.949 428.852 -243.172 427.129L-242.41 426.783C-233.512 422.757 -224.242 419.162 -214.51 418.478C-204.499 417.775 -193.817 420.557 -186.938 427.863C-196.325 430.09 -201.776 439.509 -206.121 448.209L-206.724 449.422C-211.111 458.232 -216.857 467.844 -226.478 469.711C-226.112 471.609 -224.437 473.18 -222.519 473.421L-257.789 494.39L-255.083 497.746C-263.671 510.908 -273.383 523.335 -284.08 534.848C-289.896 541.107 -297.447 547.594 -305.867 546.137C-307.389 545.873 -308.865 545.351 -310.336 544.83C-312.49 544.067 -314.633 543.308 -316.895 543.373C-320.701 543.481 -324.52 548.111 -321.937 550.908C-316.215 557.103 -309.685 562.549 -302.564 567.066L-302.38 567.182C-301.513 567.722 -300.56 568.226 -299.555 568.111C-298.539 567.994 -297.711 567.271 -296.956 566.582L-249.188 523.028C-245.276 519.49 -240.971 515.95 -235.759 515.429L-235.319 515.377C-231.465 514.84 -228.29 512.403 -225.105 509.959C-223.719 508.895 -222.331 507.83 -220.884 506.919C-215.988 503.839 -207.868 503.522 -205.964 508.984C-204.953 511.887 -206.277 514.839 -207.582 517.749L-207.582 517.749C-207.971 518.616 -208.359 519.479 -208.682 520.336C-210.09 524.069 -208.936 529.811 -204.947 529.741L-182.623 529.346C-181.821 529.338 -180.976 529.383 -180.352 529.873C-179.699 530.387 -179.47 531.241 -179.345 532.079L-179.293 532.464C-178.452 539.301 -178.568 546.255 -179.636 553.061C-180.794 560.436 -183.874 568.548 -190.833 571.253C-195.222 572.958 -200.111 572.073 -204.734 571.014L-232.824 564.453C-232.871 561.051 -229.794 558.281 -226.513 557.38C-223.731 556.616 -220.81 556.849 -217.917 557.08H-217.916C-217.739 557.094 -217.561 557.108 -217.383 557.122L-216.363 557.198C-209.254 557.687 -202.067 557.027 -195.166 555.25L-205.124 530.331C-204.109 538.604 -201.871 546.725 -198.506 554.351L-231.24 555.413C-234.091 555.493 -237.255 555.367 -239.172 553.286C-239.663 552.752 -240.073 552.095 -240.48 551.444C-241.314 550.107 -242.133 548.795 -243.614 548.623C-244.894 548.475 -246.053 549.33 -247.034 550.166C-253.433 555.625 -258.747 562.352 -262.576 569.842C-261.195 573.26 -256.622 574.216 -253.069 573.235C-250.991 572.661 -249.094 571.628 -247.194 570.592C-245.845 569.857 -244.495 569.121 -243.077 568.548C-235.164 565.35 -226.465 567.517 -218.108 570.034L-213.145 571.545C-203.336 574.491 -191.376 576.002 -184.025 568.87C-179.687 564.662 -178.107 558.399 -177.248 552.417C-174.77 535.154 -176.779 517.266 -183.025 500.983C-176.061 498.297 -172.775 490.506 -170.22 483.492L-165.216 469.757C-163.545 465.168 -159.747 459.537 -155.226 461.386C-142.303 466.671 -127.039 464.436 -115.008 457.352C-102.976 450.268 -93.9698 438.793 -87.9035 426.218L-87.7409 425.878C-86.5539 423.379 -85.0406 417.548 -86.3922 416.902C-86.8961 416.507 -87.7936 417.164 -88.4053 417.611C-88.736 417.853 -88.9832 418.034 -89.0393 417.954C-89.0736 417.906 -88.9628 417.583 -88.8057 417.125C-88.1879 415.325 -86.8541 411.438 -90.8227 413.949ZM-176.341 491.052C-177.904 494.567 -180.491 498.704 -184.31 498.237C-186.355 497.987 -187.899 496.444 -189.288 494.858L-190.033 493.996C-198.103 484.628 -209.066 478.401 -220.085 472.669L-223.757 470.774C-214.781 469.008 -209.244 460.131 -205.29 451.882L-204.03 449.253C-200.415 441.758 -196.301 434.046 -188.844 430.672C-187.813 430.205 -186.631 429.834 -185.568 430.221C-185.407 430.28 -185.233 430.347 -185.052 430.416C-183.74 430.921 -182.05 431.571 -182.077 430.327C-184.469 429.363 -184.863 425.873 -183.483 423.694C-182.223 421.703 -180.04 420.555 -177.879 419.566L-177.263 419.287C-178.641 417.386 -181.629 418.984 -183.19 420.738L-183.319 420.881C-184.885 422.6 -187.29 424.482 -189.098 423.085C-196.57 417.312 -206.527 415.459 -215.926 416.365C-225.324 417.271 -234.291 420.708 -242.877 424.636C-246.024 426.076 -249.22 427.646 -251.555 430.2C-253.362 432.175 -253.549 434.805 -253.737 437.448C-253.792 438.222 -253.848 438.997 -253.944 439.756C-254.175 441.594 -255.186 441.664 -256.077 441.726C-256.554 441.759 -256.996 441.79 -257.266 442.089C-257.288 442.113 -257.358 442.221 -257.463 442.382C-257.997 443.203 -259.444 445.425 -260.097 445.203C-261.057 444.878 -260.567 442.806 -260.567 442.806C-260.567 442.806 -263.415 443.62 -263.627 442.806C-264.369 439.958 -260.097 434.13 -260.097 434.13C-252.915 423.565 -242.264 414.798 -230.555 409.702C-218.629 404.512 -204.712 403.51 -192.52 408.041C-178.775 413.149 -167.89 425.354 -164.382 439.591C-163.507 443.141 -159.378 444.708 -155.77 445.298C-155.648 445.318 -155.525 445.337 -155.402 445.357C-155.185 445.392 -154.966 445.426 -154.746 445.46L-154.741 445.461C-151.411 445.981 -147.871 446.534 -145.749 449.077C-145.123 449.826 -145.296 450.935 -145.511 451.887L-145.574 452.162C-146.365 455.557 -147.746 459.357 -151.045 460.388C-154.044 461.324 -157.596 458.906 -157.826 455.774C-157.846 455.498 -157.852 455.206 -157.858 454.91C-157.883 453.693 -157.91 452.41 -158.932 451.908L-176.341 491.052ZM-204.696 509.62C-205.818 503.859 -209.225 498.676 -213.697 494.873C-213.522 497.138 -212.564 499.335 -211.023 501.004C-218.6 503.412 -225.745 507.172 -232.022 512.053C-233.701 513.359 -236.555 514.551 -237.539 512.664C-241.41 505.241 -247.571 499.032 -254.965 495.105L-224.567 477.637C-223.194 476.847 -221.74 476.035 -220.156 476.02C-218.928 476.008 -217.761 476.478 -216.65 477.026L-216.099 477.304C-204.724 483.163 -194.541 491.326 -186.348 501.154C-184.319 503.588 -183.375 506.704 -182.571 509.786L-178.956 523.912C-178.716 524.848 -178.541 526.006 -179.274 526.635C-179.686 526.989 -180.267 527.05 -180.809 527.091L-181.443 527.14C-190.444 527.833 -197.706 528.392 -206.724 527.091C-208.069 524.511 -207.053 521.314 -206.003 518.013C-205.103 515.184 -204.179 512.279 -204.696 509.62ZM-249.918 500.934C-246.545 503.904 -243.505 507.252 -240.871 510.893C-240.589 511.283 -240.299 511.718 -240.329 512.198C-240.364 512.758 -240.818 513.188 -241.24 513.558L-280.529 547.945C-282.167 549.378 -284.78 549.127 -286.615 547.956C-288.221 546.931 -289.369 545.359 -290.422 543.757L-290.869 543.07C-280.63 537.689 -274.062 528.049 -267.435 518.324C-263.279 512.224 -259.099 506.09 -253.976 500.952C-253.478 500.453 -252.917 499.936 -252.216 499.857C-251.349 499.76 -250.573 500.358 -249.918 500.934ZM-135.505 405.018L-134.502 405.326C-132.548 405.93 -132.224 408.547 -132.472 410.577C-133.502 418.981 -138.725 427.299 -146.779 429.91L-147.067 430.007C-152.315 431.86 -156.067 437.35 -155.843 442.919C-159.366 443.579 -163.143 440.761 -163.513 437.196C-163.587 436.485 -163.376 435.562 -162.67 435.453C-159.469 434.962 -156.526 432.997 -154.843 430.231C-153.16 427.464 -152.77 423.947 -153.806 420.879C-154.017 420.252 -154.286 419.625 -154.555 418.996C-155.321 417.21 -156.089 415.417 -155.551 413.616C-154.325 413.729 -154.092 415.411 -154.221 416.636L-154.235 416.785C-154.335 417.992 -154.122 419.542 -152.95 419.703C-152.178 417.93 -152.017 415.945 -151.858 413.974C-151.657 411.487 -151.457 409.023 -150.031 407.041C-148.4 404.774 -145.474 403.733 -142.682 403.7C-140.239 403.672 -137.851 404.306 -135.505 405.018ZM-312.034 546.704L-311.782 546.413C-310.376 546.105 -309.033 547.906 -309.729 549.166C-310.176 549.974 -308.802 550.774 -308.035 550.26C-307.268 549.745 -307.113 548.701 -307.029 547.781C-306.257 547.54 -305.589 548.424 -305.443 549.219C-305.405 549.43 -305.381 549.647 -305.357 549.865L-305.357 549.865C-305.291 550.471 -305.224 551.078 -304.842 551.534C-304.322 552.154 -302.945 551.833 -303.171 551.056C-303.508 549.898 -302.139 548.952 -300.945 548.781C-300.658 548.74 -300.361 548.716 -300.064 548.691C-299.124 548.615 -298.178 548.537 -297.494 547.927L-297.391 547.844C-296.523 547.229 -295.449 548.367 -294.794 549.378L-294.489 549.869C-293.049 552.107 -290.601 553.675 -287.962 554.033C-287.445 554.104 -287.708 554.91 -288.088 555.268L-296.994 563.655C-297.426 564.062 -298.126 563.773 -298.632 563.463C-303.918 560.226 -308.799 556.326 -313.123 551.884C-314.485 550.484 -313.33 548.252 -312.034 546.704ZM-234.145 562.315C-234.401 563.373 -235.132 564.556 -236.217 564.476C-238.833 564.283 -241.486 564.599 -243.984 565.4C-243.755 564.335 -244.221 563.153 -245.115 562.531C-245.768 563.464 -245.501 564.911 -244.558 565.55L-247.049 568.011L-248.241 565.271C-248.829 565.428 -248.846 566.149 -248.805 566.81L-248.776 567.221C-248.657 568.955 -250.128 570.642 -251.862 570.759C-253.597 570.876 -255.281 569.402 -255.396 567.668C-255.52 565.778 -254.073 564.193 -252.728 562.86L-243.174 553.4C-242.971 553.207 -242.738 553.027 -242.464 553.032C-242.161 553.038 -241.915 553.268 -241.702 553.483L-237.974 557.245C-237.251 557.975 -237.708 559.091 -238.153 560.179C-238.611 561.298 -239.057 562.388 -238.192 562.995C-237.349 563.044 -236.647 562.313 -236.324 561.533C-236.158 561.136 -236.058 560.716 -235.957 560.296C-235.861 559.893 -235.764 559.49 -235.611 559.106C-235.296 558.323 -234.618 557.577 -233.774 557.595C-232.93 557.612 -232.279 558.819 -232.932 559.354C-233.628 559.925 -233.826 560.853 -234.02 561.755L-234.02 561.756C-234.06 561.945 -234.1 562.132 -234.145 562.315ZM-299.465 566.498C-308.052 561.905 -315.643 555.459 -321.567 547.73C-320.79 546.994 -319.622 547.776 -318.871 548.611L-318.685 548.829C-313.055 555.795 -305.985 561.591 -298.051 565.746C-298.116 566.373 -298.91 566.795 -299.465 566.498ZM-258.282 564.739C-254.563 559.874 -250.441 555.317 -245.974 551.128C-245.281 550.479 -243.843 550.041 -243.668 550.974C-248.868 555.938 -253.843 561.14 -258.57 566.558C-259.084 566.112 -258.695 565.279 -258.282 564.739ZM-286.85 552.576C-289.446 551.652 -291.76 549.953 -293.418 547.753C-294.041 546.925 -294.435 545.486 -293.49 545.061C-292.743 544.724 -292.025 545.431 -291.504 546.116L-291.113 546.647C-289.434 548.862 -287.039 550.529 -284.376 551.326C-284.371 552.036 -284.959 552.702 -285.665 552.785C-286.067 552.832 -286.469 552.711 -286.85 552.576ZM-159.473 408.613C-158.253 408.642 -157.22 409.914 -157.441 411.114L-157.413 411.131C-157.244 412.001 -157.355 412.924 -157.725 413.729C-159.06 412.42 -159.728 410.464 -159.473 408.613ZM-136.226 408.643C-136.072 408.629 -135.91 408.615 -135.746 408.613C-135.54 408.611 -135.302 408.647 -135.078 408.682C-134.474 408.776 -133.969 408.854 -134.446 408.106C-135.101 407.082 -137.016 406.966 -137.33 408.141C-137.242 408.732 -136.786 408.692 -136.226 408.643ZM-134.684 413.71C-134.675 413.674 -134.666 413.639 -134.657 413.604C-134.191 411.84 -134.461 410.448 -135.746 410.448C-136.241 410.486 -136.998 413.011 -136.926 413.776C-136.854 414.542 -135.991 415.25 -135.323 414.87C-134.926 414.645 -134.799 414.155 -134.684 413.71ZM-143.161 413.174C-144.057 411.93 -144.151 410.158 -143.392 408.826C-143.279 408.627 -143.142 408.432 -142.943 408.318C-142.44 408.03 -141.768 408.42 -141.546 408.955C-141.325 409.491 -141.422 410.098 -141.522 410.669C-141.522 410.669 -142.265 414.419 -143.161 413.174ZM46.6237 413.21C30.2573 409.196 13.1597 408.181 -3.5665 410.233C-0.663513 403.47 0.61084 396.014 0.119019 388.67C-4.23962 391.724 -11.3955 388.141 -11.5606 382.821C-11.7258 377.501 -4.80597 373.481 -0.266266 376.259C0.937256 376.996 2.25986 375.469 2.74109 374.143C4.3801 369.625 4.39612 364.537 2.78555 360.009C2.15826 358.245 4.81958 357.289 6.69113 357.326L22.5742 357.64C23.6407 357.661 24.7732 357.665 25.6841 357.11C26.5949 356.555 27.1124 355.219 26.4431 354.389C23.6947 350.978 26.8535 344.875 31.2249 345.15C35.5962 345.424 37.9665 351.875 34.813 354.914C34.2248 355.481 35.3678 356.211 36.1846 356.23L56.9523 356.708C61.0828 356.803 64.0015 361.203 64.17 365.332C64.3127 368.825 63.0721 372.17 61.8468 375.475C61.74 375.763 61.6332 376.051 61.5276 376.339L61.1887 377.273C57.5104 387.595 56.3265 398.795 57.7656 409.657C58.0464 411.776 56.0954 413.662 54.0077 414.12C52.1656 414.525 50.2687 414.124 48.4246 413.662L46.6237 413.21Z" fill="#252525"/>
<path fill-rule="evenodd" clip-rule="evenodd" d="M235.67 476.609C235.053 477.126 233.817 477.313 233.702 476.517C236.108 474.069 237.762 470.894 238.39 467.52C239.176 467.31 239.403 468.56 239.206 469.349C238.542 472.007 237.768 474.848 235.67 476.609Z" fill="#252525"/>
<path fill-rule="evenodd" clip-rule="evenodd" d="M46.1357 401.768C45.3018 402.51 43.8989 401.376 44.0229 400.267C44.1468 399.158 45.1294 398.364 46.0722 397.767C49.4509 395.626 53.3641 394.336 57.3536 394.048C57.4609 395.569 55.4885 396.197 53.9917 396.489C50.8156 397.108 47.7897 398.485 45.2355 400.471C45.6974 400.754 46.0322 401.237 46.1357 401.768V401.768Z" fill="#252525"/>
<path fill-rule="evenodd" clip-rule="evenodd" d="M57.4667 403.709C55.5945 404.612 53.6895 405.447 51.7565 406.211C51.9763 407.026 53.1479 406.999 53.9425 406.713C54.737 406.426 55.7821 406.124 56.2973 406.794C54.99 408.789 51.7514 409.1 50.0884 407.39C49.3655 406.647 48.0569 407.136 47.1233 406.685C45.7872 406.04 46.0359 404.022 46.8225 402.764C48.4649 400.137 51.597 398.517 54.6899 398.695C55.8676 398.763 57.2746 399.344 57.353 400.521C53.6592 400.289 49.8932 401.812 47.3992 404.547C48.8157 405.643 50.8483 404.825 52.4462 404.015C54.044 403.206 56.1538 402.49 57.4667 403.709Z" fill="#252525"/>
</g>
</svg>
