<svg width="184" height="25" viewBox="0 0 184 25" fill="none" xmlns="http://www.w3.org/2000/svg">
<g clip-path="url(#clip0_507_773)">
<path d="M3.17329 8.75835C3.86663 7.37772 4.93027 6.21711 6.24532 5.40624C7.56036 4.59538 9.07501 4.1662 10.62 4.16669C12.8658 4.16669 14.7525 4.99169 16.195 6.33752L13.8058 8.72752C12.9416 7.90169 11.8433 7.48085 10.62 7.48085C8.44912 7.48085 6.61162 8.94752 5.95746 10.9167C5.79079 11.4167 5.69579 11.95 5.69579 12.5C5.69579 13.05 5.79079 13.5834 5.95746 14.0834C6.61246 16.0534 8.44912 17.5192 10.62 17.5192C11.7408 17.5192 12.695 17.2234 13.4416 16.7234C13.8745 16.4384 14.2451 16.0685 14.531 15.6363C14.8168 15.204 15.0121 14.7182 15.105 14.2084H10.62V10.985H18.4683C18.5666 11.53 18.62 12.0984 18.62 12.6892C18.62 15.2275 17.7116 17.3642 16.135 18.8142C14.7566 20.0875 12.87 20.8334 10.62 20.8334C9.52548 20.8338 8.44165 20.6185 7.43041 20.1999C6.41916 19.7813 5.50033 19.1675 4.72642 18.3936C3.95251 17.6196 3.3387 16.7008 2.92007 15.6896C2.50143 14.6783 2.28618 13.5945 2.28662 12.5C2.28662 11.155 2.60829 9.88336 3.17329 8.75835Z" fill="#2E279D"/>
</g>
<path d="M32.8402 6.04C31.5922 6.04 30.6002 6.344 29.8642 6.952C29.1282 7.56 28.7602 8.344 28.7602 9.304C28.7602 10.968 29.6882 11.992 31.5762 12.376L33.8482 12.808C34.2962 12.904 34.6162 13.048 34.8082 13.224C35.0002 13.416 35.0962 13.656 35.0962 13.976C35.0962 14.376 34.9202 14.696 34.6002 14.952C34.2642 15.208 33.8002 15.336 33.1922 15.336C31.8642 15.336 31.0642 14.76 30.7922 13.592L28.5042 14.056C28.6322 15.08 29.1122 15.88 29.9442 16.424C30.7762 16.968 31.8002 17.24 32.9842 17.24C34.2642 17.24 35.2882 16.936 36.0722 16.328C36.8402 15.72 37.2402 14.904 37.2402 13.864C37.2402 13.048 36.9842 12.376 36.4882 11.864C35.9922 11.352 35.3042 10.984 34.4242 10.792L32.1202 10.328C31.4002 10.2 31.0482 9.832 31.0482 9.24C31.0482 8.872 31.2082 8.552 31.5282 8.296C31.8482 8.04 32.2642 7.912 32.7922 7.912C33.3362 7.912 33.8002 8.072 34.2002 8.376C34.5842 8.68 34.8242 9.08 34.9042 9.576L37.0802 9.128C36.8722 8.184 36.3922 7.432 35.6242 6.872C34.8562 6.328 33.9282 6.04 32.8402 6.04ZM40.3222 5.368C39.9542 5.368 39.6502 5.496 39.4102 5.752C39.1542 6.008 39.0422 6.296 39.0422 6.632C39.0422 6.984 39.1542 7.288 39.3942 7.512C39.6342 7.752 39.9382 7.864 40.3222 7.864C40.6742 7.864 40.9782 7.752 41.2342 7.512C41.4742 7.288 41.6022 6.984 41.6022 6.632C41.6022 6.296 41.4742 6.008 41.2342 5.752C40.9782 5.496 40.6742 5.368 40.3222 5.368ZM41.3782 17V9.016H39.2662V17H41.3782ZM51.5083 9.016H49.4763V9.512C48.8363 9.032 48.0043 8.776 46.9643 8.776C45.9403 8.776 45.0283 9.16 44.2603 9.912C43.4763 10.664 43.0923 11.576 43.0923 12.632C43.0923 13.72 43.4763 14.632 44.2603 15.384C45.0283 16.152 45.9403 16.52 46.9643 16.52C48.0203 16.52 48.8683 16.28 49.4763 15.784V15.912C49.4763 16.616 49.2683 17.16 48.8683 17.544C48.4683 17.944 47.9243 18.136 47.2523 18.136C46.7403 18.136 46.3403 18.056 46.0363 17.88C45.7163 17.704 45.3963 17.4 45.0763 16.984L43.3643 18.28C44.1003 19.464 45.3963 20.04 47.2523 20.04C48.5643 20.04 49.6043 19.72 50.3723 19.048C51.1403 18.376 51.5243 17.448 51.5243 16.232L51.5083 9.016ZM47.3323 14.712C46.6923 14.712 46.1643 14.52 45.7483 14.136C45.3323 13.752 45.1243 13.256 45.1243 12.632C45.1243 12.024 45.3323 11.512 45.7483 11.128C46.1643 10.744 46.6923 10.552 47.3323 10.552C47.9083 10.552 48.4043 10.76 48.8363 11.144C49.2523 11.528 49.4763 12.024 49.4763 12.632C49.4763 13.24 49.2523 13.752 48.8363 14.136C48.4043 14.52 47.9083 14.712 47.3323 14.712ZM58.3876 8.776C57.3476 8.776 56.5156 9.096 55.8756 9.736V9.016H53.7636V17H55.8756V13.464C55.8756 11.64 56.5316 10.712 57.8596 10.712C58.3396 10.712 58.7396 10.888 59.0276 11.224C59.3156 11.576 59.4756 12.024 59.4756 12.584V17H61.5876V12.136C61.5876 11.144 61.2836 10.344 60.7076 9.72C60.1156 9.096 59.3476 8.776 58.3876 8.776ZM75.1296 9.016H73.0176V12.552C73.0176 14.392 72.3456 15.304 71.0336 15.304C70.5376 15.304 70.1376 15.144 69.8496 14.792C69.5616 14.456 69.4176 14.008 69.4176 13.432V9.016H67.3056V13.88C67.3056 14.872 67.5936 15.688 68.1856 16.312C68.7616 16.936 69.5456 17.24 70.5056 17.24C71.5296 17.24 72.3776 16.92 73.0176 16.28V17H75.1296V9.016ZM82.1249 8.776C81.0689 8.776 80.1889 9.08 79.4849 9.656V9.016H77.3729V19.72H79.4849V16.376C80.1889 16.952 81.0689 17.24 82.1249 17.24C83.1809 17.24 84.0929 16.84 84.8769 16.04C85.6449 15.24 86.0449 14.232 86.0449 13.016C86.0449 11.8 85.6449 10.792 84.8609 9.992C84.0769 9.192 83.1649 8.776 82.1249 8.776ZM81.7569 15.4C81.1489 15.4 80.6209 15.192 80.1729 14.744C79.7089 14.296 79.4849 13.72 79.4849 13.016C79.4849 12.312 79.7089 11.736 80.1729 11.288C80.6209 10.84 81.1489 10.616 81.7569 10.616C82.3969 10.616 82.9409 10.84 83.3569 11.272C83.7729 11.72 83.9969 12.296 83.9969 13.016C83.9969 13.752 83.7729 14.328 83.3569 14.76C82.9409 15.192 82.3969 15.4 81.7569 15.4ZM102.841 9.016H100.745L99.1612 13.944L97.5292 9.016H95.8812L94.2492 13.928L92.6652 9.016H90.5692L93.2252 17.016H95.1292L96.7132 12.312L98.2812 17.016H100.185L102.841 9.016ZM105.291 5.368C104.923 5.368 104.619 5.496 104.379 5.752C104.123 6.008 104.011 6.296 104.011 6.632C104.011 6.984 104.123 7.288 104.363 7.512C104.603 7.752 104.907 7.864 105.291 7.864C105.643 7.864 105.947 7.752 106.203 7.512C106.443 7.288 106.571 6.984 106.571 6.632C106.571 6.296 106.443 6.008 106.203 5.752C105.947 5.496 105.643 5.368 105.291 5.368ZM106.347 17V9.016H104.235V17H106.347ZM113.901 14.888C113.421 15.144 112.973 15.272 112.573 15.272C111.789 15.272 111.405 14.824 111.405 13.896V10.744H114.013V9.016H111.405V6.6H109.293V9.016H107.581V10.744H109.293V14.056C109.293 15.128 109.565 15.928 110.125 16.456C110.669 16.984 111.437 17.24 112.429 17.24C113.069 17.24 113.773 17.048 114.509 16.648L113.901 14.888ZM120.263 8.776C119.223 8.776 118.391 9.096 117.751 9.736V5.48H115.639V17H117.751V13.464C117.751 11.64 118.407 10.712 119.735 10.712C120.215 10.712 120.615 10.888 120.903 11.224C121.191 11.576 121.351 12.024 121.351 12.584V17H123.463V12.136C123.463 11.144 123.159 10.344 122.583 9.72C121.991 9.096 121.223 8.776 120.263 8.776ZM134.14 10.744V12.728H137.9C137.708 13.496 137.34 14.104 136.764 14.552C136.188 15 135.484 15.208 134.684 15.208C133.676 15.208 132.828 14.872 132.156 14.184C131.468 13.512 131.132 12.664 131.132 11.64C131.132 10.648 131.452 9.8 132.124 9.112C132.78 8.44 133.596 8.088 134.556 8.088C136.028 8.088 137.1 8.712 137.756 9.96L139.708 9.272C139.324 8.232 138.668 7.432 137.74 6.872C136.796 6.328 135.74 6.04 134.556 6.04C132.972 6.04 131.644 6.584 130.556 7.672C129.468 8.76 128.924 10.072 128.924 11.64C128.924 13.224 129.468 14.552 130.572 15.624C131.66 16.712 133.02 17.24 134.62 17.24C136.188 17.24 137.5 16.712 138.524 15.656C139.548 14.6 140.06 13.272 140.06 11.672C140.06 11.432 140.044 11.128 140.012 10.744H134.14ZM145.538 8.824C144.322 8.824 143.282 9.224 142.45 10.008C141.602 10.792 141.186 11.8 141.186 13.016C141.186 14.248 141.602 15.256 142.45 16.04C143.282 16.824 144.322 17.208 145.538 17.208C146.722 17.208 147.746 16.824 148.578 16.04C149.41 15.256 149.842 14.248 149.842 13.016C149.842 11.8 149.41 10.792 148.578 10.008C147.746 9.224 146.722 8.824 145.538 8.824ZM145.538 15.4C144.93 15.4 144.386 15.192 143.922 14.744C143.458 14.312 143.234 13.736 143.234 13.016C143.234 12.312 143.458 11.736 143.922 11.288C144.386 10.856 144.93 10.632 145.538 10.632C146.114 10.632 146.642 10.856 147.106 11.304C147.554 11.752 147.794 12.312 147.794 13.016C147.794 13.72 147.554 14.296 147.106 14.744C146.642 15.192 146.114 15.4 145.538 15.4ZM155.147 8.824C153.931 8.824 152.891 9.224 152.059 10.008C151.211 10.792 150.795 11.8 150.795 13.016C150.795 14.248 151.211 15.256 152.059 16.04C152.891 16.824 153.931 17.208 155.147 17.208C156.331 17.208 157.355 16.824 158.187 16.04C159.019 15.256 159.451 14.248 159.451 13.016C159.451 11.8 159.019 10.792 158.187 10.008C157.355 9.224 156.331 8.824 155.147 8.824ZM155.147 15.4C154.539 15.4 153.995 15.192 153.531 14.744C153.067 14.312 152.843 13.736 152.843 13.016C152.843 12.312 153.067 11.736 153.531 11.288C153.995 10.856 154.539 10.632 155.147 10.632C155.723 10.632 156.251 10.856 156.715 11.304C157.163 11.752 157.403 12.312 157.403 13.016C157.403 13.72 157.163 14.296 156.715 14.744C156.251 15.192 155.723 15.4 155.147 15.4ZM168.821 9.016H166.789V9.512C166.149 9.032 165.317 8.776 164.277 8.776C163.253 8.776 162.341 9.16 161.573 9.912C160.789 10.664 160.405 11.576 160.405 12.632C160.405 13.72 160.789 14.632 161.573 15.384C162.341 16.152 163.253 16.52 164.277 16.52C165.333 16.52 166.181 16.28 166.789 15.784V15.912C166.789 16.616 166.581 17.16 166.181 17.544C165.781 17.944 165.237 18.136 164.565 18.136C164.053 18.136 163.653 18.056 163.349 17.88C163.029 17.704 162.709 17.4 162.389 16.984L160.677 18.28C161.413 19.464 162.709 20.04 164.565 20.04C165.877 20.04 166.917 19.72 167.685 19.048C168.453 18.376 168.837 17.448 168.837 16.232L168.821 9.016ZM164.645 14.712C164.005 14.712 163.477 14.52 163.061 14.136C162.645 13.752 162.437 13.256 162.437 12.632C162.437 12.024 162.645 11.512 163.061 11.128C163.477 10.744 164.005 10.552 164.645 10.552C165.221 10.552 165.717 10.76 166.149 11.144C166.565 11.528 166.789 12.024 166.789 12.632C166.789 13.24 166.565 13.752 166.149 14.136C165.717 14.52 165.221 14.712 164.645 14.712ZM173.188 17V5.48H171.076V17H173.188ZM182.971 12.856C182.923 11.672 182.507 10.696 181.723 9.928C180.939 9.16 180.011 8.776 178.923 8.776C177.755 8.776 176.779 9.176 175.979 9.976C175.179 10.776 174.795 11.784 174.795 13.016C174.795 14.264 175.179 15.272 175.979 16.056C176.763 16.856 177.739 17.24 178.891 17.24C179.787 17.24 180.571 17.032 181.243 16.616C181.915 16.2 182.411 15.592 182.763 14.776L180.875 14.376C180.459 15.08 179.787 15.432 178.891 15.432C178.395 15.432 177.963 15.272 177.595 14.936C177.227 14.6 176.987 14.152 176.891 13.576H182.971V12.856ZM178.923 10.616C179.371 10.616 179.755 10.744 180.107 10.984C180.443 11.24 180.683 11.608 180.811 12.088H176.955C177.067 11.624 177.307 11.256 177.691 11C178.075 10.744 178.475 10.616 178.923 10.616Z" fill="#2E279D"/>
<defs>
<clipPath id="clip0_507_773">
<rect width="20" height="20" fill="white" transform="translate(0.620117 2.5)"/>
</clipPath>
</defs>
</svg>
