<svg width="306" height="674" viewBox="0 0 306 674" fill="none" xmlns="http://www.w3.org/2000/svg">
<g opacity="0.6">
<g opacity="0.6">
<path d="M614.487 499.299C610.32 580.563 545.209 654.205 465.395 670.045C385.581 685.886 298.229 643.753 259.339 572.278C255.047 564.39 251.225 556.117 247.404 547.845C237.538 526.489 227.675 505.14 209.74 490.451C189.263 473.678 162.927 469.192 136.326 464.661C119.434 461.784 102.435 458.888 86.7609 452.817C48.9769 438.181 19.6395 403.508 11.4614 363.822C-1.79137 299.511 40.1869 233.85 96.1665 199.531C152.146 165.211 219.413 155.652 284.661 148.287C309.621 145.47 329.896 126.66 344.377 106.136C349.983 98.1906 355.027 89.8415 360.067 81.4985C368.046 68.2909 376.015 55.0988 386.191 43.5474C429.279 -5.36538 509.518 -13.6192 564.401 21.552C619.283 56.7232 645.552 129.045 630.957 192.575C628.443 203.517 624.875 214.172 621.306 224.827L621.306 224.829C617.89 235.029 614.474 245.229 611.982 255.683C606.657 278.028 605.64 301.152 605.034 324.115C604.311 351.493 604.141 378.943 606.705 406.211C607.597 415.697 608.819 425.17 610.042 434.642C612.819 456.165 615.596 477.678 614.487 499.299Z" fill="#DFF6E4"/>
<path d="M284.571 128.878C314.414 114.032 338.166 88.248 353.124 58.4605C355.085 54.5549 356.943 50.4051 356.875 46.0352C356.806 41.6654 354.263 37.0368 350.036 35.927C343.978 34.3366 338.769 40.1448 334.991 45.1404C309.041 79.4578 271.27 106.399 228.648 112.274C212.279 114.531 195.659 113.683 179.157 112.831L153.381 111.5C132.621 110.428 111.572 109.378 91.251 113.759C70.9299 118.139 51.0736 128.675 39.9126 146.213C36.3601 151.795 33.6991 158.373 34.6821 164.917C35.6894 171.622 40.4557 177.313 46.1971 180.921C51.9384 184.528 58.6086 186.333 65.219 187.843C70.0589 188.949 75.0021 189.928 79.9544 189.58C88.0509 189.01 95.3983 184.984 102.547 181.066C103.024 180.805 103.499 180.545 103.974 180.286C116.469 173.469 129.416 167.415 142.92 162.917C162.613 156.358 183.319 153.148 203.975 149.946C231.801 145.632 259.535 141.333 284.571 128.878Z" fill="#DFF6E4"/>
<path d="M129.377 524.395L129.395 524.396C130.611 524.444 131.826 524.493 133.039 524.556C152.216 525.553 171.193 530.255 188.617 538.325C195.261 541.402 201.989 545.253 205.721 551.552C210.337 559.347 215.88 566.593 222.193 573.089C224.643 575.609 227.295 578.074 230.565 579.362C233.835 580.649 237.873 580.531 240.527 578.227C243.75 575.427 243.959 570.455 242.966 566.303C241.338 559.498 237.278 553.568 233.26 547.84C220.075 529.044 206.194 510.251 187.845 496.449C169.496 482.648 145.816 474.291 123.357 479.059C115.602 480.705 107.916 484.06 102.775 490.095C97.6331 496.129 95.6014 505.211 99.3043 512.22C102.242 517.781 108.197 521.203 114.294 522.745C119.209 523.987 124.298 524.191 129.376 524.395H129.377Z" fill="#DFF6E4"/>
<path d="M648.085 241.686C642.959 239.753 637.153 242.087 632.814 245.432C624.244 252.039 619.174 262.374 616.867 272.946C614.56 283.518 614.746 294.454 614.944 305.274L616.638 398.235C616.762 405.026 617.064 412.346 621.24 417.703C622.547 419.379 624.336 420.851 626.451 421.067C629.014 421.328 631.385 419.71 633.236 417.918C643.358 408.117 644.687 392.679 645.899 378.608L645.943 378.097C647.723 357.441 650.806 336.898 655.167 316.63C656.393 310.93 657.741 305.194 660.306 299.959C668.348 283.546 666.425 262.711 655.514 248.048C653.54 245.396 651.179 242.852 648.085 241.686Z" fill="#DFF6E4"/>
</g>
<path d="M229.236 395.406C227.265 382.576 227.268 369.446 229.244 356.617L229.344 355.996C229.835 353.085 230.696 350.011 233.129 348.408C234.95 347.207 237.25 347.117 239.444 347.116L256.239 347.162C257.003 347.164 257.841 347.193 258.416 347.697C258.99 348.201 258.975 349.358 258.238 349.562C256.479 350.05 255.468 352.078 255.681 353.891C255.895 355.704 257.073 357.274 258.458 358.464C261.759 361.302 266.89 362.31 270.545 359.944C274.199 357.578 275.058 351.482 271.596 348.844C279.441 348.684 287.29 348.709 295.134 348.917L298.075 349.004C299.025 349.035 300.077 349.111 300.741 349.792C301.239 350.303 301.403 351.046 301.516 351.751C302.385 357.181 301.435 362.886 298.854 367.742C298.443 368.516 297.491 369.368 296.842 368.779C294.086 366.277 289.451 366.618 286.63 369.048C283.81 371.477 282.72 375.513 283.219 379.202C283.698 382.752 286.286 386.544 289.864 386.365C292.683 386.224 295.817 383.759 297.946 385.611L294.358 401.641C293.721 404.489 292.577 407.868 289.723 408.478C273.249 412.002 255.975 411.735 239.618 407.705L238.824 407.504C236.839 406.985 234.861 406.312 233.313 404.987C230.617 402.679 229.775 398.913 229.236 395.406Z" fill="white"/>
<path d="M237.741 314.39C232.135 314.412 226.528 314.182 220.943 313.699L220.4 313.649C218.4 313.45 216.303 313.049 214.992 311.562C213.224 309.554 213.655 306.528 214.187 303.879L214.24 303.616C216.614 291.996 217.546 280.083 217.011 268.235L216.911 266.193C216.762 262.519 216.997 258.354 220.048 256.465C220.977 255.89 222.054 255.623 223.128 255.407L223.486 255.336C243.022 251.531 263.364 251.916 282.742 256.46C285.294 257.058 286.004 260.515 285.158 262.995C284.311 265.475 282.494 267.56 281.814 270.092C281.135 272.623 282.381 276.049 285 276.131C290.452 276.302 295.073 281.841 294.34 287.246C293.607 292.65 287.765 296.75 282.418 295.676C281.163 295.425 280.719 297.279 280.857 298.552L282.383 312.661C282.632 314.964 279.364 315.691 277.054 315.512L263.581 314.463C261.465 314.298 258.626 314.663 258.3 316.761C257.488 321.985 252.132 326.064 246.881 325.458C241.629 324.852 237.343 319.661 237.741 314.39Z" fill="white"/>
<path fill-rule="evenodd" clip-rule="evenodd" d="M201.476 401.223C202.971 401.586 205.111 402.232 204.992 403.645C202.6 432.136 192.302 426.893 183.119 435.062C180.693 437.221 179.243 442.326 178.2 442.443C182.065 444.228 187.673 451.388 197.325 451.716C224.217 452.628 234.005 433.005 234.005 433.005C234.638 426.713 231.447 415.382 235.43 418.555C238.179 420.745 237.636 410.075 241.391 411.137C242.52 411.457 240.549 418.551 241.391 418.975C241.857 419.21 242.546 417.276 243.747 415.737C244.749 414.454 246.294 413.504 246.613 413.784C246.83 413.974 246.622 415.808 245.72 417.359C244.453 419.54 242.333 421.639 242.629 421.988C242.956 422.373 248.546 417.171 248.887 417.626C251.148 420.643 236.822 455.372 212.646 461.929L210.732 462.443C196.639 466.187 190.721 466.698 177.664 461.929C171.473 459.667 167.622 480.789 164.181 487.819C162.008 492.258 151.454 503.137 146.635 499.847C140.276 495.506 135.091 487.427 129.68 483.341L129.333 483.085C125.645 480.441 117.305 476.429 104.311 471.048L104.896 470.778C107.607 469.546 114.59 466.532 119.952 461.929C127.57 455.388 131.696 441.338 137.007 433.761C142.25 426.28 149.287 427.382 145.04 426.059C145.04 426.059 134.28 420.358 129.333 419.836C112.812 418.092 91.2754 425.9 84.3858 430.931C74.9325 437.835 84.3249 447.995 71.2628 443.015C66.9094 441.356 78.5775 419.855 94.6724 411.137C117.044 399.02 138.197 395.687 159.404 414.976C168.035 422.826 168.89 429.815 171.204 435.143L170.73 433.837C196.314 432.15 157.981 406.537 189.984 400.127C193.345 399.453 196.872 400.154 200.241 400.933L201.476 401.223Z" fill="white"/>
<circle cx="185" cy="419" r="2" fill="#FFE352"/>
<circle cx="196" cy="423" r="2" fill="#FFE352"/>
<path fill-rule="evenodd" clip-rule="evenodd" d="M79.8935 496.563C101.572 511.574 73.8349 490.84 97.5212 515.549C102.305 520.539 126.523 492.041 129.021 508.93C129.932 515.09 127.945 521.503 129.156 527.611C130.287 533.311 155.077 529.889 156.992 527.396C163.934 518.359 142.331 495.145 137.802 491.435C112.525 470.729 104.183 472.165 80.5655 493.588L79.8935 496.563Z" fill="white"/>
<path d="M162.91 270.642C164.067 272.8 162.249 275.885 159.801 275.92C157.705 264.135 155.444 251.94 148.622 242.104C135.56 223.27 108.642 217.084 97.4585 197.078C89.8437 202.497 78.2001 201.116 72.0651 194.065C68.2497 189.679 61.599 189.141 55.8691 190.119C50.1393 191.098 44.5414 193.261 38.7316 193.077C36.2106 192.997 33.4639 192.319 31.9967 190.267C30.5295 188.216 31.3771 184.605 33.8739 184.248C44.7514 182.691 55.6288 181.134 66.5063 179.577C67.3605 179.455 68.2669 179.309 68.9154 178.74C69.6491 178.096 69.8796 177.066 70.0698 176.109C71.6446 168.183 72.7792 158.736 66.9435 153.147C62.1069 148.515 54.4734 148.675 47.9026 149.967C41.3318 151.259 34.5599 153.385 28.0843 151.679C21.6086 149.973 16.1932 142.281 19.6841 136.566C22.0223 132.738 19.3858 127.633 15.7792 124.967C12.1725 122.301 7.68417 120.987 4.18837 118.177C0.692566 115.367 -1.52602 109.945 1.25847 106.429C2.48309 104.882 4.40059 104.068 6.28181 103.474C12.5079 101.51 19.4504 101.36 25.452 103.93C31.4535 106.5 36.3273 112.008 37.304 118.463C38.0996 123.722 36.5878 129.84 40.0643 133.865C44.6095 139.128 53.0103 136.176 59.9639 136.113C67.0758 136.048 74.1085 139.818 77.9904 145.778C81.8723 151.737 82.4787 159.694 79.5449 166.173C87.8058 157.768 98.9322 151.32 110.709 151.759C121.587 152.164 131.582 158.421 138.857 166.518C146.132 174.615 151.095 184.477 155.962 194.214C157.775 197.841 162.374 199.807 166.249 198.612C170.124 197.416 172.815 193.2 172.269 189.182C175.646 189.918 175.998 194.483 176.102 197.938C176.32 205.197 178.949 212.363 183.476 218.042C184.99 215.248 186.146 212.26 186.905 209.175C190.209 212.974 191.442 218.472 190.076 223.318C188.71 228.164 184.788 232.209 179.986 233.723C177.431 234.529 174.306 234.916 173.038 237.276C177.83 245.666 181.951 254.439 185.35 263.483C187.172 268.333 188.487 274.574 184.651 278.056C180.216 274.782 177.695 269.588 175.342 264.602C171.672 256.825 168.001 249.048 164.33 241.271" fill="white"/>
<path fill-rule="evenodd" clip-rule="evenodd" d="M175.018 192.793C174.054 202.21 177.579 211.989 184.33 218.625C186.737 217.172 188.277 214.385 188.223 211.574C190.753 215.733 189.336 221.374 186.19 225.09C183.044 228.805 178.531 231.033 174.151 233.159C171.642 234.377 169.037 235.62 166.248 235.703C161.994 235.831 158.183 233.272 154.705 230.82L144.5 223.625C149.773 233.463 161.773 239.192 172.739 237.105C180.364 247.803 185.033 260.585 186.098 273.679L184.048 269.892C184.029 269.845 184.005 269.799 183.974 269.754L184.048 269.892C184.343 270.618 183.191 271.421 182.415 271.046C181.59 270.646 181.279 269.653 181.035 268.769C178.033 257.883 172.653 247.66 165.38 239.021L176.393 262.352C178.746 267.338 181.266 272.532 185.701 275.807C189.538 272.325 188.223 266.084 186.4 261.234C183.001 252.19 178.88 243.417 174.089 235.027C175.118 233.11 177.372 232.495 179.551 231.9L179.552 231.899L179.552 231.899L179.552 231.899L179.552 231.899L179.553 231.899C180.056 231.762 180.556 231.625 181.036 231.474C185.838 229.96 189.76 225.914 191.126 221.068C192.492 216.222 191.259 210.724 187.955 206.925C187.196 210.011 186.04 212.999 184.526 215.792C179.999 210.114 177.371 202.947 177.152 195.689C177.048 192.234 176.696 187.668 173.319 186.932C173.865 190.951 171.174 195.166 167.299 196.362C163.424 197.558 158.825 195.592 157.012 191.964C152.145 182.227 147.182 172.366 139.907 164.269C132.632 156.172 122.637 149.915 111.759 149.51C99.9825 149.071 88.856 155.518 80.5951 163.923C83.529 157.445 82.9225 149.488 79.0406 143.528C75.1587 137.569 68.126 133.798 61.0141 133.863C59.2101 133.88 57.3087 134.09 55.4025 134.302C49.9611 134.905 44.4806 135.513 41.1145 131.615C38.7371 128.863 38.6925 125.131 38.6475 121.366C38.6267 119.624 38.6057 117.876 38.3542 116.213C37.3776 109.758 32.5038 104.25 26.5022 101.681C20.5006 99.1108 13.5582 99.2606 7.33205 101.225C5.45083 101.818 3.53333 102.633 2.30871 104.179C-0.475777 107.696 1.7428 113.118 5.23861 115.928C7.07845 117.407 9.19322 118.471 11.3097 119.536C13.2146 120.495 15.121 121.455 16.8294 122.718C20.4361 125.384 23.0725 130.489 20.7344 134.316C17.2434 140.031 22.6589 147.723 29.1345 149.43C34.4876 150.84 40.0431 149.632 45.5201 148.441C46.6687 148.191 47.8138 147.942 48.9529 147.718C55.5237 146.426 63.1572 146.266 67.9937 150.898C73.8294 156.486 72.6948 165.934 71.1201 173.859C70.9298 174.817 70.6994 175.846 69.9657 176.491C69.3172 177.06 68.4107 177.205 67.5565 177.327L34.9241 181.998C32.4273 182.356 31.5797 185.966 33.0469 188.018C34.5141 190.07 37.2608 190.748 39.7818 190.827C43.6364 190.949 47.3977 190.038 51.1662 189.126C53.0777 188.663 54.9911 188.199 56.9194 187.87C62.6492 186.892 69.2999 187.43 73.1153 191.815C79.2503 198.866 90.894 200.248 98.5087 194.828C104.394 205.356 114.635 212.057 124.922 218.787C134.184 224.847 143.483 230.931 149.672 239.855C156.494 249.691 158.755 261.886 160.851 273.671C163.299 273.636 165.117 270.55 163.961 268.392L161.661 271.426C160.811 252.852 151.324 234.85 136.482 223.649C132.807 220.876 128.776 218.444 124.754 216.018C115.916 210.686 107.12 205.38 102.227 196.524C101.786 195.727 101.376 194.882 101.304 193.974C101.214 192.824 101.672 191.716 102.114 190.647L102.178 190.494C103.942 186.215 105.174 181.519 104.307 176.972C103.441 172.426 100.018 168.126 95.44 167.442C103.189 172.398 104.777 184.698 98.5418 191.461C92.3065 198.223 79.918 197.635 74.3509 190.313C69.8891 184.445 60.9674 185.163 53.786 186.828C46.6046 188.492 38.1478 190.234 32.6002 185.379C44.4689 182.116 56.6819 180.106 68.9706 179.395C71.898 179.226 73.0463 175.574 73.4406 172.668C74.0467 168.202 74.6529 163.663 73.9888 159.204C73.3248 154.746 71.2056 150.298 67.4222 147.848C62.8789 144.905 57.0137 145.361 51.63 145.924L37.3229 147.421C34.2401 147.744 31.0719 148.06 28.083 147.239C25.0941 146.418 22.2818 144.19 21.7087 141.144C21.3468 139.22 21.8976 137.325 22.4528 135.415C22.8526 134.04 23.2547 132.657 23.3202 131.249C23.5069 127.241 20.9173 123.568 17.7707 121.077C15.8428 119.552 13.6945 118.351 11.5443 117.149C10.185 116.389 8.82495 115.629 7.51922 114.786C5.06143 113.199 2.53965 110.636 3.22303 107.791C3.66005 105.972 5.30626 104.711 6.96128 103.838C12.5492 100.893 19.5337 100.76 25.2292 103.492C30.9248 106.224 35.1937 111.753 36.3945 117.955C36.6908 119.485 36.8254 121.082 36.9597 122.677C37.2705 126.366 37.5798 130.037 39.8845 132.808C42.6374 136.119 47.3953 136.953 51.6959 136.748C53.1704 136.677 54.6448 136.512 56.118 136.347C58.9415 136.031 61.7605 135.715 64.5676 136.069C74.0069 137.258 81.4439 147.079 80.029 156.487C79.9508 157.007 79.8501 157.532 79.749 158.058C79.3888 159.935 79.0252 161.83 79.6662 163.593C80.4871 165.85 84.0775 167.052 85.2151 164.937C90.3125 155.458 102.004 150.683 112.693 151.935C123.382 153.186 132.948 159.623 139.966 167.782C146.983 175.942 151.757 185.76 156.111 195.603C157.645 199.069 162.211 200.325 165.858 199.293C169.506 198.262 172.401 195.535 175.018 192.793ZM155.863 209.313C155.967 209.298 156.207 209.769 156.57 210.479C157.462 212.225 159.094 215.419 161.245 216.39C161.149 217.295 159.726 216.811 159.134 216.119C157.452 214.154 155.667 211.892 155.863 209.313ZM160.941 224.827C162.052 226.454 155.402 227.264 153.191 225.844C153.58 225.769 154.093 225.809 154.661 225.854C155.335 225.906 156.086 225.964 156.8 225.844C157.845 225.669 158.854 225.348 159.616 225.105C160.355 224.87 160.861 224.709 160.941 224.827ZM159.345 218.78C156.698 219.233 153.445 215.708 153.445 212.391C154.208 214.843 156.919 216.788 158.417 217.863C159.179 218.41 159.627 218.731 159.345 218.78ZM168.83 232.646C165.304 232.646 163.706 226.701 165.304 226.319C165.686 226.145 165.704 226.678 165.731 227.464C165.759 228.291 165.796 229.399 166.277 230.261C166.811 231.219 167.942 231.86 168.602 232.234C169.101 232.516 169.331 232.646 168.83 232.646ZM172.758 224.551C173.532 224.977 174.238 225.638 174.439 226.499C174.639 227.36 174.158 228.403 173.292 228.583C173.021 228.184 173.168 227.931 173.323 227.664C173.551 227.272 173.796 226.85 172.758 225.893C172.321 225.491 171.812 225.316 171.455 225.193C171.181 225.098 170.996 225.035 171.003 224.922C171.048 224.207 172.13 224.205 172.758 224.551ZM166.158 216.803C165.984 216.924 165.864 217.008 165.967 217.103C166.285 217.399 166.66 217.541 167.035 217.326C167.32 217.162 167.465 216.829 167.533 216.507C167.909 214.705 166.007 212.845 164.214 213.261C164.373 213.68 164.678 213.815 165.047 213.977C165.474 214.165 165.987 214.392 166.464 215.138C167.106 216.144 166.517 216.553 166.158 216.803ZM165.555 233.784C163.479 233.179 161.426 228.276 162.531 227.905C163.221 227.673 163.217 227.71 163.177 228.098C163.14 228.453 163.073 229.103 163.479 230.109C163.984 231.358 164.69 232.373 165.14 233.018C165.448 233.461 165.636 233.73 165.555 233.784ZM641.077 122.468C636.62 123.015 633.107 126.61 630.892 130.516C629.821 132.405 628.963 134.404 628.106 136.403C627.191 138.537 626.275 140.672 625.1 142.671C619.491 152.209 608.835 157.423 598.623 161.684C596.863 162.418 593.778 162.073 594.327 160.246C611.046 157.073 625.44 143.836 629.997 127.44C630.534 125.508 628.022 123.878 626.083 124.389C624.329 124.851 623.08 126.314 621.953 127.765L621.601 128.222C612.288 140.335 598.919 150.576 583.654 151.237C582.574 151.284 581.028 150.625 581.503 149.653C592.809 149.274 603.467 143.694 611.862 136.112C620.258 128.529 626.659 119.026 632.648 109.429C633.575 107.944 635.799 108.262 637.455 108.826C642.537 110.559 647.412 112.897 651.945 115.774C654.379 117.318 652.451 121.44 649.684 122.248C648.095 122.712 646.434 122.599 644.766 122.486C643.532 122.402 642.294 122.318 641.077 122.468ZM636.735 113.016L636.345 112.897C635.155 112.556 633.827 112.367 632.87 113.105C632.499 113.391 632.233 113.786 631.989 114.189L628.808 119.555C630.478 119.941 632.078 120.625 633.512 121.565C634.683 122.334 636.296 122.363 637.495 121.638C638.693 120.913 639.416 119.471 639.279 118.077C639.228 117.557 640.08 117.415 640.436 117.798C640.702 118.084 640.781 118.476 640.861 118.866C640.887 118.998 640.914 119.13 640.948 119.258C641.082 119.763 641.494 120.307 642.006 120.203C642.525 119.71 642.809 118.979 642.759 118.264C642.945 117.527 644.095 118.184 644.273 118.924C644.451 119.663 644.785 120.714 645.519 120.516C646.598 120.25 646.938 118.747 646.412 117.767C645.886 116.788 644.828 116.234 643.819 115.767C641.519 114.701 639.152 113.781 636.735 113.016ZM627.064 121.738C628.725 123.409 631.143 124.299 633.491 124.103C632.051 122.29 629.603 121.343 627.318 121.693L627.064 121.738ZM508.127 288.24C500.133 290.5 491.104 288.717 484.569 283.587C478.654 286.688 472.539 289.695 465.931 290.665C459.323 291.635 452.049 290.273 447.272 285.606C448.061 287.316 448.866 289.09 448.891 290.974C448.916 292.857 447.941 294.891 446.157 295.495C443.213 296.492 440.641 293.346 439.113 290.639C438.276 292.723 439.139 295.068 439.978 297.348C440.936 299.95 441.862 302.466 440.198 304.414C438.465 306.443 435.177 305.924 432.792 304.727C423.857 300.246 419.66 288.966 421.595 279.159C423.531 269.353 430.582 261.141 438.978 255.718C433.278 251.54 429.108 245.319 427.409 238.458C428.57 239.957 429.431 241.697 430.292 243.438L430.292 243.438C431.153 245.179 432.015 246.919 433.176 248.418C434.278 249.839 435.68 251.019 437.081 252.198L437.082 252.198C438.483 253.378 439.885 254.557 440.987 255.979C441.268 256.342 441.511 256.952 441.112 257.179C433.062 261.751 426.177 269.036 423.893 278.006C421.609 286.977 424.787 297.566 432.67 302.419C434.059 303.275 435.716 303.961 437.293 303.545C438.871 303.128 440.054 301.148 439.148 299.791C436.592 295.962 436.281 290.745 438.365 286.64L444.97 294.046C446.489 293.656 446.864 291.613 446.46 290.098C446.332 289.618 446.157 289.144 445.982 288.671L445.981 288.67C445.604 287.65 445.228 286.635 445.329 285.569C445.478 284.008 447.515 282.611 448.591 283.752C452.887 288.304 459.788 289.596 465.966 288.594C472.145 287.591 477.804 284.626 483.339 281.703L489.872 278.253C489.4 280.138 487.873 281.72 486.006 282.257C492.312 286.787 500.744 288.21 508.188 286.001C509.47 285.621 510.786 285.094 511.618 284.047C512.449 282.999 512.584 281.295 511.579 280.412C511.457 280.304 511.32 280.21 511.183 280.115C510.915 279.93 510.647 279.745 510.494 279.463C510.262 279.037 510.621 278.322 511.065 278.517C513.58 278.342 515.131 281.721 514.106 284.024C513.082 286.327 510.553 287.554 508.127 288.24ZM463.497 254.805C462.061 254.344 460.449 255.334 459.825 256.708C459.201 258.081 459.378 259.695 459.85 261.128C460 259.512 460.206 258.293 460.818 257.231C461.082 256.773 461.898 256.341 462.616 255.961C463.544 255.47 464.307 255.066 463.497 254.805ZM462.279 250.745C464.374 250.223 466.741 251.029 468.081 252.722C469.421 254.415 469.663 256.903 468.675 258.823C468.438 258.536 468.381 258.016 468.311 257.364C468.103 255.438 467.771 252.36 462.279 250.745ZM460.462 265.626C459.799 266.454 462.108 268.64 465.719 267.132C466.388 266.853 465.842 266.821 464.982 266.771C464.197 266.725 463.151 266.663 462.527 266.385C461.999 266.15 461.729 265.772 461.526 265.49C461.226 265.072 461.075 264.862 460.462 265.626ZM467.779 268.394C470.093 267.241 468.641 270.622 463.8 270.207C463.364 270.17 462.793 270.001 462.797 269.561C462.799 269.407 463.208 269.371 463.845 269.316C464.834 269.23 466.371 269.096 467.779 268.394ZM453.501 261.978C454.372 262.829 455.64 262.851 456.486 262.688C457.001 262.589 457.254 262.128 456.782 261.978C456.671 261.944 456.488 261.915 456.268 261.88C455.766 261.801 455.07 261.691 454.604 261.41C454.305 261.23 454.135 260.614 453.988 260.086C453.838 259.543 453.713 259.093 453.501 259.304C453.083 259.72 452.63 261.128 453.501 261.978ZM454.274 264.856C454.695 265.497 453.09 265.277 452.745 264.856C452.399 264.435 452.059 262.851 452.638 262.851C452.805 262.851 452.863 263.101 452.931 263.4C452.995 263.676 453.068 263.994 453.246 264.196C453.593 264.589 453.825 264.647 453.995 264.69C454.111 264.719 454.198 264.741 454.274 264.856ZM526.493 261.671C527.358 263.4 525.844 265.339 524.384 266.607C518.447 271.761 511.353 275.573 503.779 277.679C511.942 277.734 520.068 274.241 525.644 268.279C528.238 265.505 529.897 260.297 526.549 258.504C530.523 257.187 535.227 254.438 534.62 250.296C534.403 248.817 533.499 247.543 532.621 246.333L532.1 245.617C526.677 238.206 520.045 230.37 510.952 229.817C516.185 226.882 522.419 231.051 527.032 234.889L528.385 236.009C534.493 241.03 540.884 245.808 548.128 248.947C555.909 252.319 564.857 253.666 572.928 251.065L595.517 243.786C599.875 242.344 605.01 239.633 604.614 235.105C604.396 232.61 602.119 230.465 599.616 230.395C597.113 230.326 594.721 232.341 594.364 234.82L593.873 230.966C592.662 229.931 590.73 230.818 589.756 232.079C589.387 232.556 589.08 233.083 588.773 233.609C588.27 234.473 587.768 235.333 587.001 235.96C584.335 238.141 580.793 236.348 577.611 234.464L575.628 233.279C569.974 229.958 563.274 229.449 556.658 228.946C555.23 228.838 553.805 228.73 552.395 228.594C543.172 227.703 534.082 225.456 525.505 221.948C533.37 228.397 543.646 229.48 554.012 230.572C559.236 231.122 564.482 231.675 569.454 232.918C573.398 233.904 577.757 235.914 578.725 239.862C580.13 245.595 573.32 250.036 567.441 250.573C557.827 251.45 548.459 247.361 540.297 242.143L539.378 241.548C536.424 239.609 533.561 237.523 530.7 235.437L530.699 235.437L530.698 235.436C525.447 231.61 520.201 227.787 514.405 224.881C520.392 225.183 524.763 220.848 529.229 216.42C531.638 214.032 534.074 211.617 536.805 209.888C544.832 204.805 555.081 205.962 564.528 207.595L566.013 207.856C563.79 197.094 558.363 187.015 550.602 179.236L563.939 205.456C549.897 200.778 533.057 206.623 524.934 218.996C531.204 197.838 546.119 179.382 565.49 168.812C571.732 171.147 577.004 175.314 582.267 179.473L582.268 179.474L582.269 179.474C583.968 180.817 585.665 182.158 587.395 183.438C594.481 188.68 603.1 193.123 611.776 191.562C618.015 190.44 623.264 186.383 627.927 182.044L628.678 181.338C634.23 176.073 639.392 170.396 644.105 164.369C649.263 157.773 655.603 149.942 663.918 150.925C665.386 151.099 666.814 151.557 668.236 152.013C670.202 152.644 672.157 153.272 674.197 153.141C677.711 152.914 680.942 148.196 678.183 146.006L664.024 134.767C662.64 133.669 661.043 132.507 659.291 132.734C658.046 132.896 657.01 133.736 656.048 134.542L652.868 137.213C645.455 143.456 638.131 149.831 631.699 157.071C631.282 157.54 630.863 158.016 630.441 158.496C625.227 164.421 619.568 170.85 611.823 171.314C604.268 171.766 597.917 166.311 592.114 161.326C591.822 161.075 591.532 160.826 591.243 160.579L590.162 159.662C584.008 154.497 577.427 149.841 570.509 145.755C564.395 142.144 557.614 138.892 550.53 139.385C542.242 139.962 535.251 145.504 529.263 151.327L528.357 152.216C525.42 155.102 521.907 158.22 517.867 157.604L517.545 157.561C513.475 157.097 509.659 159.623 506.591 162.449L506.113 162.898C498.093 170.549 492.186 180.393 489.206 191.069C471.71 186.384 452.527 188.316 436.317 196.396C432.232 198.432 428.25 200.914 425.406 204.484C421.346 209.581 420.156 216.044 418.955 222.565L418.954 222.566C418.078 227.323 417.196 232.111 415.19 236.421C414.596 237.697 413.9 238.942 413.205 240.187C411.575 243.102 409.948 246.012 409.649 249.296C409.222 253.981 413.597 259.418 417.935 257.598C422.281 256.913 424.581 250.787 421.759 247.412C423.517 248.672 425.969 248.888 427.921 247.956L423.387 239.585C431.035 235.512 437.823 229.832 443.181 223.022C445.372 220.236 449.444 219.533 452.883 220.388C455.831 221.121 458.43 222.784 460.92 224.552L462.158 225.441C460.715 226.49 461.546 229.279 463.327 229.367C462.178 224.688 466.857 219.774 471.654 220.229C476.45 220.685 480.083 225.786 479.455 230.564C476.923 236.839 470.656 240.419 464.458 243.96C457.733 247.802 451.09 251.598 449.385 258.739C447.668 265.933 453.216 273.991 460.55 274.953C467.883 275.914 475.322 269.561 475.518 262.167C475.518 262.167 476.603 262.278 476.987 261.128C477.593 259.314 478.166 257.305 478.734 255.315C479.802 251.571 480.852 247.892 482.065 245.694C485.465 239.53 491.793 234.65 498.83 234.48C501.065 234.426 503.286 234.094 505.504 233.763C508.338 233.34 511.168 232.918 514.019 233.075C519.103 233.355 524.677 236.332 525.41 241.371C519.772 240.276 513.889 240.461 508.331 241.907L528.009 244.248C532.33 244.762 533.138 251.452 530.059 254.526C527.155 257.425 522.731 257.902 518.59 258.086L517.84 258.117C518.564 259.593 520.363 259.746 522.164 259.899C523.961 260.051 525.759 260.204 526.493 261.671ZM631.167 175.683C625.066 182.456 617.935 189.735 608.825 190.075C600.86 190.372 593.893 185.238 587.448 180.49L586.972 180.14L585.433 179.016C578.233 173.793 570.776 168.925 563.097 164.435C557.151 160.958 550.312 157.599 543.643 159.324L554.201 162.646C552.421 163.601 551.786 166.199 552.926 167.867C553.171 165.37 556.059 163.783 558.537 164.173C561.016 164.563 563.032 166.383 564.567 168.367C551.257 173.471 539.934 183.575 533.352 196.219C532.128 198.571 531.064 201.003 529.999 203.435C528.557 206.73 527.115 210.024 525.279 213.112C522.087 218.479 517.362 223.362 511.282 224.784C510.43 224.983 509.557 225.114 508.685 225.244C506.938 225.506 505.195 225.767 503.64 226.577C503.504 226.648 503.364 226.722 503.222 226.798L503.099 226.863C501.274 227.838 499.023 229.04 497.898 227.455C496.055 224.859 493.117 223.067 489.965 222.618C495.176 205.108 508.585 190.227 525.46 183.227C526.415 182.831 526.049 181.402 525.528 180.509L517.852 167.375C517.143 166.162 517.973 164.512 519.222 163.868C520.471 163.225 521.96 163.322 523.355 163.495C532.233 164.601 540.782 168.244 547.728 173.883C548.84 174.785 550.66 175.671 551.473 174.493C543.548 166.5 532.212 162.795 521.057 161.301C530.7 160.359 540.672 163.396 548.153 169.553L548.517 169.851C550.304 171.302 552.467 172.844 554.528 171.955C546.174 163.941 534.749 159.211 523.175 158.975C525.557 157.203 527.781 155.235 530.005 153.266L530.006 153.265L530.007 153.264C532.266 151.264 534.525 149.264 536.949 147.472C541.761 143.914 547.512 141.136 553.486 141.485C557.823 141.739 561.889 143.61 565.726 145.647C573.837 149.954 581.474 155.152 588.455 161.118C588.938 161.53 589.423 161.948 589.911 162.369L589.948 162.401C596.583 168.119 603.822 174.357 612.398 173.551C617.628 173.059 622.261 169.9 625.942 166.153C627.978 164.08 629.793 161.809 631.61 159.538L631.611 159.536C633.077 157.703 634.544 155.869 636.127 154.138C638.412 151.64 641.057 149.292 644.305 148.338C647.552 147.385 651.51 148.174 653.439 150.955L631.167 175.683ZM420.997 222.07C422.173 215.634 423.336 209.27 427.686 204.585C429.815 202.29 432.54 200.638 435.315 199.187C449.506 191.764 466.056 188.939 481.906 191.233C485.785 191.794 490.591 193.97 490.528 197.653C490.505 197.878 490.483 198.103 490.464 198.329C490.503 198.098 490.524 197.873 490.528 197.653C492.108 182.254 501.078 167.768 514.181 159.518C515.343 167.621 518.893 175.367 524.273 181.537C510.015 187.543 498.177 199.09 491.817 213.193L491.716 213.416C489.91 217.37 487.045 222.225 482.862 221.24L484.933 208.444C485.123 207.271 485.299 206 484.742 204.95C484.121 203.778 482.793 203.237 481.499 202.847L481.044 202.715C473.547 200.592 465.136 198.555 458.289 202.274C454.667 204.241 452.067 207.538 449.636 210.924L447.831 213.459C443.546 219.442 438.749 225.057 433.509 230.224C431.398 232.305 429.117 234.373 426.291 235.269C423.466 236.164 419.955 235.562 418.278 233.118C419.616 229.625 420.309 225.835 420.997 222.07ZM467.202 271.932C462.751 273.583 459.129 272.769 455.654 270.746C454.167 269.88 452.767 268.766 451.93 267.263C450.674 265.008 450.862 262.21 451.586 259.734C452.669 256.032 454.884 252.669 457.859 250.214C459.915 248.515 462.283 247.269 464.651 246.023L464.652 246.022C465.469 245.593 466.285 245.163 467.089 244.714C474.941 240.334 481.714 234.037 486.652 226.524C487.638 225.024 489.716 224.538 491.455 224.981C493.194 225.424 494.644 226.615 495.898 227.898C496.795 228.817 497.461 230.644 496.263 231.108C487.879 234.353 481.128 241.556 478.43 250.132C478.357 250.366 478.285 250.603 478.214 250.839C477.804 252.196 477.389 253.569 476.509 254.666C475.476 255.955 473.402 260.495 474.46 262.647C474.46 262.647 471.654 270.281 467.202 271.932ZM478.834 203.996C480.192 204.301 481.671 204.739 482.417 205.915C483.027 206.877 482.988 208.101 482.892 209.237C482.514 213.729 481.569 218.174 480.088 222.432C479.838 223.152 479.065 224.017 478.501 223.504C477.862 220.281 474.917 217.66 471.641 217.4C468.365 217.14 465.043 219.263 463.904 222.345C463.679 222.953 462.888 223.18 462.262 223.012C461.792 222.886 461.391 222.602 461.007 222.295L460.627 221.986C456.725 218.816 451.443 217.408 446.48 218.216C449.124 213.767 452.478 209.74 456.376 206.336C457.971 204.943 459.702 203.629 461.717 202.976C463.613 202.361 465.65 202.367 467.641 202.468C471.406 202.659 475.155 203.171 478.834 203.996ZM656.781 147.373C654.884 145.351 652.284 143.998 649.537 143.613L652.653 139.655C653.642 138.414 654.796 137.141 656.355 136.945C657.48 136.804 658.585 137.265 659.608 137.753C663.031 139.384 666.258 141.427 669.196 143.824C670.177 144.624 671.163 145.517 671.589 146.708C672.015 147.9 671.672 149.459 670.53 150.004C669.388 150.549 667.743 149.356 668.211 148.18L668.256 148.048C668.448 147.38 668.146 146.59 667.541 146.238L666.438 148.354C666.337 148.539 666.218 148.718 666.036 148.818C665.3 149.225 664.701 148.081 664.654 147.24L664.645 147.124C664.566 146.297 664.132 145.242 663.371 145.499C663.269 146.916 662.256 148.225 660.909 148.68C659.563 149.134 657.964 148.706 657.024 147.641L656.781 147.373ZM419.16 251.795L417.828 246.742C417.195 246.565 416.577 247.199 416.487 247.85C416.427 248.285 416.524 248.714 416.654 249.138L416.859 249.769C417.543 251.913 417.526 254.276 416.811 256.411C415.491 253.708 414.802 250.699 414.814 247.691C413.954 247.219 413.367 248.661 413.429 249.641L413.801 255.49C411.996 253.863 411.359 251.224 411.668 248.813C411.977 246.403 413.108 244.177 414.381 242.107C415.045 241.026 415.781 239.943 416.837 239.241C417.894 238.539 419.349 238.298 420.428 238.965C421.325 239.519 421.741 240.502 422.163 241.5C422.482 242.254 422.804 243.016 423.34 243.605C423.53 243.814 423.752 244.028 423.977 244.246C424.85 245.087 425.781 245.986 425.171 246.892C423.293 245.739 421.575 244.325 420.082 242.703C419.542 246.052 420.037 249.561 421.483 252.629C421.778 253.257 420.801 253.855 420.186 253.533C419.571 253.212 419.337 252.466 419.16 251.795ZM599.544 235.264C600.506 234.412 601.386 233.634 601.811 233.846C603.051 234.464 599.683 237.182 597.9 237.949C598.029 238.811 599.278 238.424 600.008 237.949C600.738 237.474 602.781 236.963 602.381 237.48C599.889 240.704 595.077 243.266 590.628 243.767C588.825 243.97 586.595 243.489 586.021 241.767C585.496 240.197 586.664 238.647 587.897 237.48L588.194 237.208C588.713 236.744 589.546 236.291 590.024 236.796C591.295 238.142 593.517 237.041 594.981 235.909C594.981 235.909 598.787 232.238 599.425 232.473C600.059 232.707 597.526 236.846 597.526 236.846C598.154 236.494 598.869 235.861 599.544 235.264L599.544 235.264ZM581.328 238.671C581.784 238.568 582.258 238.752 582.651 239.004C584.081 239.922 584.764 241.857 584.227 243.47C583.689 245.082 581.982 246.221 580.287 246.098C580.046 246.08 579.795 246.035 579.607 245.884C579.211 245.567 579.262 244.961 579.349 244.462L579.988 240.81C580.142 239.929 580.455 238.87 581.328 238.671ZM500.721 230.38C503.173 229.966 505.711 230.067 508.122 230.675C507.983 231.669 506.821 232.121 505.838 232.324C502.804 232.952 499.669 233.087 496.592 232.723C497.363 231.275 499.103 230.653 500.721 230.38ZM654.422 149.405L647.988 145.605C651.158 145.131 654.539 146.797 656.096 149.598C655.65 150.005 654.942 149.712 654.422 149.405ZM513.431 225.609C510.704 226.331 508.007 227.171 505.352 228.125C508.11 229.65 512.027 228.43 513.431 225.609ZM486.769 222.16C487.52 222.315 487.179 223.496 486.58 223.974C484.757 225.431 481.987 225.556 480.039 224.271L486.769 222.16ZM657.99 134.023C658.432 133.919 658.887 134.097 659.301 134.284C661.988 135.497 664.449 137.209 666.522 139.306L657.276 134.584C657.418 134.306 657.686 134.095 657.99 134.023ZM517.122 159.529L517.213 159.593C518.048 159.473 518.909 159.544 519.712 159.798C519.011 161.124 518.035 162.303 516.864 163.24C516.278 162.078 516.381 160.599 517.122 159.529ZM675.343 146.556L675.363 146.615C676.384 147.03 677.08 148.138 677.009 149.239C674.904 148.147 673.201 146.301 672.283 144.115C673.54 144.551 674.639 145.428 675.343 146.556ZM483.9 227.259L483.747 227.468C483.214 228.192 482.579 228.979 481.686 229.082C480.792 229.186 479.877 228.031 480.507 227.389C481.565 226.914 482.808 226.867 483.9 227.259ZM420.62 236.231C421.417 236.417 422.317 236.998 422.192 237.807C420.366 237.569 418.564 237.147 416.823 236.549C418.014 236.051 419.362 235.938 420.62 236.231ZM590.199 236.075C589.784 236.255 589.409 235.499 589.803 235.277C589.803 235.277 592.526 230.502 592.644 233.846C592.702 234.678 590.942 235.696 590.199 236.075ZM475.152 260.592C475.354 259.143 475.735 256.411 476.509 256.411C477.606 256.295 477.184 258.163 476.887 259.48C476.805 259.843 476.732 260.164 476.704 260.39C476.604 261.18 475.866 261.802 475.019 261.421C475.053 261.305 475.095 261 475.152 260.594L475.152 260.592ZM219.943 310.699C225.528 311.181 231.135 311.412 236.741 311.39C236.343 316.661 240.63 321.852 245.881 322.458C251.132 323.063 256.488 318.985 257.3 313.761C257.626 311.663 260.465 311.298 262.582 311.463L276.055 312.511C278.364 312.691 281.632 311.964 281.383 309.661L279.857 295.552C279.719 294.279 280.163 292.424 281.418 292.676C286.766 293.749 292.608 289.65 293.34 284.245C294.073 278.84 289.452 273.302 284 273.131C281.381 273.049 280.135 269.622 280.815 267.091C281.18 265.73 281.875 264.498 282.57 263.264C283.168 262.204 283.767 261.141 284.158 259.995C285.004 257.514 284.294 254.058 281.742 253.459C262.364 248.916 242.023 248.53 222.487 252.336L222.129 252.407C221.054 252.623 219.977 252.89 219.049 253.465C215.997 255.354 215.762 259.519 215.911 263.192L216.011 265.235C216.546 277.082 215.614 288.996 213.24 300.616L213.187 300.879C212.656 303.527 212.224 306.554 213.992 308.562C215.303 310.049 217.4 310.449 219.401 310.649L219.943 310.699ZM254.312 313.54C254.468 314.303 254.273 315.098 253.966 315.814L253.868 316.032C252.065 319.838 246.698 321.47 243.102 319.244C239.437 316.975 238.539 311.276 241.328 307.99C234.241 308.838 227.06 308.894 219.961 308.156C217.764 307.927 214.892 306.741 215.341 304.578C218.431 289.706 219.396 274.394 218.198 259.252C217.981 256.508 221.359 255.084 224.067 254.587C241.536 251.379 259.612 251.512 277.033 254.976C279.261 255.419 282.13 257.112 281.142 259.159C278.817 263.976 277.888 269.458 278.495 274.773C278.65 276.128 279.711 277.902 280.894 277.223C284.081 275.392 288.692 276.86 290.235 280.194C291.778 283.529 289.911 287.994 286.453 289.238C282.996 290.481 278.713 288.229 277.778 284.676C276.942 291.994 277.24 299.441 278.657 306.67C279.148 309.175 275.5 310.121 272.954 309.931L252.629 308.416C252.006 309.398 252.644 310.412 253.316 311.478C253.735 312.144 254.166 312.83 254.312 313.54ZM359.485 267.607L399.296 268.408L399.946 268.423C401.142 268.461 402.346 268.566 403.423 269.068C405.857 270.204 406.972 273.004 407.712 275.586C411.662 289.366 411.175 304.382 406.339 317.877L406.135 318.429C405.506 320.09 404.683 321.745 403.197 322.679C401.973 323.448 400.482 323.609 399.031 323.686L398.721 323.702C392.801 323.983 386.861 323.831 380.963 323.249C384.035 321.358 384.81 316.755 382.86 313.721C380.909 310.687 376.789 309.42 373.319 310.405C371.204 311.006 369.234 312.451 368.469 314.512C367.703 316.573 368.443 319.22 370.398 320.227C371.75 320.923 371.517 323.115 370.333 324.069C369.15 325.024 367.505 325.092 365.984 325.116L346.01 325.44C344.509 325.465 342.93 325.471 341.612 324.752C339.743 323.732 338.884 321.535 338.357 319.472C337.086 314.494 336.915 309.238 337.858 304.188C338.993 308.176 343.908 310.599 347.763 309.069C351.617 307.54 353.535 302.407 351.627 298.725C349.719 295.043 344.42 293.649 340.947 295.916L340.803 294.629C340.305 290.119 339.918 285.549 340.784 281.107C341.733 276.241 344.439 271.462 348.876 269.251C352.112 267.638 355.849 267.549 359.485 267.607ZM402.943 271.771C401.946 271.172 400.744 271.069 399.575 271.02L399.283 271.008C386.899 270.546 374.507 270.311 362.115 270.306L357.984 270.312C355.37 270.322 352.672 270.359 350.281 271.412C346.712 272.984 344.399 276.628 343.456 280.412C342.512 284.196 342.739 288.161 342.971 292.053C349.246 290.325 355.996 296.701 355.252 303.167C354.507 309.634 347.338 314.304 340.95 313.056C340.66 315.099 340.375 317.22 340.975 319.194C341.575 321.169 343.327 322.954 345.389 322.887L363.908 322.292C365.055 322.255 366.639 321.662 366.306 320.564C364.414 314.331 369.873 307.054 376.387 307.128C382.9 307.201 388.194 314.599 386.162 320.788C390.232 321.704 394.464 321.897 398.601 321.354C399.944 321.178 401.346 320.894 402.375 320.012C403.387 319.145 403.884 317.835 404.306 316.572C408.603 303.694 409.074 289.565 405.643 276.43C405.199 274.732 404.584 272.904 403.162 271.914L402.943 271.771ZM227.236 394.406C225.265 381.576 225.268 368.445 227.244 355.617L227.344 354.996C227.835 352.085 228.696 349.011 231.129 347.407C232.95 346.207 235.25 346.117 237.444 346.116L254.239 346.162C255.003 346.164 255.841 346.193 256.416 346.697C256.991 347.201 256.975 348.358 256.238 348.562C254.479 349.049 253.468 351.078 253.681 352.891C253.895 354.704 255.074 356.274 256.458 357.464C259.759 360.301 264.891 361.31 268.545 358.944C272.199 356.577 273.059 350.482 269.596 347.844C277.441 347.684 285.29 347.709 293.134 347.917L296.075 348.004C297.026 348.035 298.077 348.111 298.741 348.792C299.24 349.303 299.404 350.046 299.517 350.751C300.385 356.181 299.435 361.886 296.854 366.742C296.443 367.516 295.491 368.368 294.842 367.779C292.086 365.277 287.451 365.618 284.631 368.048C281.811 370.477 280.72 374.513 281.219 378.201C281.699 381.752 284.286 385.544 287.865 385.365C288.873 385.314 289.922 384.967 290.95 384.625L290.951 384.625C292.797 384.013 294.579 383.422 295.946 384.611L292.359 400.641C291.721 403.489 290.577 406.867 287.723 407.478C271.249 411.002 253.976 410.735 237.618 406.705L236.824 406.504C234.839 405.985 232.862 405.312 231.313 403.987C228.617 401.679 227.775 397.913 227.236 394.406ZM292.766 387.477C288.106 389.669 282.034 387.788 279.117 383.543C276.201 379.298 276.486 373.232 279.479 369.041C282.472 364.85 287.851 362.622 292.983 363.06L293.411 363.098C294.13 363.159 294.868 363.185 295.479 362.825C296.251 362.37 296.581 361.436 296.796 360.565C297.653 357.093 297.605 353.402 296.66 349.952L274.947 350.111C275.343 356.138 270.381 362.02 264.374 362.646C258.366 363.272 252.299 358.539 251.444 352.56L251.324 351.671C251.195 350.774 250.994 349.888 250.324 349.319C249.854 348.919 249.236 348.761 248.626 348.64L248.397 348.596C242.08 347.401 234.071 346.906 230.756 352.414C229.627 354.29 229.324 356.534 229.094 358.711C227.775 371.21 228.088 383.881 230.025 396.299L230.119 396.88C230.434 398.729 230.927 400.626 232.302 401.866C233.248 402.719 234.489 403.141 235.721 403.489L236.028 403.575C251.782 407.907 268.554 408.486 284.569 405.257L285.458 405.074C286.246 404.908 287.064 404.717 287.683 404.202C288.489 403.532 288.799 402.451 289.068 401.438L292.766 387.477ZM409.937 419.24C409.937 419.24 410.027 416.741 410.343 415.921C410.912 414.438 412.591 412.331 412.591 412.331C412.474 412.901 412.311 413.512 412.143 414.142C411.565 416.301 410.927 418.685 411.897 420.45C412.644 421.811 423.583 428.98 427.343 430.66C443.421 437.845 459.579 444.347 475.813 450.879L475.813 450.879L475.815 450.88L475.816 450.88L475.826 450.884C482.461 453.554 489.108 456.229 495.769 458.958C484.324 457.564 473.787 452.235 463.52 446.991C461.303 459.286 468.154 471.681 477.398 480.086C484.128 486.206 492.051 490.743 499.973 495.279L499.973 495.28L499.974 495.28C502.93 496.973 505.887 498.666 508.781 500.442L509.845 501.101C520.115 507.53 529.937 515.645 534.472 526.839C535.303 528.892 537.857 530.061 539.954 529.348C542.052 528.636 543.366 526.154 542.776 524.019C544.971 525.821 543.704 529.848 541.044 530.843C538.384 531.839 535.335 530.488 533.372 528.436C531.893 526.889 530.86 525 529.829 523.113L529.829 523.113L529.828 523.112L529.828 523.112L529.828 523.111L529.825 523.105C529.489 522.491 529.153 521.876 528.801 521.274C522.462 510.405 511.263 503.655 500.153 497.478L494.937 494.59C482.881 487.858 470.528 479.771 465.364 467.026C446.617 470.001 427.102 467.983 409.36 461.237C405.565 459.794 401.849 458.139 398.135 456.485L398.135 456.485C392.218 453.85 386.306 451.217 380.087 449.445C376.621 448.458 371.845 448.352 370.547 451.713C370.546 451.712 370.545 451.715 370.541 451.722C370.504 451.787 370.257 452.22 369.152 452.315C368.633 452.359 368.157 451.449 368.009 450.848C367.883 450.679 367.84 450.203 367.84 449.225C367.84 448.698 368.913 446.396 370.933 444.972C372.338 443.982 373.919 443.622 374.747 443.434C375.121 443.349 375.341 443.299 375.323 443.241C375.281 443.109 373.844 442.736 372.539 443.369C371.531 443.858 370.577 444.504 369.7 445.097L369.7 445.097C368.344 446.015 367.171 446.808 366.27 446.704C365.049 446.562 364.183 445.993 364.169 444.764C364.156 443.535 364.482 442.041 365.43 441.269C367.456 439.62 370.071 438.711 372.684 438.748C373.248 438.756 373.873 438.836 374.241 439.264C374.609 439.692 374.428 440.545 373.864 440.571C370.478 440.723 366.563 441.29 365.245 444.764C364.861 445.775 367.285 445.937 368.221 445.398C368.765 445.085 369.232 444.665 369.7 444.243C370.038 443.939 370.377 443.634 370.745 443.369C371.846 442.577 373.213 442.163 374.569 442.211C375.115 442.23 375.717 442.356 376.039 442.798C376.362 443.24 376.134 444.042 375.588 444.051C372.077 444.109 368.873 447.151 368.632 450.654C368.645 450.78 368.743 451.358 369.152 451.496C369.629 451.657 370.157 451.267 370.178 451.229C372.006 447.965 375.343 445.784 378.93 446.876C380.286 447.289 381.591 447.918 382.891 448.544C385.163 449.638 387.418 450.724 389.896 450.632L388.409 442.746C382.38 437.219 373.293 435.271 365.528 437.84C364.697 438.115 363.799 438.513 363.46 439.32C363.121 440.127 363.865 441.3 364.682 440.987C363.397 442.176 361.224 440.158 361.713 438.476C362.202 436.795 364.046 435.93 365.741 435.49C375.252 433.018 384.732 437.327 393.892 441.49C395.592 442.263 397.282 443.031 398.958 443.749C417.611 451.744 438.686 453.981 458.602 450.079C457.738 452.443 454.793 453.158 452.292 453.439C434.553 455.434 416.332 452.992 399.744 446.399C397.718 448.973 398.683 452.972 400.989 455.298C403.295 457.625 406.556 458.682 409.695 459.62C427.283 464.877 445.93 468.897 463.902 465.159L460.989 448.118L460.93 447.807C460.786 447.127 460.522 446.424 459.886 446.208L459.725 446.153C436.69 438.331 419.134 432.368 396.339 410.638C396.293 410.595 396.248 410.55 396.205 410.504C396.037 417.035 393.965 418.472 385.329 416.692C366.485 412.808 347.191 410.774 328.171 413.447C329.61 406.338 331.411 399.304 333.566 392.379C327.378 394.376 320.071 388.704 320.472 382.214C320.872 375.723 328.819 370.992 334.716 373.734C336.741 369.061 336.87 363.597 335.066 358.833C334.201 356.547 337.649 355.229 340.093 355.229L353.595 355.226C355.483 355.225 358.114 354.348 357.645 352.52C356.534 348.185 359.515 343.232 363.866 342.184C368.138 341.156 372.948 344.081 374.051 348.32L374.109 348.557C375.134 353.11 380.901 354.556 385.567 354.466L387.89 354.411C391.926 354.326 396.132 354.457 398.833 357.28C402.064 360.656 401.342 366.033 400.277 370.616L400.206 370.921C399.686 373.111 398.929 374.891 398.168 376.68C396.717 380.09 395.25 383.538 395.38 389.933C395.433 392.541 395.527 394.934 395.634 397.125C396.009 395.586 396.339 394.569 396.339 394.569C396.339 394.569 440.347 427.337 467.527 431.785C470.784 428.907 468.904 423.3 465.624 420.45C464.241 419.249 462.667 418.278 461.097 417.31C458.942 415.98 456.795 414.656 455.159 412.746C451.91 408.953 451.33 403.727 450.754 398.545C450.128 392.91 449.508 387.328 445.47 383.697C445.11 383.373 444.726 383.07 444.343 382.768L444.342 382.767C443.477 382.085 442.613 381.404 442.024 380.483C440.568 378.206 441.284 375.038 443.048 372.99C444.811 370.942 447.39 369.798 449.942 368.907C455.239 367.058 461.047 366.025 466.456 367.515C471.865 369.005 476.71 373.51 477.242 379.095C478.268 376.873 480.521 375.267 482.956 375.023L479.421 378.78L483.894 378.869L477.739 382.307C481.555 389.364 480.937 398.068 478.491 405.709C478.192 406.643 477.867 407.577 477.54 408.513L477.54 408.514L477.538 408.518C476.231 412.268 474.913 416.049 475.251 419.962C475.666 424.774 479.939 429.69 484.61 428.705L484.844 428.651C490.458 427.232 496.605 428.053 501.65 430.895C507.533 434.21 511.538 439.829 515.501 445.392C516.421 446.682 517.339 447.97 518.277 449.225C522.675 455.107 527.88 460.577 534.386 463.984C540.892 467.392 548.87 468.517 555.647 465.688C556.894 465.167 558.091 464.521 559.287 463.875C561.318 462.779 563.343 461.686 565.589 461.221C569.157 460.481 573.701 462.227 574.124 465.846C572.278 462.763 567.905 462.216 564.465 463.256C562.523 463.842 560.732 464.802 558.939 465.762L558.938 465.763C557.554 466.504 556.168 467.246 554.711 467.818C547.412 470.684 538.912 468.947 532.193 464.906C525.684 460.99 520.585 455.145 515.985 449.089L515.541 448.502C515.075 447.882 514.61 447.258 514.146 446.633L514.145 446.632L514.144 446.631L514.143 446.629L514.142 446.628L514.141 446.627L514.139 446.625L514.139 446.624L514.137 446.623C510.903 442.276 507.645 437.898 503.376 434.591C498.587 430.882 492.156 428.69 486.391 430.471L486.039 430.585C480.524 432.453 474.683 427.177 473.691 421.439C472.698 415.702 475.037 409.969 477.326 404.615C479.687 399.092 475.351 392.649 469.885 390.159C464.813 387.85 458.722 387.902 453.69 390.298C452.06 391.074 451.765 393.214 451.82 395.043L451.827 395.244C452.11 401.7 453.834 408.487 458.547 412.908C459.948 414.223 461.568 415.285 463.184 416.345C465.206 417.671 467.224 418.994 468.804 420.806C471.648 424.066 472.085 430.172 468.135 431.936C474.913 433.159 481.619 434.779 488.208 436.786C452.758 433.159 420.163 416.438 396.762 396.241C396.283 397.177 395.945 398.166 395.74 399.181C395.795 400.193 395.85 401.157 395.903 402.075C395.978 403.371 396.047 404.574 396.101 405.688C397.228 409.395 399.861 412.663 403.477 414.1C403.19 411.496 404.068 408.785 405.827 406.844C404.686 409.395 402.875 414.287 409.937 419.24ZM464.39 369.334C461.235 368.747 458.029 368.434 454.82 368.401C454.602 368.805 454.52 369.28 454.589 369.734C458.166 370.032 461.689 370.974 464.938 372.503C463.58 373.86 461.337 373.047 459.515 372.387L459.408 372.348C456.295 371.221 452.876 370.948 449.624 371.568C447.965 371.883 446.305 372.452 445.028 373.556C443.75 374.66 442.914 376.379 443.199 378.043C443.563 380.169 445.563 381.622 447.559 382.439C452.507 384.466 458.437 383.895 462.908 380.961C463.27 380.723 463.781 381.12 463.802 381.553C463.823 381.986 463.531 382.369 463.224 382.674C461.442 384.448 458.792 385.012 456.282 385.158C455.549 385.201 454.813 385.215 454.076 385.23H454.076H454.075C452.289 385.265 450.504 385.299 448.779 385.737C449.012 387.16 450.789 387.649 452.227 387.754C457.723 388.153 463.298 387.413 468.5 385.595C469.802 385.14 471 386.445 471.768 387.591L477.371 395.952C479.212 394.22 479.101 391.226 478.233 388.852C477.894 387.924 477.463 387.029 477.031 386.136C476.359 384.743 475.688 383.353 475.373 381.845C475.199 381.015 475.136 380.163 475.074 379.312V379.311C474.986 378.117 474.898 376.925 474.503 375.8C473.109 371.84 468.517 370.103 464.39 369.334ZM396.703 445.662L391.617 442.74C391.053 442.416 390.013 442.361 390.07 443.009C389.896 445.635 390.111 448.851 391.798 451.039C392.862 452.418 393.63 453.124 397.386 454.056L397.109 446.704C397.095 446.314 397.041 445.857 396.703 445.662ZM474.15 405.665C474.769 405.306 475.163 404.668 475.531 404.055C476.189 402.959 476.867 401.798 476.897 400.52C476.926 399.242 476.042 397.847 474.765 397.797C474.129 397.772 473.525 398.074 473.006 398.442C471.854 399.257 470.964 400.438 470.5 401.771C471.088 402.619 472.418 401.862 473.01 401.017C473.602 400.172 474.479 399.104 475.421 399.526C474.799 401.681 473.7 403.698 472.225 405.388C472.619 405.984 473.532 406.024 474.15 405.665ZM484.325 467.768C482.911 465.522 481.383 463.096 478.863 462.366C484.454 472.889 493.12 481.755 503.512 487.586C507.141 489.621 510.967 491.293 514.791 492.964C520.123 495.294 525.448 497.62 530.217 500.926C536.193 505.068 541.135 510.688 544.479 517.144C543.164 507.939 535.467 500.892 527.249 496.54C523.529 494.569 519.621 492.981 515.714 491.394L515.714 491.393C510.991 489.474 506.271 487.556 501.89 484.966C494.907 480.836 488.923 475.031 484.583 468.177C484.497 468.041 484.411 467.905 484.325 467.768ZM501.887 470.881L502.043 471.228C502.731 472.82 503.208 474.821 501.916 475.899C500.887 476.758 499.326 476.43 498.112 475.86C495.487 474.627 493.317 472.451 492.092 469.822C493.625 469.518 495.061 468.747 496.161 467.638C497.076 466.717 498.693 466.903 499.723 467.692C500.754 468.481 501.339 469.705 501.887 470.881ZM501.054 474.648C502.376 472.274 499.678 468.771 498.361 468.544C497.787 468.445 497.196 469.013 496.56 469.623C495.907 470.249 495.209 470.919 494.437 470.958C494.437 470.958 499.731 477.023 501.054 474.648ZM567.761 481.476C599.878 480.421 631.232 464.775 651.387 439.747C652.43 438.452 654.496 438.43 655.946 439.244C657.396 440.058 658.376 441.488 659.303 442.869C660.314 442.721 660.344 441.153 659.647 440.405C659.304 440.037 658.873 439.769 658.442 439.502C657.998 439.227 657.556 438.952 657.208 438.567C655.805 437.014 656.555 434.569 657.377 432.644L661.041 424.064C661.532 422.915 662.3 421.573 663.55 421.591C664.464 421.604 665.168 422.368 665.748 423.075C672.071 430.778 677.937 438.857 683.304 447.255C679.996 447.767 676.814 446.137 673.676 444.529C670.171 442.733 666.72 440.965 663.205 442.239C660.142 443.349 658.337 446.433 656.715 449.259C651.411 458.502 645.333 467.404 637.636 474.774C619.759 491.889 594.814 499.296 570.512 503.98C585.544 509.67 602.103 511.266 617.945 508.552C627.011 506.999 636.051 503.939 643.117 498.051C645.978 495.666 648.46 492.866 650.93 490.079L669.128 469.536C670.194 468.333 672.16 469.488 673.153 470.751C674.146 472.015 675.492 473.59 677.006 473.051C675.923 470.624 674.042 468.562 671.725 467.26C671.587 464.362 671.501 461.259 673.041 458.801C674.582 456.343 678.423 455.146 680.421 457.248C686.974 464.142 693.253 471.296 699.239 478.687C695.727 479.24 692.389 477.728 689.077 476.228L689.077 476.228L689.076 476.228L689.076 476.227L689.075 476.227L689.074 476.227C688.051 475.764 687.031 475.301 686.008 474.901C681.674 473.206 675.598 473.242 673.621 477.456C668.214 488.98 662.597 500.8 653.317 509.513C637.819 524.066 615.174 527.35 594.049 529.746C584.681 530.809 575.057 531.817 565.935 529.431C559.296 527.695 553.255 524.241 547.303 520.824L542.58 518.112C541.19 518.46 542.307 520.567 543.541 521.295C551.448 525.957 559.599 530.71 568.666 532.139C570.976 532.503 573.316 532.644 575.653 532.732C597.172 533.541 618.852 529.766 638.831 521.732C647.162 518.381 655.641 513.902 660.217 506.175L676.34 478.945C676.958 477.902 677.637 476.801 678.733 476.283C680.068 475.653 681.638 476.055 683.056 476.467L698.169 480.856C699.714 481.305 701.149 479.494 700.988 477.894C700.827 476.293 699.671 474.996 698.573 473.821L684.636 458.903C682.797 456.935 680.82 454.881 678.224 454.165C675.627 453.448 672.289 454.71 671.781 457.355C670.282 465.164 664.948 471.599 659.8 477.658C651.832 487.037 643.537 496.675 632.476 502.072C616.617 509.811 597.875 507.562 580.51 504.419L591.77 501.139C597.344 499.516 602.926 497.889 608.329 495.766C629.288 487.53 647.141 471.639 657.751 451.775C659.592 448.327 661.758 444.343 665.605 443.651C668.767 443.082 671.462 444.949 674.218 446.857C675.856 447.991 677.515 449.141 679.306 449.802C681.948 450.777 686.048 449.389 685.427 446.643C685.286 446.022 684.91 445.485 684.542 444.965L670.204 424.753C668.215 421.948 665.234 418.78 661.961 419.833C659.332 420.679 658.345 423.714 657.475 426.391L657.396 426.635L657.36 426.746L657.319 426.87C653.238 439.305 642.265 447.992 631.85 455.918C627.293 459.386 622.724 462.862 617.807 465.796C603.442 474.366 586.596 477.995 569.904 479.079C565.188 479.385 562.224 483.809 559.511 487.858C559.189 488.34 558.87 488.816 558.552 489.279C553.906 496.049 547.29 501.449 539.728 504.645C540.993 506.043 543.297 505.206 544.896 504.206C552.485 499.464 558.922 492.893 563.507 485.208C564.519 483.513 565.789 481.541 567.761 481.476ZM466.994 408.923C466.255 410.54 464.609 411.705 462.838 411.862C461.067 412.02 459.241 411.164 458.229 409.703C457.857 409.165 457.861 408.117 458.511 408.173C459.866 409.972 462.69 410.437 464.549 409.167C465.354 408.617 466.751 407.979 466.994 408.923ZM452.758 397.17C452.918 395.815 454.061 394.638 455.41 394.437C456.759 394.236 458.195 395.028 458.744 396.277C457.758 396.277 457.096 396.099 456.546 395.95C455.426 395.648 454.765 395.469 452.758 397.17ZM463.215 404.716L461.68 405.374L461.591 405.324C461.193 406.082 460.02 405.223 459.93 404.372C459.912 404.196 459.903 404.009 459.894 403.821C459.86 403.1 459.824 402.35 459.228 402.026C458.482 403.099 458.141 404.512 458.575 405.745C459.009 406.978 460.328 407.914 461.614 407.682C462.9 407.45 463.824 405.873 463.215 404.716ZM465.058 394.25C467 394.406 467.517 394.511 468.052 395.788C468.158 396.039 467.328 395.802 466.537 395.577L466.536 395.577C465.955 395.411 465.394 395.251 465.243 395.296C458.744 397.222 463.116 394.093 465.058 394.25ZM464.51 397.606C465.582 398.457 465.272 401.845 463.688 401.208C463.024 400.94 462.231 395.8 464.51 397.606ZM515.88 488.342C515.368 487.704 515.949 486.565 516.766 486.605C517.127 486.838 517.373 487.242 517.414 487.67C517.105 488.174 516.464 488.449 515.885 488.328L515.88 488.342ZM501.286 481.737L502.402 481.567L502.491 481.535C502.879 480.81 501.612 479.984 501.105 480.631C500.995 481.001 501.064 481.421 501.286 481.737ZM509.232 486.138C508.585 486.313 508.497 485.203 508.861 484.64L510.406 485.343C510.168 485.76 509.726 486.055 509.249 486.114L509.232 486.138ZM489.941 469.947C489.77 469.523 489.156 469.36 488.798 469.644L488.896 469.743C488.586 470.148 488.832 470.839 489.328 470.958C489.783 470.914 490.112 470.371 489.941 469.947ZM456.005 401.287C455.383 401.287 454.733 400.678 454.765 399.622C454.797 398.565 455.084 397.589 456.005 398.108C456.926 398.626 456.646 401.287 456.005 401.287ZM166.375 272.906C166.75 273.398 167.606 273.182 167.935 272.658C168.265 272.135 168.223 271.468 168.164 270.852C167.302 261.949 164.991 253.187 161.35 245.017C160.313 242.689 159.222 239.788 160.81 237.795C164.481 246.969 168.182 256.258 169.519 266.048C169.884 268.721 170.015 271.647 168.525 273.895C167.035 276.143 163.323 277.005 161.668 274.876C164.214 274.344 166.162 271.766 165.978 269.172C167.154 269.973 167.356 271.875 166.375 272.906ZM196.046 449.694C209.366 448.963 224.796 447.04 231.783 435.677C233.594 432.73 233.208 428.097 232.89 424.28C232.634 421.213 232.422 418.672 233.429 417.954C235.689 416.343 237.498 420.498 237.498 420.498C237.564 420.223 237.64 419.883 237.725 419.499C238.357 416.667 239.519 411.452 241.346 412.432C242.097 412.835 241.839 415.37 241.661 417.112L241.661 417.113C241.619 417.522 241.582 417.887 241.563 418.171C241.521 418.44 241.515 418.665 241.547 418.824C241.572 418.814 241.599 418.799 241.626 418.78C241.637 418.778 241.65 418.772 241.663 418.76C241.674 418.752 241.685 418.74 241.696 418.726C241.992 418.477 242.396 417.861 242.846 417.176L242.847 417.175C243.779 415.755 244.907 414.038 245.663 414.669C246.85 415.661 242.63 421.988 242.63 421.988C242.63 421.988 247.642 416.48 248.065 418.824C248.488 421.168 237.073 442.34 226.769 450.644C216.465 458.947 201.946 463.596 188.818 461.931C189.111 456.724 190.839 449.98 196.046 449.694ZM241.696 418.726C241.672 418.747 241.649 418.765 241.626 418.78C241.547 418.793 241.538 418.557 241.563 418.171C241.66 417.558 241.946 416.718 242.404 415.917C242.317 416.192 242.231 416.458 242.149 416.709C241.783 417.831 241.518 418.643 241.793 418.58C241.773 418.615 241.754 418.646 241.737 418.672C241.722 418.693 241.709 418.711 241.696 418.726ZM244.177 413.949C243.439 414.415 242.843 415.149 242.404 415.917C243.088 413.75 243.78 411.019 242.097 410.8C239.242 410.43 236.452 415.076 236.947 417.545C236.155 415.578 232.859 416.429 232.06 418.393C231.448 419.9 231.708 421.551 231.967 423.189L231.967 423.19L231.967 423.19C232.045 423.687 232.123 424.182 232.177 424.672C233.035 432.504 227.163 439.824 220.045 443.202C213.334 446.386 205.718 446.834 198.269 447.064L196.531 447.115C192.278 447.227 187.672 447.129 184.426 444.414C181.082 441.617 181.086 434.98 185.285 433.807C195.945 430.83 204.076 420.443 204.407 409.38C204.505 406.11 206.626 403.39 208.675 400.76C208.859 400.524 209.043 400.289 209.224 400.054L209.674 399.464C211.968 396.421 213.854 392.229 211.928 388.941C208.944 392.77 203.353 394.314 198.827 392.559C196.938 391.827 195.265 390.604 193.602 389.388C191.376 387.76 189.168 386.146 186.486 385.742C181.242 384.953 176.04 390.263 176.938 395.489C175.518 394.298 173.315 396.102 173.161 397.948C173.071 399.034 173.356 400.09 173.643 401.151C173.844 401.895 174.046 402.642 174.119 403.402C174.204 404.288 174.114 405.174 174.023 406.061C173.961 406.661 173.9 407.261 173.893 407.862C173.855 410.973 175.241 413.852 176.606 416.688L176.608 416.692L176.609 416.695C176.746 416.979 176.883 417.263 177.017 417.546L177.382 418.324C178.937 421.694 180.09 425.704 178.433 429.025C176.777 432.346 171.138 433.387 169.541 430.037C161.712 413.619 143.967 402.441 125.778 402.468C104.718 402.5 85.7695 416.378 73.3585 433.393C71.8106 435.515 70.2956 437.8 69.9583 440.405C69.621 443.01 70.8297 446 73.3076 446.871C75.7854 447.742 78.9984 445.305 78.191 442.806C79.4482 444.273 82.0193 442.885 82.6115 441.046C82.9442 440.013 82.9401 438.923 82.9361 437.829C82.9329 436.976 82.9298 436.121 83.0863 435.289C83.854 431.209 88.0508 428.852 91.8282 427.129L92.59 426.783C101.488 422.757 110.758 419.162 120.49 418.478C130.501 417.775 141.183 420.557 148.062 427.863C138.675 430.09 133.224 439.509 128.879 448.209L128.276 449.422C123.889 458.232 118.143 467.844 108.522 469.711C108.888 471.609 110.563 473.18 112.481 473.421L77.2112 494.39L79.9169 497.746C71.3294 510.908 61.6169 523.335 50.9202 534.848C45.1044 541.107 37.5526 547.594 29.1333 546.137C27.6109 545.873 26.1348 545.351 24.6638 544.83C22.5099 544.067 20.3669 543.308 18.1054 543.373C14.2994 543.481 10.4799 548.111 13.0634 550.908C18.7849 557.103 25.315 562.549 32.4356 567.066L32.62 567.182C33.4868 567.722 34.4403 568.226 35.4454 568.111C36.4614 567.994 37.2888 567.271 38.0445 566.582L85.812 523.028C89.7242 519.49 94.0294 515.95 99.2409 515.429L99.6806 515.377C103.535 514.84 106.71 512.403 109.895 509.959C111.281 508.895 112.67 507.83 114.116 506.919C119.012 503.839 127.132 503.522 129.036 508.984C130.047 511.887 128.723 514.839 127.418 517.749L127.418 517.749C127.029 518.616 126.641 519.479 126.318 520.336C124.91 524.069 126.064 529.811 130.053 529.741L152.377 529.346C153.179 529.338 154.024 529.383 154.648 529.873C155.301 530.387 155.53 531.241 155.656 532.079L155.707 532.464C156.548 539.301 156.432 546.255 155.364 553.061C154.206 560.436 151.126 568.548 144.167 571.253C139.778 572.958 134.889 572.073 130.266 571.014L102.176 564.453C102.129 561.051 105.206 558.281 108.487 557.38C111.269 556.616 114.19 556.849 117.083 557.08H117.084C117.261 557.094 117.439 557.108 117.617 557.122L118.637 557.198C125.746 557.687 132.933 557.027 139.834 555.25L129.876 530.331C130.891 538.604 133.129 546.725 136.494 554.351L103.76 555.413C100.909 555.493 97.7446 555.367 95.8285 553.286C95.3366 552.752 94.9266 552.095 94.5204 551.444C93.6861 550.107 92.8674 548.795 91.3861 548.623C90.1063 548.475 88.9468 549.33 87.9665 550.166C81.5667 555.625 76.2529 562.352 72.4243 569.842C73.8046 573.26 78.3779 574.216 81.9307 573.235C84.009 572.661 85.9059 571.628 87.8065 570.592C89.1549 569.857 90.5051 569.121 91.9233 568.548C99.8362 565.35 108.535 567.517 116.892 570.034L121.855 571.545C131.664 574.491 143.624 576.002 150.975 568.87C155.313 564.662 156.893 558.399 157.752 552.417C160.23 535.154 158.221 517.266 151.975 500.983C158.939 498.297 162.225 490.506 164.78 483.492L169.784 469.757C171.455 465.168 175.253 459.537 179.774 461.386C192.697 466.671 207.961 464.436 219.992 457.352C232.024 450.268 241.03 438.793 247.097 426.218L247.259 425.878C248.446 423.379 249.959 417.548 248.608 416.902C248.104 416.507 247.206 417.164 246.595 417.611C246.264 417.853 246.017 418.034 245.961 417.954C245.926 417.906 246.037 417.583 246.194 417.125C246.812 415.325 248.146 411.438 244.177 413.949ZM158.659 491.052C157.096 494.567 154.509 498.704 150.69 498.237C148.646 497.987 147.101 496.444 145.712 494.858L144.967 493.996C136.897 484.628 125.934 478.401 114.915 472.669L111.243 470.774C120.219 469.008 125.756 460.131 129.71 451.882L130.97 449.253C134.585 441.758 138.699 434.046 146.156 430.672C147.187 430.205 148.369 429.834 149.432 430.221C149.593 430.28 149.767 430.347 149.948 430.416C151.26 430.921 152.95 431.571 152.923 430.327C150.531 429.363 150.137 425.873 151.517 423.694C152.778 421.703 154.96 420.555 157.121 419.566L157.737 419.287C156.359 417.386 153.371 418.984 151.81 420.738L151.681 420.881C150.115 422.6 147.71 424.482 145.902 423.085C138.43 417.312 128.473 415.459 119.074 416.365C109.676 417.271 100.709 420.708 92.1231 424.636C88.9763 426.076 85.78 427.646 83.4446 430.2C81.638 432.175 81.4508 434.805 81.2626 437.448C81.2075 438.222 81.1524 438.997 81.0565 439.756C80.8246 441.594 79.8138 441.664 78.9234 441.726C78.4462 441.759 78.0036 441.79 77.734 442.089C77.7123 442.113 77.6425 442.221 77.5375 442.382C77.0029 443.203 75.5563 445.425 74.9029 445.203C73.9433 444.878 74.4326 442.806 74.4326 442.806C74.4326 442.806 71.5848 443.62 71.3728 442.806C70.6312 439.958 74.9029 434.13 74.9029 434.13C82.085 423.565 92.7355 414.798 104.445 409.702C116.371 404.512 130.288 403.51 142.48 408.041C156.225 413.149 167.11 425.354 170.619 439.591C171.493 443.141 175.622 444.708 179.23 445.298C179.352 445.318 179.475 445.337 179.598 445.357C179.815 445.392 180.034 445.426 180.254 445.46L180.259 445.461C183.589 445.981 187.129 446.534 189.251 449.077C189.877 449.826 189.704 450.935 189.489 451.887L189.426 452.162C188.635 455.557 187.254 459.357 183.955 460.388C180.956 461.324 177.404 458.906 177.174 455.774C177.154 455.498 177.148 455.206 177.142 454.91C177.117 453.693 177.09 452.41 176.068 451.908L158.659 491.052ZM130.304 509.62C129.183 503.859 125.775 498.676 121.303 494.873C121.478 497.138 122.436 499.335 123.977 501.004C116.4 503.412 109.255 507.172 102.978 512.053C101.299 513.359 98.445 514.551 97.4611 512.664C93.5904 505.241 87.4286 499.032 80.0346 495.105L110.433 477.637C111.807 476.847 113.26 476.035 114.844 476.02C116.073 476.008 117.239 476.478 118.35 477.026L118.901 477.304C130.276 483.163 140.459 491.326 148.652 501.154C150.681 503.588 151.625 506.704 152.429 509.786L156.044 523.912C156.284 524.848 156.459 526.006 155.726 526.635C155.314 526.989 154.733 527.05 154.191 527.091L153.557 527.14C144.556 527.833 137.294 528.392 128.276 527.091C126.931 524.511 127.947 521.314 128.997 518.013C129.897 515.184 130.821 512.279 130.304 509.62ZM85.0818 500.934C88.4546 503.904 91.4952 507.252 94.1289 510.893C94.4107 511.283 94.7006 511.718 94.6706 512.198C94.6356 512.758 94.1819 513.188 93.7598 513.558L54.4711 547.945C52.8329 549.378 50.2196 549.127 48.3846 547.956C46.7789 546.931 45.6309 545.359 44.5776 543.757L44.1309 543.07C54.3702 537.689 60.9383 528.049 67.5649 518.324C71.7215 512.224 75.901 506.09 81.0238 500.952C81.5217 500.453 82.0835 499.936 82.7843 499.857C83.6512 499.76 84.4271 500.358 85.0818 500.934ZM199.495 405.018L200.498 405.326C202.452 405.93 202.776 408.547 202.528 410.577C201.498 418.981 196.275 427.299 188.221 429.91L187.933 430.007C182.685 431.86 178.933 437.35 179.157 442.919C175.634 443.579 171.857 440.761 171.487 437.196C171.413 436.485 171.624 435.562 172.33 435.453C175.531 434.962 178.474 432.997 180.157 430.231C181.84 427.464 182.23 423.947 181.194 420.879C180.983 420.252 180.714 419.625 180.445 418.996C179.679 417.21 178.911 415.417 179.449 413.616C180.675 413.729 180.908 415.411 180.779 416.636L180.765 416.785C180.665 417.992 180.878 419.542 182.05 419.703C182.822 417.93 182.983 415.945 183.142 413.974C183.343 411.487 183.543 409.023 184.969 407.041C186.6 404.774 189.526 403.733 192.318 403.7C194.761 403.672 197.149 404.306 199.495 405.018ZM22.9663 546.704L23.2183 546.413C24.6244 546.105 25.9671 547.906 25.2707 549.166C24.8239 549.974 26.1979 550.774 26.9651 550.26C27.7322 549.745 27.887 548.701 27.9714 547.781C28.7432 547.54 29.4109 548.424 29.5566 549.219C29.595 549.43 29.6189 549.647 29.6428 549.865L29.6429 549.865C29.7094 550.471 29.7761 551.078 30.1584 551.534C30.6782 552.154 32.055 551.833 31.8292 551.056C31.4923 549.898 32.8609 548.952 34.0553 548.781C34.3425 548.74 34.639 548.716 34.9363 548.691C35.8756 548.615 36.8225 548.537 37.5063 547.927L37.6093 547.844C38.4771 547.229 39.5515 548.367 40.2064 549.378L40.511 549.869C41.9511 552.107 44.399 553.675 47.038 554.033C47.5551 554.104 47.292 554.91 46.9121 555.268L38.0056 563.655C37.5738 564.062 36.8742 563.773 36.3684 563.463C31.0816 560.226 26.201 556.326 21.8773 551.884C20.5151 550.484 21.6703 548.252 22.9663 546.704ZM100.855 562.315C100.599 563.373 99.8684 564.556 98.7829 564.476C96.1667 564.283 93.5139 564.599 91.0159 565.4C91.2451 564.335 90.7792 563.153 89.8846 562.531C89.2319 563.464 89.4989 564.911 90.4417 565.55L87.9513 568.011L86.7593 565.271C86.1714 565.428 86.1543 566.149 86.1948 566.81L86.2238 567.221C86.3431 568.955 84.8721 570.642 83.1377 570.759C81.4033 570.876 79.7192 569.402 79.6045 567.668C79.4795 565.778 80.9267 564.193 82.2722 562.86L91.8259 553.4C92.029 553.207 92.2617 553.027 92.536 553.032C92.839 553.038 93.0848 553.268 93.2981 553.483L97.026 557.245C97.7491 557.975 97.2922 559.091 96.8469 560.179C96.3886 561.298 95.9426 562.388 96.8081 562.995C97.6509 563.044 98.3526 562.313 98.6765 561.533C98.8418 561.136 98.9422 560.716 99.0426 560.296C99.1391 559.893 99.2355 559.49 99.3895 559.106C99.7037 558.323 100.382 557.577 101.226 557.595C102.07 557.612 102.721 558.819 102.068 559.354C101.372 559.925 101.174 560.853 100.981 561.755L100.98 561.756C100.94 561.945 100.9 562.132 100.855 562.315ZM35.5351 566.498C26.948 561.905 19.3575 555.459 13.4328 547.73C14.2097 546.994 15.378 547.776 16.1294 548.611L16.3155 548.829C21.9448 555.795 29.0146 561.591 36.9488 565.746C36.8845 566.373 36.0904 566.795 35.5351 566.498ZM76.7178 564.739C80.4375 559.874 84.559 555.317 89.0264 551.128C89.7189 550.479 91.1573 550.041 91.3324 550.974C86.1316 555.938 81.1572 561.14 76.4301 566.558C75.9164 566.112 76.3047 565.279 76.7178 564.739ZM48.1502 552.576C45.5545 551.652 43.2404 549.953 41.5825 547.753C40.9587 546.925 40.5652 545.486 41.5104 545.061C42.2575 544.724 42.9751 545.431 43.4962 546.116L43.8869 546.647C45.5659 548.862 47.9607 550.529 50.6243 551.326C50.629 552.036 50.0407 552.702 49.3349 552.785C48.9329 552.832 48.5315 552.711 48.1502 552.576ZM175.527 408.613C176.747 408.642 177.78 409.914 177.559 411.114L177.587 411.131C177.756 412.001 177.645 412.924 177.275 413.729C175.94 412.42 175.272 410.464 175.527 408.613ZM198.774 408.643C198.928 408.629 199.09 408.615 199.254 408.613C199.46 408.611 199.698 408.647 199.922 408.682C200.526 408.776 201.031 408.854 200.554 408.106C199.899 407.082 197.984 406.966 197.67 408.141C197.758 408.732 198.214 408.692 198.774 408.643ZM200.316 413.71C200.325 413.674 200.334 413.639 200.343 413.604C200.809 411.84 200.54 410.448 199.254 410.448C198.759 410.486 198.002 413.011 198.074 413.776C198.146 414.542 199.009 415.25 199.677 414.87C200.074 414.645 200.201 414.155 200.316 413.71ZM191.839 413.174C190.943 411.93 190.849 410.158 191.608 408.826C191.721 408.627 191.859 408.432 192.057 408.318C192.56 408.03 193.232 408.42 193.454 408.955C193.675 409.491 193.578 410.098 193.478 410.669C193.478 410.669 192.735 414.419 191.839 413.174ZM381.624 413.21C365.257 409.196 348.16 408.181 331.434 410.233C334.337 403.47 335.611 396.014 335.119 388.67C330.76 391.724 323.605 388.141 323.439 382.821C323.274 377.501 330.194 373.481 334.734 376.259C335.937 376.996 337.26 375.469 337.741 374.143C339.38 369.625 339.396 364.537 337.786 360.009C337.158 358.245 339.82 357.289 341.691 357.326L357.574 357.64C358.641 357.661 359.773 357.665 360.684 357.11C361.595 356.555 362.112 355.219 361.443 354.389C358.695 350.978 361.854 344.875 366.225 345.15C370.596 345.424 372.967 351.875 369.813 354.914C369.225 355.481 370.368 356.211 371.185 356.23L391.952 356.708C396.083 356.803 399.001 361.203 399.17 365.332C399.313 368.825 398.072 372.17 396.847 375.475C396.74 375.763 396.633 376.051 396.528 376.339L396.189 377.273C392.51 387.595 391.327 398.795 392.766 409.657C393.046 411.776 391.095 413.662 389.008 414.12C387.166 414.525 385.269 414.124 383.425 413.662L381.624 413.21Z" fill="#252525"/>
<path fill-rule="evenodd" clip-rule="evenodd" d="M160.261 223.125C160.412 222.146 161.717 221.581 162.66 221.917C163.603 222.253 164.444 223.605 163.753 224.37C162.66 225.581 159.968 225.025 160.261 223.125Z" fill="#FFE352"/>
<path d="M39.6259 185.025C39.6015 185.814 38.4047 185.768 37.681 185.453C37.9415 184.749 38.9976 184.514 39.5326 185.04L39.6259 185.025Z" fill="black"/>
<path fill-rule="evenodd" clip-rule="evenodd" d="M195.826 414.187C196.886 415.248 197.326 415.733 197.326 417.294C197.326 418.854 196.479 419.855 195.051 420.313C194.393 420.525 193.481 420.363 193.31 419.693C198.07 418.721 196.32 416.646 195.826 414.187Z" fill="#252525"/>
<path fill-rule="evenodd" clip-rule="evenodd" d="M189.475 407.55C189.983 405.866 192.192 404.956 193.738 405.794C194.35 406.125 194.859 406.728 194.891 407.423C193.085 407.465 191.599 406.298 189.475 407.55Z" fill="#252525"/>
<path fill-rule="evenodd" clip-rule="evenodd" d="M193.797 422.59C191.611 424.163 183.728 417 193.797 422.59V422.59Z" fill="#252525"/>
</g>
</svg>
