<svg width="306" height="487" viewBox="0 0 306 487" fill="none" xmlns="http://www.w3.org/2000/svg">
<g opacity="0.3">
<path fill-rule="evenodd" clip-rule="evenodd" d="M250.193 481.839C360.415 512.796 414.048 393.997 508.488 403.036C560.185 407.983 663.23 433.059 663 250.393C662.424 132.463 553.588 102.932 441.355 163.411C408.329 176.31 382.255 172.313 353.946 159.496C325.636 146.68 289.227 89.464 220.606 77.6932C14.1019 42.2712 -162.589 365.906 250.193 481.839Z" fill="#DFF6E4"/>
<path fill-rule="evenodd" clip-rule="evenodd" d="M94.264 2.84695C93.3554 1.57311 91.8831 0.839561 90.3108 1.02982C88.7007 1.22282 87.3542 2.32902 86.8644 3.85525L86.7336 4.2634C86.6346 4.5647 86.5165 4.90973 86.3781 5.29777C85.983 6.40558 85.5041 7.63519 84.9383 8.95766C83.3298 12.7173 81.3498 16.4696 78.9865 19.9604C73.8873 27.4921 67.7433 32.7351 60.541 34.7544C59.4152 35.0701 58.7616 36.2277 59.081 37.34C59.2432 37.9046 69.7619 43.0986 80.5 41.7891C90.9156 40.519 101.562 32.7608 101.647 32.2328L101.779 31.1334L101.816 30.7651C102.562 22.7718 101.146 13.7426 95.6977 4.99591C95.2452 4.26935 94.7674 3.55286 94.264 2.84695Z" fill="#E7EAEE"/>
<path fill-rule="evenodd" clip-rule="evenodd" d="M115.508 5L115.453 5.42326C114.704 10.8406 112.603 18.385 108.804 24.0758C104.126 31.0822 97.5256 36.4405 90.8924 39.8936C81.3231 44.8748 70.9069 45.7867 60.6509 39.3155L60.1986 39.0255C54.809 35.5161 50.7191 33.8263 45.1073 35.2208C39.4955 36.6152 36.77 40.6842 34.3475 44.4595L34.2365 44.6191C33.8481 45.1356 33.2801 45.4933 32.6399 45.6192L22 47.297L25.8747 52.0891C27.0409 53.5417 27.8698 54.5889 28.3615 55.2307L32.6203 60.8163C45.3128 77.3892 58.9721 93.213 85.6086 87.7351L86.5114 87.5424C93.5685 85.9808 99.4851 90.1751 106.908 96.3571L108.494 97.6867C110.457 99.3409 116.393 104.551 118.823 107.059L119.617 107.888L120.349 108.673C120.502 108.838 120.647 108.998 120.785 109.15L121.543 110L122.008 109.453C127.032 103.431 130.179 94.2593 131.808 86.6931C132.424 83.8343 132.777 81.097 132.924 78.5714L132.942 78.2425C132.98 77.5042 132.997 76.8597 133 76.3213V75.9218L132.241 76.1433C123.456 78.6237 113.572 78.8702 103.927 77.7625C101.597 77.4949 127.155 56.8864 121.909 30.1971C120.713 24.1142 119.954 15.9813 117.866 10.4612C117.208 8.72017 116.525 7.12806 115.849 5.70438L115.508 5Z" fill="white"/>
<path fill-rule="evenodd" clip-rule="evenodd" d="M124 338.305C124 316.083 126.47 306.421 152.997 294.293C207.366 272.328 207.366 271.481 311.524 231.232C339.069 220.643 397.141 246.01 422.393 235.379C439.228 228.291 454.971 223.029 468.88 216C470.227 224.791 478.933 239.674 482 242.232C465.713 245.648 449.958 250.931 434.735 258.081C401.827 273.538 421.327 269.326 369.203 318.455C364.786 322.619 348.554 332.112 325.083 342C325.083 342 277.815 335.656 258.857 327.774C239.564 319.753 210.329 294.293 210.329 294.293C210.329 294.293 176.233 316.525 156.631 326.519C147.457 331.196 124 338.305 124 338.305Z" fill="white"/>
<path fill-rule="evenodd" clip-rule="evenodd" d="M124.245 327C124.245 321.754 123.694 318.092 124.245 314.043C126.042 300.841 133.083 294.087 153.377 284.753C207.725 262.663 207.58 259.797 311.699 219.319C339.234 208.669 397.284 234.18 422.527 223.489C439.356 216.361 455.093 211.069 468.996 204C469.036 204.253 467.589 216.334 467.589 216.334C467.589 216.334 433.266 234.559 410.561 238.424C386.438 242.53 353.304 223.489 320.219 232.854C269.835 247.116 153.728 291.942 139.993 303.175C129.201 312.002 124.245 327 124.245 327Z" fill="#E7EAEE"/>
<path fill-rule="evenodd" clip-rule="evenodd" d="M94.264 2.82439C93.3554 1.56611 91.8831 0.841522 90.3108 1.02946C88.7007 1.2201 87.3542 2.31278 86.8644 3.82036L86.7336 4.22353C86.6346 4.52114 86.5165 4.86197 86.3781 5.24526C85.983 6.33954 85.5041 7.55412 84.9383 8.86044C83.3298 12.5741 81.3498 16.2806 78.9865 19.7288C73.8873 27.1685 67.7433 32.3474 60.541 34.342C59.4152 34.6538 58.7616 35.7972 59.081 36.896C59.4005 37.9947 76.8997 30.2121 82.5089 22.0283C85.0339 18.3443 87.1353 14.4105 88.8417 10.4708C89.3565 9.28218 89.8046 8.16248 90.1885 7.12921L90.375 6.61986C90.5253 6.20367 90.6545 5.8305 90.7642 5.50096C90.7918 5.26587 90.8176 5.18722 90.8414 5.26499C102.98 13.3696 98.2083 33.4836 99.3743 33.5813C100.487 33.6746 101.473 32.9105 101.647 31.8512L101.779 30.7653L101.816 30.4014C102.562 22.5058 101.146 13.5869 95.6977 4.94709C95.2452 4.22941 94.7674 3.52167 94.264 2.82439Z" fill="#E7EAEE"/>
<path fill-rule="evenodd" clip-rule="evenodd" d="M119.246 2.32015L119.511 2.79403L119.835 3.40233C120.03 3.77675 120.249 4.21118 120.488 4.70176C121.314 6.4022 122.149 8.32646 122.948 10.4487C125.198 16.4221 126.771 22.869 127.308 29.5855C128.037 38.6999 126.721 47.3018 123.389 55.1271L123.104 55.784C120.397 61.897 116.453 67.498 111.333 72.5231L110.826 73.0145L111.257 73.0353C118.629 73.3451 125.92 72.6851 132.33 70.6415C133.704 70.2034 135.202 70.4296 136.387 71.253C137.568 72.0751 138.302 73.398 138.376 74.8354L138.393 75.2817L138.404 75.8714V76.0983C138.404 76.9212 138.38 77.8438 138.321 78.8548C138.159 81.647 137.772 84.6591 137.098 87.8034C135.194 96.6863 131.387 105.006 125.164 112.016C124.339 112.947 123.177 113.504 121.942 113.571L121.656 113.577C120.337 113.552 119.133 113.007 118.277 112.076L117.65 111.348L117.343 110.999L116.689 110.273L115.974 109.501C115.725 109.236 115.467 108.964 115.199 108.686C112.914 106.317 110.392 103.969 107.714 101.808C100.291 95.8176 93.1308 92.4357 87.0158 92.8023C77.0128 93.4033 68.7293 92.936 61.0442 90.7798C51.1089 87.9923 43.3075 82.5227 38.1448 73.8158L37.8554 73.3195C35.1825 68.6581 31.2349 63.2886 26.5784 57.6997C25.1393 55.9724 23.7199 54.3301 22.367 52.8111L21.7914 52.1678C20.8697 51.1425 20.1145 50.3255 19.798 49.9928C18.6294 48.7614 18.2233 46.9946 18.7338 45.3789L18.8088 45.1606C19.3696 43.6509 20.674 42.5322 22.2638 42.2185L30.7886 40.5336L30.888 40.39C33.9383 36.0542 38.2935 32.3817 44.0788 30.9024C50.1132 29.3594 56.4632 30.701 62.8581 34.7586L63.3043 35.0461C71.9412 40.6949 80.5021 40.3832 88.6414 36.1276C94.4552 33.0875 99.9964 27.9256 104.195 21.6078C108.099 15.7339 110.42 9.45451 110.585 4.49835C110.654 2.42713 112.083 0.648768 114.092 0.141656C116.103 -0.366676 118.206 0.523799 119.246 2.32015ZM115.671 4.718L115.616 5.14277C114.868 10.5793 112.769 18.1505 108.973 23.8616C104.3 30.8929 97.705 36.2702 91.0778 39.7356C81.5171 44.7344 71.1103 45.6495 60.8635 39.1554L60.4115 38.8644C55.0268 35.3425 50.9406 33.6467 45.3338 35.0461C39.7271 36.4455 37.004 40.529 34.5837 44.3176L34.4727 44.4778C34.0848 44.9962 33.5173 45.3551 32.8776 45.4815L22.2472 47.1652L26.1185 51.9743C27.2836 53.4321 28.1118 54.4831 28.603 55.1271L32.858 60.7326C45.5391 77.3643 59.1862 93.2444 85.7988 87.747L86.7008 87.5536C93.7515 85.9864 99.6628 90.1957 107.079 96.3996L108.663 97.7339C110.625 99.394 116.556 104.622 118.983 107.139L119.776 107.972L120.508 108.759C120.661 108.925 120.806 109.085 120.944 109.238L121.701 110.091L122.165 109.542C127.185 103.499 130.329 94.2943 131.957 86.7012C132.572 83.8323 132.925 81.0853 133.072 78.5507L133.09 78.2206C133.128 77.4798 133.145 76.8329 133.148 76.2926V75.8917L132.389 76.114C123.612 78.6032 113.737 78.8506 104.101 77.7389C101.773 77.4704 127.308 56.7887 122.066 30.0046C120.872 23.9001 120.114 15.7383 118.027 10.1986C117.369 8.45138 116.687 6.85362 116.012 5.42489L115.671 4.718Z" fill="#E7EAEE"/>
<path fill-rule="evenodd" clip-rule="evenodd" d="M49 52C51.2057 52 53 50.4299 53 48.5C53 46.5701 51.2057 45 49 45C46.7943 45 45 46.5701 45 48.5C45 50.4297 46.7943 52 49 52Z" fill="#00160A"/>
<ellipse cx="52.1695" cy="62.0469" rx="5.784" ry="4.73237" fill="#FFB61D"/>
<ellipse cx="52" cy="62" rx="6" ry="5" fill="#FFB61D"/>
<path fill-rule="evenodd" clip-rule="evenodd" d="M114.3 2.20623L114.552 2.65684L114.86 3.23527C115.046 3.5913 115.254 4.00441 115.481 4.4709C116.267 6.08785 117.061 7.91762 117.821 9.93563C119.96 15.6158 121.456 21.7461 121.966 28.1328C122.659 36.7997 121.408 44.9792 118.24 52.4203L117.968 53.045C115.394 58.8578 111.644 64.1837 106.776 68.9621L106.293 69.4294L106.703 69.4492C113.714 69.7437 120.647 69.1162 126.741 67.1729C128.048 66.7563 129.473 66.9714 130.599 67.7544C131.723 68.5361 132.421 69.794 132.491 71.1609L132.507 71.5853L132.517 72.146V72.3617C132.517 73.1443 132.494 74.0215 132.438 74.9829C132.285 77.638 131.917 80.5022 131.276 83.4921C129.465 91.9389 125.845 99.8503 119.928 106.516C119.143 107.401 118.038 107.931 116.863 107.994L116.592 108C115.338 107.977 114.192 107.458 113.378 106.573L112.782 105.88L112.49 105.548L111.869 104.859L111.189 104.124C110.952 103.873 110.706 103.614 110.451 103.35C108.279 101.097 105.881 98.8636 103.334 96.8086C96.2757 91.1129 89.4671 87.897 83.6524 88.2456C74.1406 88.8171 66.2638 88.3727 58.9561 86.3224C49.5086 83.6717 42.0903 78.4708 37.1811 70.1913L36.9059 69.7194C34.3642 65.2869 30.6105 60.181 26.1826 54.8665C24.8142 53.2241 23.4644 51.6624 22.1779 50.2181L21.6306 49.6063C20.7541 48.6313 20.036 47.8545 19.7351 47.5381C18.6239 46.3672 18.2377 44.6871 18.7232 43.1507L18.7945 42.9432C19.3277 41.5076 20.5681 40.4438 22.0798 40.1455L30.1861 38.5434L30.2805 38.4068C33.181 34.2839 37.3224 30.7917 42.8237 29.3851C48.5618 27.9178 54.6 29.1935 60.6809 33.0519L61.1052 33.3253C61.451 33.5515 61.7968 33.7676 62.1423 33.9739C68.6654 31.674 74.2782 26.6216 78.9917 19.5751C81.3377 16.0681 83.303 12.2982 84.8997 8.52107C85.4613 7.19243 85.9367 5.95709 86.3289 4.84412C86.4663 4.45427 86.5834 4.10763 86.6817 3.80493L86.8116 3.39487C87.2978 1.86153 88.6343 0.750174 90.2326 0.556276C91.7933 0.365129 93.2547 1.1021 94.1565 2.38188C94.6563 3.09107 95.1305 3.81091 95.5797 4.54085C98.4873 9.26563 100.238 14.0725 101.12 18.7555C104.146 13.7067 105.924 8.48957 106.065 4.27748C106.13 2.30796 107.489 0.616913 109.399 0.134701C111.312 -0.348671 113.311 0.49808 114.3 2.20623ZM85.1982 34.3537C78.5515 37.8289 71.609 38.5382 64.5791 35.2671C70.2465 32.5726 78.8655 27.3296 82.4881 21.914C84.9946 18.1669 87.0804 14.166 88.7743 10.1589C89.2853 8.95002 89.7301 7.81119 90.1111 6.76026L90.2963 6.24221C90.4455 5.8189 90.5737 5.43935 90.6826 5.10419C90.71 4.86508 90.7356 4.78508 90.7593 4.86418C96.6517 8.89535 98.5298 15.8477 99.046 21.9116C95.1845 27.2967 90.3018 31.685 85.1982 34.3537ZM87.515 37.7845C91.5673 35.6655 95.6069 32.7948 99.1561 29.2375C99.1364 29.7484 99.1146 30.2253 99.0945 30.6627L99.0945 30.6637C99.0103 32.5015 98.9581 33.6411 99.2292 33.6644C100.334 33.7593 101.312 32.9821 101.485 31.9047L101.616 30.8002L101.653 30.4301C101.777 29.0815 101.841 27.7035 101.835 26.3025C102.791 25.1553 103.694 23.9506 104.532 22.6899C108.141 17.2593 110.137 10.0599 110.849 4.89026L110.901 4.48635L111.225 5.15852C111.867 6.5171 112.516 8.03642 113.141 9.69784C114.522 13.3638 115.291 18.2372 116.014 22.8185L116.014 22.8186L116.014 22.8188C116.33 24.8205 116.637 26.7663 116.982 28.5313C120.802 48.0522 107.43 64.1642 101.972 70.7401C100.31 72.7439 99.3813 73.8622 99.8983 73.9219C109.061 74.9789 118.452 74.7437 126.798 72.3767L127.519 72.1654V72.5466C127.517 73.0603 127.5 73.6754 127.464 74.3799L127.447 74.6938C127.307 77.1039 126.972 79.716 126.387 82.4441C124.839 89.6644 121.85 98.4169 117.076 104.164L116.634 104.685L115.915 103.874C115.784 103.729 115.645 103.577 115.5 103.419L114.804 102.67L114.05 101.879C111.742 99.4854 106.102 94.5136 104.237 92.935L102.73 91.6663C95.6784 85.7669 90.0574 81.7644 83.3529 83.2546L82.4952 83.4385C57.1893 88.666 44.2123 73.5657 32.1539 57.7505L28.1078 52.4203C27.6407 51.8079 26.8532 50.8086 25.7452 49.4224L22.0641 44.8493L32.1725 43.2483C32.7807 43.1281 33.3204 42.7868 33.6893 42.2939L33.7948 42.1416C36.0962 38.539 38.6856 34.656 44.0171 33.3253C49.3485 31.9946 53.2341 33.6071 58.3544 36.9561L58.7842 37.2328C68.5279 43.4081 78.4237 42.5379 87.515 37.7845ZM511.849 184.926C513.916 183.921 517.624 185.87 515.473 189.006C512.216 193.754 515.834 204.779 518.038 211.495C519.057 214.602 519.774 216.786 519.367 216.999C518.08 217.671 516.492 217.173 515.819 215.886C512.177 208.918 510.086 203.384 509.565 199.178C509.305 197.085 509.248 195.06 509.394 193.107L509.413 192.881L492.577 201.065L492.364 201.261C488.563 204.827 486.891 208.965 489.673 216.298L489.837 216.723C492.856 224.411 497.967 229.925 503.285 229.695L503.701 229.674C515.518 229.437 522.58 225.881 525.101 221.551C528.271 216.107 529.131 209.823 523.218 197.599C522.586 196.292 519.343 187.253 523.931 191.919C528.519 196.586 534.915 217.207 530.778 224.312C527.324 230.244 518.462 233.217 506.317 233.795C506.388 234.104 506.403 234.431 506.354 234.764C505.204 242.572 501.641 247.483 495.681 248.904C491.124 249.99 486.227 248.551 481.741 245.083C465.98 248.467 450.724 253.626 435.97 260.559L433.785 261.594C426.258 265.189 421.942 267.599 418.79 269.942C416.941 271.316 415.414 272.724 413.772 274.535L413.508 274.836C412.711 275.76 410.974 277.882 408.998 280.295L408.997 280.296L408.992 280.303C406.362 283.515 403.312 287.241 401.491 289.349L400.611 290.362C393.207 298.846 383.874 308.472 371.047 320.568L370.688 320.897C365.879 325.195 353.099 332.46 337.163 339.787C381.144 338.224 412.858 321.438 432.607 289.398C433.476 287.988 435.417 287.724 436.632 288.849C470.592 320.302 509.942 334.857 554.832 332.584C599.841 330.305 632.871 318.606 654.022 297.604C655.052 296.581 656.717 296.587 657.74 297.617C658.763 298.647 658.757 300.312 657.727 301.335C635.538 323.368 588.431 339.9 542.234 342.24C497.306 344.514 470.5 326.003 436.224 295.577L435.386 294.828L435.086 295.289C413.378 328.188 366.215 352.182 319.148 352.522L317.674 352.527C269.532 352.527 241.768 329.217 209.289 297.357L209.036 297.107L208.92 297.206C207.967 298.008 207.021 298.803 206.083 299.593C175.65 325.204 152.942 344.314 118.783 349.196L117.693 349.348C79.1784 357.141 20.7662 336.384 11.79 326.21C3.56531 316.888 13.1586 322.682 15.7922 324.273C16.0328 324.418 16.2154 324.529 16.3209 324.589C41.8125 339.184 71.2035 344.742 106.466 339.932C111.333 339.268 116.169 338.389 120.974 337.295L120.918 336.777C119.378 322.154 119.369 315.762 121.588 308.426C124.606 298.448 131.932 290.866 145.111 284.837L148.74 283.233C165.019 276.058 177.948 270.672 191.359 265.439L192.341 265.056C193.845 264.471 195.368 263.882 196.924 263.285L198.448 262.704C198.999 262.509 206.182 259.662 217.101 255.333L217.105 255.331L217.117 255.326L217.121 255.325L217.121 255.325C242.314 245.337 287.369 227.475 316.764 216.111C323.124 213.665 330.825 212.851 340.271 213.339L341.085 213.384C348.161 213.801 355.121 214.761 366.531 216.735L376.555 218.491C387.749 220.429 393.174 221.192 399.506 221.644C401.496 221.785 403.387 221.961 405.183 222.128L405.186 222.128L405.187 222.129L405.187 222.129C411.846 222.748 417.206 223.246 421.476 221.447C425.274 219.847 428.998 218.303 432.646 216.789L432.648 216.789L432.649 216.788C444.581 211.839 455.711 207.222 466.039 202.088C466.748 197.494 468.557 194.103 471.394 191.869C475.769 188.424 481.962 188.366 487.333 190.455C488.687 190.981 489.357 192.505 488.831 193.858C488.661 194.296 487.567 194.094 486.019 193.809C482.782 193.212 477.561 192.249 474.647 196C471.406 200.173 470.329 206.566 473.2 219.155C475.28 228.277 488.766 243.789 494.462 243.789C500.812 243.789 502.297 237.624 503.14 234.127L503.193 233.908C495.64 234.104 489.901 229.324 486.176 220.151L485.994 219.697C482.163 209.943 483.214 202.124 489.409 196.852C489.521 196.756 489.642 196.67 489.768 196.595L489.963 196.49L511.849 184.926ZM476.89 240.33C476.624 240.008 476.361 239.678 476.101 239.34C476.076 239.313 476.051 239.287 476.027 239.26C476.008 239.239 475.989 239.219 475.971 239.199C475.92 239.141 475.871 239.084 475.826 239.029C475.749 238.936 475.672 238.843 475.594 238.749L475.444 238.568C475.327 238.427 475.209 238.285 475.09 238.142L475.09 238.142L475.089 238.142L475.089 238.141L475.089 238.141L475.089 238.141C473.051 235.694 470.691 232.858 468.843 228.769L468.575 228.173C465.609 221.53 465.255 214.068 465.437 207.915L465.465 207.2L465.308 207.28C453.055 213.344 439.727 219.427 425.323 225.53L423.517 226.293C417.35 228.891 409.647 230.726 399.887 230.095L399.133 230.044C392.465 229.568 386.856 228.771 375.095 226.729L366.315 225.19C341.564 220.905 329.177 220.236 318.971 224.052C318.971 224.052 166.764 281.308 147.27 289.632C135.415 295.055 131.393 300.158 126.49 308.426C123.954 312.703 124.21 324.501 124.388 332.696L124.388 332.698C124.418 334.072 124.446 335.344 124.458 336.463C153.237 329.265 180.902 314.302 207.469 291.541C208.516 290.644 210.079 290.708 211.049 291.689C213.198 293.862 215.383 295.961 217.605 297.987L327.211 252.195C327.511 252.069 327.822 252.004 328.129 251.992C328.954 251.603 329.845 251.281 330.8 251.027C340.357 248.486 347.99 252.62 353.263 262.795L362.817 255.826C364.226 254.799 366.227 255.402 366.832 257.038C375.55 280.6 373.01 296.745 358.654 304.535C344.177 312.39 331.587 305.913 321.771 286.278C321.273 285.281 321.468 284.13 322.157 283.354C319.817 273.849 319.383 266.275 320.975 260.79L224.946 304.309C239.305 315.966 255.073 324.759 272.26 330.689C272.653 330.313 273.078 329.989 273.497 329.76C287.973 321.83 323.639 312.568 332.451 310.279L332.451 310.279L332.451 310.279L332.492 310.269C332.812 310.186 333.095 310.112 333.34 310.048L333.589 309.983L333.732 309.946C333.878 309.908 334.002 309.875 334.104 309.847C338.238 308.74 334.003 312.602 332.755 313.178L332.596 313.246L280.537 333.293C296.024 337.703 312.607 339.908 330.293 339.908C331.299 339.908 332.298 339.9 333.292 339.885L334.456 339.128C345.589 331.892 364.208 319.791 367.44 316.742L368.948 315.316C379.666 304.916 387.643 294.938 394.606 286.229C402.246 276.673 408.665 268.644 416.145 263.258C421.961 259.071 424.069 258.114 429.022 255.865C430.347 255.264 431.876 254.57 433.734 253.696C446.873 247.522 461.794 243.947 475.801 240.591L475.801 240.591L476.89 240.33ZM332.151 256.109C339.724 254.095 345.396 257.652 349.719 267.583L349.855 268.26C351.455 276.506 350.767 281.121 348.578 282.349C346.51 283.508 344.474 282.379 341.841 277.64C341.22 276.477 339.813 275.94 338.558 276.435L338.538 276.443L326.996 280.997L326.707 279.73C323.546 265.403 325.606 257.849 332.151 256.109ZM204.908 375.534C206.129 374.748 214.557 370.636 207.051 378.365C199.546 386.094 141.092 418.884 109.538 420.7C79.126 422.45 52.1239 409.749 28.6312 393.126L27.8526 392.57L27.6974 392.771C26.6574 394.089 25.5888 395.286 24.4907 396.36L24.0182 396.813C22.0283 398.681 18.5843 400.795 13.6084 403.253C12.3065 403.896 7.7065 404.487 10.0868 402.06C12.4672 399.633 17.677 396.138 20.7111 394.134C22.694 392.824 23.3202 391.293 23.9415 389.773C24.2709 388.967 24.5989 388.165 25.1269 387.401C25.975 386.174 27.6729 385.898 28.8664 386.792C52.0261 404.15 79.0807 413.403 109.538 411.65C140.122 409.89 171.707 396.896 204.908 375.534ZM384.788 392.296C385.855 391.312 385.855 384.287 384.788 385.272C372.975 396.172 348.244 405.759 317.727 407.515C287.17 409.274 263.147 404.47 245.609 393.192C244.388 392.407 238.342 390.33 241.976 393.982C245.609 397.634 286.448 416.685 318.029 414.868L318.974 414.812C350.092 412.913 372.03 404.069 384.788 392.296ZM363.218 262.628L363.06 262.156L355.144 267.931L355.289 268.748C356.881 278.058 355.795 284.143 351.381 286.801L351.149 286.935C346.548 289.516 342.216 287.693 338.595 282.391L338.436 282.155L327.792 286.454L328.038 286.901C336.174 301.582 345.191 305.666 355.803 300.096L356.146 299.913C366.804 294.13 369.429 282.327 363.586 263.773L363.218 262.628ZM52.6953 48.3757C52.6953 50.4053 51.0442 52.0564 49.0145 52.0564C46.9849 52.0564 45.3338 50.405 45.3338 48.3757C45.3338 46.3461 46.9849 44.6949 49.0145 44.6949C51.0442 44.6949 52.6953 46.3461 52.6953 48.3757Z" fill="#00160A"/>
</g>
</svg>
