<svg width="174" height="47" viewBox="0 0 174 47" fill="none" xmlns="http://www.w3.org/2000/svg">
<g clip-path="url(#clip0_36_37)">
<path d="M78.5743 12.2476H73.5759V20.1851H64.9812V12.2476H59.9524V32.6235H64.9812V24.5644H73.5759V32.6235H78.5743V12.2476ZM98.2185 17.3568H93.3421V18.5733C92.0925 17.4785 90.5077 16.9006 88.5876 16.9006C86.5151 16.9006 84.7474 17.6609 83.2845 19.1815C81.8215 20.7021 81.1205 22.6485 81.1205 24.9902C81.1205 27.3623 81.8215 29.3086 83.2845 30.8292C84.7474 32.3498 86.5151 33.0797 88.5876 33.0797C90.5077 33.0797 92.0925 32.5323 93.3421 31.4071V32.6235H98.2185V17.3568ZM89.5933 28.9437C88.4961 28.9437 87.6123 28.5788 86.9418 27.8489C86.2408 27.119 85.9055 26.1762 85.9055 24.9902C85.9055 23.8345 86.2408 22.8918 86.9418 22.1619C87.6123 21.432 88.4961 21.0366 89.5933 21.0366C90.5991 21.0366 91.483 21.432 92.2144 22.1619C92.9459 22.9222 93.3421 23.8649 93.3421 24.9902C93.3421 26.1458 92.9459 27.119 92.2144 27.8489C91.483 28.5788 90.5991 28.9437 89.5933 28.9437ZM106.617 32.6235V10.7271H101.74V32.6235H106.617ZM125.158 24.9902C125.097 22.5572 124.335 20.6109 122.842 19.1207C121.318 17.6609 119.459 16.9006 117.264 16.9006C114.979 16.9006 113.058 17.6609 111.504 19.1815C109.919 20.7021 109.157 22.6485 109.157 24.9902C109.157 27.3623 109.919 29.3086 111.504 30.8292C113.058 32.3498 114.979 33.0797 117.234 33.0797C119.002 33.0797 120.556 32.6843 121.866 31.8936C123.177 31.1029 124.152 29.8865 124.823 28.3051L120.495 27.4231C119.824 28.6092 118.758 29.187 117.234 29.187C116.411 29.187 115.71 28.9437 115.131 28.3963C114.521 27.8793 114.125 27.1494 113.942 26.2371H125.158V24.9902ZM117.264 20.8542C117.996 20.8542 118.636 21.0671 119.184 21.4624C119.733 21.8882 120.099 22.466 120.343 23.2567H114.034C114.247 22.5268 114.674 21.9186 115.283 21.4928C115.893 21.0671 116.533 20.8542 117.264 20.8542ZM137.325 16.9006C135.374 16.9006 133.789 17.4785 132.57 18.5733V17.3568H127.694V37.7935H132.57V31.4071C133.789 32.5323 135.374 33.0797 137.325 33.0797C139.397 33.0797 141.134 32.3498 142.597 30.8292C144.06 29.3086 144.792 27.3623 144.792 24.9902C144.792 22.6485 144.06 20.7021 142.597 19.1815C141.134 17.6609 139.397 16.9006 137.325 16.9006ZM136.319 28.9437C135.283 28.9437 134.399 28.5788 133.667 27.8489C132.936 27.119 132.57 26.1458 132.57 24.9902C132.57 23.8649 132.936 22.9222 133.667 22.1619C134.399 21.432 135.283 21.0366 136.319 21.0366C137.386 21.0366 138.27 21.432 138.971 22.1619C139.641 22.8918 140.007 23.8345 140.007 24.9902C140.007 26.1762 139.641 27.119 138.971 27.8489C138.27 28.5788 137.386 28.9437 136.319 28.9437ZM156.909 16.9006C154.989 16.9006 153.404 17.5393 152.185 18.8166V10.7271H147.308V32.6235H152.185V25.5376C152.185 24.1386 152.459 23.0742 153.007 22.3443C153.556 21.6449 154.349 21.2799 155.324 21.2799C156.116 21.2799 156.756 21.5841 157.244 22.1315C157.732 22.6789 157.975 23.4088 157.975 24.2907V32.6235H162.821V23.2567C162.821 21.3712 162.273 19.8202 161.176 18.6645C160.078 17.5089 158.676 16.9006 156.909 16.9006Z" fill="black"/>
<path d="M170.676 27.4629C172.309 27.4629 173.633 28.7836 173.633 30.4128C173.633 32.0421 172.309 33.3628 170.676 33.3628C169.043 33.3628 167.72 32.0421 167.72 30.4128C167.72 28.7836 169.043 27.4629 170.676 27.4629ZM170.676 28.0529C170.049 28.0529 169.447 28.3015 169.004 28.7441C168.56 29.1867 168.311 29.7869 168.311 30.4128C168.311 31.0387 168.56 31.639 169.004 32.0816C169.447 32.5241 170.049 32.7728 170.676 32.7728C171.303 32.7728 171.905 32.5241 172.348 32.0816C172.792 31.639 173.041 31.0387 173.041 30.4128C173.041 29.7869 172.792 29.1867 172.348 28.7441C171.905 28.3015 171.303 28.0529 170.676 28.0529ZM170.824 28.9379C171.05 28.9378 171.269 29.0115 171.449 29.1475C171.629 29.2836 171.76 29.4747 171.821 29.6916C171.882 29.9084 171.869 30.1393 171.787 30.3489C171.704 30.5585 171.555 30.7353 171.362 30.8524L172.115 31.8878H171.384L170.74 31.0028H170.085V31.8878H169.494V28.9379H170.824ZM170.824 29.5278H170.085V30.4128H170.824C170.934 30.4128 171.04 30.3719 171.122 30.2979C171.204 30.2239 171.255 30.1223 171.265 30.0128L171.268 29.9703C171.268 29.853 171.22 29.7405 171.137 29.6575C171.054 29.5745 170.941 29.5278 170.824 29.5278Z" fill="black"/>
<path d="M23.551 47C36.5578 47 47.1019 36.4787 47.1019 23.5C47.1019 10.5213 36.5578 0 23.551 0C10.5441 0 0 10.5213 0 23.5C0 36.4787 10.5441 47 23.551 47Z" fill="#2E279D"/>
<path fill-rule="evenodd" clip-rule="evenodd" d="M19.531 13.986C19.531 13.986 19.531 13.986 19.531 13.986C19.5308 13.9869 19.5305 13.9885 19.5301 13.9908C19.5287 13.9989 19.526 14.0158 19.5221 14.0408C19.5143 14.0908 19.5023 14.1729 19.4887 14.2823C19.4613 14.502 19.4282 14.8265 19.4095 15.2192C19.3713 16.0229 19.3983 17.0238 19.6094 17.969C19.8227 18.9241 20.182 19.6393 20.6642 20.0992C21.0883 20.5037 21.8219 20.9202 23.2753 20.8997C25.8457 20.8636 27.9032 21.6488 29.4025 23.0787C30.8436 24.4531 31.5399 26.205 31.8791 27.7239C32.2206 29.2527 32.2432 30.7331 32.1928 31.7919C32.1672 32.3306 32.1215 32.7827 32.0812 33.1069C32.0609 33.2694 32.0418 33.4011 32.027 33.4967C32.0195 33.5446 32.0131 33.5836 32.0082 33.6131L32.0018 33.6502L31.9995 33.6632L31.9985 33.6683L31.9981 33.6706C31.998 33.6715 31.9978 33.6725 29.5444 33.2274L31.9978 33.6725C31.7514 35.0245 30.4533 35.9213 29.0983 35.6755C27.7457 35.4301 26.8477 34.1387 27.0898 32.7892C27.0899 32.7883 27.0902 32.7867 27.0905 32.7846C27.0919 32.7764 27.0948 32.7595 27.0986 32.7345C27.1064 32.6845 27.1184 32.6024 27.132 32.4931C27.1594 32.2733 27.1926 31.9488 27.2112 31.5561C27.2494 30.7524 27.2224 29.7516 27.0114 28.8064C26.798 27.8512 26.4388 27.1361 25.9566 26.6762C25.5325 26.2716 24.7989 25.8552 23.3455 25.8756C20.7751 25.9117 18.7175 25.1265 17.2183 23.6967C15.7772 22.3223 15.0809 20.5704 14.7416 19.0515C14.4002 17.5227 14.3776 16.0423 14.4279 14.9835C14.4535 14.4448 14.4992 13.9926 14.5395 13.6685C14.5598 13.506 14.5789 13.3743 14.5937 13.2786C14.6012 13.2307 14.6076 13.1918 14.6126 13.1623L14.619 13.1252L14.6212 13.1122L14.6222 13.1071L14.6226 13.1048C14.6228 13.1038 14.6229 13.1029 17.0763 13.548L14.6229 13.1029C14.8693 11.7509 16.1674 10.8541 17.5224 11.0999C18.875 11.3453 19.7729 12.6365 19.531 13.986Z" fill="white"/>
<path d="M17.8074 35.941C19.1846 35.941 20.301 34.827 20.301 33.4528C20.301 32.0786 19.1846 30.9646 17.8074 30.9646C16.4303 30.9646 15.3138 32.0786 15.3138 33.4528C15.3138 34.827 16.4303 35.941 17.8074 35.941Z" fill="white"/>
<path d="M31.6358 14.2254C31.6358 15.9744 30.2149 17.3922 28.4621 17.3922C26.7094 17.3922 25.2885 15.9744 25.2885 14.2254C25.2885 12.4764 26.7094 11.0586 28.4621 11.0586C30.2149 11.0586 31.6358 12.4764 31.6358 14.2254Z" fill="white"/>
</g>
<defs>
<clipPath id="clip0_36_37">
<rect width="174" height="47" fill="white"/>
</clipPath>
</defs>
</svg>
