<svg width="25" height="25" viewBox="0 0 25 25" fill="none" xmlns="http://www.w3.org/2000/svg">
<g opacity="0.6" clip-path="url(#clip0_412_123)">
<path d="M4.16667 2.08337H20.8333C21.1096 2.08337 21.3746 2.19312 21.5699 2.38847C21.7653 2.58382 21.875 2.84877 21.875 3.12504V21.875C21.875 22.1513 21.7653 22.4163 21.5699 22.6116C21.3746 22.807 21.1096 22.9167 20.8333 22.9167H4.16667C3.8904 22.9167 3.62545 22.807 3.4301 22.6116C3.23475 22.4163 3.125 22.1513 3.125 21.875V3.12504C3.125 2.84877 3.23475 2.58382 3.4301 2.38847C3.62545 2.19312 3.8904 2.08337 4.16667 2.08337ZM5.20833 4.16671V20.8334H19.7917V4.16671H5.20833ZM7.29167 6.25004H17.7083V10.4167H7.29167V6.25004ZM7.29167 12.5H9.375V14.5834H7.29167V12.5ZM7.29167 16.6667H9.375V18.75H7.29167V16.6667ZM11.4583 12.5H13.5417V14.5834H11.4583V12.5ZM11.4583 16.6667H13.5417V18.75H11.4583V16.6667ZM15.625 12.5H17.7083V18.75H15.625V12.5Z" fill="white" fill-opacity="0.7"/>
</g>
<defs>
<clipPath id="clip0_412_123">
<rect width="25" height="25" fill="white"/>
</clipPath>
</defs>
</svg>
