<svg width="25" height="25" viewBox="0 0 25 25" fill="none" xmlns="http://www.w3.org/2000/svg">
<g opacity="0.6" clip-path="url(#clip0_412_122)">
<path d="M2.97835 2.9969L16.0721 1.1271C16.146 1.1165 16.2213 1.12191 16.2929 1.14296C16.3646 1.16402 16.4308 1.20022 16.4872 1.24912C16.5436 1.29802 16.5889 1.35847 16.6199 1.42638C16.6509 1.49429 16.6669 1.56808 16.6669 1.64273V23.3573C16.6669 23.4319 16.6509 23.5055 16.6199 23.5734C16.589 23.6412 16.5439 23.7016 16.4876 23.7505C16.4313 23.7994 16.3652 23.8356 16.2937 23.8567C16.2222 23.8778 16.147 23.8834 16.0731 23.8729L2.97731 22.0031C2.729 21.9678 2.50178 21.844 2.3374 21.6546C2.17302 21.4651 2.08252 21.2227 2.08252 20.9719V4.02815C2.08252 3.77733 2.17302 3.53493 2.3374 3.34548C2.50178 3.15604 2.729 3.03226 2.97731 2.9969H2.97835ZM4.16689 4.93231V20.0677L14.5836 21.5563V3.44377L4.16689 4.93231ZM17.7086 19.7917H20.8336V5.20835H17.7086V3.12502H21.8752C22.1515 3.12502 22.4164 3.23477 22.6118 3.43012C22.8071 3.62547 22.9169 3.89042 22.9169 4.16669V20.8334C22.9169 21.1096 22.8071 21.3746 22.6118 21.5699C22.4164 21.7653 22.1515 21.875 21.8752 21.875H17.7086V19.7917ZM5.20856 8.33335H13.5419V14.5834H7.29189V16.6667H5.20856V8.33335ZM7.29189 10.4167V12.5H11.4586V10.4167H7.29189Z" fill="white" fill-opacity="0.7"/>
</g>
<defs>
<clipPath id="clip0_412_122">
<rect width="25" height="25" fill="white"/>
</clipPath>
</defs>
</svg>
