<svg width="25" height="25" viewBox="0 0 25 25" fill="none" xmlns="http://www.w3.org/2000/svg">
<g opacity="0.6" clip-path="url(#clip0_412_115)">
<path d="M12.9314 5.20833H21.8752C22.1514 5.20833 22.4164 5.31808 22.6117 5.51343C22.8071 5.70878 22.9168 5.97373 22.9168 6.25V20.8333C22.9168 21.1096 22.8071 21.3746 22.6117 21.5699C22.4164 21.7653 22.1514 21.875 21.8752 21.875H3.12516C2.8489 21.875 2.58394 21.7653 2.38859 21.5699C2.19324 21.3746 2.0835 21.1096 2.0835 20.8333V4.16667C2.0835 3.8904 2.19324 3.62545 2.38859 3.4301C2.58394 3.23475 2.8489 3.125 3.12516 3.125H10.8481L12.9314 5.20833ZM4.16683 5.20833V19.7917H20.8335V7.29167H12.0689L9.98558 5.20833H4.16683ZM11.4585 12.5H13.5418V17.7083H11.4585V12.5ZM11.4585 9.375H13.5418V11.4583H11.4585V9.375Z" fill="white" fill-opacity="0.7"/>
</g>
<defs>
<clipPath id="clip0_412_115">
<rect width="25" height="25" fill="white"/>
</clipPath>
</defs>
</svg>
