<svg width="187" height="22" viewBox="0 0 187 22" fill="none" xmlns="http://www.w3.org/2000/svg">
<g clip-path="url(#clip0_80_138)">
<path d="M2.55333 7.25832C3.24667 5.87769 4.31031 4.71708 5.62536 3.90621C6.94041 3.09535 8.45505 2.66617 10 2.66666C12.2458 2.66666 14.1325 3.49166 15.575 4.83749L13.1858 7.22749C12.3217 6.40166 11.2233 5.98082 10 5.98082C7.82916 5.98082 5.99167 7.44749 5.3375 9.41666C5.17083 9.91666 5.07583 10.45 5.07583 11C5.07583 11.55 5.17083 12.0833 5.3375 12.5833C5.9925 14.5533 7.82916 16.0192 10 16.0192C11.1208 16.0192 12.075 15.7233 12.8217 15.2233C13.2545 14.9383 13.6251 14.5685 13.911 14.1362C14.1969 13.704 14.3922 13.2182 14.485 12.7083H10V9.48499H17.8483C17.9467 10.03 18 10.5983 18 11.1892C18 13.7275 17.0917 15.8642 15.515 17.3142C14.1367 18.5875 12.25 19.3333 10 19.3333C8.90553 19.3338 7.8217 19.1185 6.81045 18.6999C5.79921 18.2812 4.88037 17.6674 4.10646 16.8935C3.33256 16.1196 2.71874 15.2008 2.30011 14.1895C1.88148 13.1783 1.66623 12.0945 1.66666 11C1.66666 9.65499 1.98833 8.38332 2.55333 7.25832Z" fill="#2E279D"/>
</g>
<path d="M35.5813 5.04C37.9173 5.04 39.6133 6.192 40.0133 8.144L37.4213 8.672C37.2293 7.664 36.3973 7.168 35.5493 7.168C34.6693 7.168 34.1093 7.648 34.1093 8.256C34.1093 8.688 34.3013 9.008 34.9733 9.152L37.1973 9.648C39.0533 10.064 40.1413 11.072 40.1413 12.768C40.1413 15.056 38.1093 16.24 35.7253 16.24C33.3093 16.24 31.3253 15.088 31.0373 12.992L33.7573 12.464C34.0293 13.568 34.7973 14.048 35.8693 14.048C36.8613 14.048 37.4533 13.6 37.4533 12.944C37.4533 12.464 37.2293 12.16 36.4613 12L34.2213 11.52C32.6853 11.168 31.3413 10.368 31.3413 8.416C31.3413 6.336 33.0693 5.04 35.5813 5.04ZM43.1251 4.144C43.9891 4.144 44.6131 4.816 44.6131 5.6C44.6131 6.416 43.9891 7.024 43.1251 7.024C42.2611 7.024 41.6531 6.416 41.6531 5.6C41.6531 4.816 42.2611 4.144 43.1251 4.144ZM44.4051 16H41.8451V7.968H44.4051V16ZM54.6609 7.968V15.2C54.6609 17.68 52.7729 19.04 50.1649 19.04C48.3249 19.04 46.9169 18.4 46.1329 17.104L48.2609 15.952C48.8689 16.672 49.3169 16.944 50.1489 16.944C51.3169 16.944 52.1489 16.256 52.1489 14.992V14.768C51.5729 15.264 50.7729 15.536 49.7329 15.536C47.6369 15.536 45.8609 13.872 45.8609 11.6C45.8609 9.376 47.6369 7.728 49.7329 7.728C50.7729 7.728 51.5729 8 52.1489 8.496V7.968H54.6609ZM50.2769 13.44C51.3009 13.44 52.1489 12.672 52.1489 11.6C52.1489 10.528 51.3009 9.776 50.2769 9.776C49.1569 9.776 48.3569 10.528 48.3569 11.6C48.3569 12.672 49.1569 13.44 50.2769 13.44ZM61.5536 7.728C63.4256 7.728 64.6736 9.056 64.6736 11.072V16H62.1296V11.616C62.1296 10.672 61.5696 10.032 60.7536 10.032C59.7456 10.032 59.0896 10.72 59.0896 12.272V16H56.5296V7.968H59.0896V8.736C59.6976 8.096 60.5456 7.728 61.5536 7.728ZM78.1709 7.968V16H75.6109V15.232C75.0029 15.872 74.1549 16.24 73.1469 16.24C71.2749 16.24 70.0269 14.912 70.0269 12.896V7.968H72.5709V12.352C72.5709 13.296 73.1309 13.936 73.9469 13.936C74.9549 13.936 75.6109 13.248 75.6109 11.696V7.968H78.1709ZM85.0856 7.728C87.2136 7.728 89.0056 9.456 89.0056 11.984C89.0056 14.528 87.2136 16.24 85.0856 16.24C84.0456 16.24 83.2136 15.92 82.5896 15.36V18.72H80.0296V7.968H82.5896V8.608C83.2136 8.048 84.0456 7.728 85.0856 7.728ZM84.5576 14.064C85.6776 14.064 86.4936 13.232 86.4936 11.984C86.4936 10.752 85.6776 9.904 84.5576 9.904C83.5176 9.904 82.5896 10.752 82.5896 11.984C82.5896 13.232 83.5176 14.064 84.5576 14.064ZM105.725 7.968L103.149 16.016H100.925L99.4852 11.664L98.0292 16.016H95.8052L93.2292 7.968H95.7412L97.0532 12.288L98.5732 7.968H100.381L101.901 12.304L103.213 7.968H105.725ZM108.172 4.144C109.036 4.144 109.66 4.816 109.66 5.6C109.66 6.416 109.036 7.024 108.172 7.024C107.308 7.024 106.7 6.416 106.7 5.6C106.7 4.816 107.308 4.144 108.172 4.144ZM109.452 16H106.892V7.968H109.452V16ZM116.796 13.632L117.388 15.648C116.764 15.984 116.108 16.24 115.196 16.24C113.196 16.24 111.996 15.152 111.996 13.04V10H110.54V7.968H111.996V5.6H114.556V7.968H116.924V10H114.556V12.784C114.556 13.616 114.956 13.952 115.628 13.952C115.98 13.952 116.46 13.824 116.796 13.632ZM123.398 7.728C125.254 7.728 126.502 9.056 126.502 11.072V16H123.958V11.616C123.958 10.672 123.398 10.032 122.566 10.032C121.574 10.032 120.918 10.72 120.918 12.272V16H118.358V4.48H120.918V8.736C121.542 8.096 122.374 7.728 123.398 7.728ZM136.975 9.68H142.879C142.927 10.064 142.943 10.384 142.943 10.656C142.943 13.904 140.623 16.24 137.391 16.24C134.143 16.24 131.615 13.792 131.615 10.64C131.615 7.504 134.127 5.04 137.343 5.04C139.727 5.04 141.823 6.16 142.575 8.256L140.031 8.992C139.407 7.776 138.383 7.456 137.343 7.456C135.599 7.456 134.271 8.832 134.271 10.64C134.271 12.464 135.631 13.84 137.423 13.84C138.831 13.84 139.855 13.104 140.255 11.92H136.975V9.68ZM148.356 7.76C150.74 7.76 152.756 9.456 152.756 11.984C152.756 14.528 150.74 16.224 148.356 16.224C145.924 16.224 143.908 14.528 143.908 11.984C143.908 9.456 145.924 7.76 148.356 7.76ZM148.356 14.064C149.348 14.064 150.292 13.248 150.292 11.984C150.292 10.736 149.348 9.904 148.356 9.904C147.316 9.904 146.372 10.736 146.372 11.984C146.372 13.248 147.316 14.064 148.356 14.064ZM157.996 7.76C160.38 7.76 162.396 9.456 162.396 11.984C162.396 14.528 160.38 16.224 157.996 16.224C155.564 16.224 153.548 14.528 153.548 11.984C153.548 9.456 155.564 7.76 157.996 7.76ZM157.996 14.064C158.988 14.064 159.932 13.248 159.932 11.984C159.932 10.736 158.988 9.904 157.996 9.904C156.956 9.904 156.012 10.736 156.012 11.984C156.012 13.248 156.956 14.064 157.996 14.064ZM171.989 7.968V15.2C171.989 17.68 170.101 19.04 167.493 19.04C165.653 19.04 164.245 18.4 163.461 17.104L165.589 15.952C166.197 16.672 166.645 16.944 167.477 16.944C168.645 16.944 169.477 16.256 169.477 14.992V14.768C168.901 15.264 168.101 15.536 167.061 15.536C164.965 15.536 163.189 13.872 163.189 11.6C163.189 9.376 164.965 7.728 167.061 7.728C168.101 7.728 168.901 8 169.477 8.496V7.968H171.989ZM167.605 13.44C168.629 13.44 169.477 12.672 169.477 11.6C169.477 10.528 168.629 9.776 167.605 9.776C166.485 9.776 165.685 10.528 165.685 11.6C165.685 12.672 166.485 13.44 167.605 13.44ZM176.418 16H173.858V4.48H176.418V16ZM186.152 11.984V12.64H180.264C180.472 13.6 181.128 14.192 181.992 14.192C182.584 14.192 183.272 14.048 183.704 13.264L185.976 13.728C185.288 15.424 183.832 16.24 181.992 16.24C179.672 16.24 177.752 14.528 177.752 11.984C177.752 9.456 179.672 7.728 182.008 7.728C184.28 7.728 186.104 9.36 186.152 11.984ZM182.008 9.808C181.288 9.808 180.552 10.256 180.312 11.072H183.624C183.384 10.208 182.744 9.808 182.008 9.808Z" fill="#2E279D"/>
<defs>
<clipPath id="clip0_80_138">
<rect width="20" height="20" fill="white" transform="translate(0 1)"/>
</clipPath>
</defs>
</svg>
