<svg width="25" height="25" viewBox="0 0 25 25" fill="none" xmlns="http://www.w3.org/2000/svg">
<g opacity="0.6" clip-path="url(#clip0_412_116)">
<path d="M20.8332 6.25H23.9582V8.33333H22.9165V19.7917H23.9582V21.875H1.0415V19.7917H2.08317V8.33333H1.0415V6.25H4.1665V4.16667C4.1665 3.8904 4.27625 3.62545 4.4716 3.4301C4.66695 3.23475 4.9319 3.125 5.20817 3.125H19.7915C20.0678 3.125 20.3327 3.23475 20.5281 3.4301C20.7234 3.62545 20.8332 3.8904 20.8332 4.16667V6.25ZM20.8332 8.33333H4.1665V19.7917H7.2915V12.5H9.37484V19.7917H11.4582V12.5H13.5415V19.7917H15.6248V12.5H17.7082V19.7917H20.8332V8.33333ZM6.24984 5.20833V6.25H18.7498V5.20833H6.24984Z" fill="white" fill-opacity="0.7"/>
</g>
<defs>
<clipPath id="clip0_412_116">
<rect width="25" height="25" fill="white"/>
</clipPath>
</defs>
</svg>
