<svg width="467" height="36" viewBox="0 0 467 36" fill="none" xmlns="http://www.w3.org/2000/svg">
<line opacity="0.15" y1="20.5" x2="467" y2="20.5" stroke="black" stroke-dasharray="6 6"/>
<rect width="38" height="36" transform="translate(214)" fill="white"/>
<path opacity="0.5" d="M228.927 13.78C231.327 13.78 233.211 15.64 233.211 17.992C233.211 20.332 231.327 22.18 228.927 22.18C226.527 22.18 224.643 20.332 224.643 17.992C224.643 15.64 226.527 13.78 228.927 13.78ZM228.927 20.368C230.235 20.368 231.231 19.36 231.231 17.992C231.231 16.612 230.235 15.592 228.927 15.592C227.619 15.592 226.623 16.612 226.623 17.992C226.623 19.36 227.619 20.368 228.927 20.368ZM241.697 22H239.309L236.885 19.24H236.309V22H234.329V13.96H238.397C240.137 13.96 241.289 15.016 241.289 16.588C241.289 17.908 240.473 18.856 239.177 19.144L241.697 22ZM236.309 17.584H238.181C238.889 17.584 239.345 17.2 239.345 16.612C239.345 16.036 238.889 15.652 238.181 15.652H236.309V17.584Z" fill="#252525"/>
</svg>
