<svg width="185" height="108" viewBox="0 0 185 108" fill="none" xmlns="http://www.w3.org/2000/svg">
<path d="M13.608 41.936C13.608 44.696 11.544 46.304 8.976 46.712V49.4H5.784V46.64C3.24 46.088 1.152 44.408 0.888 41.888L4.632 41.168C4.872 43.112 6.264 43.712 7.584 43.712C8.904 43.712 9.792 43.064 9.792 42.176C9.792 41.552 9.48 41.096 8.424 40.856L5.376 40.184C3.144 39.704 1.248 38.504 1.248 35.912C1.248 33.296 3.096 31.616 5.784 31.184V28.52H8.976V31.256C11.496 31.808 13.248 33.488 13.488 35.936L9.84 36.56C9.696 34.64 8.328 34.088 7.2 34.088C6 34.088 5.208 34.736 5.208 35.6C5.208 36.224 5.544 36.656 6.384 36.848L9.48 37.544C12.12 38.144 13.608 39.536 13.608 41.936Z" fill="#252525"/>
<path d="M38.2 25.2C51.88 25.2 60.92 34.96 60.92 52.24C60.92 61.76 58.76 69.52 53.48 74.88C49.64 78.8 44.44 81.2 38.04 81.2C28.52 81.2 21.32 76.56 19.08 68.08L31.48 65.68C32.52 69.12 34.92 70.24 38.52 70.24C41.16 70.24 43.4 69.04 45.08 67.2C47.56 64.48 48.6 60.72 48.68 56.32C45.72 59.36 41.24 61.2 36.6 61.2C25.16 61.2 17.96 53.92 17.96 43.44C17.96 32.8 26.36 25.2 38.2 25.2ZM38.52 51.6C42.6 51.6 46.36 48.4 46.36 43.68C46.36 39.2 42.6 36 38.52 36C34.36 36 30.44 39.28 30.44 43.84C30.44 48.4 34.36 51.6 38.52 51.6Z" fill="#252525"/>
<path d="M66.952 44.8C68.224 44.8 69.16 45.808 69.16 46.96C69.16 48.184 68.224 49.12 66.952 49.12C65.68 49.12 64.768 48.184 64.768 46.96C64.768 45.808 65.68 44.8 66.952 44.8ZM76.3975 32.56C80.5015 32.56 83.2135 35.488 83.2135 40.672C83.2135 43.528 82.5655 45.856 80.9815 47.464C79.8295 48.64 78.2695 49.36 76.3495 49.36C73.4935 49.36 71.3335 47.968 70.6615 45.424L74.3815 44.704C74.6935 45.736 75.4135 46.072 76.4935 46.072C77.2855 46.072 77.9575 45.712 78.4615 45.16C79.2055 44.344 79.5175 43.216 79.5415 41.896C78.6535 42.808 77.3095 43.36 75.9175 43.36C72.4855 43.36 70.3255 41.176 70.3255 38.032C70.3255 34.84 72.8455 32.56 76.3975 32.56ZM76.4935 40.48C77.7175 40.48 78.8455 39.52 78.8455 38.104C78.8455 36.76 77.7175 35.8 76.4935 35.8C75.2455 35.8 74.0695 36.784 74.0695 38.152C74.0695 39.52 75.2455 40.48 76.4935 40.48ZM91.0694 32.56C95.1734 32.56 97.8854 35.488 97.8854 40.672C97.8854 43.528 97.2374 45.856 95.6534 47.464C94.5014 48.64 92.9414 49.36 91.0214 49.36C88.1654 49.36 86.0054 47.968 85.3334 45.424L89.0534 44.704C89.3654 45.736 90.0854 46.072 91.1654 46.072C91.9574 46.072 92.6294 45.712 93.1334 45.16C93.8774 44.344 94.1894 43.216 94.2134 41.896C93.3254 42.808 91.9814 43.36 90.5894 43.36C87.1574 43.36 84.9974 41.176 84.9974 38.032C84.9974 34.84 87.5174 32.56 91.0694 32.56ZM91.1654 40.48C92.3894 40.48 93.5174 39.52 93.5174 38.104C93.5174 36.76 92.3894 35.8 91.1654 35.8C89.9174 35.8 88.7414 36.784 88.7414 38.152C88.7414 39.52 89.9174 40.48 91.1654 40.48ZM108.228 31.216L101.316 50.728H98.5084L105.42 31.216H108.228ZM128.522 32.92V49H124.682V40.432L120.17 49H118.346L113.81 40.384V49H109.97V32.92H113.858L119.258 43.12L124.658 32.92H128.522ZM137.178 36.64C140.754 36.64 143.778 39.184 143.778 42.976C143.778 46.792 140.754 49.336 137.178 49.336C133.53 49.336 130.506 46.792 130.506 42.976C130.506 39.184 133.53 36.64 137.178 36.64ZM137.178 46.096C138.666 46.096 140.082 44.872 140.082 42.976C140.082 41.104 138.666 39.856 137.178 39.856C135.618 39.856 134.202 41.104 134.202 42.976C134.202 44.872 135.618 46.096 137.178 46.096ZM153.295 36.592C156.103 36.592 157.975 38.584 157.975 41.608V49H154.159V42.424C154.159 41.008 153.319 40.048 152.095 40.048C150.583 40.048 149.599 41.08 149.599 43.408V49H145.759V36.952H149.599V38.104C150.511 37.144 151.783 36.592 153.295 36.592ZM168.635 45.448L169.523 48.472C168.587 48.976 167.603 49.36 166.235 49.36C163.235 49.36 161.435 47.728 161.435 44.56V40H159.251V36.952H161.435V33.4H165.275V36.952H168.827V40H165.275V44.176C165.275 45.424 165.875 45.928 166.883 45.928C167.411 45.928 168.131 45.736 168.635 45.448ZM178.538 36.592C181.322 36.592 183.194 38.584 183.194 41.608V49H179.378V42.424C179.378 41.008 178.538 40.048 177.29 40.048C175.802 40.048 174.818 41.08 174.818 43.408V49H170.978V31.72H174.818V38.104C175.754 37.144 177.002 36.592 178.538 36.592Z" fill="#252525"/>
</svg>
