<svg width="40" height="40" viewBox="0 0 40 40" fill="none" xmlns="http://www.w3.org/2000/svg">
<path d="M13.3337 11.6666C11.1235 11.6666 9.00391 12.5446 7.4411 14.1074C5.8783 15.6702 5.00033 17.7898 5.00033 20C5.00033 22.2101 5.8783 24.3297 7.4411 25.8925C9.00391 27.4553 11.1235 28.3333 13.3337 28.3333H26.667C28.8771 28.3333 30.9967 27.4553 32.5595 25.8925C34.1224 24.3297 35.0003 22.2101 35.0003 20C35.0003 17.7898 34.1224 15.6702 32.5595 14.1074C30.9967 12.5446 28.8771 11.6666 26.667 11.6666H13.3337ZM13.3337 8.33331H26.667C29.7612 8.33331 32.7286 9.56248 34.9166 11.7504C37.1045 13.9383 38.3337 16.9058 38.3337 20C38.3337 23.0942 37.1045 26.0616 34.9166 28.2496C32.7286 30.4375 29.7612 31.6667 26.667 31.6667H13.3337C10.2395 31.6667 7.272 30.4375 5.08408 28.2496C2.89616 26.0616 1.66699 23.0942 1.66699 20C1.66699 16.9058 2.89616 13.9383 5.08408 11.7504C7.272 9.56248 10.2395 8.33331 13.3337 8.33331ZM13.3337 25C12.0076 25 10.7358 24.4732 9.79813 23.5355C8.86044 22.5978 8.33366 21.3261 8.33366 20C8.33366 18.6739 8.86044 17.4021 9.79813 16.4644C10.7358 15.5268 12.0076 15 13.3337 15C14.6597 15 15.9315 15.5268 16.8692 16.4644C17.8069 17.4021 18.3337 18.6739 18.3337 20C18.3337 21.3261 17.8069 22.5978 16.8692 23.5355C15.9315 24.4732 14.6597 25 13.3337 25Z" fill="#707070" fill-opacity="0.7"/>
</svg>
