<svg width="307" height="491" viewBox="0 0 307 491" fill="none" xmlns="http://www.w3.org/2000/svg">
<g opacity="0.3">
<path d="M88.865 379.664C123.834 383.895 153.837 405.295 178.528 408.226C205.969 411.484 247.469 393.593 289.789 414.65C300.682 420.07 309.626 426.583 306.293 434.678C300.486 448.785 288.264 454.312 261.491 458.146L258.636 458.537C237.939 461.268 215.695 461.93 159.306 462.3L140.037 462.445C71.2986 463.038 31.5472 466.232 -19.929 470.313L-25.176 470.735C-119.968 478.475 -195.633 477.235 -252.172 468.655L-253.879 468.392C-299.558 461.292 -327.021 449.549 -340.427 436.224C-348.319 428.38 -352.865 421.066 -353.099 413.249C-353.334 405.431 -341.694 396.838 -335.067 393.593C-316.607 384.554 -310.583 381.277 -275.093 376.649C-259.812 374.657 -236.919 374.816 -210.457 373.929C-115.527 370.749 31.1269 372.678 88.865 379.664Z" fill="white"/>
<path fill-rule="evenodd" clip-rule="evenodd" d="M116.239 396.31C62.4695 518.051 -132.112 514.129 -267.504 431.038C-293.362 415.169 -382.244 340.374 -294.763 296.698C-207.281 253.023 -235.302 185.937 -164.701 105.922C-83.0543 13.3892 68.9923 -34.0702 175.925 90.4291C447.712 406.863 134.344 355.317 116.239 396.31Z" fill="#DFF6E4"/>
<path fill-rule="evenodd" clip-rule="evenodd" d="M88.8649 379.731C123.834 383.995 153.837 405.561 178.528 408.515C205.969 411.798 247.469 393.768 289.789 414.989C300.682 420.451 309.626 427.015 306.293 435.173C300.486 449.388 288.264 454.959 261.491 458.822L258.636 459.217C237.939 461.969 215.695 462.636 159.306 463.008L140.037 463.154C71.2985 463.752 31.5471 466.971 -19.9291 471.083L-25.1761 471.509C-119.969 479.309 -195.634 478.059 -252.172 469.413L-253.879 469.148C-299.558 461.993 -327.021 450.158 -340.427 436.73C-348.319 428.826 -352.865 421.455 -353.1 413.577C-353.334 405.698 -341.695 397.038 -335.068 393.768C-316.607 384.66 -310.583 381.357 -275.094 376.693C-259.813 374.685 -236.919 374.845 -210.457 373.952C-115.527 370.747 31.1268 372.691 88.8649 379.731ZM-275.877 383.292L-278.203 383.601C-311.276 388.086 -332.418 396.245 -342.433 404.38L-343.058 404.903C-350.748 411.53 -351.467 418.98 -340.413 429.993C-328.326 442.036 -297.499 455.621 -253.05 462.547C-197.402 471.217 -122.587 473.735 -28.6325 466.194L-18.7827 465.401C35.4597 461.136 77.0764 458.866 154.099 458.325L175.361 458.167C221.217 457.752 240.707 456.931 259.522 454.316L261.311 454.059C344.396 437.807 284.446 408.648 250.05 408.515C220.594 408.402 185.214 416.687 175.361 413.586C144.307 403.811 128.361 388.845 88.8648 384.056L77.3802 382.68L67.576 382.217C-93.1082 374.752 -207.624 374.371 -275.877 383.292Z" fill="#00160A"/>
<path d="M-171.006 5.73232C-171.576 5.71395 -172.147 5.71457 -172.717 5.7342C-186.768 6.21793 -197.798 17.9008 -197.543 31.9301L-197.532 32.356L-197.359 37.6129C-196.866 53.4029 -196.594 69.1306 -196.545 84.7958L-196.46 132.995C-196.441 150.343 -196.452 166 -196.503 181.333L-196.572 197.592C-196.845 249.36 -197.582 285.692 -198.949 301.506L-199.213 304.464C-200.863 323.792 -201.205 351.552 -200.226 387.681C-200.215 388.099 -200.194 388.516 -200.163 388.933C-199.082 403.581 -186.461 414.614 -171.862 413.772L-171.419 413.743L-166.567 413.39C-121.216 410.15 -75.8645 408.53 -30.5124 408.53C13.8778 408.53 58.6088 410.082 103.68 413.186C104.984 413.275 106.292 413.283 107.597 413.21C124.685 412.242 137.795 397.725 137.107 380.662L137.082 380.144L136.74 373.99C133.716 318.553 132.149 263.117 132.041 207.681L132.035 201.521C132.035 161.116 133.925 105.702 137.704 35.2542C137.746 34.465 137.755 33.6744 137.73 32.8844C137.255 17.5922 124.611 5.54796 109.387 5.77452L108.925 5.78515L85.8824 6.48459C33.5303 8.03046 -4.58942 8.83823 -28.5018 8.90772L-32.6005 8.9123L-36.8172 8.90135C-61.2269 8.79641 -99.016 7.95831 -150.206 6.38724L-171.006 5.73232Z" fill="white"/>
<path fill-rule="evenodd" clip-rule="evenodd" d="M106.869 3.83834C105.165 5.32831 102.919 6.37638 100.131 6.98111C107.307 7.99811 112.948 7.76082 117.057 6.26995L116.168 6.09454C113.275 5.51172 110.176 4.75965 106.869 3.83834Z" fill="#E7EAEE"/>
<path fill-rule="evenodd" clip-rule="evenodd" d="M-31.165 396.674C-84.8188 408.493 15.9219 406.404 55.2206 403.816C76.6084 402.407 93.6865 413.07 103.493 413.743C104.804 413.833 106.119 413.841 107.431 413.767C124.613 412.796 137.795 398.245 137.104 381.141L137.079 380.622L136.735 374.454C133.693 318.886 132.118 263.318 132.01 207.75L132.004 201.576C132.004 161.075 133.904 105.529 137.703 34.9138C137.746 34.1227 137.755 33.3302 137.73 32.5384C137.253 17.2098 107.821 366.06 -31.165 396.674Z" fill="#E7EAEE"/>
<path d="M126.56 381.846L126.741 381.854C127.675 381.941 128.44 383.078 128.33 384.464C128.208 385.999 127.074 387.38 125.942 387.484C125.146 387.558 124.474 386.559 124.593 384.844C124.715 383.089 125.656 381.873 126.56 381.846Z" fill="white"/>
<path fill-rule="evenodd" clip-rule="evenodd" d="M126.229 390.409C122.895 390.673 120.552 387.692 120.842 384.104C121.124 380.617 123.78 377.849 126.969 378.101C130.106 378.349 132.357 381.211 132.058 384.429C131.771 387.519 129.226 390.172 126.229 390.409ZM126.731 381.848L126.551 381.841C125.648 381.864 124.707 382.905 124.586 384.406C124.467 385.874 125.138 386.728 125.933 386.666C127.063 386.576 128.196 385.395 128.318 384.081C128.428 382.895 127.664 381.923 126.731 381.848Z" fill="white"/>
<path d="M94.6875 28.2866C107.042 28.2866 117.057 38.3218 117.057 50.7008C117.057 51.1641 117.042 51.6273 117.014 52.0898L116.686 57.5808C116.084 68.0025 115.485 80.3762 114.887 94.7018L114.796 96.9954C113.335 135.532 113.288 226.701 114.657 370.502C114.775 382.88 104.856 393.011 92.5022 393.129C92.2011 393.132 91.9 393.128 91.599 393.119L-153.815 385.532C-165.179 385.181 -174.472 376.345 -175.417 364.993L-175.625 362.43C-178.858 321.609 -179.05 269.485 -176.203 206.059L-175.785 196.963C-174.331 163.587 -174.217 114.976 -175.443 51.132C-175.678 38.8842 -166.063 28.7422 -153.893 28.3015L-153.293 28.2877L94.6875 28.2866Z" fill="white"/>
<path fill-rule="evenodd" clip-rule="evenodd" d="M37.8425 214.657L33.8466 214.538C29.1066 214.421 25.6901 214.448 22.8239 214.667C20.5223 214.842 18.8039 215.148 17.8313 215.448L17.6389 215.511L17.6197 215.599C17.5122 216.124 17.435 216.826 17.4016 217.674L17.3912 217.999C17.3273 220.545 17.6424 223.946 18.2695 227.745C18.7838 230.859 19.4858 234.095 20.2182 236.821L20.4018 237.492C20.6859 238.51 20.9595 239.394 21.2 240.083L21.2866 240.329L21.3912 240.367C22.8635 240.878 25.79 240.938 31.4328 240.532L35.2653 240.24C37.8474 240.055 39.7288 239.975 41.5853 239.998L59.5974 240.366C62.1175 240.412 64.394 240.448 66.6245 240.476L70.6709 240.521C80.7757 241.095 91.8809 240.664 93.2621 238.212C97.4756 230.73 99.4621 215.321 97.4756 215.218C93.901 215.033 89.5744 214.814 87.5188 214.841L82.7729 214.925L78.469 214.958C76.5041 214.969 74.4538 214.975 72.2542 214.977L47.5682 214.921C45.9638 214.911 44.3919 214.873 41.559 214.781L37.8425 214.657Z" fill="#E7EAEE"/>
<path fill-rule="evenodd" clip-rule="evenodd" d="M-149.011 0.803096L-171.629 0.0933088C-172.324 0.0709441 -173.019 0.0717055 -173.714 0.0955919C-191.005 0.690165 -204.539 15.189 -203.945 32.4796L-203.773 37.7255C-203.57 44.2037 -203.262 50.6713 -202.954 57.1283C-202.431 68.0926 -201.91 79.0262 -201.91 89.9294L-201.837 129.474C-201.767 184.621 -201.934 275.443 -204.384 301.749L-204.568 303.814C-206.16 322.453 -207.591 348.676 -206.774 382.485L-206.642 387.613C-206.628 388.118 -206.603 388.622 -206.566 389.125C-205.245 406.995 -189.688 420.411 -171.818 419.091L-166.97 418.738L-166.167 418.681C-166.005 418.951 -165.841 419.223 -165.678 419.49L-165.678 419.491C-164.893 420.787 -164.159 421.998 -163.989 422.592C-163.559 424.091 -163.514 425.789 -163.762 429.631L-164.014 433.233L-164.082 434.403C-164.448 441.582 -163.619 445.854 -160.117 449.07C-155.613 453.206 -150.841 452.767 -141.063 451.868L-140.624 451.828L-138.107 451.584C-135.198 451.303 -131.926 451.53 -129.697 451.685C-129.055 451.73 -128.5 451.768 -128.065 451.787L-127.242 451.828C-121.631 452.052 -120.741 450.205 -120.249 445.64C-119.979 443.125 -120.331 441.145 -121.809 436.039L-122.915 432.275L-123.282 430.966C-125.009 424.586 -124.851 421.402 -122.602 419.861C-122.056 419.488 -119.777 418.81 -117.148 418.028L-117.147 418.028C-114.442 417.223 -111.368 416.309 -109.432 415.503C-83.3606 414.431 -57.2893 413.895 -31.2179 413.895C-3.82416 413.895 23.7002 414.487 51.3553 415.67C51.1723 415.969 51.1386 416.401 51.3333 417.003C51.5529 417.683 52.3849 418.153 53.4483 418.755C56.267 420.349 60.7105 422.861 59.6767 432.619L59.6807 433.02C59.8366 440.712 64.4986 445.224 71.999 446.755C77.0142 447.779 82.7182 447.47 88.931 446.393C92.007 445.859 93.9884 443.936 94.9344 441.005C95.4569 439.386 95.6435 437.931 95.7663 435.037C95.7663 435.037 94.398 419.994 102.005 418.489C102.232 418.504 102.458 418.52 102.685 418.536C103.566 418.596 104.448 418.625 105.33 418.622C105.449 418.65 105.569 418.681 105.69 418.713C106.055 418.812 106.403 418.756 106.716 418.592C106.912 418.584 107.108 418.575 107.304 418.564C127.662 417.412 143.231 399.975 142.079 379.617L141.738 373.471C138.604 316.109 137.037 258.747 137.037 201.385C137.037 162.323 138.814 109.122 142.367 41.7816L142.702 35.4929C142.752 34.5463 142.763 33.598 142.734 32.6504C142.158 14.1227 126.671 -0.430041 108.143 0.145904L96.4003 0.506529C38.2097 2.27081 -3.66125 3.1901 -29.2126 3.26438L-33.3031 3.26896C-57.158 3.25052 -95.7273 2.42856 -149.011 0.803096ZM94.3689 417.981C81.4394 417.146 68.5382 416.438 55.6653 415.859C61.8292 418.851 64.0264 424.437 64.1483 432.164L64.1518 432.619C64.1518 437.618 68.041 440.882 73.2717 441.95C73.8197 442.062 74.3811 442.183 74.9555 442.308C78.569 443.092 82.6994 443.988 87.2804 443.236L87.9754 443.119C91.144 441.95 91.144 430.567 91.144 430.567C91.1788 429.641 91.2112 429.038 91.265 428.303L91.3344 427.477C91.7296 423.334 92.5957 420.239 94.3689 417.981ZM-158.612 421.05C-158.916 419.99 -159.35 419.053 -159.91 418.248C-148.934 417.505 -137.958 416.858 -126.982 416.305C-128.697 418.216 -128.858 420.797 -128.921 423.881C-128.976 426.538 -128.439 429.363 -127.309 433.343L-127.242 433.581L-126.208 437.099C-124.943 441.444 -124.563 443.261 -124.67 444.784L-124.692 445.042C-124.845 446.455 -126.659 448.049 -129.726 447.871L-130.274 447.843C-131.588 447.643 -144.54 447.871 -144.54 447.871C-150.521 448.476 -153.4 447.643 -156.334 444.949C-158.303 443.141 -158.832 439.929 -158.443 433.781L-158.201 430.33C-157.897 425.819 -157.923 423.706 -158.491 421.494L-158.612 421.05ZM-173.522 5.68619C-172.951 5.66657 -172.38 5.66594 -171.81 5.68432L-150.995 6.33894C-99.7695 7.9093 -61.9539 8.74703 -37.5271 8.85192L-33.3075 8.86287L-29.206 8.85828C-5.27686 8.78883 32.8696 7.98142 85.2582 6.43624L108.317 5.73712L108.779 5.72649C124.014 5.50003 136.667 17.5389 137.142 32.8242C137.167 33.6138 137.158 34.4041 137.116 35.193C133.334 105.609 131.443 160.998 131.443 201.385L131.449 207.542C131.557 262.954 133.125 318.365 136.152 373.776L136.494 379.928L136.519 380.445C137.207 397.501 124.088 412.011 106.988 412.979C105.682 413.052 104.373 413.044 103.069 412.955C57.9655 409.852 13.2033 408.301 -31.218 408.301C-76.6018 408.301 -121.985 409.92 -167.368 413.159L-172.223 413.511L-172.667 413.541C-187.276 414.382 -199.905 403.354 -200.987 388.713C-201.018 388.297 -201.039 387.879 -201.05 387.462C-202.03 351.349 -201.688 323.601 -200.036 304.282L-199.772 301.326C-198.404 285.518 -197.667 249.203 -197.394 197.458L-197.324 181.206C-197.273 165.88 -197.263 150.23 -197.282 132.89L-197.367 84.7123C-197.416 69.0541 -197.688 53.3335 -198.182 37.5505L-198.354 32.296L-198.365 31.8704C-198.62 17.8473 -187.583 6.16971 -173.522 5.68619ZM116.727 50.6276C116.727 38.2698 106.709 28.2519 94.3511 28.2519L-153.701 28.2529L-154.301 28.2667C-166.475 28.7067 -176.092 38.8312 -175.857 51.058C-174.631 114.792 -174.745 163.319 -176.199 196.639L-176.617 205.719C-179.465 269.036 -179.273 321.07 -176.04 361.821L-175.832 364.38C-174.886 375.713 -165.59 384.534 -154.223 384.884L91.2617 392.458C91.5628 392.467 91.864 392.47 92.1651 392.468C104.522 392.35 114.444 382.237 114.326 369.879C112.957 226.325 113.004 135.313 114.465 96.8427L114.556 94.553C115.154 80.252 115.754 67.8996 116.356 57.4957L116.684 52.0142C116.712 51.5525 116.727 51.0901 116.727 50.6276ZM-153.486 33.8458H94.3509C103.619 33.8458 111.133 41.3592 111.133 50.6275C111.133 50.9744 111.122 51.3212 111.1 51.6675C110.515 61.1032 109.931 72.3675 109.349 85.4627L108.967 94.3192C107.489 129.661 107.346 214.294 108.534 348.355L108.733 369.933C108.821 379.201 101.38 386.785 92.1116 386.874C91.8857 386.876 91.6599 386.874 91.4341 386.867L-154.051 379.293L-154.421 379.277C-162.777 378.838 -169.558 372.291 -170.257 363.915C-173.702 322.637 -173.932 269.309 -170.938 203.968L-170.657 197.921C-169.245 166.48 -169.044 121.392 -170.052 62.6233L-170.264 50.9504C-170.443 41.6838 -163.075 34.0271 -153.809 33.8489C-153.701 33.8468 -153.593 33.8458 -153.486 33.8458ZM-162.059 16.6899C-161.706 20.4929 -164.461 23.5448 -168.175 23.2893C-171.57 23.0556 -174.557 20.3441 -174.906 17.0786L-174.926 16.8399C-175.142 13.5909 -172.653 10.829 -169.313 10.4747L-169.061 10.4527C-165.5 10.2076 -162.4 13.0223 -162.059 16.6899ZM-168.627 14.3538L-168.844 14.362C-170.188 14.4552 -171.135 15.5048 -171.012 16.6633C-170.87 17.9896 -169.453 19.2762 -167.906 19.3827C-166.676 19.4674 -165.821 18.5212 -165.958 17.052C-166.101 15.5117 -167.308 14.3594 -168.627 14.3538ZM-188.425 46.351C-192.296 46.6944 -194.904 42.9701 -194.582 38.5037C-194.267 34.126 -191.26 30.6077 -187.538 30.9379L-187.298 30.9642C-183.878 31.4089 -181.517 34.7723 -181.71 38.5422L-181.728 38.8059C-182.047 42.6595 -184.937 46.0415 -188.425 46.351ZM-187.825 34.8426L-188.015 34.8334C-189.202 34.8479 -190.508 36.4525 -190.676 38.7851C-190.844 41.1155 -189.842 42.5456 -188.77 42.4505C-187.315 42.3214 -185.801 40.549 -185.63 38.483C-185.468 36.527 -186.569 34.9549 -187.825 34.8426ZM101.431 16.6899C101.078 20.4929 103.833 23.5448 107.547 23.2893C110.942 23.0556 113.929 20.3441 114.278 17.0786L114.298 16.8399C114.514 13.5909 112.025 10.829 108.685 10.4747L108.433 10.4527C104.872 10.2076 101.772 13.0223 101.431 16.6899ZM107.999 14.3538L108.216 14.362C109.559 14.4552 110.507 15.5048 110.384 16.6633C110.242 17.9896 108.825 19.2762 107.278 19.3827C106.048 19.4674 105.193 18.5212 105.33 17.052C105.473 15.5117 106.68 14.3594 107.999 14.3538ZM122.281 39.9504C120.203 36.8625 121.469 32.95 124.939 31.3544C128.285 29.8157 132.273 31.0935 133.841 34.3001L133.948 34.5294C135.311 37.5987 134.164 41.1352 131.242 42.5728L131.025 42.6743C128.023 44.0054 124.181 42.7744 122.281 39.9504ZM130.347 36.0663L130.246 35.8747C129.581 34.7352 127.98 34.2659 126.574 34.9122C125.234 35.5286 124.841 36.7416 125.53 37.7644C126.396 39.0512 128.219 39.6353 129.438 39.0947C130.503 38.6224 130.938 37.2768 130.347 36.0663ZM-191.19 375.089C-193.905 377.775 -193.756 381.884 -190.747 384.075C-187.995 386.079 -183.964 385.922 -181.599 383.644L-181.429 383.475C-179.176 381.125 -179.307 377.409 -181.637 374.991L-181.816 374.812C-184.387 372.335 -188.571 372.498 -191.19 375.089ZM-184.657 377.521L-184.496 377.667C-183.526 378.602 -183.475 380.015 -184.314 380.823C-185.275 381.749 -187.188 381.823 -188.442 380.91C-189.438 380.184 -189.485 378.91 -188.436 377.873C-187.336 376.785 -185.671 376.678 -184.657 377.521ZM-166.134 404.214C-169.143 402.023 -169.292 397.913 -166.577 395.227C-163.958 392.637 -159.774 392.473 -157.203 394.95L-157.024 395.129C-154.694 397.547 -154.562 401.263 -156.816 403.613L-156.985 403.783C-159.351 406.06 -163.382 406.217 -166.134 404.214ZM-159.883 397.805L-160.044 397.66C-161.058 396.816 -162.723 396.923 -163.823 398.011C-164.872 399.049 -164.825 400.323 -163.829 401.048C-162.575 401.961 -160.662 401.887 -159.701 400.962C-158.862 400.154 -158.913 398.74 -159.883 397.805ZM109.329 396.527C106.212 399.671 106.128 404.296 109.449 406.674C112.49 408.852 117.043 408.423 119.767 405.742C122.591 402.963 122.672 398.491 119.894 395.771C117.083 393.018 112.367 393.463 109.329 396.527ZM117.031 398.456L117.191 398.603C118.342 399.731 118.307 401.685 117.021 402.951C115.635 404.314 113.2 404.544 111.729 403.491C110.538 402.638 110.57 400.837 112.109 399.284C113.671 397.709 115.844 397.455 117.031 398.456ZM127.089 390.623C123.613 390.898 121.17 387.79 121.473 384.049C121.767 380.414 124.535 377.527 127.861 377.79C131.132 378.048 133.478 381.033 133.166 384.388C132.867 387.61 130.214 390.376 127.089 390.623ZM127.613 381.697L127.424 381.69C126.483 381.714 125.502 382.799 125.376 384.364C125.252 385.895 125.952 386.785 126.78 386.72C127.959 386.627 129.14 385.395 129.268 384.025C129.382 382.788 128.586 381.775 127.613 381.697Z" fill="#00160A"/>
<path d="M117.031 398.456L117.191 398.603C118.342 399.731 118.307 401.685 117.021 402.951C115.635 404.314 113.2 404.544 111.729 403.491C110.538 402.638 110.57 400.837 112.109 399.284C113.671 397.709 115.844 397.455 117.031 398.456Z" fill="white"/>
<path fill-rule="evenodd" clip-rule="evenodd" d="M36.7444 204.169C39.9709 204.173 43.2435 204.184 46.5361 204.195C53.3075 204.218 60.1638 204.242 66.8788 204.2L70.6054 204.169C70.9253 204.166 71.3992 204.156 71.9979 204.143C77.6011 204.025 94.1385 203.676 97.7754 206.436C103.725 210.952 101.356 239.38 92.8503 240.304C78.7333 241.838 55.0101 241.317 36.3354 240.907H36.3353H36.3353L36.3328 240.907C34.2259 240.861 32.1833 240.816 30.226 240.775C27.5071 240.719 24.5805 240.957 21.6909 241.191H21.6908H21.6908H21.6907C15.2103 241.716 8.91587 242.226 5.56741 239.38C3.84026 237.912 -2.81307 209.972 2.36837 206.135C6.32854 203.202 17.6837 203.597 27.8856 203.951C30.4184 204.039 32.88 204.125 35.1398 204.156L35.1437 204.153L35.1462 204.157C35.6913 204.164 36.2247 204.169 36.7444 204.169ZM29.9218 209.618C30.4723 209.636 30.9746 209.652 31.4385 209.666C31.8147 211.983 31.8581 216.053 31.5878 222.051L31.388 226.385C31.2118 230.436 31.1474 233.192 31.2631 235.204L29.9478 235.176C28.1125 235.153 26.2528 235.234 23.7003 235.422L19.9118 235.718C14.3337 236.129 11.4408 236.068 9.98545 235.551L9.88201 235.512L9.79637 235.263C9.55868 234.565 9.28821 233.668 9.00739 232.636L8.82587 231.957C8.10193 229.193 7.40795 225.914 6.8996 222.757C6.27965 218.907 5.96814 215.459 6.03132 212.879L6.04163 212.55C6.07461 211.69 6.15094 210.978 6.25718 210.447L6.27617 210.357L6.4664 210.294C7.42786 209.99 9.12654 209.679 11.4016 209.501C14.235 209.28 17.6123 209.252 22.2979 209.371L26.2479 209.492L29.9218 209.618ZM47.7531 235.549L36.939 235.323C36.8805 234.688 36.8381 233.909 36.8239 233.007L36.8212 232.813C36.8031 231.396 36.8314 230.043 36.9306 227.665L37.2453 220.674C37.4362 215.87 37.4421 212.383 37.1243 209.763L60.2647 209.816C61.5035 209.815 62.6945 209.812 63.8492 209.808C63.4948 216.768 64.0582 228.942 64.7814 235.74C62.8302 235.738 60.8033 235.726 58.6995 235.707L54.6995 235.661C52.4946 235.632 50.2442 235.596 47.7531 235.549ZM70.4641 235.722C79.0604 235.65 85.9619 235.371 91.3119 234.84L91.8129 234.788L91.8798 234.718C92.1645 234.395 92.4982 233.875 92.8392 233.179L92.9673 232.91C93.972 230.737 94.767 227.571 95.1773 224.067C95.5833 220.599 95.5793 217.084 95.1758 214.308C94.9896 213.027 94.728 211.976 94.4318 211.241L94.3478 211.043L94.2854 210.912L94.062 210.842C93.4634 210.665 92.6418 210.495 91.636 210.345C89.6536 210.05 87.101 209.853 84.1148 209.748C81.3381 209.65 78.5153 209.636 75.354 209.678L70.6625 209.763L69.3297 209.773C69.286 210.53 69.2541 211.429 69.2414 212.437L69.238 212.765C69.2158 215.492 69.3128 218.927 69.5068 222.73L69.5468 223.496C69.7071 226.48 69.9197 229.563 70.1466 232.274L70.2841 233.853C70.3454 234.528 70.4058 235.155 70.4641 235.722ZM45.8294 219.211L46.3396 219.943C46.9219 220.763 47.4719 221.49 47.996 222.13C47.2926 223.663 46.9233 225.385 46.8075 227.601C46.7654 228.407 47.3846 229.094 48.1904 229.136C48.9963 229.178 49.6837 228.559 49.7257 227.753C49.7924 226.477 49.9483 225.424 50.2267 224.49C51.844 225.904 53.2598 226.43 54.7484 226.457L55.0357 226.457C55.8426 226.457 56.4968 225.803 56.4968 224.996C56.4968 224.24 55.9218 223.617 55.1851 223.543L55.0357 223.535L54.7908 223.535C53.8364 223.513 52.8762 223.111 51.5673 221.791C51.9931 221.195 52.5071 220.604 53.1215 219.973L54.6885 218.423C55.2616 217.855 55.2657 216.93 54.6976 216.356C54.1296 215.783 53.2045 215.779 52.6314 216.347L51.319 217.639C50.6817 218.277 50.122 218.89 49.6334 219.504L49.1017 218.784C48.8273 218.404 48.5398 217.996 48.2384 217.557C47.7816 216.892 46.8721 216.723 46.2068 217.18C45.5416 217.636 45.3726 218.546 45.8294 219.211ZM85.7274 217.82L85.7414 216.928C85.7481 216.121 85.0993 215.462 84.2924 215.455C83.4855 215.448 82.826 216.097 82.8193 216.904C82.812 217.792 82.789 218.587 82.7516 219.298C82.0032 219.063 81.1961 218.867 80.3114 218.695L78.5008 218.358C77.708 218.207 76.9434 218.728 76.7929 219.521C76.6424 220.313 77.1631 221.078 77.9559 221.229L80.122 221.638C80.9842 221.817 81.7409 222.02 82.4272 222.276C82.0803 224.102 81.509 224.973 80.7299 225.524L80.5269 225.661L80.4073 225.751C79.8383 226.225 79.7096 227.062 80.1327 227.689C80.5839 228.358 81.492 228.535 82.161 228.084L82.3991 227.923C83.6179 227.068 84.4978 225.841 85.0475 223.763C85.8008 224.382 86.5186 225.168 87.2879 226.189C87.7734 226.834 88.6895 226.962 89.3341 226.477C89.9786 225.991 90.1075 225.075 89.622 224.431C88.2869 222.658 87.0179 221.437 85.5776 220.56C85.6538 219.736 85.7036 218.826 85.7274 217.82Z" fill="#00160A"/>
<path fill-rule="evenodd" clip-rule="evenodd" d="M22.542 218.057L22.2797 218.862C21.975 219.769 21.668 220.582 21.3555 221.312C22.7109 222.433 23.7813 223.827 24.7724 225.735C25.1328 226.429 24.7363 227.231 23.8868 227.525C23.0372 227.82 22.0564 227.496 21.6959 226.802C21.1248 225.702 20.5456 224.828 19.8809 224.096C18.6963 225.855 17.3803 226.769 15.7913 227.268L15.4826 227.36C14.6154 227.618 13.6565 227.253 13.3409 226.545C13.045 225.88 13.4195 225.15 14.182 224.849L14.3396 224.795L14.6027 224.717C15.6199 224.393 16.4946 223.733 17.3848 222.155C16.694 221.768 15.9105 221.413 15.0034 221.056L12.713 220.195C11.8749 219.88 11.5086 219.069 11.8949 218.384C12.2813 217.7 13.2738 217.4 14.1119 217.716L16.0277 218.431C16.9619 218.787 17.8033 219.147 18.5686 219.53C18.807 218.893 19.0524 218.177 19.3061 217.374C19.5368 216.644 20.4481 216.205 21.3417 216.394C22.2352 216.582 22.7726 217.327 22.542 218.057Z" fill="#46C2E6"/>
</g>
</svg>
