<svg width="307" height="440" viewBox="0 0 307 440" fill="none" xmlns="http://www.w3.org/2000/svg">
<g opacity="0.4">
<path fill-rule="evenodd" clip-rule="evenodd" d="M-227.738 391.938C-182.468 441.215 -7.40652 412.909 107.863 412.909C157.591 412.909 324.471 437.832 255.559 266.668C29.6086 -294.553 -371.177 235.8 -227.738 391.938Z" fill="#DFF6E4"/>
<path fill-rule="evenodd" clip-rule="evenodd" d="M182.197 164.779C180.06 164.752 178.056 166.544 177.845 168.67C177.758 169.539 178.127 170.619 178.992 170.739C179.64 170.829 180.209 170.328 180.644 169.84C181.566 168.807 182.357 167.658 182.994 166.429C183.208 166.017 183.397 165.488 183.116 165.118C182.911 164.848 182.535 164.783 182.197 164.779ZM181.272 155.245C184.306 156.303 187.056 158.165 189.165 160.589C190.978 162.673 192.359 165.377 191.978 168.113C191.838 169.117 191.468 170.074 191.045 170.996C189.445 174.487 186.692 177.832 182.912 178.508C180.93 178.862 178.885 178.437 176.978 177.789C174.773 177.038 172.67 175.986 170.747 174.67C169.727 173.972 168.715 173.144 168.268 171.991C167.959 171.198 167.95 170.323 167.962 169.471C167.99 167.365 168.13 165.223 168.864 163.249C169.793 160.751 171.611 158.689 173.539 156.849C174.314 156.109 175.136 155.38 176.132 154.983C177.761 154.334 179.616 154.667 181.272 155.245Z" fill="white"/>
<path fill-rule="evenodd" clip-rule="evenodd" d="M182.2 3.28755C194.754 16.2341 204.662 31.7152 211.149 48.5159C211.594 49.6698 212.026 50.9516 211.601 52.1132C208.329 61.0567 202.014 68.5128 195.822 75.7628C191.865 80.3954 187.909 85.0281 183.952 89.6608C180.175 94.0833 176.397 98.5066 172.492 102.818C152.611 124.769 129.119 143.964 101.911 155.774C100.884 156.22 99.7827 156.664 98.677 156.486C97.5712 156.308 96.535 155.239 96.8244 154.161C100.188 141.634 103.574 128.538 100.874 115.852C100.223 112.792 99.4974 108.94 102.036 107.099C122.584 92.1921 137.379 70.8848 151.557 49.867C155.122 44.5822 158.678 39.2827 161.833 33.745C167.434 23.9129 171.748 13.3539 174.631 2.41959C175.027 0.919115 176.928 0.243454 178.435 0.636673C179.941 1.02989 181.118 2.17176 182.2 3.28755" fill="white"/>
<path fill-rule="evenodd" clip-rule="evenodd" d="M179.736 377.275C181.193 374.807 182.998 372.089 185.825 371.621C186.94 371.436 187.528 370.225 187.907 369.161C192.581 356.051 193.031 341.473 189.176 328.1C188.075 324.283 189.43 320.236 190.771 316.497C194.23 306.846 197.69 297.196 201.149 287.545C199.167 284.116 193.941 284.218 191.264 281.3C187.818 277.545 190.417 271.575 193.116 267.253C208.885 242 224.653 216.747 240.422 191.494C242.353 188.4 246.593 187.431 250.146 188.255C253.699 189.079 256.733 191.316 259.656 193.498C271.156 202.088 282.656 210.678 294.157 219.268C300.329 223.878 307.143 229.767 306.787 237.463C306.591 241.721 304.154 245.506 301.797 249.059C292.682 262.792 283.568 276.526 274.454 290.26C269.319 297.998 270.737 308.159 269.185 317.315C266.733 331.781 256.813 343.662 247.627 355.103C238.442 366.544 229.25 379.319 228.734 393.983C228.118 411.459 219.816 428.528 206.446 439.801C210.324 430.394 185.825 434.146 157.801 422.996C162.412 406.682 171.119 391.875 179.736 377.275Z" fill="white"/>
<path fill-rule="evenodd" clip-rule="evenodd" d="M-127.99 418.189C-129.737 416.76 -130.294 414.347 -130.603 412.104C-134.172 386.155 -118.844 360.542 -121.575 334.49C-122.982 321.064 -129.15 308.537 -136.913 297.519C-142.274 289.911 -142.574 279.718 -140.574 270.615C-138.574 261.512 -134.54 253 -131.819 244.087C-119.718 204.453 -134.442 162.113 -149 123.322C-119.992 109.295 -86.141 112.012 -54.0048 113.912C-21.8686 115.813 12.6933 115.947 39.4776 98C43.1489 136.825 35.0539 175.693 27.0049 213.845C67.8462 209.866 108.688 205.887 149.529 201.908C150.7 201.794 151.981 201.706 152.954 202.371C154.252 203.258 154.452 205.067 154.526 206.643C156.435 247.02 157.593 287.432 157.998 327.853C158.008 328.866 157.973 329.997 157.262 330.716C156.653 331.331 155.724 331.46 154.865 331.556C97.6452 337.932 40.4253 344.309 -16.7947 350.685C-21.7429 351.237 -28.7915 349.948 -28.5017 344.953C-27.2095 322.682 -27.9637 300.291 -30.7516 278.158C-45.9582 277.583 -61.2683 279.902 -75.6308 284.956C-78.8892 286.102 -82.8072 289.185 -81.0498 292.171C-69.4234 311.929 -83.8537 341.627 -68.0631 358.212C-62.6336 363.915 -63.0088 372.886 -64.0849 380.704C-66.3914 397.462 -70.3099 413.996 -75.7678 430C-73.1293 411.579 -126.377 428.068 -127.99 418.189Z" fill="white"/>
<path fill-rule="evenodd" clip-rule="evenodd" d="M86.7391 271.788C86.7814 271.271 86.8436 270.716 87.1859 270.326C87.5206 269.945 88.0472 269.808 88.5414 269.693C101.275 266.728 114.428 265.568 127.484 266.258C129.147 266.346 131.286 266.909 131.396 268.57C132.026 278.096 132.657 287.622 133.288 297.148C133.32 297.63 133.336 298.164 133.027 298.536C132.776 298.839 132.37 298.956 131.989 299.056C118.41 302.596 104.096 303.294 90.2359 301.091C89.879 301.035 89.5036 300.968 89.2265 300.736C88.8916 300.455 88.7744 299.999 88.6786 299.573C86.6352 290.48 85.9788 281.076 86.7391 271.788ZM89.7417 287.59C89.9918 291.187 90.7463 294.749 91.9763 298.139C93.2031 298.315 94.4172 298.57 95.6392 298.777C106.172 300.56 116.944 298.766 127.475 296.974C128.222 296.847 129.042 296.678 129.503 296.077C129.974 295.462 129.912 294.606 129.827 293.837C129.464 290.554 129.101 287.272 128.738 283.99C128.709 283.725 128.672 283.441 128.492 283.244C128.275 283.005 127.919 282.966 127.597 282.945C120.113 282.452 112.605 283.011 105.126 283.569C100.992 283.877 96.8576 284.186 92.7236 284.494C91.7519 284.567 90.6484 284.711 90.0897 285.509C89.6781 286.097 89.6919 286.874 89.7417 287.59ZM89.8583 273.861C89.2041 275.959 89.0866 278.222 89.52 280.376C89.5979 280.763 89.7075 281.172 90.0013 281.435C90.4368 281.826 91.1011 281.762 91.6801 281.677C98.7233 280.645 105.843 280.133 112.961 280.145C113.965 280.146 114.273 278.795 114.262 277.79C114.246 276.319 114.23 274.848 114.214 273.377C114.204 272.525 114.162 271.587 113.579 270.967C112.879 270.221 111.708 270.244 110.688 270.322C108.33 270.502 105.972 270.682 103.614 270.863C102.485 270.949 99.4934 271.715 98.1182 271.806C95.7241 272.188 93.3299 272.57 90.9357 272.952C90.6804 272.992 90.4111 273.039 90.2144 273.207C90.023 273.37 89.9332 273.621 89.8583 273.861ZM121.435 280.261C123.306 280.285 125.18 280.098 127.01 279.704C127.446 279.611 127.903 279.491 128.214 279.172C128.67 278.703 128.666 277.968 128.633 277.315C128.536 275.418 128.439 273.521 128.342 271.624C128.308 270.947 128.232 270.185 127.703 269.761C127.238 269.389 126.581 269.411 125.986 269.452C123.905 269.593 121.824 269.735 119.743 269.876C119.413 269.899 119.067 269.927 118.792 270.109C118.288 270.442 118.212 271.14 118.198 271.744C118.152 273.754 118.234 275.768 118.444 277.768C118.505 278.347 118.589 278.957 118.947 279.416C119.505 280.131 120.528 280.25 121.435 280.261Z" fill="#46E6A3"/>
<path fill-rule="evenodd" clip-rule="evenodd" d="M119.329 230.159C122.111 228.956 125.524 229.359 127.949 231.178C130.373 232.997 131.715 236.161 131.338 239.169C133.042 238.247 135.204 237.34 136.795 238.446C138.591 239.696 138.181 242.387 137.911 244.558C137.439 248.352 138.051 252.274 139.654 255.744C140.317 257.178 140.886 259.352 139.416 259.931C139.168 260.028 138.898 260.051 138.632 260.072C121.403 261.461 104.173 262.849 86.943 264.238C86.4704 264.276 85.9413 264.297 85.5839 263.985C85.2192 263.667 85.1734 263.127 85.1537 262.644C84.9885 258.591 84.8234 254.538 84.6583 250.485C84.614 249.398 84.5927 248.226 85.2067 247.328C86.2228 245.841 88.3513 245.846 90.1293 245.561C91.9073 245.276 93.9757 243.776 93.2914 242.111C92.5284 240.254 95.1286 238.897 97.1131 238.595C99.0977 238.293 101.73 237.11 101.129 235.195C100.472 233.103 103.351 231.804 105.525 231.516C107.059 231.312 108.663 231.115 110.118 231.641C111.573 232.167 112.802 233.665 112.475 235.177C112.099 236.909 114.208 238.522 115.871 237.91C117.533 237.299 118.207 235.027 117.365 233.468C116.678 232.195 118.001 230.734 119.329 230.159ZM128.226 256.866C127.582 255.671 127.577 254.249 127.571 252.891C127.544 246.517 127.152 240.144 126.399 233.815C126.361 233.495 126.301 233.138 126.039 232.951C125.814 232.79 125.51 232.809 125.234 232.835C123.888 232.96 122.293 233.258 121.761 234.501C121.534 235.031 121.561 235.63 121.592 236.206C121.933 242.595 122.275 248.983 122.616 255.372C122.648 255.967 122.727 256.65 123.221 256.983C123.491 257.164 123.83 257.198 124.154 257.215C125.519 257.29 126.894 257.172 128.226 256.866ZM105.052 247.043C104.885 248.108 104.65 249.164 104.588 250.24C104.483 252.037 104.862 253.824 105.239 255.585C105.48 256.714 106.939 257.269 108.008 256.834C109.078 256.399 109.724 255.258 109.901 254.117C110.079 252.977 109.871 251.816 109.689 250.676C108.975 246.197 108.666 241.654 108.766 237.119C108.792 235.972 107.673 234.936 106.531 235.049C105.389 235.162 104.495 236.398 104.746 237.518C105.443 240.637 105.547 243.887 105.052 247.043ZM116.384 240.925C115.712 240.045 114.172 240.514 113.648 241.489C113.124 242.464 113.284 243.646 113.414 244.746C113.754 247.616 113.786 250.524 113.511 253.401C113.43 254.25 113.339 255.176 113.808 255.888C114.528 256.983 116.109 256.973 117.413 256.841C117.822 256.799 118.292 256.72 118.498 256.364C118.641 256.116 118.607 255.809 118.569 255.525C117.968 251.06 117.366 246.596 116.765 242.131C116.708 241.708 116.643 241.264 116.384 240.925ZM131.308 242.844C130.802 243.534 130.695 244.432 130.651 245.287C130.501 248.218 130.889 251.146 131.276 254.055C131.429 255.201 131.953 256.674 133.107 256.596C134.276 256.517 134.581 254.953 134.554 253.782C134.482 250.679 134.41 247.576 134.338 244.474C134.319 243.658 134.233 242.713 133.556 242.257C132.846 241.78 131.814 242.154 131.308 242.844ZM95.9915 242.111C95.9915 242.111 96.5048 246.16 96.684 248.223C96.9088 250.813 97.1953 253.398 97.543 255.974C97.5935 256.349 97.6608 256.754 97.9369 257.011C98.4155 257.458 100.262 257.161 100.602 256.602C100.942 256.043 100.923 255.345 100.893 254.691C100.799 252.623 100.706 250.555 100.612 248.486C100.512 246.269 99.9845 241.489 99.9845 241.489M89.295 256.773C89.4427 257.236 89.6168 257.722 89.9918 258.032C90.7237 258.638 91.9107 258.263 92.4877 257.508C93.0647 256.754 93.1947 255.76 93.305 254.816C93.4403 253.658 93.5713 252.455 93.1963 251.351C92.8214 250.248 91.7837 249.277 90.6226 249.379C89.5547 249.473 88.7275 250.449 88.4783 251.492C88.2291 252.535 88.4392 253.628 88.6984 254.669C88.8747 255.376 89.0737 256.078 89.295 256.773Z" fill="#E7EAEE"/>
<path fill-rule="evenodd" clip-rule="evenodd" d="M159.14 90.9615C157.749 93.0496 156.241 95.1648 154.089 96.454C151.936 97.7433 148.965 97.9945 147.03 96.3961C144.897 94.6327 144.765 91.4537 144.934 88.6907C144.999 87.627 145.084 86.5547 145.389 85.5335C145.917 83.7622 147.072 82.2507 148.277 80.8491C149.739 79.1488 151.358 77.5086 153.386 76.5517C155.414 75.5948 157.934 75.4268 159.834 76.6173C162.109 78.0424 162.951 81.0738 162.52 83.7231C162.089 86.3724 160.629 88.7277 159.14 90.9615M154.723 93.1707C156.477 91.3023 157.981 89.1999 159.184 86.9366C159.975 85.4473 160.648 83.8285 160.616 82.1423C160.585 80.4561 159.695 78.6937 158.129 78.068C156.09 77.253 153.85 78.5567 152.146 79.9419C150.932 80.928 149.757 82.0097 148.979 83.3659C148.486 84.2235 148.166 85.1671 147.849 86.1037C147.25 87.8757 146.642 89.7221 146.87 91.5787C147.099 93.4354 148.427 95.2993 150.288 95.4916C152.01 95.6697 153.538 94.4329 154.723 93.1707Z" fill="#46C2E6"/>
<path fill-rule="evenodd" clip-rule="evenodd" d="M179.99 9.13033C191.784 21.3397 201.093 35.9392 207.187 51.7832C207.605 52.8714 208.011 54.0801 207.612 55.1756C204.537 63.6098 198.605 70.6414 192.787 77.4785L181.636 90.5851L181.635 90.5857L181.634 90.5863L181.634 90.587L181.633 90.5876L181.633 90.5883L181.632 90.5889L181.632 90.5895L181.631 90.5902C178.084 94.7592 174.536 98.9289 170.869 102.993C152.191 123.694 130.121 141.796 104.559 152.934C103.595 153.354 102.56 153.773 101.521 153.605C100.482 153.437 99.5087 152.429 99.7807 151.412C102.941 139.599 106.121 127.248 103.586 115.285C102.974 112.4 102.292 108.766 104.676 107.03C123.981 92.9722 137.881 72.8783 151.201 53.0574C154.551 48.0734 157.891 43.0757 160.855 37.8534C166.118 28.5812 170.171 18.6235 172.879 8.31179C173.251 6.89676 175.037 6.25958 176.452 6.63041C177.868 7.00123 178.973 8.07808 179.99 9.13033ZM171.736 24.2922C170.537 23.7966 169.432 25.1372 168.821 26.2814C168.16 27.5201 167.5 28.7607 166.839 30.0023C154.619 52.9555 142.212 76.2609 123.59 94.3398C121.83 96.048 119.864 98.1115 120.188 100.542C121.228 108.334 117.068 116.562 110.177 120.345C107.049 122.062 107.086 126.493 107.544 130.032C107.728 131.449 108.263 133.225 109.687 133.345C113.863 133.697 117.87 135.753 120.592 138.939C121.451 139.945 123.078 139.316 124.198 138.613C152.369 120.902 174.015 94.7428 195.149 69.0403C195.878 68.1536 196.654 67.0364 196.274 65.9532C193.076 56.8429 193.588 46.4895 197.671 37.7397C195.262 32.9466 192.391 28.3859 189.111 24.1412C183.653 26.5106 177.234 26.5664 171.736 24.2922ZM104.916 148.255C106.027 148.837 107.372 148.284 108.484 147.703C111.406 146.178 114.22 144.447 116.899 142.527C117.607 142.02 117.818 141.006 117.568 140.172C117.317 139.338 116.691 138.665 115.997 138.139C113.831 136.495 110.803 136.062 108.263 137.034C107.794 137.214 107.328 137.448 107.005 137.833C106.626 138.283 106.487 138.882 106.366 139.458C105.752 142.367 105.268 145.303 104.916 148.255ZM184.028 18.2259C182.114 14.4831 179.162 11.2779 175.589 9.06303C174.346 10.1587 174.104 11.8235 173.858 13.5208C173.689 14.6854 173.518 15.8653 173.019 16.8871C172.857 17.2197 172.658 17.5379 172.46 17.8554L172.46 17.8557C172.083 18.4604 171.707 19.0624 171.586 19.7568C171.402 20.8159 172.298 22.1446 173.315 21.7942C174.141 21.5092 175.007 21.6923 175.881 21.8768C176.342 21.9743 176.805 22.0721 177.265 22.1018C179.948 22.275 182.174 20.1731 184.028 18.2259ZM199.199 40.6586C197.149 44.7374 197.473 49.5548 197.846 54.1047L198.381 60.6299C198.44 61.3475 198.83 62.3159 199.522 62.1171C199.951 60.9152 200.769 59.9236 201.589 58.9294C202.307 58.0598 203.026 57.1882 203.488 56.1719C205.054 52.7305 203.316 48.7642 201.604 45.3933L199.199 40.6586ZM107.408 113.082C107.494 114.358 108.819 115.313 110.098 115.278C111.377 115.242 112.528 114.414 113.275 113.376C114.022 112.338 114.432 111.101 114.832 109.885L116.15 105.872C116.517 104.753 116.54 103.043 115.37 102.911C114.947 102.863 114.544 103.087 114.198 103.333C112.886 104.266 111.931 105.605 111.001 106.919L108.468 110.497C107.919 111.273 107.344 112.133 107.408 113.082ZM-194.686 102.369C-203.584 86.0768 -209.265 68.0349 -211.306 49.5833C-211.432 48.4487 -212.683 47.7138 -213.824 47.7532C-214.965 47.7927 -216 48.3955 -216.971 48.997C-230.745 57.5371 -242.47 69.3577 -250.898 83.2008C-251.751 84.602 -252.592 86.09 -252.7 87.727C-252.806 89.3335 -252.192 90.8919 -251.56 92.3727C-242.263 114.155 -226.759 132.629 -211.021 150.327C-198.9 163.957 -185.924 177.755 -169.022 184.616C-166.291 185.725 -162.323 186.177 -161.165 183.465C-160.828 182.677 -160.846 181.789 -160.863 180.931L-160.864 180.898C-161.05 171.708 -160.006 162.493 -157.767 153.578C-157.25 151.515 -156.98 148.733 -158.91 147.839C-166.167 144.476 -171.14 137.695 -175.791 131.188C-182.475 121.837 -189.176 112.457 -194.686 102.369ZM-178.977 173.587C-179.977 173.854 -180.975 173.223 -181.81 172.611C-197.192 161.341 -209.113 146.087 -220.825 131.038L-241.494 104.481C-238.006 102.259 -237.563 97.4311 -237.487 93.2955C-237.388 87.9197 -237.316 82.385 -239.258 77.3713C-239.689 76.2569 -239.127 75.022 -238.525 73.9895C-235.945 69.5613 -232.366 65.7187 -228.132 62.8303C-227.722 62.5507 -227.288 62.2729 -226.797 62.2035C-225.5 62.0203 -224.505 63.2813 -223.812 64.3924C-221.076 68.7807 -217.315 73.7434 -212.156 73.3821C-210.192 73.2446 -209.102 75.5584 -208.529 77.4423C-201.403 100.87 -188.023 122.001 -172.332 140.802C-170.293 143.245 -169.782 146.542 -169.275 149.809C-168.71 153.453 -168.15 157.059 -165.485 159.402C-163.209 161.402 -163.631 164.994 -164.246 167.961C-164.371 168.568 -164.521 169.218 -164.982 169.633C-165.324 169.94 -165.787 170.069 -166.232 170.187L-178.977 173.587ZM-215.444 67.9552C-218.266 65.9835 -220.704 63.464 -222.581 60.5784C-222.987 59.9543 -223.381 59.2547 -223.31 58.5135C-223.233 57.7076 -222.626 57.0627 -222.023 56.5227C-220.533 55.1893 -218.849 54.0731 -217.041 53.22C-216.379 52.9076 -215.524 52.6538 -214.974 53.137C-214.65 53.4215 -214.547 53.876 -214.463 54.2988L-211.857 67.3339C-211.703 68.1045 -212.511 68.7985 -213.296 68.8209C-214.082 68.8433 -214.8 68.4053 -215.444 67.9552ZM-241.237 93.1673C-241.292 95.6192 -241.479 98.3708 -243.317 99.995C-243.701 100.041 -243.957 99.6187 -244.107 99.262C-245.431 96.1281 -246.773 92.9186 -246.982 89.5229C-247.19 86.1272 -246.052 82.4501 -243.277 80.4818C-242.902 80.2154 -242.351 79.9955 -242.02 80.315C-241.887 80.4434 -241.83 80.6298 -241.781 80.8083C-241.027 83.5799 -241.086 86.4988 -241.151 89.3705L-241.237 93.1673ZM-166.356 174.723C-165.911 175.087 -165.863 175.74 -165.851 176.315L-165.719 182.617C-168.304 181.184 -170.781 179.555 -173.121 177.749C-173.564 177.407 -174.052 176.853 -173.78 176.362C-173.645 176.119 -173.365 176.002 -173.105 175.906C-171.432 175.289 -169.702 174.827 -167.945 174.526C-167.402 174.433 -166.783 174.374 -166.356 174.723ZM-166.207 149.898C-166.231 149.614 -166.231 149.303 -166.062 149.073C-165.615 148.467 -164.647 149.016 -164.237 149.648C-163.251 151.171 -163.033 153.166 -163.667 154.866C-165.116 153.625 -166.049 151.799 -166.207 149.898ZM218.87 102.045C221.446 98.7999 226.144 98.333 230.286 98.4341C231.254 98.4577 232.25 98.5046 233.131 98.9061C235.582 100.023 236.102 103.225 236.185 105.917C236.26 108.367 236.246 110.848 235.651 113.225C235.055 115.602 233.824 117.893 231.855 119.351C230.97 120.007 229.944 120.485 228.857 120.667C227.178 120.948 225.46 120.517 223.865 119.923C221.739 119.132 219.723 118.046 217.893 116.705C216.999 116.05 216.076 115.192 216.047 114.084C215.981 111.529 216.267 108.966 216.895 106.489C217.296 104.905 217.854 103.324 218.87 102.045ZM225.552 118.207C228.86 119.157 232.379 116.597 233.633 113.391C234.886 110.186 234.422 106.585 233.733 103.213C233.469 101.919 232.085 101.195 230.81 100.849C228.835 100.313 226.736 100.242 224.73 100.643C223.734 100.843 222.715 101.184 222.016 101.922C221.634 102.324 221.371 102.82 221.112 103.31L219.174 106.973C218.833 107.617 218.489 108.267 218.289 108.968C217.69 111.064 218.482 113.391 219.945 115.007C221.409 116.622 223.456 117.605 225.552 118.207ZM181.272 155.245C184.306 156.303 187.056 158.165 189.165 160.589C190.978 162.673 192.359 165.377 191.978 168.113C191.838 169.117 191.468 170.074 191.045 170.996C189.445 174.487 186.692 177.832 182.912 178.508C180.93 178.862 178.885 178.437 176.978 177.789C174.773 177.038 172.67 175.986 170.747 174.67C169.728 173.972 168.715 173.144 168.268 171.992C167.96 171.198 167.95 170.323 167.962 169.472C167.99 167.365 168.13 165.224 168.864 163.249C169.793 160.751 171.611 158.689 173.539 156.849C174.314 156.109 175.136 155.38 176.132 154.983C177.761 154.334 179.616 154.667 181.272 155.245ZM184.374 173.603C186.566 171.434 187.842 168.289 187.495 165.224C187.147 162.159 185.073 159.283 182.172 158.237C180.966 157.802 179.629 157.681 178.394 158.022C177.727 158.207 177.102 158.521 176.519 158.892C174.021 160.48 172.268 163.19 171.842 166.119C171.417 169.047 172.326 172.144 174.268 174.378C175.511 175.808 177.541 176.421 179.421 176.184C181.301 175.946 183.026 174.936 184.374 173.603ZM-92.5148 137.178C-92.6168 135.733 -94.5488 135.354 -95.9969 135.396C-103.599 135.62 -111.192 136.189 -118.742 137.103C-119.983 137.253 -120.083 139.252 -119.088 140.008C-118.092 140.763 -116.706 140.623 -115.469 140.447L-92.5148 137.178ZM-116.818 146.949C-116.752 146.205 -115.817 145.936 -115.075 145.852L-70.2967 140.781C-69.487 140.689 -68.6242 140.606 -67.8954 140.971C-67.1667 141.336 -66.6969 142.333 -67.1728 142.995C-67.5236 143.483 -68.1965 143.582 -68.7945 143.64L-114.594 148.084C-115.546 148.176 -116.902 147.903 -116.818 146.949ZM-16.4325 154.492C-18.9377 155.042 -21.5088 154.138 -23.9115 153.24C-31.6802 150.337 -39.4189 147.353 -47.126 144.29C-50.2372 143.054 -53.6512 144.905 -56.4494 146.744C-64.5471 152.063 -72.3436 157.841 -79.7889 164.041C-81.7013 165.634 -84.6441 164.516 -86.5728 162.944C-86.9806 162.611 -87.382 162.256 -87.7849 161.9C-89.2871 160.573 -90.8087 159.228 -92.7516 158.952C-95.7386 158.529 -98.3663 160.793 -100.531 162.894L-114.488 176.449C-116.365 178.272 -118.341 181.192 -116.67 183.206C-115.568 184.534 -113.544 184.467 -111.829 184.268C-102.875 183.23 -93.9657 181.775 -85.0591 180.32L-85.0583 180.32L-85.058 180.32C-70.3373 177.915 -55.6251 175.512 -40.7362 174.997C-37.4367 174.883 -34.1352 174.862 -30.8336 174.841C-28.7663 174.827 -26.699 174.814 -24.6321 174.778C-15.3093 174.616 -5.99455 173.988 3.26567 172.897C3.7135 172.844 4.22354 172.752 4.45587 172.365C4.63135 172.073 4.58755 171.705 4.53802 171.368L0.615387 144.68C0.416077 143.324 0.0677948 141.756 -1.17136 141.17C-2.42334 140.579 -3.89827 141.342 -4.92595 142.27C-6.53442 143.723 -7.77318 145.652 -8.99518 147.555C-10.9999 150.677 -12.9595 153.729 -16.4325 154.492ZM-80.1307 169.095C-71.7535 162.207 -63.0186 155.755 -53.973 149.771C-52.1155 148.543 -49.8577 147.285 -47.7819 148.092L-25.8476 156.615C-22.1869 158.038 -18.183 159.479 -14.4249 158.338C-10.056 157.012 -7.44449 152.665 -5.24442 148.665C-4.81651 147.887 -3.57166 147.976 -2.95532 148.616C-2.33897 149.255 -2.18303 150.196 -2.05626 151.075L-0.450851 162.204C-0.204346 163.913 0.0380859 165.687 -0.45578 167.341C-0.949661 168.996 -2.40056 170.498 -4.12688 170.465C-32.3612 169.92 -60.6503 172.248 -88.4156 177.402C-89.2751 177.562 -90.1348 177.724 -90.995 177.886L-90.9964 177.887C-97.6294 179.139 -104.287 180.396 -111.028 180.418C-107.773 175.808 -103.648 171.892 -99.5525 168.009C-97.3037 165.877 -94.4919 163.578 -91.4727 164.275C-89.8425 164.652 -88.592 165.823 -87.3478 166.989L-87.3477 166.989L-87.3475 166.989L-87.3474 166.989L-87.3473 166.989L-87.3471 166.99L-87.347 166.99L-87.3469 166.99L-87.3467 166.99L-87.3466 166.99L-87.3465 166.99L-87.3463 166.99L-87.3462 166.991C-86.9478 167.364 -86.55 167.736 -86.1406 168.082C-84.4522 169.507 -81.8375 170.499 -80.1307 169.095ZM282.094 246.734C281.345 247.013 280.509 246.822 279.747 246.582C274.584 244.959 270.391 241.329 266.27 237.762C265.712 237.279 265.155 236.797 264.597 236.321C257.769 230.497 250.359 225.355 242.513 220.998C241.715 220.555 240.878 220.088 240.389 219.317C239.9 218.546 239.915 217.372 240.669 216.857C244.187 214.455 246.469 210.333 246.636 206.076C246.681 204.941 247.963 204.185 249.094 204.276C250.226 204.367 251.212 205.047 252.138 205.704L287.989 231.153C288.687 231.648 289.439 232.223 289.61 233.061C289.749 233.746 289.463 234.438 289.174 235.074C287.628 238.486 285.85 241.793 283.856 244.964C283.404 245.682 282.889 246.437 282.094 246.734ZM246.227 216.544C245.805 217.287 245.441 218.362 246.123 218.876L275.379 240.904C276.981 242.11 279.471 243.241 280.732 241.682C282.181 239.891 283.534 238.024 284.784 236.09C285.126 235.56 285.474 234.956 285.351 234.338C285.239 233.773 284.764 233.364 284.318 233.002C273.581 224.296 262.213 216.369 250.333 209.303L246.227 216.544ZM231.667 230.014C232.139 229.204 232.713 228.317 233.629 228.118C234.331 227.966 235.044 228.266 235.69 228.58C239.213 230.291 242.439 232.609 245.184 235.403C245.844 236.075 245.926 237.157 245.632 238.052C245.338 238.947 244.732 239.701 244.138 240.432C243.184 241.608 242.167 242.831 240.759 243.389C239.239 243.991 237.471 243.701 236.031 242.926C234.592 242.151 233.437 240.939 232.419 239.66C231.091 237.991 229.902 235.99 230.108 233.868C230.243 232.477 230.963 231.221 231.667 230.014ZM237.828 239.354C240.044 240.216 241.461 239.533 241.519 238.08C241.556 237.163 240.756 236.457 240.029 235.898L237.828 234.205C237.101 233.646 236.299 233.06 235.382 233.066C234.464 233.071 233.53 234.018 233.906 234.855C233.849 235.259 235.613 238.493 237.828 239.354ZM229.084 257.24C229.624 257.536 230.197 257.826 230.812 257.838C231.428 257.851 232.096 257.503 232.247 256.906C232.602 255.504 233.53 254.342 234.437 253.205C234.536 253.08 234.635 252.956 234.733 252.833C235.727 251.574 236.687 250.149 236.713 248.545C236.74 246.942 235.412 245.233 233.823 245.451C232.572 245.624 231.407 244.803 230.498 243.926C230.353 243.786 230.209 243.642 230.065 243.498C229.304 242.739 228.531 241.968 227.521 241.639C226.319 241.248 224.683 241.87 224.588 243.13C224.396 245.668 222.287 247.579 220.331 249.206C219.745 249.693 220.274 250.628 220.822 251.158C223.288 253.541 226.075 255.593 229.084 257.24ZM229.474 252.405L225.621 249.798C224.641 249.136 224.72 247.512 225.594 246.714C226.467 245.917 227.825 245.856 228.938 246.255C230.052 246.654 230.978 247.437 231.878 248.205C232.473 248.714 232.556 249.639 232.283 250.373C232.01 251.107 231.456 251.695 230.915 252.261C230.73 252.455 230.523 252.661 230.257 252.695C229.975 252.731 229.71 252.565 229.474 252.405ZM260.022 252.577L261.906 248.573C262.483 247.348 263.042 245.831 262.263 244.722C261.993 244.337 261.594 244.066 261.204 243.803L254.349 239.184C253.61 238.685 252.808 238.168 251.917 238.182C250.861 238.199 249.975 238.953 249.225 239.696C248.102 240.81 247.051 241.998 246.083 243.249C245.346 244.201 244.741 245.768 245.748 246.429L256.237 253.311C257.065 253.854 258.116 254.412 258.985 253.94C259.496 253.662 259.774 253.102 260.022 252.577ZM257.697 249.743C257.257 249.844 256.797 249.732 256.364 249.602C253.716 248.804 251.292 247.275 249.43 245.23C248.811 244.55 249.161 243.349 249.948 242.872C250.735 242.395 251.758 242.504 252.606 242.861C253.154 243.091 253.655 243.411 254.157 243.732C254.432 243.908 254.707 244.084 254.99 244.245C255.295 244.418 255.612 244.577 255.93 244.737C256.831 245.188 257.734 245.641 258.349 246.423C259.18 247.48 259.008 249.441 257.697 249.743ZM261.24 254.214C262.449 253.927 262.818 252.694 263.202 251.413C263.519 250.354 263.847 249.262 264.666 248.643C266.076 247.577 268.074 248.468 269.593 249.372L274.425 252.246C275.195 252.705 275.983 253.179 276.536 253.884C277.088 254.59 277.359 255.589 276.973 256.397C276.715 256.937 276.228 257.295 275.737 257.655C275.334 257.951 274.929 258.248 274.646 258.649C274.283 259.164 274.148 259.809 274.014 260.446C273.846 261.246 273.681 262.034 273.071 262.537C271.959 263.453 270.305 262.719 269.075 261.968L262.267 257.808C261.581 257.388 260.856 256.927 260.519 256.197C260.182 255.466 260.457 254.4 261.24 254.214ZM270.165 258.345C271.139 258.012 271.923 257.289 272.675 256.585C273.22 256.075 272.491 255.236 271.84 254.87L267.67 252.521C267.235 252.276 266.629 252.053 266.292 252.421C265.206 253.606 265.048 255.541 265.928 256.887C266.807 258.233 268.643 258.864 270.165 258.345ZM222.311 258.199C221.378 257.936 220.427 257.668 219.665 257.148C218.48 256.34 216.832 256.536 215.589 257.25C214.346 257.964 213.419 259.108 212.522 260.226C212.025 260.846 211.513 261.493 211.323 262.266C211.133 263.038 211.36 263.974 212.055 264.361L219.328 268.415C219.878 268.722 220.494 269.04 221.109 268.903C221.722 268.767 222.145 268.223 222.514 267.715L224.385 265.14C225.427 263.707 226.515 261.88 225.754 260.28C225.143 258.998 223.747 258.604 222.311 258.199ZM220.009 264.869C219.629 264.97 219.238 264.786 218.887 264.608L213.932 262.086C214.885 260.738 216.697 260.22 218.34 260.384C219.983 260.547 221.508 261.277 222.994 261.996L220.717 264.361C220.513 264.573 220.294 264.794 220.009 264.869ZM185.683 164.036C186.45 165.206 186.21 166.769 185.701 168.072C185.03 169.789 183.896 171.381 182.295 172.294C180.694 173.208 178.59 173.341 177.03 172.359C175.469 171.377 174.686 169.194 175.522 167.551C175.716 167.171 175.979 166.834 176.243 166.497C176.496 166.175 176.748 165.853 176.939 165.492C177.065 165.255 177.163 165.003 177.261 164.752C177.402 164.389 177.543 164.027 177.766 163.711C178.56 162.586 180.125 162.365 181.501 162.385C183.063 162.407 184.826 162.73 185.683 164.036ZM182.197 164.779C180.06 164.752 178.056 166.544 177.845 168.67C177.758 169.539 178.127 170.619 178.992 170.739C179.64 170.829 180.209 170.328 180.644 169.84C181.566 168.807 182.357 167.658 182.995 166.429C183.208 166.017 183.397 165.488 183.116 165.118C182.911 164.848 182.535 164.783 182.197 164.779ZM233.297 109.055C233.132 107.099 231.823 105.175 229.922 104.685C227.507 104.062 225.166 105.762 223.249 107.358C222.682 107.829 222.09 108.337 221.85 109.034C221.442 110.218 222.175 111.465 222.897 112.488C223.724 113.658 224.608 114.836 225.814 115.609C227.021 116.383 228.63 116.684 229.896 116.011C230.541 115.669 231.043 115.109 231.48 114.522C232.652 112.947 233.461 111.012 233.297 109.055ZM227.941 114.071C227.122 114.194 226.273 113.863 225.671 113.296C224.768 112.446 224.41 111.079 224.726 109.88C225.058 108.618 226.117 107.575 227.385 107.264C228.653 106.952 230.075 107.385 230.954 108.35C230.921 108.613 230.894 108.878 230.866 109.143L230.866 109.143C230.773 110.043 230.679 110.944 230.368 111.789C229.965 112.883 229.094 113.898 227.941 114.071ZM162.938 419.234C167.39 403.482 175.797 389.186 184.117 375.089C185.523 372.706 187.266 370.082 189.996 369.63C191.072 369.452 191.64 368.283 192.006 367.255C196.519 354.598 196.953 340.522 193.231 327.61C192.169 323.925 193.477 320.018 194.771 316.407L204.792 288.453C203.75 286.651 201.779 285.859 199.783 285.056C198.113 284.385 196.424 283.707 195.247 282.424C191.921 278.798 194.43 273.034 197.036 268.86L242.71 195.714C244.575 192.727 248.668 191.79 252.099 192.586C255.53 193.382 258.46 195.542 261.281 197.649L294.593 222.53C300.552 226.981 307.131 232.667 306.788 240.097C306.598 244.209 304.245 247.864 301.969 251.294L275.569 291.075C272.155 296.219 271.741 302.473 271.325 308.755V308.756C271.137 311.597 270.949 314.444 270.482 317.197C268.206 330.628 259.261 341.751 250.691 352.408C250.349 352.834 250.008 353.258 249.667 353.682C240.798 364.728 231.924 377.063 231.425 391.221C230.831 408.096 222.815 424.576 209.906 435.46L221.139 408.21C223.81 401.729 226.284 393.667 221.813 388.268C219.791 385.825 216.733 384.533 213.799 383.329L196.354 376.171C195.151 375.678 193.911 375.177 192.611 375.169C188.558 375.144 186.147 379.539 184.504 383.244C178.819 396.06 171.558 408.177 162.938 419.234ZM220.301 382.227C223.292 383.334 227.504 384.007 228.921 381.15C235.781 367.321 242.83 353.226 253.75 342.314C260.044 336.025 263.902 327.633 266.085 319.007C268.268 310.382 268.886 301.448 269.495 292.572C266.845 293.536 266.615 297.112 266.626 299.932C266.651 306.149 265.564 312.369 263.432 318.208C262.986 319.431 262.387 320.751 261.192 321.267C259.998 321.783 258.238 320.747 258.639 319.509C261.721 310.01 262.869 299.888 261.994 289.94C261.723 286.855 261.149 283.556 258.956 281.37C259.194 286.24 259.431 291.132 258.938 295.983C258.084 304.376 255.075 312.378 252.092 320.269C251.705 321.294 251.237 322.411 250.253 322.892C249.269 323.374 247.742 322.611 247.999 321.546L252.466 303.082C254.922 292.93 257.337 282.009 253.535 272.28C251.62 272.152 251.169 274.89 251.34 276.802C252.511 289.894 248.892 302.889 245.308 315.536C244.89 317.012 243.409 318.858 242.259 317.843C241.763 317.405 241.74 316.65 241.78 315.99C242.006 312.271 243.026 308.67 244.044 305.074C244.36 303.957 244.676 302.842 244.968 301.723C247.661 291.408 248.348 280.575 246.979 270.003C244.619 273.027 243.619 276.863 242.674 280.581L237.068 302.648C234.533 312.624 231.295 323.591 222.507 328.95C221.807 329.377 220.996 329.774 220.198 329.585C219.207 329.35 218.645 328.325 218.231 327.394C212.623 314.761 211.922 300.023 216.307 286.916C216.573 286.12 215.764 285.289 214.928 285.223C214.092 285.157 213.309 285.613 212.623 286.096C205.428 291.173 202.672 300.37 200.383 308.874L197.34 320.18C196.895 321.832 196.448 323.498 196.356 325.206C196.214 327.801 196.892 330.341 197.567 332.867C197.723 333.453 197.879 334.037 198.025 334.622C200.952 346.369 199.629 359.127 194.355 370.024C193.578 371.631 195.631 373.092 197.304 373.712L220.301 382.227ZM231.668 274.318C230.468 273.491 229.183 272.548 228.812 271.139C228.243 268.979 230.301 266.808 232.516 266.518C234.731 266.227 236.898 267.296 238.734 268.57C241.319 270.363 244.592 267.628 246.528 265.147C243.916 263.585 241.425 261.16 241.322 258.118C241.219 255.076 244.917 252.179 247.378 253.969C248.333 254.664 249.489 255.089 250.631 255.509C252.343 256.139 254.026 256.758 254.965 258.257C256.033 259.962 255.653 262.268 254.566 263.961C253.479 265.654 251.806 266.869 250.172 268.043C252.517 268.275 254.8 269.111 256.74 270.448L258.855 264.286C259.019 263.808 259.197 263.309 259.573 262.971C260.298 262.321 261.426 262.522 262.354 262.816C264.789 263.589 267.177 264.796 268.784 266.781C270.391 268.767 271.061 271.652 269.938 273.946C268.815 276.241 265.646 277.465 263.498 276.081C263.052 275.794 262.605 275.41 262.157 275.027C260.96 274.001 259.763 272.975 258.608 273.796C262.136 276.544 264.559 280.672 265.24 285.092C276.347 268.172 287.336 251.174 298.204 234.099C299.242 232.469 300.079 229.9 298.389 228.963C291.171 224.959 284.792 219.596 278.427 214.246C270.394 207.493 262.385 200.761 252.745 196.808C252.133 196.557 251.464 196.314 250.825 196.482C250.154 196.659 249.683 197.242 249.261 197.792C231.311 221.222 215.2 246.061 201.127 272.005C199.164 275.625 201.792 279.94 204.305 283.201C205.561 284.831 207.986 286.552 209.356 285.017C211.082 283.082 213.912 281.976 216.357 282.84C218.802 283.704 220.323 286.883 218.993 289.11C218.032 290.72 219.914 292.509 221.559 293.41C224.846 295.211 228.217 296.856 231.658 298.34C232.136 298.546 232.693 298.748 233.159 298.515C233.602 298.293 233.782 297.765 233.921 297.288L237.733 284.172C238.36 282.015 238.779 279.215 236.929 277.941L231.668 274.318ZM299.86 237.549C299.354 237.376 298.892 237.882 298.594 238.327L270.052 281.053C269.284 282.202 268.497 283.397 268.273 284.761C268.05 286.125 268.551 287.711 269.792 288.318C271.848 289.324 273.998 287.211 275.317 285.341L301.837 247.755C303.806 244.965 302.139 241.149 300.454 238.179C300.308 237.922 300.139 237.645 299.86 237.549ZM219.499 294.603C218.996 294.237 218.245 294.455 217.824 294.913C217.404 295.37 217.232 295.997 217.073 296.598C216.683 298.077 216.291 299.572 216.233 301.1C216.175 302.629 216.453 304.149 216.73 305.654L219.463 320.511C219.578 321.134 219.712 321.796 220.154 322.25C220.595 322.703 221.456 322.802 221.814 322.279C225.859 316.363 229.962 310.331 232.078 303.483C232.341 302.631 232.417 301.434 231.583 301.121C227.287 299.504 223.21 297.305 219.499 294.603ZM251.063 257.945C249.693 256.64 247.882 255.806 246 255.614C244.284 255.439 243.294 257.85 244.077 259.386C244.861 260.923 246.591 261.684 248.192 262.326C249.322 262.779 250.693 263.206 251.678 262.491C253.094 261.463 252.33 259.152 251.063 257.945ZM239.795 275.161C240.353 274.764 240.426 273.952 240.27 273.284C239.681 270.769 236.923 269.485 234.447 268.748C233.49 268.463 232.298 268.264 231.623 269.001C231.06 269.616 231.18 270.635 231.666 271.313C232.152 271.991 232.913 272.409 233.647 272.804L237.471 274.864C238.198 275.255 239.122 275.64 239.795 275.161ZM261.553 266.097C260.743 267.181 260.826 268.758 261.502 269.93C262.177 271.102 263.347 271.916 264.581 272.471C265.004 272.661 265.469 272.828 265.923 272.737C266.315 272.66 266.65 272.396 266.889 272.076C267.772 270.896 267.343 269.118 266.331 268.046C265.319 266.973 263.879 266.436 262.493 265.934C262.254 265.847 261.975 265.763 261.757 265.894C261.737 265.906 261.718 265.92 261.7 265.935C261.644 265.981 261.597 266.039 261.553 266.097ZM-121.954 364.363C-121.425 360.45 -120.683 356.144 -117.609 353.666C-115.157 351.691 -111.792 351.375 -108.644 351.315C-98.332 351.117 -87.9865 352.791 -78.2633 356.233C-75.1873 357.321 -71.9681 358.755 -70.2863 361.551C-68.4656 364.578 -68.9094 368.396 -69.4127 371.892L-77.2223 426.144C-71.8374 410.433 -67.9714 394.201 -65.6958 377.749C-64.6341 370.074 -64.2639 361.267 -69.6208 355.668C-77.983 346.929 -77.7549 334.481 -77.523 321.823C-77.3229 310.899 -77.1199 299.82 -82.4337 290.835C-84.1676 287.903 -80.302 284.876 -77.0871 283.751C-62.9169 278.789 -47.8116 276.512 -32.8084 277.077C-30.0579 298.806 -29.3138 320.787 -30.5886 342.652C-30.8745 347.555 -23.9203 348.821 -19.0383 348.279L150.325 329.499C151.172 329.405 152.089 329.279 152.689 328.674C153.391 327.969 153.426 326.859 153.415 325.864C153.016 286.182 151.874 246.508 149.99 206.87C149.917 205.322 149.72 203.546 148.439 202.675C147.479 202.022 146.216 202.108 145.06 202.221L24.1753 213.939C32.1166 176.485 40.1033 138.327 36.4811 100.211C10.0551 117.831 -24.0443 117.699 -55.7505 115.833C-57.0683 115.755 -58.3889 115.676 -59.7119 115.597C-90.2245 113.774 -122.044 111.872 -149.475 125.071C-135.112 163.152 -120.585 204.719 -132.524 243.629C-133.58 247.071 -134.837 250.453 -136.093 253.833C-138.03 259.044 -139.965 264.251 -141.162 269.672C-143.135 278.609 -142.839 288.616 -137.55 296.085C-129.891 306.901 -123.805 319.199 -122.416 332.38C-121.099 344.887 -124.043 357.291 -126.983 369.682C-130.055 382.628 -133.123 395.559 -131.324 408.576C-131.019 410.778 -130.47 413.146 -128.745 414.55L-121.954 364.363ZM-109.972 207.192C-106.769 207.306 -105.496 211.327 -105.087 214.505L-101.844 239.674C-108.175 236.392 -117.082 241.963 -116.9 249.093C-122.236 238.795 -123.046 226.993 -123.848 215.311C-124.023 212.77 -124.197 210.234 -124.417 207.721C-126.773 180.843 -134.873 154.846 -142.923 129.095C-144.071 125.423 -139.113 123.042 -135.307 122.484C-110.327 118.821 -85.0459 119.327 -59.7528 119.833C-48.2882 120.062 -36.8211 120.292 -25.3786 120.133C-5.04697 119.851 16.4663 117.927 32.9586 106.033C36.6658 130.745 31.6275 155.677 26.6526 180.296C25.9797 183.626 25.3079 186.95 24.6591 190.268C19.2138 218.109 15.5076 247.785 25.926 274.172C26.3651 275.284 24.8682 276.122 23.698 276.366C15.1293 278.153 6.26962 278.538 -2.42188 277.501C-6.15016 277.056 -9.8392 276.353 -13.5289 275.649C-16.3076 275.12 -19.0867 274.59 -21.8831 274.17C-42.9356 271.011 -64.9101 274.29 -84.1236 283.457C-84.8936 283.824 -85.8095 283.652 -86.6158 283.373C-90.507 282.026 -93.2829 278.431 -94.668 274.553C-96.053 270.675 -96.2514 266.49 -96.4361 262.376L-97.211 245.123C-97.2389 244.504 -97.0766 243.662 -96.4563 243.642C-62.799 242.591 -29.1798 240.322 4.31345 236.841C2.89722 228.917 2.75673 220.766 3.89902 212.797C4.62015 207.767 -0.110641 203.18 -5.14769 202.507C-10.1847 201.834 -15.1664 204.115 -19.3488 207.002C-20.9134 208.082 -22.4158 209.255 -23.9174 210.427C-26.4295 212.389 -28.9392 214.348 -31.734 215.867C-33.5631 216.861 -35.7629 217.662 -37.6836 216.86C-40.0344 215.877 -40.8224 213.081 -41.5259 210.585C-41.5701 210.428 -41.614 210.272 -41.6579 210.118C-42.5747 206.903 -44.0882 203.703 -46.7507 201.681C-49.4132 199.66 -53.4302 199.156 -56.0581 201.222C-58.3049 202.989 -59.0154 206.049 -59.3917 208.882C-59.4252 209.134 -59.4577 209.388 -59.4902 209.642C-59.8239 212.247 -60.1688 214.939 -61.7236 217.028C-63.4301 219.321 -67.238 220.304 -69.1096 218.144C-72.811 213.872 -79.3062 212.976 -84.7563 214.475C-90.2065 215.974 -94.8701 219.437 -99.392 222.829C-102.12 218.56 -102.346 212.812 -99.9607 208.342L-99.9208 208.268C-99.4724 207.429 -98.9574 206.465 -99.3538 205.611C-99.5993 205.081 -100.141 204.757 -100.677 204.527C-103.884 203.151 -107.981 204.327 -109.972 207.192ZM-13.6013 279.34C-11.8082 279.697 -9.60414 280.497 -9.49327 282.322C-8.43588 299.728 5.39694 315.369 22.4041 319.222C39.4112 323.074 58.2596 315.284 68.176 300.94C78.0924 286.596 78.8689 266.67 70.7375 251.244C62.0171 234.7 40.8248 225.915 22.9572 231.436C22.1281 227.78 22.2214 223.919 23.2263 220.307C23.4129 219.637 23.6561 218.936 24.1974 218.498C24.7262 218.07 25.4407 217.973 26.116 217.891L76.4484 211.829C80.8734 211.296 85.3095 210.762 89.7664 210.726C108.932 210.568 128.083 208.657 146.902 205.024C149.826 244.29 151.202 283.671 151.026 323.045C151.018 324.913 150.449 327.395 148.582 327.449C116.905 328.372 85.4778 332.539 54.0382 336.707C32.9153 339.508 11.7868 342.309 -9.42651 344.128C-14.1548 344.533 -18.9154 344.89 -23.6397 344.44C-24.4958 344.358 -25.4617 344.183 -25.9271 343.46C-26.2079 343.023 -26.2394 342.478 -26.2627 341.959L-29.0872 278.981C-29.1237 278.167 -29.0745 277.186 -28.3698 276.778C-27.9028 276.507 -27.3183 276.604 -26.7889 276.71L-13.6013 279.34ZM-100.265 264.759C-100.766 268.03 -101.329 271.71 -99.1861 274.185C-91.193 283.416 -82.8894 293.278 -80.7648 305.303C-79.7727 310.918 -80.1989 316.697 -80.6234 322.452C-81.158 329.702 -81.69 336.915 -79.3811 343.716C-79.3209 343.893 -79.2587 344.071 -79.1963 344.249C-78.7721 345.462 -78.3397 346.698 -78.4772 347.963C-78.635 349.415 -79.8953 350.876 -81.3345 350.628L-98.0444 347.746C-103.578 346.792 -109.424 345.863 -114.681 347.838C-115.697 348.22 -116.867 347.55 -117.411 346.611C-117.956 345.672 -118.027 344.541 -118.075 343.456C-118.132 342.147 -118.174 340.828 -118.217 339.506C-118.487 331.187 -118.762 322.713 -122.613 315.424L-134.897 292.169C-136.711 288.736 -138.567 285.15 -138.692 281.27C-138.776 278.678 -138.076 276.133 -137.382 273.634L-131.254 251.559C-129.964 246.911 -128.599 242.116 -125.543 238.383C-118.12 250.977 -117.388 267.269 -123.651 280.478C-124.23 281.7 -122.46 282.958 -121.198 282.471C-119.937 281.984 -119.296 280.602 -118.851 279.325C-117.07 274.21 -116.445 268.817 -115.82 263.416C-115.313 259.047 -114.807 254.672 -113.686 250.435C-113 247.839 -112.009 245.19 -110.005 243.403C-108.001 241.617 -104.732 241.005 -102.632 242.678C-101.025 243.958 -100.502 246.145 -100.196 248.177C-99.3896 253.538 -99.3934 259.019 -100.207 264.379C-100.226 264.505 -100.246 264.632 -100.265 264.759ZM-71.433 221.177C-68.97 223.062 -66.5576 224.908 -63.6024 224.566C-59.846 224.132 -57.5052 220.265 -56.4142 216.644C-56.1755 215.852 -55.9631 215.041 -55.7502 214.228C-54.9903 211.327 -54.2245 208.404 -52.2341 206.221C-51.6557 205.587 -50.8228 204.996 -50.0011 205.245C-49.3356 205.446 -48.9478 206.121 -48.6388 206.743C-48.2009 207.626 -47.7864 208.524 -47.3718 209.421C-46.2026 211.954 -45.0329 214.487 -43.3352 216.687C-41.0356 219.668 -37.4574 222.012 -33.7153 221.602C-30.3688 221.235 -27.7544 218.866 -25.2059 216.556C-24.6835 216.083 -24.1638 215.612 -23.6412 215.161C-17.5032 209.868 -9.50922 206.771 -1.40721 206.548C-2.49992 209.279 -1.77127 212.258 -1.05617 215.182C-0.884018 215.886 -0.712662 216.586 -0.567688 217.279C0.576035 222.747 -0.00216675 228.563 -2.2002 233.698L-56.3142 237.864C-68.9471 238.837 -81.6118 239.81 -94.2743 239.365C-95.0742 239.337 -95.8945 239.298 -96.6303 238.984C-98.02 238.389 -98.8457 236.906 -99.1448 235.424C-99.8155 232.101 -98.2836 228.641 -95.9634 226.17C-93.6433 223.698 -90.6131 222.034 -87.6371 220.412C-84.5403 218.723 -81.1018 216.978 -77.6489 217.699C-75.3512 218.178 -73.3764 219.69 -71.433 221.177ZM31.0382 300.004C22.8402 299.835 15.7372 293.147 13.3033 285.317C12.8063 283.718 13.8399 281.964 15.2654 281.087C16.691 280.209 18.4159 280.001 20.0796 279.815L32.0914 278.465C28.4386 271.365 25.8369 263.725 24.3972 255.871C24.2666 255.159 24.1476 254.411 24.3728 253.722C24.7682 252.513 26.0707 251.877 27.2762 251.472C37.0356 248.192 48.7542 252.174 54.4932 260.722C60.2321 269.27 59.4797 281.626 52.744 289.413C49.8277 292.784 46.0064 295.272 41.9809 297.187C38.5482 298.82 34.8386 300.082 31.0382 300.004ZM69.9403 257.803C71.3987 262.62 71.82 267.686 72.0207 272.715C68.745 272.219 65.4367 271.938 62.1243 271.873C61.4764 263.414 55.8466 255.772 48.4452 251.626C41.0438 247.48 32.1103 246.585 23.7466 248.004C23.6758 246.812 23.4585 245.568 23.2411 244.323C22.6673 241.04 22.0937 237.757 24.2166 235.426C25.499 234.018 27.4524 233.455 29.3245 233.107C37.8513 231.518 46.9433 233.182 54.3544 237.689C61.7654 242.195 67.427 249.501 69.9403 257.803ZM9.81543 284.463C9.80188 284.619 9.78854 284.773 9.78159 284.92C9.72617 286.089 10.2709 287.161 10.8102 288.222C10.9547 288.506 11.0988 288.79 11.2309 289.074C11.8558 290.421 12.1585 292.194 11.1141 293.248C8.5871 295.799 6.35403 298.64 4.47308 301.699C4.00784 302.455 2.86324 302.517 2.09821 302.066C1.33318 301.615 0.858566 300.81 0.416733 300.04C-2.37912 295.165 -5.245 290.066 -5.59363 284.457C-5.63698 283.76 -5.56035 282.915 -4.94174 282.59C-4.66928 282.447 -4.34769 282.443 -4.03987 282.442L8.46451 282.404C8.76334 282.403 9.07773 282.406 9.33749 282.554C9.95102 282.902 9.88071 283.712 9.81543 284.463Z" fill="#252525"/>
</g>
</svg>
