<svg width="177" height="55" viewBox="0 0 177 55" fill="none" xmlns="http://www.w3.org/2000/svg">
<g opacity="0.2" filter="url(#filter0_d_339_539)">
<rect x="4" width="169" height="47" rx="11" fill="white"/>
<rect x="4.5" y="0.5" width="168" height="46" rx="10.5" stroke="black"/>
</g>
<path d="M57.852 19.78C55.968 19.78 54.672 20.752 54.672 22.312C54.672 23.776 55.68 24.376 56.832 24.64L58.512 25C59.088 25.12 59.256 25.348 59.256 25.708C59.256 26.2 58.812 26.536 58.068 26.536C57.264 26.536 56.688 26.176 56.484 25.348L54.444 25.744C54.66 27.316 56.148 28.18 57.96 28.18C59.748 28.18 61.272 27.292 61.272 25.576C61.272 24.304 60.456 23.548 59.064 23.236L57.396 22.864C56.892 22.756 56.748 22.516 56.748 22.192C56.748 21.736 57.168 21.376 57.828 21.376C58.464 21.376 59.088 21.748 59.232 22.504L61.176 22.108C60.876 20.644 59.604 19.78 57.852 19.78ZM68.3606 21.976H66.4406V24.772C66.4406 25.936 65.9486 26.452 65.1926 26.452C64.5806 26.452 64.1606 25.972 64.1606 25.264V21.976H62.2526V25.672C62.2526 27.184 63.1886 28.18 64.5926 28.18C65.3486 28.18 65.9846 27.904 66.4406 27.424V28H68.3606V21.976ZM73.5226 21.796C72.7666 21.796 72.1306 22.072 71.6746 22.552V21.976H69.7546V28H71.6746V25.204C71.6746 24.04 72.1666 23.524 72.9226 23.524C73.5346 23.524 73.9546 24.004 73.9546 24.712V28H75.8626V24.304C75.8626 22.792 74.9266 21.796 73.5226 21.796ZM80.9646 21.796C80.1846 21.796 79.5606 22.036 79.0926 22.456V19.36H77.1726V28H79.0926V27.52C79.5606 27.94 80.1846 28.18 80.9646 28.18C82.5606 28.18 83.9046 26.896 83.9046 24.988C83.9046 23.092 82.5606 21.796 80.9646 21.796ZM80.5686 26.548C79.7886 26.548 79.0926 25.924 79.0926 24.988C79.0926 24.064 79.7886 23.428 80.5686 23.428C81.4086 23.428 82.0206 24.064 82.0206 24.988C82.0206 25.924 81.4086 26.548 80.5686 26.548ZM90.7992 24.988C90.7632 23.02 89.3952 21.796 87.6912 21.796C85.9392 21.796 84.4992 23.092 84.4992 24.988C84.4992 26.896 85.9392 28.18 87.6792 28.18C89.0592 28.18 90.1512 27.568 90.6672 26.296L88.9632 25.948C88.6392 26.536 88.1232 26.644 87.6792 26.644C87.0312 26.644 86.5392 26.2 86.3832 25.48H90.7992V24.988ZM87.6912 23.356C88.2432 23.356 88.7232 23.656 88.9032 24.304H86.4192C86.5992 23.692 87.1512 23.356 87.6912 23.356ZM98.1336 21.976H96.2136V22.456C95.7456 22.036 95.1216 21.796 94.3416 21.796C92.7456 21.796 91.4016 23.092 91.4016 24.988C91.4016 26.896 92.7456 28.18 94.3416 28.18C95.1216 28.18 95.7456 27.94 96.2136 27.52V28H98.1336V21.976ZM94.7376 26.548C93.8976 26.548 93.2856 25.924 93.2856 24.988C93.2856 24.064 93.8976 23.428 94.7376 23.428C95.5176 23.428 96.2136 24.064 96.2136 24.988C96.2136 25.924 95.5176 26.548 94.7376 26.548ZM107.32 21.796C106.384 21.796 105.664 22.192 105.184 22.816C104.776 22.156 104.056 21.796 103.216 21.796C102.436 21.796 101.848 22.072 101.44 22.528V21.976H99.5202V28H101.44V25.048C101.44 24.04 101.896 23.524 102.592 23.524C103.168 23.524 103.612 23.956 103.612 24.64V28H105.532V25.048C105.532 24.04 106 23.524 106.708 23.524C107.272 23.524 107.716 23.956 107.716 24.64V28H109.624V24.232C109.624 22.768 108.604 21.796 107.32 21.796ZM113.723 19.96V28H115.703V25.54H117.599C119.459 25.54 120.635 24.424 120.635 22.732C120.635 21.076 119.495 19.96 117.683 19.96H113.723ZM115.703 23.884V21.652H117.455C118.223 21.652 118.691 22.108 118.691 22.756C118.691 23.44 118.223 23.884 117.455 23.884H115.703ZM125.688 21.892C124.704 21.892 124.044 22.408 123.612 23.128V21.976H121.692V28H123.612V26.116C123.612 24.556 124.344 23.86 125.688 23.86H126.036L126.12 21.94C125.976 21.904 125.856 21.892 125.688 21.892ZM126.996 25.9C126.36 25.9 125.904 26.404 125.904 26.98C125.904 27.592 126.36 28.06 126.996 28.06C127.632 28.06 128.1 27.592 128.1 26.98C128.1 26.404 127.632 25.9 126.996 25.9ZM129.949 25.9C129.313 25.9 128.857 26.404 128.857 26.98C128.857 27.592 129.313 28.06 129.949 28.06C130.585 28.06 131.053 27.592 131.053 26.98C131.053 26.404 130.585 25.9 129.949 25.9ZM132.902 25.9C132.266 25.9 131.81 26.404 131.81 26.98C131.81 27.592 132.266 28.06 132.902 28.06C133.538 28.06 134.006 27.592 134.006 26.98C134.006 26.404 133.538 25.9 132.902 25.9Z" fill="white"/>
<g clip-path="url(#clip0_339_539)">
<path d="M151 26L146.757 21.757L148.172 20.343L151 23.172L153.828 20.343L155.243 21.757L151 26Z" fill="white"/>
</g>
<rect x="10" y="6" width="35" height="35" rx="7" fill="white"/>
<path d="M17.282 18.4757C17.6392 18.4757 17.9677 18.5293 18.2677 18.6364C18.5748 18.7364 18.8212 18.8757 19.0069 19.0543V20.5006C18.8212 20.3863 18.6105 20.2792 18.3748 20.1792C18.1391 20.0721 17.8856 20.0185 17.6142 20.0185C17.4427 20.0185 17.2892 20.0542 17.1535 20.1256C17.0249 20.1899 16.9606 20.2935 16.9606 20.4363C16.9606 20.5363 16.9999 20.6113 17.0785 20.6613C17.157 20.7113 17.3106 20.7649 17.5392 20.822L17.8713 20.9077C18.8212 21.1506 19.2962 21.6613 19.2962 22.4398C19.2962 22.7969 19.1891 23.1148 18.9748 23.3933C18.7677 23.6647 18.4927 23.879 18.1498 24.0361C17.8141 24.1861 17.4499 24.2611 17.057 24.2611C16.6499 24.2611 16.2714 24.204 15.9214 24.0897C15.5714 23.9683 15.2714 23.8219 15.0214 23.6505V22.2148C15.2786 22.3719 15.5678 22.5041 15.8892 22.6112C16.2178 22.7184 16.5106 22.7719 16.7678 22.7719C16.9749 22.7719 17.1249 22.7469 17.2177 22.6969C17.3177 22.6469 17.3677 22.5576 17.3677 22.4291C17.3677 22.3291 17.3106 22.2541 17.1963 22.2041C17.082 22.147 16.9178 22.0827 16.7035 22.0112L16.1571 21.8398C15.7571 21.7184 15.4643 21.5291 15.2786 21.272C15.0929 21.0077 15 20.6863 15 20.3078C15 19.9292 15.1 19.6042 15.3 19.3328C15.5 19.0614 15.7714 18.8507 16.1142 18.7007C16.4642 18.5507 16.8535 18.4757 17.282 18.4757Z" fill="black"/>
<path d="M17.2247 25.4808C17.6579 25.4808 18.0338 25.5461 18.3521 25.6766C18.6758 25.8018 18.9263 25.9793 19.1038 26.209C19.2864 26.4386 19.3778 26.7048 19.3778 27.0075C19.3778 27.2737 19.3125 27.5034 19.182 27.6965C19.0568 27.8896 18.8924 28.0436 18.6888 28.1584C18.8506 28.2159 19.002 28.2915 19.1429 28.3855C19.2838 28.4742 19.396 28.5917 19.4796 28.7378C19.5683 28.884 19.6127 29.0745 19.6127 29.3094C19.6127 29.6016 19.5187 29.8757 19.3308 30.1314C19.1429 30.382 18.8845 30.5855 18.5557 30.7421C18.2269 30.8935 17.8511 30.9692 17.4283 30.9692C17.1882 30.9692 16.9194 30.9561 16.6219 30.93C16.3244 30.9091 16.0399 30.8804 15.7685 30.8439C15.5023 30.8074 15.2857 30.7708 15.1187 30.7343V25.6844C15.437 25.6218 15.7737 25.5722 16.1286 25.5356C16.4836 25.4991 16.8489 25.4808 17.2247 25.4808ZM17.2795 26.804C17.0133 26.804 16.7811 26.8249 16.5827 26.8666V27.767H17.3187C17.4909 27.767 17.6371 27.7252 17.7571 27.6417C17.8772 27.5582 17.9372 27.4355 17.9372 27.2737C17.9372 27.1328 17.8746 27.0206 17.7493 26.9371C17.6292 26.8483 17.4727 26.804 17.2795 26.804ZM16.5827 29.5834C16.6923 29.6199 16.8228 29.646 16.9742 29.6617C17.1256 29.6721 17.243 29.6773 17.3265 29.6773C17.5405 29.6773 17.7128 29.6356 17.8432 29.5521C17.979 29.4685 18.0468 29.3459 18.0468 29.1841C18.0468 29.0275 17.9711 28.9153 17.8198 28.8474C17.6684 28.7796 17.4857 28.7456 17.2717 28.7456H16.5827V29.5834Z" fill="black"/>
<path d="M22.0819 25.6597C22.5566 25.6597 22.9786 25.7652 23.3478 25.9761C23.717 26.1871 24.0038 26.4838 24.2082 26.8662C24.4192 27.242 24.5247 27.6903 24.5247 28.2112V28.7947H21.093C21.1655 29.0386 21.3106 29.2199 21.5281 29.3386C21.7457 29.4573 21.9962 29.5166 22.2797 29.5166C22.6621 29.5166 22.9918 29.4639 23.2687 29.3584C23.5522 29.2463 23.7632 29.1507 23.9016 29.0716V30.5254C23.7302 30.6308 23.4929 30.7363 23.1896 30.8418C22.8929 30.9473 22.5566 31.0001 22.1808 31.0001C21.8248 31.0001 21.4787 30.9407 21.1424 30.822C20.8128 30.7034 20.5161 30.532 20.2524 30.3078C19.9886 30.0836 19.781 29.8133 19.6293 29.4968C19.4777 29.1738 19.4019 28.8112 19.4019 28.409C19.4019 27.9079 19.5172 27.4497 19.748 27.0343C19.9853 26.619 20.3051 26.286 20.7073 26.0355C21.1161 25.7849 21.5743 25.6597 22.0819 25.6597ZM22.0325 27.064C21.8149 27.064 21.627 27.1233 21.4688 27.242C21.3106 27.3541 21.1952 27.5288 21.1226 27.7662H22.9127C22.9127 27.5288 22.8204 27.3541 22.6358 27.242C22.4577 27.1233 22.2567 27.064 22.0325 27.064Z" fill="black"/>
<path d="M26.5285 25.6597C26.7922 25.6597 27.0494 25.719 27.2999 25.8377C27.557 25.9498 27.768 26.0948 27.9328 26.2728V25.808H29.6339V30.8517H27.9328V30.0111C27.8076 30.288 27.6164 30.5221 27.3592 30.7133C27.1021 30.9045 26.7922 31.0001 26.4296 31.0001C26.0538 31.0001 25.7011 30.9045 25.3714 30.7133C25.0418 30.5221 24.7715 30.2287 24.5605 29.8331C24.3561 29.4309 24.2539 28.9265 24.2539 28.32C24.2539 27.753 24.3561 27.2717 24.5605 26.8761C24.7715 26.4805 25.0484 26.1805 25.3912 25.9761C25.7406 25.7652 26.1197 25.6597 26.5285 25.6597ZM26.8845 27.3211C26.6406 27.3211 26.4362 27.42 26.2714 27.6178C26.1132 27.8156 26.034 28.0497 26.034 28.32C26.034 28.5903 26.1165 28.8178 26.2813 29.0024C26.4461 29.187 26.6637 29.2793 26.934 29.2793C27.079 29.2793 27.2274 29.243 27.379 29.1705C27.5307 29.0914 27.6592 28.976 27.7647 28.8243C27.8768 28.6661 27.9328 28.465 27.9328 28.2211V27.7365C27.7878 27.6178 27.623 27.5189 27.4384 27.4398C27.2604 27.3607 27.0757 27.3211 26.8845 27.3211Z" fill="black"/>
<path d="M31.1541 25.808V26.4607C31.3124 26.2432 31.4805 26.0553 31.6585 25.897C31.8365 25.7388 32.0937 25.6597 32.4299 25.6597C32.7661 25.6597 33.0661 25.7388 33.3299 25.897C33.5936 26.0487 33.8013 26.2761 33.9529 26.5794C34.1111 26.3157 34.3188 26.0981 34.5759 25.9267C34.8397 25.7487 35.1331 25.6597 35.4561 25.6597C35.9704 25.6597 36.389 25.8344 36.7121 26.1838C37.0418 26.5333 37.2066 27.0508 37.2066 27.7365V30.8517H35.5056L35.4957 28.0035C35.4957 27.753 35.4298 27.5783 35.2979 27.4794C35.1726 27.3739 35.0243 27.3211 34.8529 27.3211C34.7012 27.3211 34.5694 27.3673 34.4573 27.4596C34.3518 27.5519 34.2595 27.6574 34.1804 27.776V30.8517H32.4793L32.4695 28.0035C32.4695 27.753 32.4035 27.5783 32.2717 27.4794C32.1464 27.3739 31.9981 27.3211 31.8266 27.3211C31.675 27.3211 31.5464 27.3706 31.4409 27.4695C31.342 27.5618 31.2464 27.6739 31.1541 27.8057V30.8517H29.4531V25.808H31.1541Z" fill="black"/>
<path d="M24.9808 18.6365V21.9149C24.9808 22.4077 24.8665 22.8291 24.6379 23.1791C24.4165 23.5291 24.1094 23.7969 23.7165 23.9826C23.3237 24.1683 22.8737 24.2612 22.3666 24.2612C21.8595 24.2612 21.4095 24.1683 21.0167 23.9826C20.6238 23.7969 20.3131 23.5291 20.0846 23.1791C19.8632 22.8291 19.7524 22.4077 19.7524 21.9149V18.6365H21.5952L21.6059 21.4221C21.6059 21.7935 21.6631 22.0649 21.7773 22.2363C21.8988 22.4077 22.0952 22.4934 22.3666 22.4934C22.638 22.4934 22.8309 22.4077 22.9451 22.2363C23.0666 22.0649 23.1273 21.7935 23.1273 21.4221L23.138 18.6365H24.9808Z" fill="black"/>
<path d="M27.7666 18.6364V19.3435C27.938 19.1078 28.1451 18.9043 28.388 18.7328C28.638 18.5614 28.9451 18.4757 29.3094 18.4757C29.8665 18.4757 30.32 18.665 30.67 19.0435C31.0271 19.4221 31.2057 19.9828 31.2057 20.7256V24.1004H29.3629L29.3522 21.0149C29.3522 20.7435 29.2772 20.5542 29.1272 20.447C28.9772 20.3328 28.8094 20.2756 28.6237 20.2756C28.4237 20.2756 28.2559 20.3292 28.1201 20.4363C27.9844 20.5363 27.8666 20.6577 27.7666 20.8006V24.1004H25.9238V18.6364H27.7666Z" fill="black"/>
<path d="M32.157 17.7316L32.2267 15.6612L30.6522 16.6423L30.6595 15L29.1826 17.558C30.5608 17.8769 31.2407 18.2699 32.2887 19.3513L33.7656 16.7933L32.157 17.7316Z" fill="url(#paint0_linear_339_539)"/>
<path d="M38.7342 29.0991C38.621 29.0991 38.509 29.1214 38.4044 29.1647C38.2999 29.208 38.2049 29.2715 38.1249 29.3515C37.9633 29.5131 37.8726 29.7322 37.8726 29.9607C37.8726 30.1892 37.9633 30.4084 38.1249 30.57C38.2049 30.65 38.2999 30.7135 38.4044 30.7568C38.509 30.8001 38.621 30.8223 38.7342 30.8223C38.9627 30.8223 39.1818 30.7316 39.3434 30.57C39.505 30.4084 39.5958 30.1892 39.5958 29.9607C39.5958 29.8476 39.5735 29.7355 39.5302 29.631C39.4869 29.5265 39.4234 29.4315 39.3434 29.3515C39.2634 29.2715 39.1684 29.208 39.0639 29.1647C38.9594 29.1214 38.8473 29.0991 38.7342 29.0991ZM38.7342 30.65C38.3542 30.65 38.0449 30.3407 38.0449 29.9607C38.0449 29.5808 38.3542 29.2714 38.7342 29.2714C39.1141 29.2714 39.4235 29.5808 39.4235 29.9607C39.4235 30.3407 39.1141 30.65 38.7342 30.65ZM38.7557 30.0702H38.6316V30.3485H38.4757V29.5911H38.7566C38.8453 29.5911 38.9142 29.6109 38.9634 29.6506C39.0116 29.691 39.0357 29.7453 39.0357 29.8194C39.0357 29.8711 39.0245 29.9142 39.0021 29.9487C38.9797 29.9831 38.9461 30.0107 38.9005 30.0305L39.0642 30.3398V30.3485H38.897L38.7557 30.0702ZM38.6316 29.9444H38.7574C38.7962 29.9444 38.8264 29.934 38.8479 29.9142C38.8694 29.8944 38.8798 29.8668 38.8798 29.8315C38.8798 29.7962 38.8703 29.7686 38.8496 29.7479C38.8298 29.7272 38.7988 29.7178 38.7566 29.7178H38.6316V29.9444Z" fill="black"/>
<defs>
<filter id="filter0_d_339_539" x="0" y="0" width="177" height="55" filterUnits="userSpaceOnUse" color-interpolation-filters="sRGB">
<feFlood flood-opacity="0" result="BackgroundImageFix"/>
<feColorMatrix in="SourceAlpha" type="matrix" values="0 0 0 0 0 0 0 0 0 0 0 0 0 0 0 0 0 0 127 0" result="hardAlpha"/>
<feOffset dy="4"/>
<feGaussianBlur stdDeviation="2"/>
<feComposite in2="hardAlpha" operator="out"/>
<feColorMatrix type="matrix" values="0 0 0 0 0 0 0 0 0 0 0 0 0 0 0 0 0 0 0.25 0"/>
<feBlend mode="normal" in2="BackgroundImageFix" result="effect1_dropShadow_339_539"/>
<feBlend mode="normal" in="SourceGraphic" in2="effect1_dropShadow_339_539" result="shape"/>
</filter>
<linearGradient id="paint0_linear_339_539" x1="31.4741" y1="15" x2="31.4741" y2="19.3513" gradientUnits="userSpaceOnUse">
<stop offset="0.427083" stop-color="#FFD540"/>
<stop offset="1" stop-color="#FF9A02"/>
</linearGradient>
<clipPath id="clip0_339_539">
<rect width="24" height="24" fill="white" transform="translate(139 11)"/>
</clipPath>
</defs>
</svg>
