<svg width="178" height="178" viewBox="0 0 178 178" fill="none" xmlns="http://www.w3.org/2000/svg">
<path d="M178 89C178 138.153 138.153 178 89 178C39.8467 178 0 138.153 0 89C0 39.8467 39.8467 0 89 0C138.153 0 178 39.8467 178 89ZM25.0591 89C25.0591 124.314 53.6864 152.941 89 152.941C124.314 152.941 152.941 124.314 152.941 89C152.941 53.6864 124.314 25.0591 89 25.0591C53.6864 25.0591 25.0591 53.6864 25.0591 89Z" fill="#C4C4C4"/>
<path d="M89 0C108.702 2.34949e-07 127.848 6.53774 143.435 18.5884C159.023 30.639 170.171 47.5213 175.132 66.5889L144.986 74.4328C141.761 62.0389 134.515 51.0654 124.383 43.2324C114.251 35.3995 101.807 31.15 89 31.15V0Z" fill="#B763EB"/>
<path d="M174.762 65.2103C179.929 83.8381 178.891 103.642 171.804 121.627C164.717 139.612 151.967 154.801 135.482 164.897L119.213 138.333C129.929 131.771 138.216 121.898 142.823 110.208C147.429 98.5171 148.104 85.6447 144.745 73.5367L174.762 65.2103Z" fill="#46C2E6"/>
<path d="M149.032 154.705C144.659 158.7 139.899 162.249 134.821 165.298L118.784 138.594C122.084 136.612 125.178 134.305 128.021 131.708L149.032 154.705Z" fill="#E66346"/>
<path d="M136.489 164.271C116.526 176.866 92.3773 181.015 69.3552 175.805C46.3331 170.595 26.3237 156.453 13.7288 136.489L40.0737 119.868C48.2604 132.844 61.2665 142.037 76.2309 145.423C91.1952 148.81 106.892 146.113 119.868 137.926L136.489 164.271Z" fill="#4D6EE4"/>
<path d="M59.2937 172.896C39.5155 165.893 22.8474 152.127 12.2318 134.029C1.6163 115.932 -2.26406 94.6652 1.27581 73.9845C4.81567 53.3038 15.5481 34.5386 31.5785 21.0017C47.6089 7.46474 67.9064 0.0265029 88.8879 7.06249e-05L88.9271 31.15C75.2892 31.1672 62.0958 36.0021 51.676 44.8011C41.2563 53.6001 34.2802 65.7975 31.9793 79.2399C29.6784 92.6824 32.2006 106.506 39.1007 118.269C46.0008 130.033 56.8351 138.98 69.6909 143.532L59.2937 172.896Z" fill="#46E6A3"/>
</svg>
