<svg width="307" height="595" viewBox="0 0 307 595" fill="none" xmlns="http://www.w3.org/2000/svg">
<g opacity="0.4">
<path fill-rule="evenodd" clip-rule="evenodd" d="M1.5498 0.00194966C96.1141 -0.0192557 256.03 40.0432 257.55 98.4577L256.03 288.29C242.691 433.352 141.555 555.244 1.5498 595C-138.456 555.244 -239.591 433.352 -252.931 288.29L-254.45 98.4577C-254.234 52.7664 -93.0145 -0.0192557 1.5498 0.00194966Z" fill="#DFF6E4"/>
<path fill-rule="evenodd" clip-rule="evenodd" d="M5.95135 439.161L5.94533 439.125C7.20679 447.482 12.0161 454.578 20.3732 460.412C29.8341 466.877 41.6603 488.4 20.3732 488.4C14.7879 488.4 1.68791 485.905 -2.5695 481.226C-3.83096 479.965 -5.09241 477.126 -6.35387 472.711C-7.77301 468.612 -9.27098 465.852 -10.8478 464.433C-13.0553 472.948 -13.9266 491.828 -7.46169 505.073C-1.1544 517.845 0.895462 527.543 -1.31209 534.166C-7.61937 537.792 -20.5493 535.792 -40.1018 532.166C-44.0439 489.749 -44.99 426.344 -40.1018 350.815C-53.0317 347.976 -57.837 345.147 -63.3559 345.462C-71.8707 345.777 -89.4593 348.157 -94.6628 355.095C-117.684 385.212 -130.358 405.618 -134.142 413.817C-135.719 417.602 -140.765 436.752 -149.28 469.55C-148.964 472.231 -149.753 500.119 -149.28 502.641C-160.379 525.111 -171.276 518.376 -183.812 518.376C-183.181 513.488 -181.447 498.729 -175.77 491.16C-169.463 483.118 -172.538 469.164 -171.276 464.433C-170.488 460.964 -169.778 455.524 -169.148 448.113C-168.675 440.229 -168.044 434.474 -167.255 430.847C-156.06 380.389 -145.022 339.155 -134.142 307.145C-139.2 308.47 -154.67 315.192 -165.469 314.565C-182.95 313.55 -201.354 308.47 -198.641 299.969C-197.695 295.396 -195.015 292.873 -190.6 292.4C-189.811 292.243 -187.761 292.164 -184.45 292.164C-181.769 292.164 -179.562 291.927 -177.827 291.454C-170.865 289.771 -161.335 293.191 -153.719 291.454C-134.943 287.173 -118.23 276.896 -110.49 266.464C-98.3484 249.907 -80.5432 240.525 -77.0742 238.317C-70.2939 233.902 -70.2811 229.96 -57.0358 226.491C-39.06 221.761 6.55988 179.469 11.448 174.896C16.8092 169.85 19.7263 165.435 20.1994 161.651C20.6724 156.763 18.5437 147.933 13.8132 135.16C9.7135 123.807 9.08278 114.819 11.9211 108.197C12.0787 111.193 12.39 88.8019 18.382 80.2871C20.2741 77.4488 23.0336 73.8221 26.6603 69.407C31.0754 64.0458 33.9136 60.5768 35.1751 59C40.0632 60.4191 44.3206 64.9919 47.9473 72.7183C51.8894 81.3908 55.4372 86.6732 58.5908 88.5653C59.4791 88.3604 67.4617 84.894 72.8122 83.7149C79.8088 82.1729 87.5138 82.668 88.3179 80.5236C89.5794 76.7392 90.6043 73.9798 91.3927 72.2453C94.231 66.2534 98.0942 63.2574 102.982 63.2574C108.501 63.2574 115.282 66.1021 119.539 75.2477C120.327 76.9822 124.426 83.1674 130.418 100.355C138.933 124.638 140.038 146.513 138.934 155.974C135.465 185.619 130.892 204.383 125.215 212.267C124.585 212.897 122.693 213.607 119.539 214.395C117.016 215.026 115.676 216.209 115.518 217.943C116.779 223.305 130.908 236.031 133.904 246.123C137.058 256.53 139.265 264.335 140.527 269.538C145.1 287.829 146.282 304.544 144.075 319.681C142.655 329.3 141.867 344.358 141.709 364.857C141.552 386.617 140.921 402.464 139.817 412.398C139.344 417.129 138.319 423.436 136.742 431.32C134.693 440.939 133.431 447.325 132.958 450.478C130.593 465.616 131.066 478.703 134.377 489.741C141.788 499.202 151.869 513.077 154.55 527.899C154.55 539.146 123.708 542.541 108.744 525.736C105.113 521.658 102.705 497.58 105.228 476.766C106.489 465.255 103.55 445.354 101.501 424.697C99.293 401.676 95.9585 386.061 96.1161 379.439C96.5892 364.459 90.3678 340.169 85.0066 337.646C64.508 350.261 20.9251 361.388 18.7175 362.492C16.8254 363.596 15.7216 364.778 15.4062 366.04C9.37964 415.18 6.23035 439.56 5.95837 439.179L5.95135 439.161Z" fill="white"/>
<path fill-rule="evenodd" clip-rule="evenodd" d="M93.3126 248.525C95.3819 249.725 98.2213 242.706 96.9832 239.503C92.6219 228.222 88.4997 231.354 89.2224 236.868C89.9434 242.369 89.2224 246.153 93.3126 248.525Z" fill="#FFB61D"/>
<path fill-rule="evenodd" clip-rule="evenodd" d="M29.1973 51.7149C29.9649 49.9896 30.7325 48.2642 31.5576 46.5771C33.3606 42.8902 38.2299 41.7481 40.8786 44.3832C42.4442 45.9405 43.9973 47.511 45.5505 49.0815L45.5506 49.0816L45.5507 49.0817L45.5507 49.0817L45.5508 49.0818L45.5509 49.0819L45.5509 49.082L45.5511 49.0821L45.5513 49.0823L45.5517 49.0827L45.5527 49.0837C48.9443 52.5132 52.336 55.9426 55.8557 59.2352L56.3551 59.7073C60.8223 63.9742 64.5276 68.7293 67.0097 74.4059C67.2091 74.8619 67.1689 75.4227 67.1286 75.9835C67.11 76.2433 67.0913 76.5032 67.0965 76.7526C66.8266 76.7189 66.5298 76.7151 66.233 76.7112C65.5779 76.7027 64.9229 76.6942 64.556 76.3648C63.8613 75.7411 63.3049 74.9681 62.7467 74.1925L62.7467 74.1925L62.7466 74.1924L62.7466 74.1924L62.7465 74.1923L62.7465 74.1923C62.3961 73.7055 62.045 73.2176 61.6585 72.765C57.5908 68.0022 53.5002 63.2586 49.3787 58.5423C49.1868 58.3227 48.8442 58.2348 48.5015 58.1469C48.3422 58.106 48.1828 58.0651 48.0386 58.011C48.0474 58.1831 48.0461 58.3581 48.0447 58.5332V58.5333C48.0418 58.9127 48.0389 59.2922 48.1398 59.6416C48.4006 60.5444 48.7001 61.4395 48.9995 62.3342C49.5611 64.013 50.1223 65.6903 50.427 67.414C51.2347 71.9844 51.8225 76.6086 52.1527 81.2351C52.2028 81.936 51.2268 82.7754 50.3413 83.4624L49.7458 83.9182C49.588 84.0392 48.0482 83.0218 47.8728 82.3432C47.454 80.7225 47.1312 79.0771 46.8085 77.4316L46.8084 77.4313C46.4858 75.7863 46.1631 74.1413 45.7445 72.5212C45.543 71.7411 45.3449 70.9604 45.1468 70.1799L45.1468 70.1798C43.4728 63.5828 41.8037 57.0051 38.101 51.0494C36.3414 48.2189 35.3438 49.1551 34.3284 50.9648L32.8031 53.7007C30.9047 57.1263 29.033 60.575 27.145 64.0536L27.1441 64.0552L27.135 64.0721C25.5017 67.0813 23.8563 70.1129 22.171 73.1712C21.4768 74.6606 20.7615 76.1244 20.0519 77.5765C18.1335 81.5025 16.2572 85.3423 14.953 89.3676C13.335 94.362 11.5893 99.9028 12.2325 104.903C13.0901 111.57 18.4341 126.18 18.4341 126.18C24.6163 146.965 54.5928 186.503 67.074 194.198C78.5257 201.258 90.9287 205.802 104.571 206.334C112.231 206.633 118.74 203.664 125.033 199.806L125.931 199.249C130.999 196.068 134.284 192.04 134.754 185.81C135.115 181.026 135.572 176.248 136.029 171.47L136.029 171.47L136.029 171.469L136.029 171.469L136.029 171.469L136.029 171.469L136.029 171.469L136.029 171.468L136.029 171.468L136.029 171.468L136.029 171.468C136.784 163.568 137.54 155.669 137.86 147.752C138.206 139.196 137.6 130.521 136.525 122.012C135.568 114.431 133.928 106.919 132.221 99.4461L131.487 96.2455C127.538 79.0577 118.13 65.1832 104.922 53.7428C100.189 49.6425 96.1798 50.3186 93.1285 55.8034C91.8295 58.1384 90.5901 60.5065 89.3507 62.8746C88.0838 65.2952 86.8169 67.7158 85.4864 70.101C85.1608 70.6848 84.5153 71.09 83.8698 71.4953C83.5718 71.6824 83.2738 71.8694 83.0072 72.0741C82.9927 71.7523 82.9426 71.415 82.8926 71.0776C82.7843 70.348 82.676 69.6183 82.927 69.0463L83.3344 68.1174L83.3345 68.1171C85.403 63.3993 87.4762 58.6709 89.8838 54.1245C93.4103 47.4655 100.042 44.3088 107.107 49.6278C116.022 56.3383 123.196 64.7221 128.688 74.2599C131.5 79.1431 133.302 84.6435 135.088 90.0937L135.088 90.0937L135.088 90.094C135.456 91.2172 135.823 92.3382 136.198 93.4513L136.556 94.5255C139.858 104.561 142.102 114.865 142.838 125.431C143.072 128.786 142.984 132.165 142.896 135.542L142.896 135.542C142.868 136.604 142.84 137.665 142.822 138.725C142.794 140.4 142.777 142.075 142.759 143.751V143.751V143.751C142.704 148.809 142.65 153.869 142.321 158.909C142.06 162.91 141.65 166.902 141.241 170.893C140.756 175.615 140.272 180.336 140.033 185.071L140.006 185.526C138.996 200.475 125.68 208.73 114.37 211.515C104.57 213.929 94.0391 213.368 83.9553 209.486C72.4558 205.878 63.0225 199.038 54.1282 191.784C42.6268 182.405 13.6401 134.056 8.6537 116.828C5.68091 106.556 6.18532 96.8997 10.1714 87.0805C13.7106 78.362 18.3496 70.3701 23.5967 62.5789C25.8572 59.2225 27.5271 55.469 29.1973 51.7149ZM141.588 311.357L141.588 311.357C141.898 304.955 142.209 298.525 141.654 292.186C140.647 280.686 137.942 269.504 132.694 259.031C130.562 254.776 128.812 250.262 127.465 245.696C125.769 239.949 122.164 235.557 118.535 231.135C117.901 230.363 117.267 229.59 116.642 228.809C113.759 225.207 111.008 221.482 108.453 217.643C107.176 215.725 106.631 215.449 105.334 217.592C99.9409 226.504 87.5722 228.498 78.7504 222.925C64.3161 213.806 51.8854 202.33 39.4555 190.854L38.6432 190.104C32.8033 184.714 27.5921 178.595 24.958 170.78C24.6688 169.922 24.015 169.118 23.3511 168.474C22.876 168.014 22.2947 167.662 21.7134 167.311C21.4591 167.158 21.2048 167.004 20.9594 166.841C20.9788 167.118 20.9852 167.398 20.9916 167.678C21.0054 168.281 21.0192 168.884 21.1636 169.455C23.4156 178.345 28.6185 185.505 34.9221 191.849C42.5372 199.513 50.1774 207.197 58.3397 214.257C64.26 219.377 70.9104 223.708 77.5178 227.95C79.6839 229.341 82.4449 229.909 85.0907 230.454C85.4408 230.526 85.7889 230.598 86.1333 230.671C88.1817 231.105 88.809 232.011 88.8794 234.009C88.9028 234.672 88.91 235.341 88.9172 236.012C88.9571 239.725 88.9975 243.481 91.7932 246.495C93.002 247.798 94.5357 248.861 96.0843 249.748C96.5372 250.008 97.909 249.517 98.2538 248.981C101.634 243.723 103.219 238.118 98.1044 233.092C96.2475 231.267 98.3273 230.353 98.8755 230.186C101.671 229.33 103.205 227.261 104.757 225.167L104.757 225.167L104.757 225.167L104.758 225.167L104.758 225.166L104.758 225.166L104.758 225.166L104.758 225.166L104.758 225.166L104.758 225.166L104.758 225.166L104.758 225.165C105.085 224.725 105.412 224.284 105.752 223.853C106.095 223.417 107.689 223.241 107.873 223.512C109.524 225.935 111.278 228.293 113.032 230.651C117.517 236.679 122.003 242.709 124.766 249.832C125.472 251.654 126.186 253.472 126.899 255.291L126.9 255.293L126.9 255.294C129.041 260.75 131.182 266.206 133.126 271.732C137.4 283.885 138.275 296.47 137.417 309.248C137.299 310.991 137.177 312.735 137.054 314.479C136.532 321.918 136.009 329.362 135.904 336.809C135.769 346.389 136.153 355.987 136.623 365.562C136.84 369.978 137.266 374.383 137.691 378.789C137.958 381.551 138.225 384.314 138.44 387.08C139.309 398.235 137.477 409.148 135.52 420.072C134.746 424.394 134.308 428.779 133.871 433.161C133.751 434.36 133.631 435.559 133.504 436.756C132.151 449.558 130.985 462.434 132.624 475.231C132.908 477.445 133.077 479.693 133.246 481.945C133.781 489.061 134.319 496.222 138.494 502.517C139.893 504.626 141.539 506.728 143.515 508.263C144.463 509 145.293 509.533 146.053 510.021C148.734 511.744 150.557 512.916 153.72 520.529C157.05 528.545 153.358 531.37 150.987 533.184C150.468 533.581 150.012 533.93 149.707 534.274C150.469 535.671 154.503 535.384 156.026 534.274C160.853 530.76 160.853 524.367 158.813 518.666C156.569 512.4 153.6 507.065 147.514 504.704C141.494 502.368 139.618 497.297 138.783 491.971C137.335 482.726 135.986 473.366 135.874 464.039C135.78 456.268 136.677 448.469 137.57 440.698L137.57 440.697C137.736 439.258 137.901 437.819 138.06 436.382C139.289 425.274 140.571 414.154 142.41 403.136C143.711 395.336 143.162 387.609 142.614 379.886C142.436 377.384 142.258 374.882 142.144 372.378C141.814 365.196 141.249 358.025 140.683 350.854L140.683 350.853C140.317 346.206 139.95 341.559 139.648 336.908C139.525 335.014 139.628 333.106 139.737 331.093C139.795 330.015 139.854 328.908 139.882 327.756C140.07 326.132 140.298 324.559 140.522 323.017C140.92 320.283 141.303 317.647 141.418 314.999C141.471 313.789 141.529 312.577 141.588 311.364L141.588 311.363L141.588 311.362L141.588 311.362L141.588 311.361L141.588 311.36L141.588 311.36L141.588 311.359L141.588 311.358L141.588 311.358L141.588 311.357ZM94.7053 245.037C92.7952 243.229 92.7972 240.945 92.7993 238.657C92.8009 236.869 92.8025 235.079 91.8931 233.508C91.7519 233.264 92.4022 232.166 92.7792 232.111C93.3517 232.027 94.3122 232.331 94.574 232.781C95.2933 234.018 95.9107 235.314 96.5283 236.61L96.5286 236.611L96.5288 236.611L96.5289 236.612L96.529 236.612L96.5291 236.612L96.5292 236.612L96.5293 236.613L96.5294 236.613L96.5296 236.613L96.5297 236.613C96.8112 237.204 97.0927 237.795 97.3841 238.381C98.9221 241.472 97.6986 243.654 94.7053 245.037ZM-11.5393 504.993C-13.068 501.585 -14.3145 497.837 -14.6463 494.148C-15.4916 484.752 -16.1409 475.303 -16.1435 465.874C-16.1455 458.331 -15.7777 450.788 -15.4099 443.245V443.244V443.244V443.244V443.243V443.243V443.243V443.242V443.242V443.241V443.241V443.241L-15.4097 443.237L-15.4095 443.233C-15.2436 439.83 -15.0777 436.427 -14.9458 433.025C-14.8769 431.246 -14.8272 429.467 -14.7776 427.688C-14.742 426.415 -14.7065 425.142 -14.6639 423.87C-14.0435 405.328 -8.3714 388.284 1.02942 372.462C1.96809 370.882 5.004 369.462 6.84537 369.697C12.7441 370.452 18.3417 369.416 24.0058 368.368L24.0087 368.367L24.0141 368.366C25.0167 368.181 26.0213 367.995 27.0301 367.818C35.8476 366.277 44.3382 363.858 52.0743 359.489C58.5142 355.853 64.6464 351.651 70.7615 347.461L70.7617 347.461L70.762 347.461L70.7624 347.46C71.3269 347.074 71.8913 346.687 72.4557 346.301C77.0541 343.155 81.602 339.868 85.7737 336.191C88.1919 334.06 89.4726 335.237 90.39 337.036C94.3973 344.893 98.159 352.912 99.268 361.776C100.857 374.477 102.41 387.192 103.514 399.941C104.634 412.873 105.452 425.832 106.269 438.79C106.428 441.309 106.587 443.829 106.748 446.348C107.346 455.687 107.799 465.035 108.221 474.384C108.554 481.76 108.038 488.96 106.682 496.355C105.045 505.289 104.856 514.965 108.73 523.521C112.182 531.146 118.66 536.155 127.372 537.095C132.38 537.635 135.984 532.239 133.268 527.929C131.869 525.708 129.619 523.997 127.406 522.314C126.795 521.849 126.187 521.387 125.601 520.917C125.236 520.624 124.526 520.763 123.815 520.902L123.814 520.902C123.487 520.966 123.159 521.03 122.865 521.051C122.973 521.314 123.066 521.587 123.159 521.86C123.365 522.466 123.571 523.071 123.938 523.554C124.331 524.071 124.811 524.542 125.289 525.009C126.056 525.761 126.816 526.505 127.185 527.417C127.673 528.624 127.449 530.569 126.732 531.647C126.287 532.315 123.967 532.544 123.109 531.997C117.651 528.515 112.932 524.39 111.959 517.37C111.804 516.256 111.453 515.148 111.103 514.047C110.607 512.484 110.115 510.934 110.198 509.4C110.465 504.414 111.013 499.443 111.561 494.472L111.561 494.472C111.826 492.064 112.092 489.656 112.325 487.247L112.362 486.871L112.362 486.871C112.641 483.994 112.922 481.106 112.947 478.221C113.033 468.724 113.081 459.225 112.974 449.729L112.957 448.177C112.802 434.419 112.647 420.657 112.197 406.907C112 400.888 111.344 394.879 110.689 388.88C110.589 387.967 110.49 387.054 110.392 386.141C109.659 379.322 108.866 372.501 107.8 365.729C105.992 354.247 102.784 343.195 96.7463 333.133C95.7745 331.513 96.1193 328.723 100.411 329.11C102.601 329.307 106.488 330.069 109.897 330.737C113.171 331.378 116.003 331.933 116.462 331.817C116.012 331.054 107.197 327.094 103.165 326.757C93.3877 325.94 85.5833 330.76 77.944 336.187C77.3045 336.642 76.6652 337.097 76.0258 337.553L76.0244 337.554C66.1805 344.566 56.3064 351.6 44.7086 355.625C36.549 358.458 28.2758 360.784 19.5794 361.324C17.9205 361.427 16.2725 361.692 14.6235 361.957L14.6223 361.957C13.5004 362.137 12.378 362.318 11.2513 362.447C10.8278 362.496 10.3812 362.344 9.93469 362.192C9.72905 362.122 9.52341 362.052 9.32002 362.002C9.40999 361.841 9.49344 361.675 9.57689 361.509C9.76071 361.143 9.94453 360.778 10.1979 360.469C10.9957 359.497 11.8206 358.536 12.7095 357.65C31.3895 339.022 45.9617 313.444 45.8373 312.429C45.4505 312.684 43.489 315.235 41.0819 318.366L41.0786 318.37L41.0781 318.371C38.2157 322.094 34.7242 326.635 32.5014 329.11C23.0953 339.582 13.3379 349.748 3.50697 359.828C-7.73607 371.356 -14.6116 385.13 -18.11 400.673C-19.9031 408.639 -21.3013 416.646 -20.7434 424.95C-20.3377 430.988 -20.2623 437.049 -20.1869 443.109C-20.1554 445.637 -20.1239 448.166 -20.0685 450.693C-20.0377 452.096 -20.0063 453.498 -19.9749 454.901L-19.9748 454.906C-19.8282 461.456 -19.6817 468.005 -19.5979 474.556C-19.5974 474.593 -19.597 474.644 -19.5964 474.708C-19.5809 476.486 -19.4757 488.487 -16.1435 500.334C-13.511 509.694 -8.46689 518.984 -6.48434 522.635L-6.4832 522.637C-6.09317 523.356 -5.82184 523.855 -5.71089 524.094C-4.29723 527.137 -4.39755 529.112 -7.12454 529.459C-9.43607 529.754 -12.3728 529.427 -13.1234 525.729L-13.1643 525.526C-13.3605 524.551 -13.5676 523.521 -14.0844 522.723C-14.387 522.255 -14.9461 521.954 -15.5051 521.653L-15.5054 521.653L-15.5056 521.652C-15.7538 521.519 -16.002 521.385 -16.2277 521.237C-16.2845 521.381 -16.1581 521.886 -15.9817 522.591C-15.3387 525.159 -14.0324 530.376 -18.5226 530.433C-23.0773 530.49 -22.8271 527.892 -22.6703 526.264C-22.6451 526.002 -22.6222 525.765 -22.6222 525.568V525.524C-22.6221 524.104 -22.6219 522.004 -23.8101 521.81C-26.455 521.378 -26.5779 523.934 -26.6665 525.775L-26.6673 525.791C-26.6892 526.249 -26.6765 526.708 -26.664 527.16C-26.6111 529.07 -26.5615 530.859 -29.148 531.969C-31.994 533.19 -34.1025 532.365 -35.9378 530.499C-37.8779 528.527 -37.3251 526.383 -35.5057 524.555C-31.7852 520.815 -31.9345 515.894 -32.1319 511.357C-32.5301 502.21 -33.2731 493.077 -34.0159 483.945C-34.2143 481.508 -34.4126 479.07 -34.6043 476.632C-34.8761 473.178 -35.2016 469.727 -35.5272 466.277C-35.8191 463.184 -36.111 460.091 -36.3641 456.994C-36.7436 452.352 -37.0983 447.707 -37.453 443.062C-37.867 437.641 -38.281 432.22 -38.7345 426.802C-38.8716 425.164 -39.0965 423.529 -39.3212 421.896C-39.6568 419.457 -39.9921 417.02 -40.0345 414.576C-40.0982 410.904 -39.9307 407.229 -39.7631 403.553V403.552V403.552V403.552V403.552V403.551V403.551V403.551V403.551V403.55V403.55V403.55C-39.6677 401.456 -39.5723 399.363 -39.5195 397.269C-39.4758 395.536 -39.4819 393.8 -39.4879 392.065C-39.4965 389.614 -39.505 387.165 -39.3735 384.722C-39.2546 382.515 -39.1826 380.296 -39.1105 378.076V378.076C-38.907 371.804 -38.7031 365.523 -37.4416 359.468C-36.5054 354.975 -33.2853 346.541 -31.0468 340.677C-29.7656 337.321 -28.8059 334.807 -28.7799 334.357C-29.7063 335.098 -36.5765 346.138 -38.7737 351.056L-38.8162 351.151C-40.9133 355.846 -41.0225 356.09 -45.5961 354.099C-54.4586 350.24 -63.6632 347.665 -73.2564 346.518C-73.9177 346.439 -74.5946 346.506 -75.273 346.572C-75.8579 346.629 -76.4439 346.687 -77.0219 346.651C-77.654 346.612 -78.2764 346.416 -78.8988 346.22C-79.1763 346.133 -79.4537 346.046 -79.732 345.972C-79.5399 345.734 -79.3616 345.475 -79.1833 345.216C-78.7955 344.652 -78.4077 344.088 -77.8768 343.746C-76.2995 342.73 -74.6868 341.768 -73.0742 340.807C-71.4742 339.853 -69.8742 338.899 -68.3087 337.892C-65.1174 335.838 -63.1534 334.461 -60.487 332.591L-60.4858 332.59L-60.4854 332.59C-59.8492 332.143 -59.173 331.669 -58.4305 331.151C-57.9205 330.795 -55.9597 328.772 -55.648 328.131C-56.316 327.927 -76.6006 334.707 -83.14 342.895C-88.8247 350.012 -94.1694 357.417 -99.3856 364.889C-105.915 374.242 -112.231 383.746 -118.505 393.274L-119.051 394.104L-119.98 395.513C-125.141 403.345 -130.307 411.183 -135.094 419.24L-135.621 420.126C-139.832 427.21 -144.096 434.383 -147.079 442.005C-151.263 452.701 -154.797 463.704 -155.009 475.498C-155.066 478.685 -155.537 481.862 -156.009 485.042L-156.009 485.042C-156.397 487.654 -156.785 490.268 -156.943 492.891C-157.32 499.121 -155.893 505.114 -153.668 510.989C-153.239 512.122 -153.799 513.662 -154.33 515.122L-154.33 515.123L-154.33 515.124L-154.33 515.124L-154.33 515.125L-154.331 515.125C-154.489 515.562 -154.646 515.992 -154.772 516.402C-154.852 516.662 -156.103 516.729 -156.764 516.612C-159.121 516.193 -159.619 514.555 -159.874 512.356C-160.085 510.538 -160.848 508.764 -161.592 507.035C-161.686 506.816 -161.78 506.599 -161.873 506.381C-162.052 505.96 -163.252 505.531 -163.621 505.741C-164.12 506.025 -164.503 506.914 -164.524 507.558C-164.545 508.211 -164.476 508.877 -164.408 509.54C-164.306 510.53 -164.205 511.514 -164.404 512.439C-164.737 513.99 -165.639 515.523 -166.652 516.77C-167.016 517.218 -169.161 517.033 -169.243 516.759C-169.569 515.68 -169.645 514.523 -169.72 513.37L-169.725 513.293C-169.734 513.166 -169.742 513.04 -169.751 512.913C-169.761 512.76 -169.772 512.608 -169.785 512.455C-169.798 512.286 -169.763 512.113 -169.728 511.939C-169.691 511.755 -169.653 511.571 -169.675 511.394C-169.842 510.026 -170.03 508.66 -170.219 507.294L-170.219 507.293L-170.219 507.292L-170.219 507.292L-170.219 507.291L-170.219 507.29L-170.22 507.289L-170.226 507.244C-170.289 506.787 -170.352 506.329 -170.415 505.871C-170.698 506.207 -170.982 506.543 -171.266 506.879L-171.271 506.884C-172.266 508.061 -173.261 509.238 -174.239 510.43C-174.302 510.507 -174.3 510.643 -174.298 510.776C-174.295 510.912 -174.293 511.046 -174.361 511.112C-174.673 511.417 -174.978 511.743 -175.283 512.071C-176.157 513.007 -177.036 513.949 -178.117 514.41C-178.669 514.646 -180.809 512.943 -180.953 511.941C-181.18 510.361 -180.872 508.101 -179.846 507.05C-175.1 502.184 -171.976 496.407 -170.523 489.953C-169.793 486.707 -169.517 483.362 -169.241 480.014C-169.064 477.866 -168.887 475.716 -168.59 473.589C-168.454 472.618 -168.318 471.646 -168.183 470.674C-166.762 460.497 -165.341 450.316 -163.595 440.193C-162.293 432.644 -160.789 425.13 -159.286 417.615C-158.529 413.83 -157.772 410.045 -157.04 406.255C-156.936 405.718 -157.019 405.132 -157.099 404.57L-157.1 404.562L-157.106 404.516C-157.113 404.469 -157.12 404.421 -157.126 404.374C-158.633 393.389 -156.552 382.685 -154.022 372.148L-153.58 370.306L-153.58 370.306L-153.579 370.305L-153.579 370.304L-153.579 370.304L-153.579 370.303L-153.579 370.302L-153.578 370.302L-153.578 370.301L-153.578 370.301L-153.578 370.3L-153.578 370.299C-150.351 356.85 -147.111 343.346 -142.633 330.294C-139.958 322.495 -136.344 315.019 -132.73 307.543C-131.148 304.272 -129.567 301.001 -128.064 297.703C-127.5 296.463 -126.948 295.217 -126.397 293.97C-125.01 290.834 -123.623 287.697 -122.023 284.674L-121.544 283.771C-117.951 276.981 -114.348 270.174 -110.258 263.685C-105.164 255.603 -98.9979 248.207 -90.8914 243.044C-84.3405 238.871 -77.2978 235.356 -70.1799 232.214C-62.3185 228.743 -54.3075 225.61 -46.298 222.477L-46.2891 222.473C-43.8805 221.531 -41.4721 220.589 -39.0679 219.638C-37.4507 218.998 -35.8059 218.428 -34.1612 217.857L-34.1609 217.857C-32.2695 217.201 -30.3783 216.545 -28.53 215.784C-27.9682 215.553 -27.5788 214.903 -27.1893 214.253C-27.0102 213.954 -26.8311 213.655 -26.6352 213.397C-26.921 213.391 -27.2124 213.365 -27.5037 213.338C-28.1295 213.281 -28.7553 213.224 -29.3261 213.374C-44.7605 217.453 -59.3396 223.749 -73.9326 230.051L-73.9428 230.055C-76.1826 231.023 -78.4228 231.99 -80.6664 232.95C-92.0001 237.796 -101.641 244.671 -109.045 254.389C-113.67 260.459 -118.134 266.84 -121.438 273.677C-125.079 281.211 -131.288 285.306 -138.166 288.497C-146.229 292.239 -154.746 295.23 -163.896 294.452C-169.053 294.014 -174.18 293.158 -179.296 292.305L-179.297 292.305L-179.321 292.3C-179.931 292.199 -180.541 292.097 -181.15 291.996C-187.183 290.997 -194.871 294.494 -193.568 301.059C-192.747 305.196 -189.722 307.246 -186.232 308.18C-184.943 308.525 -183.653 308.887 -182.362 309.249C-174.444 311.47 -166.464 313.709 -158.113 312.265C-154.042 311.561 -150.048 310.417 -146.052 309.273C-144.118 308.719 -142.185 308.165 -140.242 307.661C-139.704 307.521 -139.142 307.473 -138.58 307.426L-138.579 307.426L-138.578 307.425L-138.578 307.425L-138.577 307.425L-138.577 307.425L-138.576 307.425L-138.576 307.425L-138.575 307.425L-138.575 307.425L-138.574 307.425C-138.313 307.402 -138.051 307.38 -137.792 307.349C-137.832 307.46 -137.87 307.572 -137.907 307.685C-137.937 307.776 -137.967 307.869 -137.996 307.961C-138.138 308.4 -138.28 308.84 -138.479 309.252C-146.025 324.874 -151.667 341.128 -155.033 358.174C-155.709 361.599 -156.499 365.001 -157.288 368.404L-157.289 368.406C-158.275 372.653 -159.26 376.9 -160.024 381.186C-160.684 384.887 -161.02 388.644 -161.356 392.403L-161.356 392.403L-161.356 392.404L-161.356 392.404L-161.356 392.405L-161.356 392.405L-161.356 392.406L-161.356 392.406L-161.356 392.407L-161.357 392.408L-161.357 392.408L-161.357 392.409C-161.543 394.492 -161.729 396.576 -161.971 398.651C-162.095 399.72 -162.217 400.79 -162.338 401.86L-162.34 401.875V401.875C-162.876 406.596 -163.413 411.321 -164.201 416.001C-165.094 421.311 -166.062 426.608 -167.031 431.905L-167.031 431.91L-167.032 431.913L-167.033 431.918L-167.033 431.921C-168.438 439.608 -169.843 447.294 -171.019 455.016C-171.778 460.007 -172.199 465.049 -172.619 470.092C-172.906 473.536 -173.193 476.98 -173.589 480.41C-174.648 489.597 -176.635 498.459 -183.518 505.402C-186.057 507.964 -186.366 512.463 -184.574 515.502C-182.608 518.835 -179.509 519.972 -175.265 519.004C-174.419 518.811 -173.371 518.578 -172.653 518.897C-168.978 520.531 -165.452 521.839 -161.969 518.382C-161.687 518.102 -160.029 518.962 -159.178 519.54C-153.526 523.382 -148.684 519.581 -148.438 513.683C-148.35 511.556 -148.79 509.286 -149.513 507.269C-152.422 499.152 -152.362 490.851 -151.526 482.451C-151.333 480.512 -151.2 478.563 -151.066 476.615C-150.83 473.161 -150.593 469.71 -150.026 466.312C-147.604 451.811 -142.172 438.381 -134.305 426.005C-123.467 408.956 -112.483 391.999 -101.402 375.108C-99.0485 371.522 -96.5289 368.045 -94.009 364.567L-94.0084 364.567L-94.0077 364.566C-91.9852 361.775 -89.9624 358.983 -88.0254 356.135C-85.1728 351.94 -81.033 352.363 -77.2351 352.752C-76.6153 352.815 -76.0045 352.878 -75.41 352.919C-68.4954 353.4 -62.0541 355.771 -55.6094 358.144L-55.6089 358.144L-55.6085 358.144L-55.608 358.145L-55.6076 358.145L-55.6071 358.145L-55.6067 358.145L-55.6062 358.145L-55.6057 358.145L-55.6053 358.146L-55.6048 358.146L-55.6044 358.146C-52.6157 359.246 -49.6264 360.347 -46.5886 361.259C-42.3771 362.523 -42.731 364.968 -43.0989 367.509C-43.1739 368.027 -43.2494 368.549 -43.2871 369.065C-43.4514 371.32 -43.6973 373.57 -43.9432 375.819L-43.9433 375.821C-44.2444 378.575 -44.5454 381.328 -44.6966 384.09C-44.7428 384.934 -44.7892 385.778 -44.8357 386.622L-44.8372 386.648C-45.3722 396.363 -45.9077 406.085 -45.9922 415.807C-46.0227 419.327 -45.5877 422.849 -45.1523 426.373L-45.1522 426.373C-44.8977 428.433 -44.6431 430.494 -44.4812 432.556C-44.0831 437.628 -43.7214 442.704 -43.3597 447.779L-43.3595 447.781C-42.8694 454.658 -42.3793 461.535 -41.7986 468.404C-41.5827 470.957 -41.3867 473.515 -41.1907 476.073L-41.1904 476.076L-41.1902 476.079L-41.19 476.081L-41.1897 476.084L-41.1895 476.087L-41.1893 476.09L-41.1891 476.092L-41.1888 476.095L-41.1886 476.098L-41.1884 476.101L-41.1881 476.103C-40.5041 485.026 -39.8193 493.957 -38.3011 502.738C-36.8781 510.968 -38.4269 518.193 -41.4066 525.568C-43.1051 529.771 -38.9637 535.635 -34.1057 535.683C-33.6512 535.688 -33.1754 535.72 -32.6906 535.753L-32.6897 535.753C-30.227 535.919 -27.5366 536.101 -26.2664 532.765C-26.161 532.488 -24.395 532.353 -24.109 532.714C-22.5715 534.652 -20.6817 534.445 -18.7979 534.238C-18.1214 534.164 -17.4456 534.09 -16.7872 534.115C-16.1187 534.141 -15.4436 534.124 -14.7692 534.108C-13.5465 534.078 -12.3262 534.048 -11.1517 534.27C-7.47786 534.968 -4.35411 533.841 -2.11557 531.199C0.0712585 528.619 -0.52919 525.554 -2.49522 522.597C-3.16313 521.341 -3.83231 520.097 -4.49741 518.86L-4.498 518.859L-4.4986 518.858L-4.49919 518.857L-4.49979 518.856L-4.50038 518.855L-4.50098 518.854L-4.50157 518.853L-4.50217 518.852C-6.99838 514.212 -9.43756 509.678 -11.5393 504.993ZM-189.776 300.788C-189.522 300.42 -189.29 299.983 -189.057 299.546C-188.545 298.583 -188.033 297.62 -187.298 297.4C-184.82 296.658 -181.988 296.02 -179.525 296.498C-169.595 298.427 -159.749 300.306 -149.786 296.806C-148.951 296.512 -148.111 296.225 -147.272 295.937L-147.272 295.937C-140.65 293.67 -134.033 291.404 -129.019 286.028C-128.823 285.818 -128.497 285.731 -128.17 285.643C-128.018 285.603 -127.866 285.562 -127.727 285.509C-127.713 285.729 -127.671 285.963 -127.63 286.197C-127.54 286.701 -127.451 287.206 -127.635 287.574C-129.58 291.461 -131.564 295.336 -133.726 299.105C-134.284 300.077 -135.404 301.001 -136.466 301.365C-137.973 301.882 -139.478 302.418 -140.983 302.954L-140.987 302.956C-145.905 304.708 -150.832 306.463 -155.895 307.578C-163.965 309.354 -172.145 307.864 -179.997 305.786C-180.636 305.617 -181.311 305.486 -182.001 305.352C-184.824 304.802 -187.903 304.203 -189.776 300.788ZM107.706 157.568C113.085 160.232 118.579 161.659 124.218 160.485C126.015 160.11 128.185 157.79 128.746 155.926C130.167 151.209 131.065 146.325 131.96 141.458L131.96 141.456C132.063 140.898 132.165 140.34 132.269 139.783C133.038 135.634 130.529 133.062 127.067 131.996C119.63 129.708 112.058 128.573 104.707 132.564C96.1651 137.201 97.0773 149.754 102.54 153.648C103.864 154.591 105.15 155.588 106.536 156.663C106.918 156.958 107.306 157.26 107.706 157.568ZM106.122 138.175C106.228 138.058 106.333 137.91 106.438 137.762C106.665 137.44 106.893 137.118 107.133 137.109C108.194 137.067 109.259 137.133 110.324 137.198L110.324 137.198C110.715 137.223 111.106 137.247 111.497 137.266C111.344 137.571 111.186 137.875 111.028 138.178C110.674 138.856 110.32 139.534 110.034 140.239C109.574 141.373 109.168 142.53 108.762 143.686L108.762 143.686L108.762 143.686C108.63 144.064 108.498 144.441 108.363 144.818C108.203 145.269 108.053 145.724 107.904 146.18L107.904 146.18L107.904 146.18L107.904 146.18L107.904 146.18L107.904 146.181L107.904 146.181L107.904 146.181L107.904 146.181L107.904 146.181C107.836 146.387 107.769 146.593 107.7 146.799C107.498 146.691 107.285 146.595 107.071 146.499C106.608 146.29 106.145 146.081 105.798 145.751C103.328 143.401 104.296 140.975 106.122 138.175ZM0.779465 392.831C0.841629 391.977 0.904282 391.116 0.968109 390.248C1.08357 389.816 1.24022 389.505 1.37389 389.239C1.48428 389.02 1.57903 388.832 1.62195 388.632C1.94753 387.12 2.25594 385.604 2.56433 384.088L2.56451 384.088L2.5647 384.087L2.56488 384.086L2.56506 384.085L2.56525 384.084L2.56543 384.083L2.56561 384.083L2.5658 384.082C3.23903 380.773 3.91216 377.464 4.76271 374.202C4.80995 374.021 4.84541 373.802 4.88358 373.566C5.08089 372.35 5.35034 370.688 7.69009 371.465C10.0875 372.261 9.87482 373.422 9.48932 375.527L9.46619 375.654L9.43187 375.842C7.97893 383.896 6.96147 392.04 6.07585 400.181C5.39809 406.412 5.05728 412.686 4.76849 418.951C4.66347 421.229 4.5144 423.513 4.36528 425.798L4.36519 425.8L4.3651 425.802L4.36501 425.803L4.36491 425.805L4.36482 425.807L4.36473 425.808L4.36464 425.81L4.36455 425.812C3.94038 432.313 3.51564 438.823 4.097 445.236C4.81865 453.196 9.71588 459.513 16.7603 463.746C23.4529 467.768 29.824 471.997 32.475 480.006C34.1117 484.951 32.5156 488.463 27.941 488.596C27.0973 488.621 26.2414 488.227 25.3854 487.833C24.9925 487.653 24.5996 487.472 24.2078 487.332C24.5031 487.005 24.7803 486.628 25.0576 486.251C25.6721 485.417 26.2867 484.582 27.097 484.289C29.2841 483.498 29.4404 482.964 28.5631 480.681C26.7546 475.975 23.9849 472.423 19.6426 469.914C12.7232 465.916 6.62064 460.875 2.85394 453.736C-1.75969 444.992 -3.92018 435.641 -2.50107 425.634C-1.64764 419.616 -1.01717 413.563 -0.416534 407.513C0.0607758 402.705 0.411636 397.884 0.779465 392.831ZM-27.3847 253.327C-25.2502 241.137 -23.1728 229.311 -20.9155 217.518C-19.3804 209.498 -13.7413 204.58 -7.48492 200.045C-6.74785 199.511 -6.00343 198.98 -5.25717 198.447C-1.01656 195.419 3.2832 192.349 6.63202 188.504C12.453 181.82 22.137 165.856 21.6648 157.527C21.35 151.977 19.4044 145.519 19.4044 145.519C19.4044 145.519 20.344 157.001 19.4044 160.504C16.095 172.841 7.05838 182.618 -1.27437 189.168C-3.19188 190.676 -5.17696 192.112 -7.16107 193.547C-11.07 196.375 -14.9751 199.2 -18.3524 202.561C-21.6246 205.818 -24.2595 210.096 -24.9414 215.301C-25.3317 218.28 -25.813 221.228 -26.296 224.186C-27.2711 230.159 -28.2531 236.174 -28.5066 242.568C-28.7975 249.905 -32.7527 260.583 -34.6375 265.671L-34.6376 265.672L-34.6377 265.672C-35.241 267.3 -35.6322 268.356 -35.623 268.547C-34.9391 268.291 -29.8802 259.471 -28.0384 255.315C-27.8026 254.783 -27.5889 254.241 -27.3847 253.327ZM34.3301 91.1147C42.0716 87.3751 49.9014 83.8186 58.0819 80.1873C61.9721 79.2264 65.6479 78.2694 69.2734 77.3256L69.2739 77.3254L69.2744 77.3253C70.4785 77.0118 71.6771 76.6998 72.8761 76.3895C81.4154 74.1799 90.0253 74.4187 98.4235 76.6773C102.27 77.7116 105.943 79.4059 109.606 81.0952L109.607 81.0955L109.607 81.0955L109.607 81.0955L109.607 81.0955L109.607 81.0955L109.607 81.0955C110.719 81.6084 111.83 82.1208 112.945 82.6141C113.313 82.7772 113.477 83.403 113.641 84.0288C113.717 84.3189 113.793 84.6091 113.889 84.8531C113.633 84.9057 113.376 84.974 113.119 85.0422C112.521 85.2008 111.924 85.3594 111.34 85.3212C110.946 85.2955 110.573 85.0607 110.194 84.8221L110.194 84.8221C109.953 84.6706 109.71 84.5175 109.458 84.4156C102.192 81.4808 94.6317 79.7 86.8143 79.4838C74.5678 79.1451 62.9514 82.1794 51.7381 86.8646C49.1333 87.9529 46.559 89.1143 43.9847 90.2756C41.3671 91.4564 38.7494 92.6373 36.0998 93.7414C35.3482 94.0546 34.4528 94.0229 33.5574 93.9911C33.1447 93.9765 32.7321 93.9618 32.3335 93.9809C32.5405 93.6707 32.725 93.3138 32.9095 92.9569L32.9095 92.9568L32.9096 92.9567C33.3077 92.1865 33.7057 91.4163 34.3301 91.1147ZM76.6124 116.276C77.3808 113.543 74.3752 113.504 71.8169 113.813C66.5638 114.449 61.2592 114.657 55.9542 114.866C53.7745 114.951 51.5948 115.037 49.4185 115.152C48.918 115.178 48.2124 115.149 47.4936 115.119L47.4933 115.119H47.4931H47.4929H47.4927H47.4926C45.9043 115.052 44.2518 114.983 44.6037 115.509C52.2422 126.936 73.6155 126.936 76.6124 116.276ZM124.06 166.457C125.236 173.305 123.601 177.693 116.107 179.4C113.439 180.008 110.132 178.348 108.267 177.308C105.374 175.695 102.583 173.899 99.7909 172.103L99.7903 172.102C98.8544 171.5 97.9184 170.898 96.9784 170.302C97.0679 171.18 94.5071 177.133 92.7887 178.203C91.6007 177.348 91.1247 176.498 90.6226 175.602C90.4626 175.317 90.3 175.027 90.1109 174.73C89.8297 174.29 89.7096 173.748 89.5891 173.204C89.5276 172.927 89.4659 172.648 89.3825 172.383C89.1052 171.5 89.0237 170.521 88.9421 169.541C88.7316 167.012 88.5207 164.48 84.9395 163.581C84.7899 163.544 84.605 163.52 84.4063 163.494C83.52 163.38 82.358 163.231 82.8141 161.667C83.3725 159.753 84.9418 160.263 85.6563 160.523C88.7124 161.634 91.7001 162.987 94.5926 164.483C97.989 166.241 101.36 168.048 104.731 169.855L104.732 169.855L104.732 169.856L104.733 169.856L104.734 169.857L104.735 169.857L104.736 169.858L104.737 169.858L104.738 169.859C107.882 171.544 111.026 173.229 114.19 174.874C117.344 176.514 119.719 174.424 121.773 171.853C123.267 169.983 122.916 166.575 122.705 164.53C122.624 163.745 122.564 163.161 122.637 162.941C123.38 163.677 123.916 165.619 124.06 166.457ZM96.8137 170.198L96.9784 170.302C96.9739 170.258 96.9629 170.227 96.9449 170.21C96.9166 170.183 96.8721 170.18 96.8137 170.198ZM96.8137 170.198C96.0861 169.738 95.356 169.282 94.6215 168.834C93.9166 168.403 93.0959 168.163 92.2752 167.922C91.8974 167.811 91.5195 167.7 91.153 167.571C91.3525 168.134 91.4784 168.936 91.6128 169.792C91.8429 171.257 92.0977 172.879 92.7887 173.728C92.9325 173.905 93.8129 173.006 94.7299 172.07L94.73 172.07C95.5772 171.205 96.4557 170.308 96.8137 170.198ZM-10.6384 457.413C-10.6738 456.737 -10.6953 456.093 -10.716 455.473C-10.7646 454.019 -10.8089 452.695 -11.0177 451.398C-11.1055 450.852 -11.5222 450.359 -11.9389 449.866C-12.1283 449.642 -12.3177 449.418 -12.4762 449.189C-12.6355 449.416 -12.8413 449.645 -13.047 449.874C-13.4894 450.366 -13.9318 450.858 -13.913 451.332C-13.5056 461.629 -12.9994 472.075 -8.09125 481.317C-6.17226 484.93 -2.11763 487.723 1.53435 489.958C3.11696 490.926 6.7211 490.306 8.3773 489.049C11.05 487.022 11.2894 483.437 9.65096 480.503C8.50726 478.454 6.53238 476.774 4.64471 475.291C4.21686 474.955 3.37125 475.15 2.52563 475.346C2.13902 475.435 1.75241 475.525 1.40573 475.563C1.56328 475.803 1.71407 476.049 1.86485 476.295C2.19847 476.84 2.53207 477.384 2.93901 477.866C3.34169 478.344 3.79549 478.793 4.248 479.24L4.24828 479.241L4.24855 479.241L4.24873 479.241C5.09898 480.082 5.9447 480.919 6.43874 481.932C6.97067 483.023 6.95 485.238 6.2292 485.868C5.34395 486.643 3.18964 486.871 2.07344 486.329C-4.86475 482.957 -7.20648 476.529 -8.49071 469.51C-9.20541 465.605 -9.90961 461.697 -10.6384 457.413ZM124.089 121.367C118.223 122.08 107.449 114.599 107.449 112.986C107.449 111.374 122.069 109.712 127.903 109.15C130.582 108.892 132.16 109.672 132.376 112.371C132.685 116.246 128.369 120.847 124.089 121.367ZM16.5865 489.831C23.2254 485.569 21.9048 481.263 15.551 474.927C14.8133 474.192 13.8298 473.464 12.8539 473.271C12.1393 473.13 11.3628 473.303 10.5863 473.475C10.2469 473.551 9.90762 473.626 9.57346 473.675C9.71271 473.891 9.84526 474.112 9.97781 474.332C10.2675 474.815 10.5571 475.298 10.9166 475.721C12.704 477.826 14.5056 479.921 16.3735 481.954C18.4033 484.163 16.7422 485.073 15.0285 485.947C14.8064 486.06 14.5251 486.1 14.2516 486.139C13.8948 486.19 13.5513 486.238 13.3706 486.446C12.8335 487.062 12.4071 487.775 11.9808 488.488C11.8083 488.776 11.6358 489.065 11.4559 489.347C11.7271 489.427 11.997 489.516 12.2669 489.605L12.2673 489.605C12.8939 489.812 13.5206 490.018 14.1638 490.117C14.8902 490.229 15.6583 490.069 16.5865 489.831ZM132.827 519.36C134.345 519.495 135.864 519.63 137.581 519.944C138.484 520.684 139.427 521.367 140.356 522.04C142.461 523.565 144.491 525.036 145.811 526.987C147.048 528.816 146.814 532.361 145.937 534.633C145.46 535.869 143.131 536.532 141.231 537.074C140.974 537.147 140.724 537.218 140.489 537.288C139.473 537.589 138.058 537.247 137.065 536.731C136.344 536.356 135.763 535.71 135.183 535.064C134.929 534.782 134.675 534.5 134.41 534.241C134.752 534.109 135.141 533.91 135.53 533.711C136.375 533.279 137.219 532.846 137.583 533.101C139.538 534.469 140.191 533.132 140.714 532.062C140.858 531.766 140.993 531.491 141.142 531.299C141.653 530.641 141.333 528.689 140.677 527.903C139.82 526.875 138.793 525.994 137.764 525.11C136.995 524.45 136.225 523.789 135.523 523.065C134.796 522.314 134.21 521.427 133.624 520.54C133.361 520.142 133.099 519.745 132.823 519.359L132.827 519.36Z" fill="#00160A"/>
<path fill-rule="evenodd" clip-rule="evenodd" d="M293.097 143.165C302.198 144.665 308.067 154.372 306.205 164.845C305.114 170.983 301.61 176.471 297.064 180.115L295.803 200.708C295.68 202.686 293.582 204.428 292.285 203.613L284.179 198.129L273.805 206.622C272.144 208.046 270.543 206.724 271.12 204.391L277.037 180.765C273.721 176.816 272.155 170.346 273.247 163.034C275.108 150.56 283.995 141.665 293.097 143.165ZM286.355 184.714C284.182 184.833 282.193 184.405 280.449 183.509L276.522 198.852L283.972 192.978C284.704 192.42 285.519 192.342 286.091 192.77L291.913 196.934L292.75 182.929C290.692 183.961 288.53 184.594 286.355 184.714ZM292.254 148.359C285.428 147.421 278.763 154.093 277.367 163.26C275.97 172.428 280.372 179.707 287.198 179.52C289.6 179.454 291.981 178.55 294.121 177.064C294.234 176.969 294.353 176.885 294.476 176.812C298.249 174.125 301.208 169.674 302.085 164.619C303.482 156.576 299.08 149.296 292.254 148.359Z" fill="#FFB61D"/>
</g>
</svg>
