<svg width="306" height="491" viewBox="0 0 306 491" fill="none" xmlns="http://www.w3.org/2000/svg">
<g opacity="0.3">
<path d="M441.968 379.664C476.937 383.895 506.94 405.295 531.631 408.226C559.072 411.484 600.572 393.593 642.892 414.65C653.785 420.07 662.729 426.583 659.396 434.678C653.589 448.785 641.367 454.312 614.594 458.146L611.739 458.537C591.042 461.268 568.798 461.93 512.409 462.3L493.14 462.445C424.402 463.038 384.65 466.232 333.174 470.313L327.927 470.735C233.135 478.475 157.47 477.235 100.931 468.655L99.224 468.392C53.5452 461.292 26.0822 449.549 12.6762 436.224C4.78424 428.38 0.23822 421.066 0.00360107 413.249C-0.231079 405.431 11.4088 396.838 18.0356 393.593C36.4962 384.554 42.5197 381.277 78.0098 376.649C93.2905 374.657 116.184 374.816 142.646 373.929C237.576 370.749 384.23 372.678 441.968 379.664Z" fill="white"/>
<path fill-rule="evenodd" clip-rule="evenodd" d="M469.342 396.31C415.573 518.051 220.991 514.129 85.5987 431.038C59.7415 415.169 -29.1414 340.374 58.3403 296.698C145.822 253.023 117.801 185.937 188.402 105.922C270.049 13.3892 422.095 -34.0702 529.029 90.4291C800.815 406.863 487.447 355.317 469.342 396.31Z" fill="#DFF6E4"/>
<path fill-rule="evenodd" clip-rule="evenodd" d="M109.957 73.925C105.105 66.1293 100.243 63.138 95.4609 65.7254C91.4123 67.9159 90.739 73.7665 92.8931 83.1263L91.6023 83.8223C89.8283 84.7789 89.1657 86.9925 90.1223 88.7664C90.205 88.9199 90.2986 89.0672 90.4024 89.2072L91.0943 90.1329C101.194 103.53 109.197 109.018 115.441 106C120.689 103.464 121.575 92.6613 118.875 73.113C118.686 71.744 117.466 70.771 116.107 70.8696L115.936 70.8875C115.628 70.9301 115.33 71.0276 115.056 71.1753L109.957 73.925ZM95.6364 81.0277L106.896 74.9361L106.87 74.8947C102.998 68.8894 99.7173 66.9789 96.9492 68.4765L96.8221 68.5496C94.7782 69.7972 94.2117 73.7163 95.5135 80.4148L95.6364 81.0277ZM115.877 74.2859L93.0868 86.5755C92.8334 86.7122 92.7387 87.0284 92.8754 87.2818C92.8872 87.3037 92.9006 87.3248 92.9154 87.3448L93.5867 88.243C102.818 100.488 109.761 105.271 114.08 103.184C117.361 101.598 118.222 91.9682 115.939 74.7412L115.877 74.2859ZM111.022 92.7527C111.536 92.2142 111.852 91.4846 111.852 90.6812C111.852 89.0244 110.509 87.6812 108.852 87.6812C107.195 87.6812 105.852 89.0244 105.852 90.6812C105.852 92.3381 107.195 93.6812 108.852 93.6812C108.983 93.6812 109.111 93.6729 109.237 93.6568L110.943 96.7874L111.004 96.8866C111.293 97.2957 111.849 97.4325 112.299 97.1872C112.784 96.923 112.963 96.3156 112.699 95.8306L111.022 92.7527Z" fill="#E66346"/>
<path fill-rule="evenodd" clip-rule="evenodd" d="M441.968 379.731C476.937 383.995 506.94 405.561 531.631 408.515C559.072 411.798 600.572 393.768 642.892 414.989C653.785 420.451 662.729 427.015 659.396 435.173C653.589 449.388 641.367 454.959 614.594 458.822L611.739 459.217C591.042 461.969 568.798 462.636 512.409 463.008L493.14 463.154C424.402 463.752 384.65 466.971 333.174 471.083L327.927 471.509C233.134 479.309 157.47 478.059 100.931 469.413L99.2238 469.148C53.545 461.993 26.082 450.158 12.676 436.73C4.784 428.826 0.237976 421.455 0.00335693 413.577C-0.231323 405.698 11.4085 397.038 18.0355 393.768C36.496 384.66 42.5195 381.357 78.0095 376.693C93.2903 374.685 116.184 374.845 142.646 373.952C237.576 370.747 384.23 372.691 441.968 379.731ZM77.2258 383.292L74.9 383.601C41.8271 388.086 20.6852 396.245 10.67 404.38L10.0449 404.903C2.35468 411.53 1.63568 418.98 12.6899 429.993C24.7766 442.036 55.6036 455.621 100.053 462.547C155.701 471.217 230.516 473.735 324.47 466.194L334.32 465.401C388.563 461.136 430.179 458.866 507.202 458.325L528.464 458.167C574.32 457.752 593.81 456.931 612.625 454.316L614.414 454.059C697.499 437.807 637.549 408.648 603.153 408.515C573.697 408.402 538.317 416.687 528.464 413.586C497.41 403.811 481.464 388.845 441.968 384.056L430.483 382.68L420.679 382.217C259.995 374.752 145.479 374.371 77.2258 383.292Z" fill="#00160A"/>
<path d="M182.097 5.73232C181.527 5.71395 180.957 5.71457 180.386 5.7342C166.335 6.21793 155.306 17.9008 155.56 31.9301L155.571 32.356L155.744 37.6129C156.237 53.4029 156.509 69.1306 156.558 84.7958L156.643 132.995C156.662 150.343 156.651 166 156.601 181.333L156.531 197.592C156.258 249.36 155.521 285.692 154.154 301.506L153.89 304.464C152.24 323.792 151.899 351.552 152.877 387.681C152.888 388.099 152.909 388.516 152.94 388.933C154.021 403.581 166.642 414.614 181.241 413.772L181.684 413.743L186.536 413.39C231.887 410.15 277.239 408.53 322.591 408.53C366.981 408.53 411.712 410.082 456.783 413.186C458.087 413.275 459.395 413.283 460.7 413.21C477.788 412.242 490.898 397.725 490.21 380.662L490.185 380.144L489.844 373.99C486.819 318.553 485.252 263.117 485.144 207.681L485.138 201.521C485.138 161.116 487.028 105.702 490.807 35.2542C490.849 34.465 490.858 33.6744 490.833 32.8844C490.359 17.5922 477.714 5.54796 462.49 5.77452L462.028 5.78515L438.986 6.48459C386.633 8.03046 348.514 8.83823 324.601 8.90772L320.503 8.9123L316.286 8.90135C291.876 8.79641 254.087 7.95831 202.897 6.38724L182.097 5.73232Z" fill="white"/>
<path fill-rule="evenodd" clip-rule="evenodd" d="M166.597 376.204L166.838 376.213C168.331 376.318 169.384 377.494 169.246 378.792C169.089 380.279 167.515 381.721 165.796 381.84C164.43 381.935 163.481 380.875 163.632 379.228C163.791 377.502 165.132 376.21 166.597 376.204Z" fill="#E7EAEE"/>
<path fill-rule="evenodd" clip-rule="evenodd" d="M191.933 396.891L192.093 396.9C193.088 397.005 193.79 398.181 193.699 399.479C193.594 400.966 192.544 402.408 191.398 402.527C190.488 402.622 189.855 401.562 189.956 399.915C190.062 398.189 190.956 396.897 191.933 396.891Z" fill="#E7EAEE"/>
<path fill-rule="evenodd" clip-rule="evenodd" d="M321.938 396.674C268.284 408.493 369.025 406.404 408.324 403.816C429.712 402.407 446.79 413.07 456.596 413.743C457.907 413.833 459.222 413.841 460.534 413.767C477.717 412.796 490.898 398.245 490.207 381.141L490.182 380.622L489.838 374.454C486.797 318.886 485.222 263.318 485.113 207.75L485.107 201.576C485.107 161.075 487.007 105.529 490.807 34.9138C490.849 34.1227 490.858 33.3302 490.833 32.5384C490.356 17.2098 460.925 366.06 321.938 396.674Z" fill="#E7EAEE"/>
<path d="M447.791 28.2866C460.145 28.2866 470.16 38.3218 470.16 50.7008C470.16 51.1641 470.146 51.6273 470.117 52.0898L469.789 57.5808C469.188 68.0025 468.588 80.3762 467.99 94.7018L467.899 96.9954C466.438 135.532 466.392 226.701 467.76 370.502C467.878 382.88 457.959 393.011 445.605 393.129C445.304 393.132 445.003 393.128 444.702 393.119L199.288 385.532C187.924 385.181 178.631 376.345 177.686 364.993L177.478 362.43C174.246 321.609 174.053 269.485 176.901 206.059L177.318 196.963C178.772 163.587 178.886 114.976 177.66 51.132C177.425 38.8842 187.04 28.7422 199.21 28.3015L199.81 28.2877L447.791 28.2866Z" fill="white"/>
<path fill-rule="evenodd" clip-rule="evenodd" d="M282.096 291.51C293.019 291.967 304.236 290.042 313.963 285.319C326.147 279.404 335.314 269.48 340.388 255.249C347.071 236.506 344.617 216.239 335.008 198.401C326.457 182.525 313.011 170.442 300.618 167.454C300.618 167.454 335.008 215.526 330.082 241.806C322.548 281.988 282.096 291.51 282.096 291.51Z" fill="#E7EAEE"/>
<path fill-rule="evenodd" clip-rule="evenodd" d="M289.846 235.156C294.861 237.411 296.393 241.599 294.44 247.722L294.328 248.064C281.629 285.847 266.653 286.191 279.468 248.064C281.02 243.445 280.635 239.901 278.313 237.434C282.417 236.531 286.262 235.772 289.846 235.156Z" fill="#E7EAEE"/>
<path fill-rule="evenodd" clip-rule="evenodd" d="M207.156 193.034C210.535 182.556 215.469 174.68 224.69 168.453L225.861 167.678C227.851 166.374 230.304 164.899 232.298 165.907C234.833 167.188 238.502 171.856 236.27 173.689C234.756 174.931 228.523 176.253 223.825 180.548C218.279 185.619 214.287 193.791 214.287 195.792C214.287 202.32 205.161 199.22 207.156 193.034Z" fill="#E7EAEE"/>
<path fill-rule="evenodd" clip-rule="evenodd" d="M196.413 46.0263C184.023 78.3099 184.107 84.7154 183.363 79.151C180.959 61.1551 179.145 49.3294 182.002 42.146C185.619 33.0515 194.687 31.2625 197.023 32.3181C201.961 34.5497 196.413 46.0263 196.413 46.0263Z" fill="#E7EAEE"/>
<path fill-rule="evenodd" clip-rule="evenodd" d="M204.092 0.803096L181.474 0.0933088C180.779 0.0709441 180.084 0.0717055 179.389 0.0955919C162.098 0.690165 148.564 15.189 149.158 32.4796L149.33 37.7255C149.533 44.2037 149.842 50.6713 150.149 57.1283C150.672 68.0926 151.193 79.0262 151.193 89.9294L151.266 129.474C151.336 184.621 151.169 275.443 148.719 301.749L148.535 303.814C146.943 322.453 145.513 348.676 146.329 382.485L146.461 387.613C146.475 388.118 146.5 388.622 146.537 389.125C147.858 406.995 163.415 420.411 181.285 419.091L186.133 418.738L186.936 418.681C187.098 418.951 187.263 419.223 187.425 419.49L187.425 419.491C188.21 420.787 188.944 421.998 189.114 422.592C189.544 424.091 189.589 425.789 189.341 429.631L189.089 433.233L189.021 434.403C188.655 441.582 189.484 445.854 192.986 449.07C197.49 453.206 202.262 452.767 212.04 451.868L212.479 451.828L214.996 451.584C217.905 451.303 221.177 451.53 223.406 451.685C224.048 451.73 224.603 451.768 225.038 451.787L225.862 451.828C231.472 452.052 232.363 450.205 232.854 445.64C233.124 443.125 232.772 441.145 231.294 436.039L230.188 432.275L229.821 430.966C228.094 424.586 228.252 421.402 230.501 419.861C231.047 419.488 233.326 418.81 235.956 418.028L235.956 418.028C238.661 417.223 241.735 416.309 243.671 415.503C269.743 414.431 295.814 413.895 321.885 413.895C349.279 413.895 376.803 414.487 404.458 415.67C404.275 415.969 404.242 416.401 404.436 417.003C404.656 417.683 405.488 418.153 406.551 418.755C409.37 420.349 413.814 422.861 412.78 432.619L412.784 433.02C412.94 440.712 417.602 445.224 425.102 446.755C430.117 447.779 435.821 447.47 442.034 446.393C445.11 445.859 447.091 443.936 448.037 441.005C448.56 439.386 448.747 437.931 448.869 435.037C448.869 435.037 447.501 419.994 455.109 418.489C455.335 418.504 455.561 418.52 455.788 418.536C456.669 418.596 457.551 418.625 458.433 418.622C458.552 418.65 458.672 418.681 458.794 418.713C459.158 418.812 459.506 418.756 459.819 418.592C460.015 418.584 460.211 418.575 460.407 418.564C480.765 417.412 496.334 399.975 495.182 379.617L494.841 373.471C491.707 316.109 490.14 258.747 490.14 201.385C490.14 162.323 491.917 109.122 495.47 41.7816L495.805 35.4929C495.856 34.5463 495.866 33.598 495.837 32.6504C495.261 14.1227 479.774 -0.430041 461.247 0.145904L449.503 0.506529C391.313 2.27081 349.442 3.1901 323.89 3.26438L319.8 3.26896C295.945 3.25052 257.376 2.42856 204.092 0.803096ZM447.472 417.981C434.542 417.146 421.641 416.438 408.768 415.859C414.932 418.851 417.129 424.437 417.251 432.164L417.255 432.619C417.255 437.618 421.144 440.882 426.375 441.95C426.923 442.062 427.484 442.183 428.059 442.308C431.672 443.092 435.802 443.988 440.383 443.236L441.079 443.119C444.247 441.95 444.247 430.567 444.247 430.567C444.282 429.641 444.314 429.038 444.368 428.303L444.437 427.477C444.833 423.334 445.699 420.239 447.472 417.981ZM194.491 421.05C194.187 419.99 193.754 419.053 193.193 418.248C204.169 417.505 215.145 416.858 226.121 416.305C224.406 418.216 224.245 420.797 224.182 423.881C224.127 426.538 224.664 429.363 225.794 433.343L225.862 433.581L226.895 437.099C228.16 441.444 228.54 443.261 228.434 444.784L228.411 445.042C228.259 446.455 226.444 448.049 223.378 447.871L222.829 447.843C221.515 447.643 208.563 447.871 208.563 447.871C202.583 448.476 199.703 447.643 196.769 444.949C194.8 443.141 194.272 439.929 194.66 433.781L194.902 430.33C195.206 425.819 195.18 423.706 194.612 421.494L194.491 421.05ZM179.581 5.68619C180.152 5.66657 180.723 5.66594 181.294 5.68432L202.108 6.33894C253.334 7.9093 291.149 8.74703 315.576 8.85192L319.796 8.86287L323.897 8.85828C347.826 8.78883 385.973 7.98142 438.361 6.43624L461.42 5.73712L461.882 5.72649C477.117 5.50003 489.77 17.5389 490.245 32.8242C490.27 33.6138 490.261 34.4041 490.219 35.193C486.438 105.609 484.546 160.998 484.546 201.385L484.552 207.542C484.66 262.954 486.228 318.365 489.255 373.776L489.597 379.928L489.622 380.445C490.31 397.501 477.191 412.011 460.091 412.979C458.785 413.052 457.476 413.044 456.172 412.955C411.069 409.852 366.306 408.301 321.885 408.301C276.501 408.301 231.118 409.92 185.735 413.159L180.88 413.511L180.437 413.541C165.827 414.382 153.198 403.354 152.116 388.713C152.085 388.297 152.064 387.879 152.053 387.462C151.074 351.349 151.416 323.601 153.067 304.282L153.331 301.326C154.699 285.518 155.436 249.203 155.709 197.458L155.779 181.206C155.83 165.88 155.84 150.23 155.821 132.89L155.736 84.7123C155.687 69.0541 155.415 53.3335 154.922 37.5505L154.749 32.296L154.738 31.8704C154.483 17.8473 165.52 6.16971 179.581 5.68619ZM469.83 50.6276C469.83 38.2698 459.812 28.2519 447.454 28.2519L199.402 28.2529L198.802 28.2667C186.628 28.7067 177.011 38.8312 177.246 51.058C178.472 114.792 178.358 163.319 176.904 196.639L176.486 205.719C173.638 269.036 173.83 321.07 177.063 361.821L177.272 364.38C178.217 375.713 187.513 384.534 198.88 384.884L444.365 392.458C444.666 392.467 444.967 392.47 445.268 392.468C457.625 392.35 467.547 382.237 467.43 369.879C466.06 226.325 466.107 135.313 467.568 96.8427L467.659 94.553C468.258 80.252 468.857 67.8996 469.459 57.4957L469.787 52.0142C469.816 51.5525 469.83 51.0901 469.83 50.6276ZM199.617 33.8458H447.454C456.722 33.8458 464.236 41.3592 464.236 50.6275C464.236 50.9744 464.225 51.3212 464.204 51.6675C463.618 61.1032 463.034 72.3675 462.452 85.4627L462.07 94.3192C460.592 129.661 460.449 214.294 461.637 348.355L461.836 369.933C461.924 379.201 454.483 386.785 445.215 386.874C444.989 386.876 444.763 386.874 444.537 386.867L199.052 379.293L198.682 379.277C190.326 378.838 183.545 372.291 182.846 363.915C179.401 322.637 179.171 269.309 182.165 203.968L182.446 197.921C183.858 166.48 184.059 121.392 183.051 62.6233L182.839 50.9504C182.66 41.6838 190.028 34.0271 199.295 33.8489C199.402 33.8468 199.51 33.8458 199.617 33.8458ZM191.044 16.6899C191.397 20.4929 188.642 23.5448 184.928 23.2893C181.533 23.0556 178.546 20.3441 178.198 17.0786L178.177 16.8399C177.961 13.5909 180.45 10.829 183.79 10.4747L184.042 10.4527C187.603 10.2076 190.703 13.0223 191.044 16.6899ZM184.476 14.3538L184.259 14.362C182.915 14.4552 181.968 15.5048 182.091 16.6633C182.233 17.9896 183.65 19.2762 185.197 19.3827C186.427 19.4674 187.282 18.5212 187.145 17.052C187.002 15.5117 185.795 14.3594 184.476 14.3538ZM164.678 46.351C160.807 46.6944 158.199 42.9701 158.521 38.5037C158.836 34.126 161.843 30.6077 165.565 30.9379L165.805 30.9642C169.225 31.4089 171.587 34.7723 171.393 38.5422L171.375 38.8059C171.056 42.6595 168.167 46.0415 164.678 46.351ZM165.278 34.8426L165.088 34.8334C163.901 34.8479 162.595 36.4525 162.427 38.7851C162.259 41.1155 163.261 42.5456 164.333 42.4505C165.788 42.3214 167.302 40.549 167.473 38.483C167.635 36.527 166.534 34.9549 165.278 34.8426ZM454.534 16.6899C454.181 20.4929 456.937 23.5448 460.65 23.2893C464.045 23.0556 467.032 20.3441 467.381 17.0786L467.401 16.8399C467.617 13.5909 465.128 10.829 461.788 10.4747L461.536 10.4527C457.975 10.2076 454.875 13.0223 454.534 16.6899ZM461.102 14.3538L461.319 14.362C462.663 14.4552 463.61 15.5048 463.487 16.6633C463.345 17.9896 461.928 19.2762 460.381 19.3827C459.151 19.4674 458.296 18.5212 458.433 17.052C458.576 15.5117 459.783 14.3594 461.102 14.3538ZM475.384 39.9504C473.306 36.8625 474.572 32.95 478.042 31.3544C481.388 29.8157 485.376 31.0935 486.944 34.3001L487.051 34.5294C488.414 37.5987 487.267 41.1352 484.345 42.5728L484.128 42.6743C481.126 44.0054 477.285 42.7744 475.384 39.9504ZM483.45 36.0663L483.349 35.8747C482.684 34.7352 481.083 34.2659 479.677 34.9122C478.337 35.5286 477.945 36.7416 478.633 37.7644C479.499 39.0512 481.322 39.6353 482.541 39.0947C483.606 38.6224 484.041 37.2768 483.45 36.0663ZM161.913 375.089C159.198 377.775 159.347 381.884 162.356 384.075C165.108 386.079 169.139 385.922 171.504 383.644L171.674 383.475C173.928 381.125 173.796 377.409 171.466 374.991L171.287 374.812C168.716 372.335 164.532 372.498 161.913 375.089ZM168.446 377.521L168.607 377.667C169.577 378.602 169.628 380.015 168.789 380.823C167.828 381.749 165.915 381.823 164.661 380.91C163.665 380.184 163.618 378.91 164.667 377.873C165.767 376.785 167.432 376.678 168.446 377.521ZM186.969 404.214C183.961 402.023 183.811 397.913 186.526 395.227C189.145 392.637 193.329 392.473 195.9 394.95L196.079 395.129C198.409 397.547 198.541 401.263 196.287 403.613L196.118 403.783C193.752 406.06 189.721 406.217 186.969 404.214ZM193.22 397.805L193.06 397.66C192.046 396.816 190.38 396.923 189.28 398.011C188.231 399.049 188.278 400.323 189.274 401.048C190.528 401.961 192.441 401.887 193.402 400.962C194.241 400.154 194.19 398.74 193.22 397.805ZM462.432 396.527C459.315 399.671 459.231 404.296 462.552 406.674C465.593 408.852 470.147 408.423 472.871 405.742C475.694 402.963 475.775 398.491 472.997 395.771C470.186 393.018 465.47 393.463 462.432 396.527ZM470.134 398.456L470.294 398.603C471.445 399.731 471.41 401.685 470.124 402.951C468.739 404.314 466.303 404.544 464.832 403.491C463.641 402.638 463.673 400.837 465.212 399.284C466.775 397.709 468.947 397.455 470.134 398.456ZM480.192 390.623C476.716 390.898 474.273 387.79 474.576 384.049C474.87 380.414 477.638 377.527 480.964 377.79C484.235 378.048 486.581 381.033 486.27 384.388C485.97 387.61 483.317 390.376 480.192 390.623ZM480.716 381.697L480.528 381.69C479.586 381.714 478.606 382.799 478.479 384.364C478.355 385.895 479.055 386.785 479.883 386.72C481.062 386.627 482.243 385.395 482.371 384.025C482.486 382.788 481.689 381.775 480.716 381.697Z" fill="#00160A"/>
<path fill-rule="evenodd" clip-rule="evenodd" d="M186.527 395.227C183.811 397.913 183.961 402.022 186.969 404.213C189.721 406.217 193.752 406.06 196.118 403.782L196.287 403.613C198.541 401.263 198.409 397.547 196.079 395.129L195.9 394.95C193.329 392.473 189.145 392.636 186.527 395.227ZM193.06 397.659L193.22 397.805C194.19 398.74 194.241 400.153 193.402 400.961C192.441 401.887 190.528 401.961 189.275 401.048C188.278 400.322 188.232 399.048 189.281 398.011C190.38 396.923 192.046 396.816 193.06 397.659Z" fill="#00160A"/>
<path fill-rule="evenodd" clip-rule="evenodd" d="M223.214 158.344C221.923 158.793 220.758 159.401 219.318 160.288L218.213 160.981L217.665 161.33C209.322 166.715 203.752 173.412 199.79 182.482L199.577 182.972L199.419 182.925C198.367 182.616 197.413 182.465 196.394 182.55C194.221 182.73 192.196 184.032 191.472 186.459C190.343 190.249 190.809 194.584 192.276 199.021L192.551 199.834C193.983 203.947 195.567 206.739 198.2 207.554C201.702 208.637 213.798 203.842 218.016 199.49C221.025 196.387 219.82 192.591 216.957 190.4L216.694 190.205L216.417 190.014L216.103 189.81L216.313 189.435C216.459 189.177 216.613 188.915 216.772 188.65C218.483 185.814 220.622 183.132 222.788 181.234C223.623 180.503 224.588 179.833 225.688 179.208C227.389 178.24 234.178 175.576 235.32 174.677C238.991 171.79 238.566 167.61 236.245 163.986C234.801 161.732 232.531 159.62 230.338 158.557C228.033 157.441 225.622 157.508 223.214 158.344ZM228.143 163.088C230.737 164.345 234.493 168.922 232.208 170.72C230.658 171.938 224.279 173.234 219.471 177.447C213.794 182.42 209.708 190.434 209.708 192.396L210.356 192.639C213.896 194.001 215.244 195.117 214.401 195.986C210.647 199.859 200.444 202.978 199.688 202.744C198.945 202.514 194.543 193.782 196.297 187.898C196.532 187.111 198.57 187.709 202.411 189.691C205.869 179.416 210.919 171.692 220.356 165.585L221.555 164.825C223.592 163.547 226.102 162.1 228.143 163.088Z" fill="#00160A"/>
</g>
</svg>
