<svg width="306" height="440" viewBox="0 0 306 440" fill="none" xmlns="http://www.w3.org/2000/svg">
<g opacity="0.4">
<path fill-rule="evenodd" clip-rule="evenodd" d="M65.2619 391.938C110.532 441.215 285.593 412.909 400.863 412.909C450.591 412.909 617.471 437.832 548.559 266.668C322.609 -294.553 -78.1766 235.8 65.2619 391.938Z" fill="#DFF6E4"/>
<path fill-rule="evenodd" clip-rule="evenodd" d="M265.561 395.902C265.781 395.733 266.012 395.55 266.108 395.289C266.415 394.455 265.21 393.9 264.321 393.92C263.03 393.949 261.376 394.818 261.771 396.047C261.999 396.758 262.875 397.088 263.61 396.957C264.346 396.826 264.969 396.357 265.561 395.902H265.561ZM269.398 381.269C270.372 381.574 271.334 381.952 272.183 382.52C273.776 383.587 274.86 385.244 275.901 386.854C276.646 388.009 277.403 389.186 277.775 390.51C278.178 391.943 278.106 393.473 277.836 394.937C276.995 399.499 274.18 403.661 270.26 406.139C266.34 408.618 261.373 409.376 256.892 408.181C256.019 407.948 255.141 407.631 254.47 407.027C253.906 406.519 253.526 405.843 253.178 405.169C251.353 401.63 250.122 397.698 250.263 393.719C250.404 389.739 252.04 385.712 255.138 383.211C259.026 380.072 264.63 379.772 269.398 381.269" fill="white"/>
<path fill-rule="evenodd" clip-rule="evenodd" d="M83.6938 53.5833C85.7348 72.0349 91.4155 90.0768 100.314 106.369C105.824 116.457 112.525 125.837 119.209 135.188C123.86 141.695 128.833 148.476 136.09 151.839C138.02 152.733 137.75 155.515 137.233 157.578C134.994 166.493 133.95 175.708 134.136 184.898C134.154 185.767 134.176 186.667 133.835 187.465C132.677 190.177 128.709 189.725 125.978 188.616C109.076 181.755 96.1003 167.957 83.9787 154.327C68.2406 136.629 52.7367 118.155 43.4396 96.3727C42.8075 94.8919 42.1941 93.3335 42.2999 91.7269C42.4076 90.09 43.2486 88.602 44.1018 87.2008C52.5299 73.3577 64.2551 61.5371 78.0294 52.997C78.9995 52.3955 80.0355 51.7927 81.1763 51.7532C82.3171 51.7138 83.5683 52.4487 83.6938 53.5833Z" fill="white"/>
<path fill-rule="evenodd" clip-rule="evenodd" d="M165.01 418.189C163.263 416.76 162.706 414.347 162.397 412.104C158.828 386.155 174.156 360.542 171.425 334.49C170.018 321.064 163.85 308.537 156.087 297.519C150.726 289.911 150.426 279.718 152.426 270.615C154.426 261.512 158.46 253 161.181 244.087C173.282 204.453 158.558 162.113 144 123.322C173.008 109.295 206.859 112.012 238.995 113.912C271.131 115.813 305.693 115.947 332.478 98C336.149 136.825 328.054 175.693 320.005 213.845C360.846 209.866 401.688 205.887 442.529 201.908C443.7 201.794 444.981 201.706 445.954 202.371C447.252 203.258 447.452 205.067 447.526 206.643C449.435 247.02 450.593 287.432 450.998 327.853C451.008 328.866 450.973 329.997 450.262 330.716C449.653 331.331 448.724 331.46 447.865 331.556C390.645 337.932 333.425 344.309 276.205 350.685C271.257 351.237 264.209 349.948 264.498 344.953C265.79 322.682 265.036 300.291 262.248 278.158C247.042 277.583 231.732 279.902 217.369 284.956C214.111 286.102 210.193 289.185 211.95 292.171C223.577 311.929 209.146 341.627 224.937 358.212C230.366 363.915 229.991 372.886 228.915 380.704C226.609 397.462 222.69 413.996 217.232 430C219.871 411.579 166.623 428.068 165.01 418.189Z" fill="white"/>
<path fill-rule="evenodd" clip-rule="evenodd" d="M1.34573 0.0267332C1.39461 0.420072 1.18178 0.833097 0.83309 1.02156C0.555393 0.743734 0.277697 0.465903 0 0.188073C0.416302 0.00599201 0.888435 -0.0459425 1.33436 0.0412939L1.34573 0.0267332Z" fill="#00160A"/>
<path fill-rule="evenodd" clip-rule="evenodd" d="M268.398 381.269C269.372 381.574 270.334 381.952 271.183 382.52C272.776 383.587 273.86 385.244 274.901 386.854C275.646 388.009 276.403 389.186 276.775 390.51C277.178 391.943 277.106 393.473 276.836 394.937C275.995 399.499 273.18 403.661 269.26 406.139C265.34 408.618 260.373 409.376 255.892 408.181C255.019 407.948 254.141 407.631 253.47 407.027C252.906 406.519 252.526 405.843 252.178 405.169C250.353 401.63 249.122 397.698 249.263 393.719C249.404 389.739 251.04 385.712 254.138 383.211C258.026 380.072 263.63 379.772 268.398 381.269M262.933 404.962C265.371 404.592 267.516 403 268.917 400.971C270.318 398.942 271.036 396.509 271.382 394.068C271.579 392.674 271.597 391.077 270.613 390.07C270.023 389.467 269.182 389.198 268.375 388.957C265.344 388.05 261.885 387.279 259.17 388.903C257.194 390.086 256.092 392.278 255.093 394.353C253.923 396.784 254.212 399.852 255.815 402.021C257.418 404.19 260.266 405.367 262.933 404.962V404.962Z" fill="#00160A"/>
<path fill-rule="evenodd" clip-rule="evenodd" d="M93.7992 114.562C95.9784 116.77 97.7774 119.352 99.0932 122.16C100.416 124.983 99.0824 128.612 96.487 130.339C93.8916 132.066 90.3826 132.043 87.5367 130.77C84.6909 129.497 82.4546 127.122 80.8075 124.475C79.5658 122.48 78.6029 120.243 78.4997 117.895C78.3965 115.547 79.261 113.076 81.1184 111.636C82.9971 110.18 85.6389 109.972 87.9109 110.671C90.1829 111.37 92.1292 112.871 93.7992 114.562M85.2965 113.22C83.4109 113.026 81.7358 114.756 81.4124 116.624C81.0889 118.492 81.8009 120.387 82.7222 122.044C84.7201 125.636 88.2847 128.827 92.3904 128.628C94.5009 128.526 96.8143 127.064 96.7768 124.951C96.7606 124.038 96.3099 123.195 95.8597 122.4C94.6639 120.287 93.3723 118.197 91.6474 116.489C89.9225 114.781 87.7111 113.469 85.2965 113.22Z" fill="#46E6A3"/>
<path fill-rule="evenodd" clip-rule="evenodd" d="M258.573 392.453C260.087 391.303 261.969 390.559 263.867 390.681C265.764 390.803 267.641 391.892 268.435 393.619C269.287 395.473 268.756 397.777 267.427 399.325C266.098 400.873 264.096 401.728 262.075 402.011C260.696 402.203 259.052 402.03 258.297 400.86C257.933 400.296 257.85 399.6 257.777 398.932C257.646 397.734 257.514 396.535 257.383 395.336C257.327 394.828 257.273 394.301 257.436 393.816C257.629 393.247 258.095 392.817 258.573 392.453M264.561 395.902C264.781 395.733 265.012 395.55 265.108 395.289C265.415 394.455 264.21 393.9 263.321 393.92C262.03 393.949 260.376 394.818 260.771 396.047C260.999 396.758 261.875 397.088 262.61 396.957C263.346 396.826 263.969 396.357 264.561 395.902H264.561Z" fill="#00160A"/>
<path fill-rule="evenodd" clip-rule="evenodd" d="M472.99 9.13033C484.784 21.3397 494.093 35.9392 500.187 51.7832C500.605 52.8714 501.011 54.0801 500.612 55.1756C497.537 63.6098 491.605 70.6414 485.787 77.4785L474.636 90.5851C471.087 94.7558 467.538 98.9272 463.869 102.993C445.191 123.694 423.121 141.796 397.559 152.934C396.595 153.354 395.56 153.773 394.521 153.605C393.482 153.437 392.509 152.429 392.781 151.412C395.941 139.599 399.121 127.248 396.586 115.285C395.974 112.4 395.292 108.766 397.676 107.03C416.981 92.9722 430.881 72.8783 444.201 53.0574C447.551 48.0734 450.891 43.0757 453.855 37.8534C459.118 28.5812 463.171 18.6235 465.879 8.31179C466.251 6.89676 468.037 6.25958 469.452 6.63041C470.868 7.00123 471.973 8.07808 472.99 9.13033ZM464.736 24.2922C463.537 23.7966 462.432 25.1372 461.821 26.2814C461.16 27.5201 460.5 28.7607 459.839 30.0023C447.619 52.9555 435.212 76.2609 416.59 94.3398C414.83 96.048 412.864 98.1115 413.188 100.542C414.228 108.334 410.068 116.562 403.177 120.345C400.049 122.062 400.086 126.493 400.544 130.032C400.728 131.449 401.263 133.225 402.687 133.345C406.863 133.697 410.87 135.753 413.592 138.939C414.451 139.945 416.078 139.316 417.198 138.613C445.369 120.902 467.015 94.7428 488.149 69.0403C488.878 68.1536 489.654 67.0364 489.274 65.9532C486.076 56.8429 486.588 46.4895 490.671 37.7397C488.262 32.9466 485.391 28.3859 482.111 24.1412C476.653 26.5106 470.234 26.5664 464.736 24.2922ZM397.916 148.255C399.027 148.837 400.372 148.284 401.484 147.703C404.406 146.178 407.22 144.447 409.899 142.527C410.607 142.02 410.818 141.006 410.568 140.172C410.317 139.338 409.691 138.665 408.997 138.139C406.831 136.495 403.803 136.062 401.263 137.034C400.794 137.214 400.328 137.448 400.005 137.833C399.626 138.283 399.487 138.882 399.366 139.458C398.752 142.367 398.268 145.303 397.916 148.255ZM477.028 18.2259C475.114 14.4831 472.162 11.2779 468.589 9.06303C467.346 10.1587 467.104 11.8235 466.858 13.5208C466.689 14.6854 466.518 15.8653 466.019 16.8871C465.857 17.2195 465.659 17.5376 465.461 17.8549L465.461 17.8551L465.46 17.8554L465.46 17.8557C465.083 18.4604 464.707 19.0624 464.586 19.7568C464.402 20.8159 465.298 22.1446 466.315 21.7942C467.141 21.5092 468.007 21.6923 468.881 21.8768C469.342 21.9743 469.805 22.0721 470.265 22.1018C472.948 22.275 475.174 20.1731 477.028 18.2259ZM492.199 40.6586C490.149 44.7374 490.473 49.5548 490.846 54.1047L491.381 60.6299C491.44 61.3475 491.83 62.3159 492.522 62.1171C492.951 60.9152 493.769 59.9236 494.589 58.9294C495.307 58.0598 496.026 57.1882 496.488 56.1719C498.054 52.7305 496.316 48.7642 494.604 45.3933L492.199 40.6586ZM400.408 113.082C400.494 114.358 401.819 115.313 403.098 115.278C404.377 115.242 405.528 114.414 406.275 113.376C407.022 112.338 407.432 111.101 407.832 109.885L409.15 105.872C409.517 104.753 409.54 103.043 408.37 102.911C407.947 102.863 407.544 103.087 407.198 103.333C405.886 104.266 404.931 105.605 404.001 106.919L401.468 110.497C400.919 111.273 400.344 112.133 400.408 113.082ZM98.314 102.369C89.4155 86.0768 83.7348 68.0349 81.6938 49.5833C81.5683 48.4487 80.3171 47.7138 79.1763 47.7532C78.0355 47.7927 76.9995 48.3955 76.0294 48.997C62.2551 57.5371 50.5299 69.3577 42.1018 83.2008C41.2486 84.602 40.4076 86.09 40.2999 87.7269C40.1941 89.3335 40.8075 90.8919 41.4396 92.3727C50.7367 114.155 66.2406 132.629 81.9787 150.327C94.1003 163.957 107.076 177.755 123.978 184.616C126.709 185.725 130.677 186.177 131.835 183.465C132.172 182.677 132.154 181.789 132.137 180.931L132.136 180.898C131.95 171.708 132.994 162.493 135.233 153.578C135.75 151.515 136.02 148.733 134.09 147.839C126.833 144.476 121.86 137.695 117.209 131.188C110.525 121.837 103.824 112.457 98.314 102.369ZM114.023 173.587C113.023 173.853 112.025 173.223 111.19 172.611C95.8076 161.341 83.887 146.087 72.1747 131.038L51.5055 104.481C54.9944 102.259 55.4373 97.4311 55.5134 93.2955C55.6123 87.9197 55.6844 82.385 53.7425 77.3713C53.3109 76.2569 53.8728 75.022 54.4745 73.9895C57.0553 69.5613 60.6343 65.7187 64.8683 62.8303C65.2782 62.5507 65.712 62.2729 66.2033 62.2035C67.4999 62.0203 68.4946 63.2813 69.1875 64.3924C71.9241 68.7807 75.685 73.7434 80.8439 73.3821C82.8083 73.2446 83.8977 75.5584 84.4707 77.4423C91.597 100.87 104.977 122.001 120.668 140.802C122.707 143.245 123.218 146.542 123.725 149.809C124.29 153.453 124.85 157.059 127.515 159.402C129.791 161.402 129.369 164.994 128.754 167.961C128.629 168.568 128.479 169.218 128.018 169.633C127.676 169.94 127.213 170.069 126.768 170.187L114.023 173.587ZM77.5556 67.9552C74.7338 65.9835 72.2963 63.464 70.4191 60.5784C70.013 59.9543 69.6186 59.2547 69.6899 58.5135C69.7675 57.7076 70.3738 57.0627 70.9771 56.5227C72.467 55.1893 74.1508 54.0731 75.9591 53.22C76.6213 52.9076 77.4763 52.6538 78.0264 53.137C78.3503 53.4215 78.4525 53.876 78.537 54.2988L81.1434 67.3339C81.2975 68.1045 80.4892 68.7985 79.7036 68.8209C78.9181 68.8433 78.1998 68.4053 77.5556 67.9552ZM51.7633 93.1673C51.7081 95.6192 51.5208 98.3708 49.6833 99.995C49.2988 100.041 49.0434 99.6187 48.8927 99.262C47.5688 96.1281 46.2266 92.9186 46.0181 89.5229C45.8096 86.1272 46.9476 82.4501 49.7225 80.4818C50.098 80.2154 50.6487 79.9955 50.9801 80.315C51.1133 80.4434 51.1703 80.6298 51.2189 80.8083C51.9728 83.5799 51.9136 86.4988 51.8489 89.3705L51.7633 93.1673ZM126.644 174.723C127.089 175.087 127.137 175.74 127.149 176.315L127.281 182.617C124.696 181.184 122.219 179.555 119.879 177.749C119.436 177.407 118.948 176.853 119.22 176.362C119.355 176.119 119.635 176.002 119.895 175.906C121.568 175.289 123.298 174.827 125.055 174.526C125.598 174.433 126.217 174.374 126.644 174.723ZM126.793 149.898C126.769 149.614 126.769 149.303 126.938 149.073C127.385 148.467 128.353 149.016 128.763 149.648C129.749 151.171 129.967 153.166 129.333 154.866C127.884 153.625 126.951 151.799 126.793 149.898ZM511.87 102.045C514.446 98.7999 519.144 98.333 523.286 98.4341C524.254 98.4577 525.25 98.5046 526.131 98.9061C528.582 100.023 529.102 103.225 529.185 105.917C529.26 108.367 529.246 110.848 528.651 113.225C528.055 115.602 526.824 117.893 524.855 119.351C523.97 120.007 522.944 120.485 521.857 120.667C520.178 120.948 518.46 120.517 516.865 119.923C514.739 119.132 512.723 118.046 510.893 116.705C509.999 116.05 509.076 115.192 509.047 114.084C508.981 111.529 509.267 108.966 509.895 106.489C510.296 104.905 510.854 103.324 511.87 102.045ZM518.552 118.207C521.86 119.157 525.379 116.597 526.633 113.391C527.886 110.186 527.422 106.585 526.733 103.213C526.469 101.919 525.085 101.195 523.81 100.849C521.835 100.313 519.736 100.242 517.73 100.643C516.734 100.843 515.715 101.184 515.016 101.922C514.634 102.324 514.371 102.82 514.112 103.31L512.174 106.973C511.833 107.617 511.489 108.267 511.289 108.968C510.69 111.064 511.482 113.391 512.945 115.007C514.409 116.622 516.456 117.605 518.552 118.207ZM474.272 155.245C477.306 156.303 480.056 158.165 482.165 160.589C483.978 162.673 485.359 165.377 484.978 168.113C484.838 169.117 484.468 170.074 484.045 170.996C482.445 174.487 479.692 177.832 475.912 178.508C473.93 178.862 471.885 178.437 469.978 177.789C467.773 177.038 465.67 175.986 463.747 174.67C462.728 173.972 461.715 173.144 461.268 171.992C460.96 171.198 460.95 170.323 460.962 169.472C460.99 167.365 461.13 165.224 461.864 163.249C462.793 160.751 464.611 158.689 466.539 156.849C467.314 156.109 468.136 155.38 469.132 154.983C470.761 154.334 472.616 154.667 474.272 155.245ZM477.374 173.603C479.566 171.434 480.842 168.289 480.495 165.224C480.147 162.159 478.073 159.283 475.172 158.237C473.966 157.802 472.629 157.681 471.394 158.022C470.727 158.207 470.102 158.521 469.519 158.892C467.021 160.48 465.268 163.19 464.842 166.119C464.417 169.047 465.326 172.144 467.268 174.378C468.511 175.808 470.541 176.421 472.421 176.184C474.301 175.946 476.026 174.936 477.374 173.603ZM200.485 137.178C200.383 135.733 198.451 135.354 197.003 135.396C189.401 135.62 181.808 136.189 174.258 137.103C173.017 137.253 172.917 139.252 173.912 140.008C174.908 140.763 176.294 140.623 177.531 140.447L200.485 137.178ZM176.182 146.949C176.248 146.205 177.183 145.936 177.925 145.852L222.703 140.781C223.513 140.689 224.376 140.606 225.105 140.971C225.833 141.336 226.303 142.333 225.827 142.995C225.476 143.483 224.804 143.582 224.206 143.64L178.406 148.084C177.454 148.176 176.098 147.903 176.182 146.949ZM276.568 154.492C274.062 155.042 271.491 154.138 269.089 153.24C261.32 150.337 253.581 147.353 245.874 144.29C242.763 143.054 239.349 144.905 236.551 146.744C228.453 152.063 220.656 157.841 213.211 164.041C211.299 165.634 208.356 164.516 206.427 162.944C206.019 162.611 205.618 162.256 205.215 161.9C203.713 160.573 202.191 159.228 200.248 158.952C197.261 158.529 194.634 160.793 192.469 162.894L178.512 176.449C176.635 178.272 174.659 181.192 176.33 183.206C177.432 184.534 179.456 184.467 181.171 184.268C190.125 183.23 199.034 181.775 207.941 180.32L207.942 180.32L207.942 180.32C222.663 177.915 237.375 175.512 252.264 174.997C255.563 174.883 258.865 174.862 262.166 174.841C264.234 174.827 266.301 174.814 268.368 174.778C277.691 174.616 287.005 173.988 296.266 172.897C296.714 172.844 297.224 172.752 297.456 172.365C297.631 172.073 297.588 171.705 297.538 171.368L293.615 144.68C293.416 143.324 293.068 141.756 291.829 141.17C290.577 140.579 289.102 141.342 288.074 142.27C286.466 143.723 285.227 145.652 284.005 147.555C282 150.677 280.04 153.729 276.568 154.492ZM212.869 169.095C221.246 162.207 229.981 155.755 239.027 149.771C240.885 148.543 243.142 147.285 245.218 148.092L267.152 156.615C270.813 158.038 274.817 159.479 278.575 158.338C282.944 157.012 285.556 152.665 287.756 148.665C288.183 147.887 289.428 147.976 290.045 148.616C290.661 149.255 290.817 150.196 290.944 151.075L292.549 162.204C292.796 163.913 293.038 165.687 292.544 167.341C292.05 168.996 290.599 170.498 288.873 170.465C260.639 169.92 232.35 172.248 204.584 177.402C203.725 177.562 202.865 177.724 202.005 177.886L202.004 177.887C195.371 179.139 188.713 180.396 181.972 180.418C185.227 175.808 189.352 171.892 193.448 168.009C195.696 165.877 198.508 163.578 201.527 164.275C203.158 164.652 204.408 165.823 205.652 166.989L205.652 166.989L205.652 166.989L205.653 166.989L205.653 166.989L205.653 166.99L205.653 166.99L205.653 166.99L205.653 166.99L205.653 166.99L205.654 166.99L205.654 166.99L205.654 166.991C206.052 167.364 206.45 167.736 206.859 168.082C208.548 169.507 211.162 170.499 212.869 169.095ZM575.094 246.734C574.345 247.013 573.509 246.822 572.747 246.582C567.584 244.959 563.391 241.329 559.27 237.762C558.712 237.279 558.155 236.797 557.597 236.321C550.769 230.497 543.359 225.355 535.513 220.998C534.715 220.555 533.878 220.088 533.389 219.317C532.9 218.546 532.915 217.372 533.669 216.857C537.187 214.455 539.469 210.333 539.636 206.076C539.681 204.941 540.963 204.185 542.094 204.276C543.226 204.367 544.212 205.047 545.138 205.704L580.989 231.153C581.687 231.648 582.439 232.223 582.61 233.061C582.749 233.746 582.463 234.438 582.174 235.074C580.628 238.486 578.85 241.793 576.856 244.964C576.404 245.682 575.889 246.437 575.094 246.734ZM539.227 216.544C538.805 217.287 538.441 218.362 539.123 218.876L568.379 240.904C569.981 242.11 572.471 243.241 573.732 241.682C575.181 239.891 576.534 238.024 577.784 236.09C578.126 235.56 578.474 234.956 578.351 234.338C578.239 233.773 577.764 233.364 577.318 233.002C566.581 224.296 555.213 216.369 543.333 209.303L539.227 216.544ZM524.667 230.014C525.139 229.204 525.713 228.317 526.629 228.118C527.331 227.966 528.044 228.266 528.69 228.58C532.213 230.291 535.439 232.609 538.184 235.403C538.844 236.075 538.926 237.157 538.632 238.052C538.338 238.947 537.732 239.701 537.138 240.432C536.184 241.608 535.167 242.831 533.759 243.389C532.239 243.991 530.471 243.701 529.031 242.926C527.592 242.151 526.437 240.939 525.419 239.66C524.091 237.991 522.902 235.99 523.108 233.868C523.243 232.477 523.963 231.221 524.667 230.014ZM530.828 239.354C533.044 240.216 534.461 239.533 534.519 238.08C534.556 237.163 533.756 236.457 533.029 235.898L530.828 234.205C530.101 233.646 529.299 233.06 528.382 233.066C527.464 233.071 526.53 234.018 526.906 234.855C526.849 235.259 528.613 238.493 530.828 239.354ZM522.084 257.24C522.624 257.536 523.197 257.826 523.812 257.838C524.428 257.851 525.096 257.503 525.247 256.906C525.602 255.504 526.53 254.342 527.437 253.205C527.536 253.08 527.635 252.956 527.733 252.833C528.727 251.574 529.687 250.149 529.713 248.545C529.74 246.942 528.412 245.233 526.823 245.451C525.572 245.624 524.407 244.803 523.498 243.926C523.353 243.786 523.209 243.642 523.065 243.498C522.304 242.739 521.531 241.968 520.521 241.639C519.319 241.248 517.683 241.87 517.588 243.13C517.396 245.668 515.287 247.579 513.331 249.206C512.745 249.693 513.274 250.628 513.822 251.158C516.288 253.541 519.075 255.593 522.084 257.24ZM522.474 252.405L518.621 249.798C517.641 249.136 517.72 247.512 518.594 246.714C519.467 245.917 520.825 245.856 521.938 246.255C523.052 246.654 523.978 247.437 524.878 248.205C525.473 248.714 525.556 249.639 525.283 250.373C525.01 251.107 524.456 251.695 523.915 252.261C523.73 252.455 523.523 252.661 523.257 252.695C522.975 252.731 522.71 252.565 522.474 252.405ZM553.022 252.577L554.906 248.573C555.483 247.348 556.042 245.831 555.263 244.722C554.993 244.337 554.594 244.066 554.204 243.803L547.349 239.184C546.61 238.685 545.808 238.168 544.917 238.182C543.861 238.199 542.975 238.953 542.225 239.696C541.102 240.81 540.051 241.998 539.083 243.249C538.346 244.201 537.741 245.768 538.748 246.429L549.237 253.311C550.065 253.854 551.116 254.412 551.985 253.94C552.496 253.662 552.774 253.102 553.022 252.577ZM550.697 249.743C550.257 249.844 549.797 249.732 549.364 249.602C546.716 248.804 544.292 247.275 542.43 245.23C541.811 244.55 542.161 243.349 542.948 242.872C543.735 242.395 544.758 242.504 545.606 242.861C546.154 243.091 546.655 243.411 547.157 243.732C547.432 243.908 547.707 244.084 547.99 244.245C548.295 244.418 548.612 244.577 548.93 244.737C549.831 245.188 550.734 245.641 551.349 246.423C552.18 247.48 552.008 249.441 550.697 249.743ZM554.24 254.214C555.449 253.927 555.818 252.694 556.202 251.413C556.519 250.354 556.847 249.262 557.666 248.643C559.076 247.577 561.074 248.468 562.593 249.372L567.425 252.246C568.195 252.705 568.983 253.179 569.536 253.884C570.088 254.59 570.359 255.589 569.973 256.397C569.715 256.937 569.228 257.295 568.737 257.655C568.334 257.951 567.929 258.248 567.646 258.649C567.283 259.164 567.148 259.809 567.014 260.446C566.846 261.246 566.681 262.034 566.071 262.537C564.959 263.453 563.305 262.719 562.075 261.968L555.267 257.808C554.581 257.388 553.856 256.927 553.519 256.197C553.182 255.466 553.457 254.4 554.24 254.214ZM563.165 258.345C564.139 258.012 564.923 257.289 565.675 256.585C566.22 256.075 565.491 255.236 564.84 254.87L560.67 252.521C560.235 252.276 559.629 252.053 559.292 252.421C558.206 253.606 558.048 255.541 558.928 256.887C559.807 258.233 561.643 258.864 563.165 258.345ZM515.311 258.199C514.378 257.936 513.427 257.668 512.665 257.148C511.48 256.34 509.832 256.536 508.589 257.25C507.346 257.964 506.419 259.108 505.522 260.226C505.025 260.846 504.513 261.493 504.323 262.266C504.133 263.038 504.36 263.974 505.055 264.361L512.328 268.415C512.878 268.722 513.494 269.04 514.109 268.903C514.722 268.767 515.145 268.223 515.514 267.715L517.385 265.14C518.427 263.707 519.515 261.88 518.754 260.28C518.143 258.998 516.747 258.604 515.311 258.199ZM513.009 264.869C512.629 264.97 512.238 264.786 511.887 264.608L506.932 262.086C507.885 260.738 509.697 260.22 511.34 260.384C512.983 260.547 514.508 261.277 515.994 261.996L513.717 264.361C513.513 264.573 513.294 264.794 513.009 264.869ZM478.683 164.036C479.45 165.206 479.21 166.769 478.701 168.072C478.03 169.789 476.896 171.381 475.295 172.294C473.694 173.208 471.59 173.341 470.03 172.359C468.469 171.377 467.686 169.194 468.522 167.551C468.716 167.171 468.979 166.834 469.243 166.497C469.496 166.175 469.748 165.853 469.939 165.492C470.065 165.255 470.163 165.003 470.261 164.752C470.402 164.389 470.543 164.027 470.766 163.711C471.56 162.586 473.125 162.365 474.501 162.385C476.063 162.407 477.826 162.73 478.683 164.036ZM475.197 164.779C473.06 164.752 471.056 166.544 470.845 168.67C470.758 169.539 471.127 170.619 471.992 170.739C472.64 170.829 473.209 170.328 473.644 169.84C474.566 168.807 475.357 167.658 475.995 166.429C476.208 166.017 476.397 165.488 476.116 165.118C475.911 164.848 475.535 164.783 475.197 164.779ZM526.297 109.055C526.132 107.099 524.823 105.175 522.922 104.685C520.507 104.062 518.166 105.762 516.249 107.358C515.682 107.829 515.09 108.337 514.85 109.034C514.442 110.218 515.175 111.465 515.897 112.488C516.724 113.658 517.608 114.836 518.814 115.609C520.021 116.383 521.63 116.684 522.896 116.011C523.541 115.669 524.043 115.109 524.48 114.522C525.652 112.947 526.461 111.012 526.297 109.055ZM520.941 114.071C520.122 114.194 519.273 113.863 518.671 113.296C517.768 112.446 517.41 111.079 517.726 109.88C518.058 108.618 519.117 107.575 520.385 107.264C521.653 106.952 523.075 107.385 523.954 108.35C523.921 108.613 523.894 108.878 523.866 109.143L523.866 109.143C523.773 110.043 523.679 110.944 523.368 111.789C522.965 112.883 522.094 113.898 520.941 114.071ZM455.938 419.234C460.39 403.482 468.797 389.186 477.117 375.089C478.523 372.706 480.266 370.082 482.996 369.63C484.072 369.452 484.64 368.283 485.006 367.255C489.519 354.598 489.953 340.522 486.231 327.61C485.169 323.925 486.477 320.018 487.771 316.407L497.792 288.453C496.75 286.651 494.779 285.859 492.783 285.056C491.113 284.385 489.424 283.707 488.247 282.424C484.921 278.798 487.43 273.034 490.036 268.86L535.71 195.714C537.575 192.727 541.668 191.79 545.099 192.586C548.53 193.382 551.46 195.542 554.281 197.649L587.593 222.53C593.552 226.981 600.131 232.667 599.788 240.097C599.598 244.209 597.245 247.864 594.969 251.294L568.569 291.075C565.155 296.219 564.741 302.473 564.325 308.755V308.756C564.137 311.597 563.949 314.444 563.482 317.197C561.206 330.628 552.261 341.751 543.691 352.408C543.349 352.834 543.008 353.258 542.667 353.682C533.798 364.728 524.924 377.063 524.425 391.221C523.831 408.096 515.815 424.576 502.906 435.46L514.139 408.21C516.81 401.729 519.284 393.667 514.813 388.268C512.791 385.825 509.733 384.533 506.799 383.329L489.354 376.171C488.151 375.678 486.911 375.177 485.611 375.169C481.558 375.144 479.147 379.539 477.504 383.244C471.819 396.06 464.558 408.177 455.938 419.234ZM513.301 382.227C516.292 383.334 520.504 384.007 521.921 381.15C528.781 367.321 535.83 353.226 546.75 342.314C553.044 336.025 556.902 327.633 559.085 319.007C561.268 310.382 561.886 301.448 562.495 292.572C559.845 293.536 559.615 297.112 559.626 299.932C559.651 306.149 558.564 312.369 556.432 318.208C555.986 319.431 555.387 320.751 554.192 321.267C552.998 321.783 551.238 320.747 551.639 319.509C554.721 310.01 555.869 299.888 554.994 289.94C554.723 286.855 554.149 283.556 551.956 281.37C552.194 286.24 552.431 291.132 551.938 295.983C551.084 304.376 548.075 312.378 545.092 320.269C544.705 321.294 544.237 322.411 543.253 322.892C542.269 323.374 540.742 322.611 540.999 321.546L545.466 303.082C547.922 292.93 550.337 282.009 546.535 272.28C544.62 272.152 544.169 274.89 544.34 276.802C545.511 289.894 541.892 302.889 538.308 315.536C537.89 317.012 536.409 318.858 535.259 317.843C534.763 317.405 534.74 316.65 534.78 315.99C535.006 312.271 536.026 308.67 537.044 305.074C537.36 303.957 537.676 302.842 537.968 301.723C540.661 291.408 541.348 280.575 539.979 270.003C537.619 273.027 536.619 276.863 535.674 280.581L530.068 302.648C527.533 312.624 524.295 323.591 515.507 328.95C514.807 329.377 513.996 329.774 513.198 329.585C512.207 329.35 511.645 328.325 511.231 327.394C505.623 314.761 504.922 300.023 509.307 286.916C509.573 286.12 508.764 285.289 507.928 285.223C507.092 285.157 506.309 285.613 505.623 286.096C498.428 291.173 495.672 300.37 493.383 308.874L490.34 320.18C489.895 321.832 489.448 323.498 489.356 325.206C489.214 327.801 489.892 330.341 490.567 332.867C490.723 333.453 490.879 334.037 491.025 334.622C493.952 346.369 492.629 359.127 487.355 370.024C486.578 371.631 488.631 373.092 490.304 373.712L513.301 382.227ZM524.668 274.318C523.468 273.491 522.183 272.548 521.812 271.139C521.243 268.979 523.301 266.808 525.516 266.518C527.731 266.227 529.898 267.296 531.734 268.57C534.319 270.363 537.592 267.628 539.528 265.147C536.916 263.585 534.425 261.16 534.322 258.118C534.219 255.076 537.917 252.179 540.378 253.969C541.333 254.664 542.489 255.089 543.631 255.509C545.343 256.139 547.026 256.758 547.965 258.257C549.033 259.962 548.653 262.268 547.566 263.961C546.479 265.654 544.806 266.869 543.172 268.043C545.517 268.275 547.8 269.111 549.74 270.448L551.855 264.286C552.019 263.808 552.197 263.309 552.573 262.971C553.298 262.321 554.426 262.522 555.354 262.816C557.789 263.589 560.177 264.796 561.784 266.781C563.391 268.767 564.061 271.652 562.938 273.946C561.815 276.241 558.646 277.465 556.498 276.081C556.052 275.794 555.605 275.41 555.157 275.027C553.96 274.001 552.763 272.975 551.608 273.796C555.136 276.544 557.559 280.672 558.24 285.092C569.347 268.172 580.336 251.174 591.204 234.099C592.242 232.469 593.079 229.9 591.389 228.963C584.171 224.959 577.792 219.596 571.427 214.246C563.394 207.493 555.385 200.761 545.745 196.808C545.133 196.557 544.464 196.314 543.825 196.482C543.154 196.659 542.683 197.242 542.261 197.792C524.311 221.222 508.2 246.061 494.127 272.005C492.164 275.625 494.792 279.94 497.305 283.201C498.561 284.831 500.986 286.552 502.356 285.017C504.082 283.082 506.912 281.976 509.357 282.84C511.802 283.704 513.323 286.883 511.993 289.11C511.032 290.72 512.914 292.509 514.559 293.41C517.846 295.211 521.217 296.856 524.658 298.34C525.136 298.546 525.693 298.748 526.159 298.515C526.602 298.293 526.782 297.765 526.921 297.288L530.733 284.172C531.36 282.015 531.779 279.215 529.929 277.941L524.668 274.318ZM592.86 237.549C592.354 237.376 591.892 237.882 591.594 238.327L563.052 281.053C562.284 282.202 561.497 283.397 561.273 284.761C561.05 286.125 561.551 287.711 562.792 288.318C564.848 289.324 566.998 287.211 568.317 285.341L594.837 247.755C596.806 244.965 595.139 241.149 593.454 238.179C593.308 237.922 593.139 237.645 592.86 237.549ZM512.499 294.603C511.996 294.237 511.245 294.455 510.824 294.913C510.404 295.37 510.232 295.997 510.073 296.598C509.683 298.077 509.291 299.572 509.233 301.1C509.175 302.629 509.453 304.149 509.73 305.654L512.463 320.511C512.578 321.134 512.712 321.796 513.154 322.25C513.595 322.703 514.456 322.802 514.814 322.279C518.859 316.363 522.962 310.331 525.078 303.483C525.341 302.631 525.417 301.434 524.583 301.121C520.287 299.504 516.21 297.305 512.499 294.603ZM544.063 257.945C542.693 256.64 540.882 255.806 539 255.614C537.284 255.439 536.294 257.85 537.077 259.386C537.861 260.923 539.591 261.684 541.192 262.326C542.322 262.779 543.693 263.206 544.678 262.491C546.094 261.463 545.33 259.152 544.063 257.945ZM532.795 275.161C533.353 274.764 533.426 273.952 533.27 273.284C532.681 270.769 529.923 269.485 527.447 268.748C526.49 268.463 525.298 268.264 524.623 269.001C524.06 269.616 524.18 270.635 524.666 271.313C525.152 271.991 525.913 272.409 526.647 272.804L530.471 274.864C531.198 275.255 532.122 275.64 532.795 275.161ZM554.553 266.097C553.743 267.181 553.826 268.758 554.502 269.93C555.177 271.102 556.347 271.916 557.581 272.471C558.004 272.661 558.469 272.828 558.923 272.737C559.315 272.66 559.65 272.396 559.889 272.076C560.772 270.896 560.343 269.118 559.331 268.046C558.319 266.973 556.879 266.436 555.493 265.934C555.254 265.847 554.975 265.763 554.757 265.894C554.737 265.906 554.718 265.92 554.7 265.935C554.644 265.981 554.597 266.039 554.553 266.097ZM171.046 364.363C171.575 360.45 172.317 356.144 175.391 353.666C177.843 351.691 181.208 351.375 184.356 351.315C194.668 351.117 205.014 352.791 214.737 356.233C217.813 357.321 221.032 358.755 222.714 361.551C224.534 364.578 224.091 368.396 223.587 371.892L215.778 426.144C221.163 410.433 225.029 394.201 227.304 377.749C228.366 370.074 228.736 361.267 223.379 355.668C215.017 346.929 215.245 334.481 215.477 321.823C215.677 310.899 215.88 299.82 210.566 290.835C208.832 287.903 212.698 284.876 215.913 283.751C230.083 278.789 245.188 276.512 260.192 277.077C262.942 298.806 263.686 320.787 262.411 342.652C262.125 347.555 269.08 348.821 273.962 348.279L443.325 329.499C444.172 329.405 445.089 329.279 445.689 328.674C446.391 327.969 446.426 326.859 446.415 325.864C446.016 286.182 444.874 246.508 442.99 206.87C442.917 205.322 442.72 203.546 441.439 202.675C440.479 202.022 439.216 202.108 438.06 202.221L317.175 213.939C325.117 176.485 333.103 138.327 329.481 100.211C303.055 117.831 268.956 117.699 237.249 115.833C235.932 115.755 234.611 115.676 233.288 115.597C202.775 113.774 170.956 111.872 143.525 125.071C157.888 163.152 172.415 204.719 160.476 243.629C159.42 247.071 158.163 250.453 156.907 253.833C154.97 259.044 153.035 264.251 151.838 269.672C149.865 278.609 150.161 288.616 155.45 296.085C163.109 306.901 169.195 319.199 170.584 332.38C171.901 344.887 168.957 357.291 166.017 369.682C162.945 382.628 159.877 395.559 161.676 408.576C161.981 410.778 162.53 413.146 164.255 414.55L171.046 364.363ZM183.028 207.192C186.231 207.306 187.504 211.327 187.913 214.505L191.156 239.674C184.825 236.392 175.918 241.963 176.1 249.093C170.764 238.795 169.954 226.993 169.152 215.311C168.977 212.77 168.803 210.234 168.583 207.721C166.227 180.843 158.127 154.846 150.077 129.095C148.929 125.423 153.887 123.042 157.693 122.484C182.673 118.821 207.954 119.327 233.247 119.833C244.712 120.062 256.179 120.292 267.621 120.133C287.953 119.851 309.466 117.927 325.959 106.033C329.666 130.745 324.627 155.677 319.653 180.296C318.98 183.626 318.308 186.95 317.659 190.268C312.214 218.109 308.508 247.785 318.926 274.172C319.365 275.284 317.868 276.122 316.698 276.366C308.129 278.153 299.27 278.538 290.578 277.501C286.85 277.056 283.161 276.353 279.471 275.649C276.692 275.12 273.913 274.59 271.117 274.17C250.064 271.011 228.09 274.29 208.876 283.457C208.106 283.824 207.19 283.652 206.384 283.373C202.493 282.026 199.717 278.431 198.332 274.553C196.947 270.675 196.749 266.49 196.564 262.376L195.789 245.123C195.761 244.504 195.923 243.662 196.544 243.642C230.201 242.591 263.82 240.322 297.313 236.841C295.897 228.917 295.757 220.766 296.899 212.797C297.62 207.767 292.889 203.18 287.852 202.507C282.815 201.834 277.834 204.115 273.651 207.002C272.087 208.082 270.584 209.255 269.083 210.427C266.571 212.389 264.061 214.348 261.266 215.867C259.437 216.861 257.237 217.662 255.316 216.86C252.966 215.877 252.178 213.081 251.474 210.585C251.43 210.428 251.386 210.272 251.342 210.118C250.425 206.903 248.912 203.703 246.249 201.681C243.587 199.66 239.57 199.156 236.942 201.222C234.695 202.989 233.985 206.049 233.608 208.882C233.575 209.134 233.542 209.388 233.51 209.642C233.176 212.247 232.831 214.939 231.276 217.028C229.57 219.321 225.762 220.304 223.89 218.144C220.189 213.872 213.694 212.976 208.244 214.475C202.793 215.974 198.13 219.437 193.608 222.829C190.88 218.56 190.654 212.812 193.039 208.342L193.079 208.268C193.528 207.429 194.043 206.465 193.646 205.611C193.401 205.081 192.859 204.757 192.323 204.527C189.116 203.151 185.019 204.327 183.028 207.192ZM279.399 279.34C281.192 279.697 283.396 280.497 283.507 282.322C284.564 299.728 298.397 315.369 315.404 319.222C332.411 323.074 351.26 315.284 361.176 300.94C371.092 286.596 371.869 266.67 363.737 251.244C355.017 234.7 333.825 225.915 315.957 231.436C315.128 227.78 315.221 223.919 316.226 220.307C316.413 219.637 316.656 218.936 317.197 218.498C317.726 218.07 318.441 217.973 319.116 217.891L369.448 211.829C373.873 211.296 378.31 210.762 382.766 210.726C401.932 210.568 421.083 208.657 439.902 205.024C442.826 244.29 444.202 283.671 444.026 323.045C444.018 324.913 443.449 327.395 441.582 327.449C409.905 328.372 378.478 332.539 347.038 336.707C325.915 339.508 304.787 342.309 283.573 344.128C278.845 344.533 274.085 344.89 269.36 344.44C268.504 344.358 267.538 344.183 267.073 343.46C266.792 343.023 266.761 342.478 266.737 341.959L263.913 278.981C263.876 278.167 263.926 277.186 264.63 276.778C265.097 276.507 265.682 276.604 266.211 276.71L279.399 279.34ZM192.735 264.759C192.234 268.03 191.671 271.71 193.814 274.185C201.807 283.416 210.111 293.278 212.235 305.303C213.227 310.918 212.801 316.697 212.377 322.452C211.842 329.702 211.31 336.915 213.619 343.716C213.679 343.893 213.741 344.071 213.804 344.249C214.228 345.462 214.66 346.698 214.523 347.963C214.365 349.415 213.105 350.876 211.665 350.628L194.956 347.746C189.422 346.792 183.576 345.863 178.319 347.838C177.303 348.22 176.133 347.55 175.589 346.611C175.044 345.672 174.973 344.541 174.925 343.456C174.868 342.147 174.826 340.828 174.783 339.506C174.513 331.187 174.238 322.713 170.387 315.424L158.103 292.169C156.289 288.736 154.433 285.15 154.308 281.27C154.224 278.678 154.924 276.133 155.618 273.634L161.746 251.559C163.036 246.911 164.401 242.116 167.457 238.383C174.88 250.977 175.612 267.269 169.349 280.478C168.77 281.7 170.54 282.958 171.802 282.471C173.063 281.984 173.704 280.602 174.149 279.325C175.93 274.21 176.555 268.817 177.18 263.416C177.687 259.047 178.193 254.672 179.314 250.435C180 247.839 180.991 245.19 182.995 243.403C184.999 241.617 188.268 241.005 190.368 242.678C191.975 243.958 192.498 246.145 192.804 248.177C193.61 253.538 193.607 259.019 192.793 264.379C192.774 264.505 192.754 264.632 192.735 264.759ZM221.567 221.177C224.03 223.062 226.442 224.908 229.398 224.566C233.154 224.132 235.495 220.265 236.586 216.644C236.825 215.852 237.037 215.041 237.25 214.228C238.01 211.327 238.775 208.404 240.766 206.221C241.344 205.587 242.177 204.996 242.999 205.245C243.664 205.446 244.052 206.121 244.361 206.743C244.799 207.626 245.214 208.524 245.628 209.421C246.797 211.954 247.967 214.487 249.665 216.687C251.964 219.668 255.543 222.012 259.285 221.602C262.631 221.235 265.246 218.866 267.794 216.556C268.317 216.083 268.836 215.612 269.359 215.161C275.497 209.868 283.491 206.771 291.593 206.548C290.5 209.279 291.229 212.258 291.944 215.182C292.116 215.886 292.287 216.586 292.432 217.279C293.576 222.747 292.998 228.563 290.8 233.698L236.686 237.864C224.053 238.837 211.388 239.81 198.726 239.365C197.926 239.337 197.106 239.298 196.37 238.984C194.98 238.389 194.154 236.906 193.855 235.424C193.184 232.101 194.716 228.641 197.037 226.17C199.357 223.698 202.387 222.034 205.363 220.412C208.46 218.723 211.898 216.978 215.351 217.699C217.649 218.178 219.624 219.69 221.567 221.177ZM324.038 300.004C315.84 299.835 308.737 293.147 306.303 285.317C305.806 283.718 306.84 281.964 308.265 281.087C309.691 280.209 311.416 280.001 313.08 279.815L325.091 278.465C321.439 271.365 318.837 263.725 317.397 255.871C317.267 255.159 317.148 254.411 317.373 253.722C317.768 252.513 319.071 251.877 320.276 251.472C330.036 248.192 341.754 252.174 347.493 260.722C353.232 269.27 352.48 281.626 345.744 289.413C342.828 292.784 339.006 295.272 334.981 297.187C331.548 298.82 327.839 300.082 324.038 300.004ZM362.94 257.803C364.399 262.62 364.82 267.686 365.021 272.715C361.745 272.219 358.437 271.938 355.124 271.873C354.476 263.414 348.847 255.772 341.445 251.626C334.044 247.48 325.11 246.585 316.747 248.004C316.676 246.812 316.458 245.568 316.241 244.323C315.667 241.04 315.094 237.757 317.217 235.426C318.499 234.018 320.452 233.455 322.324 233.107C330.851 231.518 339.943 233.182 347.354 237.689C354.765 242.195 360.427 249.501 362.94 257.803ZM302.815 284.463C302.802 284.619 302.789 284.773 302.782 284.92C302.726 286.089 303.271 287.161 303.81 288.222C303.955 288.506 304.099 288.79 304.231 289.074C304.856 290.421 305.159 292.194 304.114 293.248C301.587 295.799 299.354 298.64 297.473 301.699C297.008 302.455 295.863 302.517 295.098 302.066C294.333 301.615 293.859 300.81 293.417 300.04C290.621 295.165 287.755 290.066 287.406 284.457C287.363 283.76 287.44 282.915 288.058 282.59C288.331 282.447 288.652 282.443 288.96 282.442L301.465 282.404C301.763 282.403 302.078 282.406 302.337 282.554C302.951 282.902 302.881 283.712 302.815 284.463Z" fill="#252525"/>
</g>
</svg>
