<svg width="306" height="595" viewBox="0 0 306 595" fill="none" xmlns="http://www.w3.org/2000/svg">
<g opacity="0.4">
<path fill-rule="evenodd" clip-rule="evenodd" d="M305 0.00194966C210.436 -0.0192557 50.5197 40.0432 49 98.4577L50.5197 288.29C63.8591 433.352 164.994 555.244 305 595C445.006 555.244 546.141 433.352 559.48 288.29L561 98.4577C560.783 52.7664 399.564 -0.0192557 305 0.00194966Z" fill="#DFF6E4"/>
<path fill-rule="evenodd" clip-rule="evenodd" d="M300.598 439.161L300.604 439.125C299.343 447.482 294.533 454.578 286.176 460.412C276.715 466.877 264.889 488.4 286.176 488.4C291.762 488.4 304.862 485.905 309.119 481.226C310.381 479.965 311.642 477.126 312.903 472.711C314.323 468.612 315.821 465.852 317.397 464.433C319.605 472.948 320.476 491.828 314.011 505.073C307.704 517.845 305.654 527.543 307.862 534.166C314.169 537.792 327.099 535.792 346.651 532.166C350.593 489.749 351.54 426.344 346.651 350.815C359.581 347.976 364.387 345.147 369.905 345.462C378.42 345.777 396.009 348.157 401.212 355.095C424.234 385.212 436.907 405.618 440.692 413.817C442.269 417.602 447.314 436.752 455.829 469.55C455.514 472.231 456.302 500.119 455.829 502.641C466.928 525.111 477.826 518.376 490.362 518.376C489.731 513.488 487.996 498.729 482.32 491.16C476.013 483.118 479.087 469.164 477.826 464.433C477.037 460.964 476.328 455.524 475.697 448.113C475.224 440.229 474.593 434.474 473.805 430.847C462.61 380.389 451.572 339.155 440.692 307.145C445.75 308.47 461.219 315.192 472.019 314.565C489.499 313.55 507.903 308.47 505.191 299.969C504.245 295.396 501.564 292.873 497.149 292.4C496.361 292.243 494.311 292.164 491 292.164C488.319 292.164 486.111 291.927 484.377 291.454C477.415 289.771 467.884 293.191 460.268 291.454C441.492 287.173 424.78 276.896 417.039 266.464C404.898 249.907 387.093 240.525 383.624 238.317C376.843 233.902 376.831 229.96 363.585 226.491C345.61 221.761 299.99 179.469 295.102 174.896C289.74 169.85 286.823 165.435 286.35 161.651C285.877 156.763 288.006 147.933 292.736 135.16C296.836 123.807 297.467 114.819 294.629 108.197C294.471 111.193 294.16 88.8019 288.168 80.2871C286.275 77.4488 283.516 73.8221 279.889 69.407C275.474 64.0458 272.636 60.5768 271.374 59C266.486 60.4191 262.229 64.9919 258.602 72.7183C254.66 81.3908 251.112 86.6732 247.959 88.5653C247.07 88.3604 239.088 84.894 233.737 83.7149C226.741 82.1729 219.036 82.668 218.232 80.5236C216.97 76.7392 215.945 73.9798 215.157 72.2453C212.319 66.2534 208.455 63.2574 203.567 63.2574C198.048 63.2574 191.268 66.1021 187.011 75.2477C186.222 76.9822 182.123 83.1674 176.131 100.355C167.616 124.638 166.512 146.513 167.616 155.974C171.085 185.619 175.658 204.383 181.334 212.267C181.965 212.897 183.857 213.607 187.011 214.395C189.534 215.026 190.874 216.209 191.032 217.943C189.77 223.305 175.641 236.031 172.645 246.123C169.492 256.53 167.284 264.335 166.023 269.538C161.45 287.829 160.267 304.544 162.475 319.681C163.894 329.3 164.682 344.358 164.84 364.857C164.998 386.617 165.629 402.464 166.732 412.398C167.205 417.129 168.23 423.436 169.807 431.32C171.857 440.939 173.118 447.325 173.591 450.478C175.957 465.616 175.484 478.703 172.172 489.741C164.761 499.202 154.681 513.077 152 527.899C152 539.146 182.842 542.541 197.805 525.736C201.437 521.658 203.845 497.58 201.322 476.766C200.06 465.255 202.999 445.354 205.049 424.697C207.257 401.676 210.591 386.061 210.433 379.439C209.96 364.459 216.182 340.169 221.543 337.646C242.042 350.261 285.624 361.388 287.832 362.492C289.724 363.596 290.828 364.778 291.143 366.04C297.17 415.18 300.319 439.56 300.591 439.179L300.598 439.161Z" fill="white"/>
<path fill-rule="evenodd" clip-rule="evenodd" d="M213.237 248.525C211.168 249.725 208.329 242.706 209.567 239.503C213.928 228.222 218.05 231.354 217.328 236.868C216.607 242.369 217.328 246.153 213.237 248.525Z" fill="#FFB61D"/>
<path fill-rule="evenodd" clip-rule="evenodd" d="M277.352 51.7149C276.585 49.9896 275.817 48.2642 274.992 46.5771C273.189 42.8902 268.32 41.7481 265.671 44.3832C264.106 45.9405 262.552 47.511 260.999 49.0815L260.999 49.0816L260.999 49.0817L260.999 49.0817L260.999 49.0818L260.999 49.0819L260.999 49.082L260.999 49.0821L260.998 49.0823L260.998 49.0827L260.997 49.0837C257.605 52.5132 254.214 55.9426 250.694 59.2352L250.195 59.7073C245.728 63.9742 242.022 68.7293 239.54 74.4059C239.341 74.8619 239.381 75.4227 239.421 75.9835C239.44 76.2433 239.458 76.5032 239.453 76.7526C239.723 76.7189 240.02 76.7151 240.317 76.7112C240.972 76.7027 241.627 76.6942 241.994 76.3648C242.689 75.7411 243.245 74.9681 243.803 74.1925L243.803 74.1925L243.803 74.1924L243.803 74.1924L243.803 74.1923L243.803 74.1923C244.154 73.7055 244.505 73.2176 244.891 72.765C248.959 68.0022 253.05 63.2586 257.171 58.5423C257.363 58.3227 257.706 58.2348 258.048 58.1469C258.208 58.106 258.367 58.0651 258.511 58.011C258.502 58.1831 258.504 58.3581 258.505 58.5332V58.5333C258.508 58.9127 258.511 59.2922 258.41 59.6416C258.149 60.5444 257.85 61.4395 257.55 62.3342C256.989 64.013 256.427 65.6903 256.123 67.414C255.315 71.9844 254.727 76.6086 254.397 81.2351C254.347 81.936 255.323 82.7754 256.209 83.4624L256.804 83.9182C256.962 84.0392 258.502 83.0218 258.677 82.3432C259.096 80.7225 259.419 79.0771 259.741 77.4316L259.741 77.4313C260.064 75.7863 260.387 74.1413 260.805 72.5212C261.007 71.7411 261.205 70.9604 261.403 70.1799L261.403 70.1798C263.077 63.5828 264.746 57.0051 268.449 51.0494C270.208 48.2189 271.206 49.1551 272.221 50.9648L273.747 53.7007C275.645 57.1263 277.517 60.575 279.405 64.0536L279.406 64.0552L279.415 64.0721C281.048 67.0813 282.693 70.1129 284.379 73.1712C285.073 74.6606 285.788 76.1244 286.498 77.5765C288.416 81.5025 290.293 85.3423 291.597 89.3676C293.215 94.362 294.96 99.9028 294.317 104.903C293.46 111.57 288.116 126.18 288.116 126.18C281.934 146.965 251.957 186.503 239.476 194.198C228.024 201.258 215.621 205.802 201.978 206.334C194.319 206.633 187.809 203.664 181.516 199.806L180.619 199.249C175.551 196.068 172.265 192.04 171.795 185.81C171.435 181.026 170.978 176.248 170.521 171.47L170.521 171.47L170.521 171.469L170.521 171.469L170.521 171.469L170.521 171.469L170.521 171.469L170.521 171.468L170.521 171.468L170.521 171.468L170.521 171.468C169.765 163.568 169.01 155.669 168.69 147.752C168.343 139.196 168.95 130.521 170.024 122.012C170.982 114.431 172.621 106.919 174.329 99.4461L175.063 96.2455C179.011 79.0577 188.419 65.1832 201.627 53.7428C206.361 49.6425 210.37 50.3186 213.421 55.8034C214.72 58.1384 215.96 60.5065 217.199 62.8746C218.466 65.2952 219.733 67.7158 221.063 70.101C221.389 70.6848 222.035 71.09 222.68 71.4953C222.978 71.6824 223.276 71.8694 223.543 72.0741C223.557 71.7523 223.607 71.415 223.657 71.0776C223.766 70.348 223.874 69.6183 223.623 69.0463L223.215 68.1174L223.215 68.1171C221.147 63.3993 219.074 58.6709 216.666 54.1245C213.14 47.4655 206.508 44.3088 199.442 49.6278C190.528 56.3383 183.354 64.7221 177.861 74.2599C175.049 79.1431 173.248 84.6435 171.462 90.0937L171.462 90.0937L171.462 90.094C171.094 91.2172 170.727 92.3382 170.352 93.4513L169.994 94.5255C166.692 104.561 164.448 114.865 163.712 125.431C163.478 128.786 163.566 132.165 163.654 135.542L163.654 135.542C163.682 136.604 163.71 137.665 163.727 138.725C163.755 140.4 163.773 142.075 163.791 143.751V143.751V143.751C163.845 148.809 163.9 153.869 164.229 158.909C164.49 162.91 164.9 166.902 165.309 170.893C165.794 175.615 166.278 180.336 166.517 185.071L166.544 185.526C167.554 200.475 180.87 208.73 192.179 211.515C201.98 213.929 212.511 213.368 222.594 209.486C234.094 205.878 243.527 199.038 252.422 191.784C263.923 182.405 292.91 134.056 297.896 116.828C300.869 106.556 300.364 96.8997 296.378 87.0805C292.839 78.362 288.2 70.3701 282.953 62.5789C280.693 59.2225 279.023 55.469 277.352 51.7149ZM164.961 311.357L164.961 311.357C164.652 304.955 164.341 298.525 164.896 292.186C165.903 280.686 168.608 269.504 173.856 259.031C175.988 254.776 177.738 250.262 179.085 245.696C180.781 239.949 184.386 235.557 188.015 231.135C188.649 230.363 189.283 229.59 189.908 228.809C192.79 225.207 195.542 221.482 198.097 217.643C199.374 215.725 199.919 215.449 201.216 217.592C206.609 226.504 218.978 228.498 227.799 222.925C242.234 213.806 254.664 202.33 267.094 190.854L267.907 190.104C273.746 184.714 278.958 178.595 281.592 170.78C281.881 169.922 282.535 169.118 283.199 168.474C283.674 168.014 284.255 167.662 284.836 167.311C285.091 167.158 285.345 167.004 285.59 166.841C285.571 167.118 285.565 167.398 285.558 167.678C285.544 168.281 285.531 168.884 285.386 169.455C283.134 178.345 277.931 185.505 271.628 191.849C264.013 199.513 256.372 207.197 248.21 214.257C242.29 219.377 235.639 223.708 229.032 227.95C226.866 229.341 224.105 229.909 221.459 230.454C221.109 230.526 220.761 230.598 220.416 230.671C218.368 231.105 217.741 232.011 217.67 234.009C217.647 234.672 217.64 235.341 217.633 236.012C217.593 239.725 217.552 243.481 214.757 246.495C213.548 247.798 212.014 248.861 210.466 249.748C210.013 250.008 208.641 249.517 208.296 248.981C204.915 243.723 203.33 238.118 208.445 233.092C210.302 231.267 208.223 230.353 207.674 230.186C204.879 229.33 203.345 227.261 201.793 225.167L201.792 225.167L201.792 225.167L201.792 225.167L201.792 225.166L201.792 225.166L201.792 225.166L201.792 225.166L201.792 225.166L201.792 225.166L201.791 225.166L201.791 225.165C201.465 224.725 201.138 224.284 200.798 223.853C200.455 223.417 198.861 223.241 198.677 223.512C197.026 225.935 195.273 228.292 193.519 230.649L193.519 230.649L193.519 230.649L193.518 230.649L193.518 230.649L193.518 230.65L193.518 230.65L193.518 230.65L193.518 230.65L193.518 230.65L193.518 230.65L193.518 230.651C189.033 236.679 184.547 242.709 181.784 249.832C181.078 251.654 180.364 253.473 179.65 255.293C177.509 260.749 175.368 266.206 173.424 271.732C169.15 283.885 168.275 296.47 169.133 309.248C169.25 310.991 169.373 312.735 169.495 314.479C170.018 321.918 170.541 329.362 170.646 336.809C170.78 346.389 170.397 355.987 169.926 365.562C169.709 369.978 169.284 374.383 168.859 378.789C168.592 381.551 168.325 384.314 168.11 387.08C167.241 398.235 169.073 409.148 171.03 420.072C171.804 424.394 172.242 428.779 172.679 433.161C172.799 434.36 172.919 435.559 173.045 436.756C174.399 449.558 175.565 462.434 173.925 475.231C173.642 477.445 173.473 479.693 173.304 481.945C172.769 489.061 172.231 496.222 168.056 502.517C166.657 504.626 165.01 506.728 163.035 508.263C162.087 509 161.257 509.533 160.497 510.021C157.816 511.744 155.992 512.916 152.83 520.529C149.5 528.545 153.192 531.37 155.563 533.184C156.082 533.581 156.538 533.93 156.843 534.274C156.081 535.671 152.047 535.384 150.523 534.274C145.696 530.76 145.696 524.367 147.737 518.666C149.98 512.4 152.949 507.065 159.035 504.704C165.056 502.368 166.932 497.297 167.766 491.971C169.214 482.726 170.564 473.366 170.676 464.039C170.77 456.268 169.873 448.469 168.98 440.698L168.98 440.697C168.814 439.258 168.649 437.819 168.49 436.382C167.261 425.274 165.979 414.154 164.14 403.136C162.839 395.336 163.388 387.609 163.936 379.886C164.114 377.384 164.292 374.882 164.406 372.378C164.735 365.196 165.301 358.025 165.866 350.854C166.233 346.206 166.599 341.559 166.902 336.908C167.025 335.014 166.922 333.106 166.813 331.093C166.755 330.015 166.695 328.908 166.668 327.756C166.48 326.132 166.252 324.559 166.027 323.017C165.63 320.283 165.247 317.647 165.132 314.999C165.079 313.789 165.02 312.577 164.962 311.364L164.962 311.363L164.962 311.362L164.962 311.362L164.962 311.361L164.961 311.36L164.961 311.36L164.961 311.359L164.961 311.358L164.961 311.358L164.961 311.357ZM211.844 245.037C213.755 243.229 213.753 240.945 213.751 238.657C213.749 236.869 213.747 235.079 214.657 233.508C214.798 233.264 214.148 232.166 213.771 232.111C213.198 232.027 212.238 232.331 211.976 232.781C211.256 234.018 210.639 235.314 210.022 236.61C209.74 237.202 209.458 237.794 209.166 238.381C207.628 241.472 208.851 243.654 211.844 245.037ZM318.089 504.993C319.618 501.585 320.864 497.837 321.196 494.148C322.041 484.752 322.691 475.303 322.693 465.874C322.695 458.33 322.328 450.786 321.96 443.241L321.96 443.241L321.959 443.237L321.959 443.233C321.793 439.83 321.628 436.427 321.496 433.025C321.427 431.246 321.377 429.467 321.327 427.688V427.687V427.687V427.687C321.292 426.414 321.256 425.142 321.214 423.87C320.593 405.328 314.921 388.284 305.52 372.462C304.582 370.882 301.546 369.462 299.704 369.697C293.806 370.452 288.208 369.416 282.544 368.368L282.541 368.367L282.536 368.366C281.533 368.181 280.529 367.995 279.52 367.818C270.702 366.277 262.212 363.858 254.475 359.489C248.036 355.853 241.903 351.651 235.788 347.461L235.788 347.461L235.788 347.461L235.787 347.46C235.223 347.074 234.659 346.687 234.094 346.301C229.496 343.155 224.948 339.868 220.776 336.191C218.358 334.06 217.077 335.237 216.16 337.036C212.153 344.893 208.391 352.912 207.282 361.776C205.692 374.477 204.14 387.192 203.035 399.941C201.916 412.873 201.098 425.832 200.281 438.79C200.122 441.309 199.963 443.829 199.801 446.348C199.204 455.687 198.75 465.035 198.329 474.384C197.996 481.76 198.512 488.96 199.867 496.355C201.505 505.289 201.694 514.965 197.82 523.521C194.368 531.146 187.89 536.155 179.178 537.095C174.17 537.635 170.566 532.239 173.281 527.929C174.681 525.708 176.931 523.997 179.144 522.314C179.755 521.849 180.363 521.387 180.949 520.917C181.314 520.624 182.024 520.763 182.735 520.902L182.736 520.902C183.063 520.966 183.391 521.03 183.685 521.051C183.577 521.314 183.484 521.587 183.39 521.86C183.184 522.466 182.978 523.071 182.611 523.554C182.219 524.071 181.739 524.542 181.261 525.009C180.493 525.761 179.734 526.505 179.365 527.417C178.877 528.624 179.1 530.569 179.818 531.647C180.263 532.315 182.583 532.544 183.441 531.997C188.899 528.515 193.617 524.39 194.591 517.37C194.746 516.256 195.097 515.149 195.447 514.047C195.943 512.484 196.434 510.934 196.352 509.4C196.084 504.414 195.537 499.443 194.989 494.472L194.989 494.472C194.723 492.064 194.458 489.656 194.224 487.247L194.188 486.871L194.188 486.871C193.909 483.994 193.628 481.106 193.602 478.221C193.517 468.724 193.468 459.225 193.575 449.729L193.593 448.177C193.748 434.419 193.903 420.657 194.353 406.907C194.55 400.888 195.206 394.879 195.861 388.88C195.96 387.967 196.06 387.054 196.158 386.141C196.891 379.322 197.684 372.501 198.75 365.729C200.558 354.247 203.766 343.195 209.803 333.133C210.775 331.513 210.431 328.723 206.138 329.11C203.95 329.307 200.063 330.069 196.654 330.736L196.654 330.736L196.654 330.736L196.653 330.736L196.653 330.737L196.652 330.737L196.648 330.737C193.376 331.378 190.547 331.933 190.088 331.817C190.538 331.054 199.353 327.094 203.384 326.757C213.162 325.94 220.967 330.759 228.606 336.187C229.245 336.642 229.885 337.097 230.524 337.553L230.525 337.554C240.369 344.566 250.243 351.6 261.841 355.625C270.001 358.458 278.274 360.784 286.97 361.324C288.629 361.427 290.277 361.692 291.926 361.957L291.927 361.957C293.049 362.137 294.172 362.318 295.298 362.447C295.722 362.496 296.169 362.344 296.615 362.192C296.821 362.122 297.026 362.052 297.23 362.002C297.14 361.841 297.056 361.675 296.973 361.509C296.789 361.143 296.605 360.778 296.352 360.469C295.554 359.497 294.729 358.536 293.84 357.65C275.16 339.022 260.588 313.444 260.713 312.429C261.099 312.684 263.063 315.238 265.472 318.371L265.472 318.371C268.334 322.094 271.826 326.635 274.048 329.11C283.455 339.582 293.212 349.748 303.043 359.828C314.286 371.356 321.161 385.13 324.66 400.673C326.453 408.639 327.851 416.646 327.293 424.95C326.887 430.987 326.812 437.048 326.737 443.108V443.109C326.705 445.637 326.674 448.166 326.618 450.693C326.588 452.096 326.556 453.498 326.525 454.901L326.525 454.906C326.378 461.456 326.231 468.005 326.148 474.556L326.147 474.598L326.146 474.708C326.131 476.486 326.026 488.487 322.693 500.334C320.061 509.694 315.017 518.984 313.034 522.635C312.644 523.355 312.372 523.855 312.261 524.094C310.847 527.137 310.947 529.112 313.674 529.459C315.986 529.754 318.923 529.427 319.673 525.729L319.714 525.526C319.91 524.551 320.117 523.521 320.634 522.723C320.937 522.255 321.496 521.954 322.055 521.653L322.055 521.653L322.055 521.652C322.304 521.519 322.552 521.385 322.777 521.237C322.834 521.381 322.708 521.886 322.532 522.591L322.531 522.591C321.889 525.159 320.582 530.376 325.072 530.433C329.627 530.49 329.377 527.892 329.22 526.264C329.195 526.002 329.172 525.765 329.172 525.568V525.524C329.172 524.104 329.172 522.004 330.36 521.81C333.005 521.378 333.128 523.934 333.216 525.775L333.217 525.791C333.239 526.249 333.226 526.707 333.214 527.159V527.159V527.16C333.161 529.07 333.111 530.859 335.698 531.969C338.544 533.19 340.652 532.365 342.488 530.499C344.428 528.527 343.875 526.383 342.055 524.555C338.335 520.815 338.484 515.894 338.682 511.357C339.08 502.21 339.823 493.077 340.566 483.945C340.764 481.507 340.962 479.07 341.154 476.632C341.426 473.181 341.751 469.733 342.076 466.286L342.076 466.285L342.076 466.285L342.076 466.284L342.076 466.284L342.076 466.283L342.077 466.283L342.077 466.282L342.077 466.281L342.077 466.281L342.077 466.28L342.077 466.277C342.369 463.184 342.661 460.091 342.914 456.994C343.293 452.352 343.648 447.707 344.003 443.062C344.417 437.641 344.831 432.22 345.284 426.802C345.421 425.164 345.646 423.529 345.871 421.896C346.207 419.457 346.542 417.02 346.584 414.576C346.648 410.904 346.48 407.229 346.313 403.553V403.552V403.552V403.552V403.552V403.551V403.551V403.551V403.551V403.55V403.55V403.55C346.217 401.456 346.122 399.363 346.069 397.269C346.026 395.536 346.032 393.8 346.038 392.065C346.046 389.614 346.055 387.165 345.923 384.722C345.804 382.515 345.732 380.296 345.66 378.076V378.076C345.457 371.804 345.253 365.523 343.991 359.468C343.055 354.975 339.835 346.541 337.597 340.677C336.315 337.321 335.356 334.807 335.33 334.357C336.256 335.098 343.126 346.138 345.323 351.056L345.366 351.151C347.463 355.846 347.572 356.09 352.146 354.099C361.008 350.24 370.213 347.665 379.806 346.518C380.468 346.439 381.144 346.506 381.823 346.572C382.408 346.629 382.994 346.687 383.572 346.651C384.204 346.612 384.826 346.416 385.449 346.22C385.726 346.133 386.004 346.046 386.282 345.972C386.09 345.734 385.911 345.475 385.733 345.216C385.345 344.652 384.957 344.088 384.427 343.746C382.852 342.731 381.243 341.772 379.633 340.812L379.632 340.812L379.632 340.811L379.631 340.811L379.63 340.81L379.629 340.81L379.629 340.81L379.628 340.809L379.627 340.809L379.626 340.808L379.625 340.808L379.624 340.807C378.024 339.853 376.424 338.899 374.858 337.892C371.667 335.838 369.703 334.461 367.037 332.591L367.036 332.59L367.035 332.59C366.399 332.143 365.723 331.669 364.98 331.151C364.47 330.795 362.51 328.772 362.198 328.131C362.866 327.927 383.15 334.707 389.69 342.895C395.374 350.012 400.719 357.417 405.935 364.889C412.465 374.242 418.781 383.746 425.054 393.274C425.546 394.021 426.039 394.768 426.531 395.515C431.692 403.346 436.857 411.183 441.644 419.24L442.171 420.126L442.171 420.127C446.382 427.21 450.646 434.383 453.628 442.005C457.813 452.701 461.347 463.704 461.558 475.498C461.616 478.685 462.087 481.862 462.559 485.042L462.559 485.042C462.947 487.654 463.334 490.268 463.493 492.891C463.87 499.121 462.443 505.114 460.218 510.989C459.789 512.122 460.348 513.662 460.879 515.122L460.88 515.123C461.039 515.561 461.195 515.991 461.322 516.402C461.402 516.662 462.653 516.729 463.314 516.612C465.671 516.193 466.169 514.555 466.424 512.356C466.634 510.538 467.398 508.764 468.142 507.035C468.236 506.816 468.33 506.599 468.422 506.381C468.601 505.96 469.802 505.531 470.171 505.741C470.67 506.025 471.053 506.914 471.073 507.558C471.094 508.211 471.026 508.876 470.958 509.539L470.958 509.539V509.54C470.856 510.53 470.755 511.514 470.954 512.439C471.287 513.99 472.188 515.523 473.202 516.77C473.566 517.218 475.71 517.033 475.793 516.759C476.119 515.68 476.195 514.523 476.27 513.37L476.27 513.368L476.27 513.366L476.271 513.363C476.29 513.06 476.31 512.757 476.335 512.455C476.348 512.286 476.313 512.113 476.278 511.939C476.24 511.755 476.203 511.571 476.225 511.394C476.391 510.026 476.58 508.66 476.769 507.294L476.769 507.293L476.769 507.292L476.769 507.292L476.769 507.291L476.769 507.29L476.769 507.289L476.776 507.244C476.839 506.787 476.902 506.329 476.964 505.871C477.248 506.207 477.532 506.543 477.816 506.879C478.813 508.057 479.81 509.236 480.788 510.43C480.852 510.507 480.85 510.643 480.847 510.776C480.845 510.912 480.843 511.046 480.911 511.112C481.222 511.416 481.526 511.742 481.83 512.068L481.831 512.068L481.831 512.069L481.832 512.069L481.832 512.069L481.832 512.07L481.833 512.07L481.833 512.07L481.833 512.071C482.707 513.007 483.586 513.949 484.667 514.41C485.219 514.646 487.359 512.943 487.503 511.941C487.729 510.361 487.421 508.101 486.396 507.05C481.649 502.184 478.526 496.407 477.073 489.953C476.342 486.706 476.067 483.362 475.791 480.014C475.614 477.866 475.437 475.716 475.14 473.589C475.004 472.617 474.868 471.645 474.732 470.672C473.312 460.496 471.891 450.315 470.145 440.193C468.843 432.644 467.339 425.13 465.836 417.615C465.079 413.83 464.321 410.045 463.59 406.255C463.486 405.718 463.569 405.132 463.649 404.57L463.65 404.562L463.656 404.516C463.663 404.469 463.67 404.421 463.676 404.374C465.183 393.389 463.102 382.685 460.572 372.148L460.13 370.307C456.902 356.855 453.662 343.348 449.183 330.294C446.508 322.495 442.894 315.019 439.279 307.543C437.698 304.272 436.117 301.001 434.614 297.703C434.049 296.463 433.498 295.217 432.947 293.97C431.56 290.834 430.173 287.697 428.572 284.674L428.094 283.77C424.5 276.981 420.898 270.174 416.808 263.685C411.714 255.603 405.548 248.207 397.441 243.044C390.89 238.871 383.848 235.356 376.73 232.214C368.868 228.743 360.857 225.61 352.848 222.477L352.839 222.473C350.43 221.531 348.022 220.589 345.618 219.638C344.001 218.998 342.356 218.428 340.711 217.857L340.711 217.857C338.819 217.201 336.928 216.545 335.08 215.784C334.518 215.553 334.129 214.903 333.739 214.253C333.56 213.954 333.381 213.655 333.185 213.397C333.471 213.391 333.762 213.365 334.054 213.338C334.679 213.281 335.305 213.224 335.876 213.374C351.31 217.453 365.889 223.749 380.482 230.051C382.726 231.02 384.969 231.989 387.216 232.95C398.55 237.796 408.191 244.671 415.595 254.389C420.22 260.459 424.684 266.84 427.988 273.677C431.628 281.211 437.838 285.306 444.715 288.497C452.778 292.239 461.296 295.23 470.446 294.452C475.603 294.014 480.73 293.158 485.846 292.305L486.272 292.234L487.024 292.108L487.7 291.996C493.733 290.997 501.421 294.494 500.118 301.059C499.297 305.196 496.271 307.246 492.782 308.18C491.493 308.525 490.203 308.887 488.912 309.249C480.994 311.47 473.014 313.709 464.663 312.265C460.592 311.561 456.597 310.417 452.602 309.273C450.668 308.719 448.734 308.165 446.791 307.661C446.253 307.521 445.691 307.473 445.129 307.426L445.129 307.426L445.128 307.425L445.128 307.425L445.127 307.425L445.127 307.425L445.126 307.425L445.126 307.425L445.125 307.425L445.124 307.425L445.124 307.425C444.863 307.402 444.601 307.38 444.342 307.349C444.414 307.551 444.48 307.756 444.546 307.961C444.688 308.4 444.83 308.84 445.029 309.252C452.575 324.874 458.217 341.128 461.583 358.174C462.259 361.599 463.049 365.001 463.838 368.404L463.839 368.406C464.824 372.653 465.81 376.9 466.574 381.186C467.233 384.887 467.569 388.644 467.906 392.403L467.906 392.403L467.906 392.404L467.906 392.404L467.906 392.405L467.906 392.405L467.906 392.406L467.906 392.406L467.906 392.407L467.906 392.408L467.906 392.408L467.907 392.409C468.093 394.492 468.279 396.576 468.52 398.651C468.645 399.72 468.767 400.79 468.888 401.86L468.89 401.875V401.875C469.426 406.596 469.963 411.321 470.751 416.001C471.644 421.312 472.613 426.611 473.581 431.91C474.987 439.6 476.392 447.29 477.568 455.016C478.328 460.007 478.748 465.048 479.169 470.091L479.169 470.092L479.169 470.095C479.456 473.538 479.743 476.981 480.138 480.41C481.197 489.597 483.184 498.459 490.067 505.402C492.607 507.964 492.916 512.463 491.124 515.502C489.158 518.835 486.059 519.972 481.815 519.004C480.968 518.811 479.921 518.578 479.203 518.897C475.528 520.531 472.002 521.839 468.519 518.382C468.237 518.102 466.578 518.962 465.728 519.54C460.075 523.382 455.234 519.581 454.988 513.683C454.899 511.556 455.339 509.286 456.062 507.269C458.971 499.152 458.912 490.851 458.076 482.451C457.883 480.512 457.75 478.563 457.616 476.615C457.38 473.161 457.143 469.71 456.576 466.312C454.154 451.811 448.722 438.381 440.855 426.005C430.017 408.956 419.033 391.999 407.951 375.108C405.598 371.521 403.079 368.045 400.559 364.567L400.558 364.566L400.558 364.566C398.535 361.775 396.512 358.984 394.575 356.135C391.723 351.94 387.583 352.363 383.785 352.752L383.784 352.752C383.164 352.816 382.554 352.878 381.96 352.919C375.045 353.4 368.604 355.771 362.159 358.144L362.158 358.145L362.158 358.145L362.157 358.145L362.157 358.145L362.157 358.145L362.157 358.145L362.156 358.145L362.156 358.145L362.156 358.145L362.156 358.145L362.156 358.145C359.166 359.246 356.177 360.347 353.138 361.259C348.927 362.523 349.281 364.968 349.649 367.509C349.724 368.027 349.799 368.549 349.837 369.065C350.001 371.32 350.247 373.57 350.493 375.819L350.493 375.821C350.794 378.575 351.095 381.328 351.246 384.09L351.333 385.667L351.387 386.648C351.922 396.363 352.457 406.085 352.542 415.807C352.573 419.328 352.137 422.849 351.702 426.373L351.702 426.373L351.702 426.374L351.702 426.374L351.702 426.374L351.702 426.375L351.702 426.375L351.702 426.376L351.702 426.376L351.702 426.376L351.702 426.377L351.702 426.377C351.447 428.435 351.193 430.495 351.031 432.556C350.633 437.628 350.271 442.703 349.91 447.778C349.419 454.656 348.929 461.534 348.348 468.404C348.132 470.967 347.935 473.535 347.738 476.103C347.054 485.026 346.369 493.957 344.851 502.738C343.428 510.968 344.977 518.193 347.956 525.568C349.655 529.771 345.514 535.635 340.656 535.683C340.201 535.688 339.725 535.72 339.24 535.753L339.24 535.753C336.777 535.919 334.086 536.101 332.816 532.765C332.711 532.488 330.945 532.353 330.659 532.714C329.121 534.652 327.232 534.445 325.348 534.238L325.347 534.238C324.671 534.164 323.995 534.09 323.337 534.115C322.669 534.141 321.993 534.124 321.319 534.108C320.096 534.078 318.876 534.048 317.702 534.27C314.028 534.968 310.904 533.841 308.665 531.199C306.479 528.619 307.079 525.554 309.045 522.597C309.713 521.341 310.382 520.097 311.047 518.86L311.048 518.859L311.048 518.858L311.049 518.857L311.05 518.856L311.05 518.855L311.051 518.854L311.051 518.853L311.052 518.852C313.548 514.212 315.987 509.678 318.089 504.993ZM496.326 300.788C496.072 300.42 495.839 299.983 495.607 299.545C495.095 298.583 494.582 297.62 493.848 297.4C491.37 296.658 488.538 296.02 486.075 296.498C476.145 298.427 466.299 300.306 456.336 296.806C455.5 296.512 454.661 296.225 453.822 295.937L453.822 295.937C447.2 293.67 440.583 291.404 435.568 286.028C435.373 285.818 435.046 285.731 434.72 285.643C434.568 285.603 434.416 285.562 434.277 285.509C434.263 285.729 434.221 285.963 434.18 286.197C434.09 286.701 434 287.206 434.184 287.574C436.13 291.461 438.113 295.336 440.276 299.105C440.834 300.077 441.954 301.001 443.015 301.365C444.523 301.882 446.027 302.418 447.532 302.954L447.536 302.956C452.455 304.708 457.382 306.463 462.445 307.578C470.514 309.354 478.694 307.864 486.547 305.786C487.185 305.617 487.86 305.486 488.551 305.352C491.373 304.802 494.453 304.203 496.326 300.788ZM198.844 157.568C193.465 160.232 187.971 161.659 182.332 160.485C180.535 160.11 178.365 157.79 177.804 155.926C176.383 151.209 175.485 146.325 174.59 141.458L174.59 141.456C174.487 140.898 174.384 140.34 174.281 139.783C173.512 135.634 176.021 133.062 179.483 131.996C186.92 129.708 194.491 128.573 201.843 132.564C210.385 137.201 209.472 149.754 204.009 153.648C202.686 154.591 201.4 155.588 200.013 156.663C199.632 156.958 199.243 157.26 198.844 157.568ZM200.428 138.175C200.322 138.058 200.217 137.91 200.112 137.762C199.885 137.44 199.657 137.118 199.417 137.109C198.356 137.067 197.291 137.133 196.226 137.198L196.226 137.198C195.835 137.223 195.444 137.247 195.053 137.266C195.205 137.571 195.364 137.875 195.522 138.178C195.876 138.856 196.23 139.534 196.516 140.239C196.976 141.373 197.382 142.53 197.787 143.686L197.787 143.686L197.787 143.686C197.92 144.064 198.052 144.441 198.186 144.818C198.347 145.269 198.496 145.724 198.646 146.18L198.646 146.18L198.646 146.18L198.646 146.18L198.646 146.18L198.646 146.181L198.646 146.181L198.646 146.181L198.646 146.181L198.646 146.181C198.714 146.387 198.781 146.593 198.85 146.799C199.052 146.691 199.265 146.595 199.479 146.499C199.942 146.29 200.405 146.081 200.752 145.751C203.222 143.401 202.253 140.975 200.428 138.175ZM305.77 392.831C305.708 391.977 305.646 391.116 305.582 390.248C305.466 389.816 305.31 389.505 305.176 389.239C305.066 389.02 304.971 388.832 304.928 388.632C304.602 387.12 304.294 385.604 303.985 384.088L303.985 384.088L303.985 384.087L303.985 384.086L303.985 384.085L303.985 384.084L303.984 384.083L303.984 384.083L303.984 384.082C303.311 380.773 302.638 377.464 301.787 374.202C301.74 374.021 301.704 373.802 301.666 373.566C301.469 372.35 301.199 370.688 298.86 371.465C296.462 372.261 296.675 373.422 297.06 375.527L297.084 375.654L297.118 375.842C298.571 383.896 299.588 392.04 300.474 400.181C301.152 406.412 301.493 412.686 301.781 418.951C301.886 421.229 302.035 423.513 302.185 425.798L302.185 425.8L302.185 425.802L302.185 425.803L302.185 425.805L302.185 425.807L302.185 425.808L302.185 425.81L302.185 425.812C302.609 432.313 303.034 438.823 302.453 445.236C301.731 453.196 296.834 459.513 289.789 463.746C283.097 467.768 276.726 471.997 274.075 480.006C272.438 484.951 274.034 488.463 278.609 488.596C279.452 488.621 280.308 488.227 281.164 487.833C281.557 487.653 281.95 487.472 282.342 487.332C282.047 487.005 281.769 486.628 281.492 486.251C280.878 485.417 280.263 484.582 279.453 484.289C277.266 483.498 277.109 482.964 277.987 480.681C279.795 475.975 282.565 472.423 286.907 469.914C293.827 465.916 299.929 460.875 303.696 453.736C308.309 444.992 310.47 435.641 309.051 425.634C308.197 419.616 307.567 413.563 306.966 407.513C306.489 402.705 306.138 397.884 305.77 392.831ZM333.934 253.327C331.8 241.137 329.723 229.311 327.465 217.518C325.93 209.498 320.291 204.58 314.035 200.045C313.298 199.511 312.553 198.98 311.807 198.447C307.566 195.419 303.267 192.349 299.918 188.504C294.097 181.82 284.413 165.856 284.885 157.527C285.2 151.977 287.145 145.519 287.145 145.519C287.145 145.519 286.206 157.001 287.145 160.504C290.455 172.841 299.491 182.618 307.824 189.168C309.741 190.675 311.726 192.111 313.709 193.546L313.71 193.546L313.71 193.546L313.71 193.546L313.71 193.547L313.71 193.547L313.711 193.547L313.711 193.547C317.62 196.375 321.525 199.2 324.902 202.561C328.174 205.818 330.809 210.096 331.491 215.301C331.882 218.28 332.363 221.228 332.846 224.186C333.821 230.159 334.803 236.174 335.056 242.568C335.347 249.905 339.303 260.584 341.188 265.672C341.791 267.3 342.182 268.356 342.173 268.547C341.489 268.291 336.43 259.471 334.588 255.315C334.352 254.783 334.139 254.241 333.934 253.327ZM272.22 91.1147C264.478 87.3751 256.648 83.8186 248.468 80.1873C244.578 79.2264 240.902 78.2694 237.276 77.3256L237.276 77.3254L237.275 77.3253C236.071 77.0118 234.873 76.6998 233.674 76.3895C225.134 74.1799 216.525 74.4187 208.126 76.6773C204.28 77.7116 200.606 79.4059 196.944 81.0952L196.943 81.0955L196.943 81.0955L196.943 81.0955L196.943 81.0955L196.943 81.0955L196.943 81.0955C195.831 81.6084 194.72 82.1208 193.605 82.6141C193.237 82.7772 193.073 83.403 192.909 84.0288C192.833 84.3189 192.757 84.6091 192.661 84.8531C192.917 84.9057 193.174 84.974 193.431 85.0422C194.028 85.2008 194.626 85.3594 195.21 85.3212C195.604 85.2955 195.977 85.0607 196.356 84.8221L196.356 84.8221C196.597 84.6706 196.84 84.5175 197.092 84.4156C204.358 81.4808 211.918 79.7 219.735 79.4838C231.982 79.1451 243.598 82.1794 254.812 86.8646C257.416 87.953 259.991 89.1143 262.565 90.2756C265.183 91.4564 267.8 92.6373 270.45 93.7414C271.202 94.0546 272.097 94.0229 272.992 93.9911C273.405 93.9765 273.818 93.9618 274.216 93.9809C274.009 93.6707 273.825 93.3138 273.64 92.9569L273.64 92.9568L273.64 92.9567C273.242 92.1865 272.844 91.4163 272.22 91.1147ZM229.937 116.276C229.169 113.543 232.175 113.504 234.733 113.813C239.986 114.449 245.291 114.657 250.596 114.866C252.775 114.951 254.955 115.037 257.131 115.152C257.632 115.178 258.337 115.149 259.056 115.119L259.056 115.119H259.057H259.057H259.057H259.057C260.645 115.052 262.298 114.983 261.946 115.509C254.308 126.936 232.934 126.936 229.937 116.276ZM182.489 166.457C181.314 173.305 182.948 177.693 190.443 179.4C193.111 180.008 196.418 178.348 198.283 177.308C201.176 175.695 203.967 173.899 206.759 172.103L206.759 172.102C207.695 171.5 208.631 170.898 209.571 170.302C209.482 171.18 212.043 177.133 213.761 178.203C214.949 177.348 215.425 176.498 215.927 175.602C216.087 175.317 216.25 175.027 216.439 174.73C216.72 174.29 216.84 173.748 216.961 173.204C217.022 172.927 217.084 172.648 217.167 172.383C217.445 171.5 217.526 170.521 217.608 169.541C217.818 167.012 218.029 164.48 221.61 163.581C221.76 163.544 221.945 163.52 222.143 163.494C223.03 163.38 224.192 163.231 223.736 161.667C223.177 159.753 221.608 160.263 220.894 160.523C217.837 161.634 214.85 162.987 211.957 164.483C208.56 166.241 205.188 168.049 201.816 169.856C198.671 171.543 195.526 173.229 192.36 174.874C189.206 176.514 186.831 174.424 184.777 171.853C183.283 169.983 183.634 166.575 183.845 164.53C183.925 163.745 183.986 163.161 183.913 162.941C183.17 163.677 182.634 165.619 182.489 166.457ZM209.736 170.198L209.571 170.302C209.576 170.258 209.587 170.227 209.605 170.21C209.633 170.183 209.678 170.18 209.736 170.198ZM209.736 170.198C210.464 169.738 211.194 169.282 211.928 168.834C212.633 168.403 213.454 168.163 214.275 167.922C214.652 167.811 215.03 167.7 215.397 167.571C215.197 168.134 215.071 168.936 214.937 169.792C214.707 171.257 214.452 172.879 213.761 173.728C213.617 173.905 212.737 173.006 211.82 172.07L211.82 172.07C210.973 171.205 210.094 170.308 209.736 170.198ZM317.188 457.413C317.224 456.737 317.245 456.093 317.266 455.473C317.314 454.019 317.359 452.695 317.567 451.398C317.655 450.852 318.072 450.359 318.489 449.866C318.678 449.642 318.867 449.418 319.026 449.189C319.185 449.416 319.391 449.645 319.597 449.874C320.039 450.366 320.482 450.858 320.463 451.332C320.055 461.629 319.549 472.075 314.641 481.317C312.722 484.93 308.667 487.723 305.015 489.958C303.433 490.926 299.829 490.306 298.173 489.049C295.5 487.022 295.26 483.437 296.899 480.503C298.043 478.454 300.017 476.774 301.905 475.291C302.333 474.955 303.179 475.15 304.024 475.346C304.411 475.435 304.797 475.525 305.144 475.563C304.987 475.803 304.836 476.049 304.685 476.295C304.351 476.84 304.018 477.384 303.611 477.866C303.208 478.344 302.754 478.793 302.302 479.24L302.302 479.241L302.301 479.241L302.301 479.241C301.451 480.082 300.605 480.919 300.111 481.932C299.579 483.023 299.6 485.238 300.321 485.868C301.206 486.643 303.36 486.871 304.476 486.329C311.415 482.957 313.756 476.529 315.041 469.51C315.755 465.605 316.459 461.697 317.188 457.413ZM182.461 121.367C188.327 122.08 199.101 114.599 199.101 112.986C199.101 111.374 184.481 109.712 178.647 109.15C175.968 108.892 174.39 109.672 174.174 112.371C173.865 116.246 178.181 120.847 182.461 121.367ZM289.963 489.831C283.324 485.569 284.645 481.263 290.999 474.927C291.736 474.192 292.72 473.464 293.696 473.271C294.411 473.13 295.187 473.303 295.964 473.475C296.303 473.551 296.642 473.626 296.976 473.675C296.837 473.891 296.705 474.112 296.572 474.332C296.282 474.815 295.993 475.298 295.633 475.721C293.846 477.826 292.044 479.921 290.176 481.954C288.146 484.163 289.808 485.073 291.521 485.947C291.743 486.06 292.025 486.1 292.298 486.139C292.655 486.19 292.998 486.238 293.179 486.446C293.716 487.062 294.143 487.775 294.569 488.488C294.742 488.776 294.914 489.065 295.094 489.347C294.823 489.427 294.553 489.516 294.283 489.605L294.282 489.605C293.656 489.812 293.029 490.018 292.386 490.117C291.66 490.229 290.892 490.069 289.963 489.831ZM173.723 519.36C172.204 519.495 170.686 519.63 168.969 519.944C168.066 520.684 167.123 521.367 166.194 522.04C164.089 523.565 162.059 525.036 160.739 526.987C159.502 528.816 159.735 532.361 160.613 534.633C161.09 535.869 163.419 536.532 165.319 537.074C165.576 537.147 165.826 537.218 166.061 537.288C167.077 537.589 168.492 537.247 169.485 536.731C170.206 536.356 170.786 535.71 171.367 535.064C171.621 534.782 171.874 534.5 172.14 534.241C171.798 534.109 171.409 533.91 171.02 533.711C170.175 533.279 169.33 532.846 168.966 533.101C167.012 534.469 166.359 533.132 165.836 532.062C165.692 531.766 165.557 531.491 165.408 531.299C164.897 530.641 165.217 528.689 165.873 527.903C166.73 526.875 167.757 525.994 168.786 525.11C169.555 524.45 170.325 523.789 171.026 523.065C171.753 522.314 172.34 521.427 172.926 520.54C173.188 520.142 173.451 519.745 173.726 519.359L173.723 519.36Z" fill="#00160A"/>
<path fill-rule="evenodd" clip-rule="evenodd" d="M13.4531 143.165C4.3519 144.665 -1.51705 154.372 0.344498 164.845C1.43551 170.983 4.9397 176.471 9.48587 180.115L10.7467 200.708C10.8696 202.686 12.9677 204.428 14.2653 203.613L22.3711 198.129L32.7447 206.622C34.4055 208.046 36.0066 206.724 35.4297 204.391L29.513 180.765C32.8289 176.816 34.3943 170.346 33.3031 163.034C31.4415 150.56 22.5544 141.665 13.4531 143.165ZM20.1944 184.714C22.3678 184.833 24.3569 184.405 26.1005 183.509L30.0276 198.852L22.5782 192.978C21.8458 192.42 21.0309 192.342 20.4586 192.77L14.6372 196.934L13.8002 182.929C15.8574 183.961 18.0198 184.594 20.1944 184.714ZM14.2958 148.359C21.1217 147.421 27.7871 154.093 29.1832 163.26C30.5794 172.428 26.1777 179.707 19.3517 179.52C16.9501 179.454 14.5684 178.55 12.4291 177.064C12.3162 176.969 12.1972 176.885 12.0738 176.812C8.30116 174.125 5.34188 169.674 4.46432 164.619C3.06816 156.576 7.46987 149.296 14.2958 148.359Z" fill="#FFB61D"/>
</g>
</svg>
