<svg width="178" height="178" viewBox="0 0 178 178" fill="none" xmlns="http://www.w3.org/2000/svg">
<path d="M178 89C178 138.153 138.153 178 89 178C39.8467 178 0 138.153 0 89C0 39.8467 39.8467 0 89 0C138.153 0 178 39.8467 178 89ZM25.0591 89C25.0591 124.314 53.6864 152.941 89 152.941C124.314 152.941 152.941 124.314 152.941 89C152.941 53.6864 124.314 25.0591 89 25.0591C53.6864 25.0591 25.0591 53.6864 25.0591 89Z" fill="#C4C4C4"/>
<path d="M89 0C108.702 2.34949e-07 127.848 6.53774 143.435 18.5884C159.023 30.639 170.171 47.5213 175.132 66.5889L144.986 74.4328C141.761 62.0389 134.515 51.0654 124.383 43.2324C114.251 35.3995 101.807 31.15 89 31.15V0Z" fill="#E66346"/>
<path d="M174.762 65.2103C179.996 84.0793 178.861 104.148 171.533 122.306L142.646 110.649C147.41 98.846 148.147 85.8015 144.745 73.5367L174.762 65.2103Z" fill="#FFE352"/>
<path d="M171.887 121.416C167.63 132.301 161.27 142.241 153.172 150.668C145.074 159.095 135.395 165.845 124.688 170.531C113.981 175.218 102.456 177.75 90.7704 177.982C79.0851 178.215 67.4684 176.144 56.5836 171.887L67.9293 142.876C75.0044 145.643 82.5553 146.99 90.1508 146.839C97.7462 146.687 105.238 145.042 112.197 141.995C119.156 138.949 125.448 134.562 130.712 129.084C135.976 123.607 140.109 117.146 142.876 110.071L171.887 121.416Z" fill="#4D6EE4"/>
<path d="M67.8257 175.444C56.4737 172.664 45.7805 167.674 36.3566 160.761C26.9328 153.848 18.9629 145.146 12.902 135.153C6.84113 125.16 2.80792 114.07 1.03266 102.518C-0.742602 90.9663 -0.225134 79.1778 2.55551 67.8257L32.8111 75.2367C31.0037 82.6155 30.6673 90.2781 31.8212 97.7869C32.9751 105.296 35.5967 112.504 39.5363 118.999C43.4759 125.495 48.6563 131.151 54.7818 135.645C60.9073 140.138 67.8579 143.382 75.2367 145.189L67.8257 175.444Z" fill="#B763EB"/>
<path d="M59.2937 172.896C39.5155 165.893 22.8474 152.127 12.2318 134.029C1.6163 115.932 -2.26406 94.6652 1.27581 73.9845C4.81567 53.3038 15.5481 34.5386 31.5785 21.0017C47.6089 7.46474 67.9064 0.0265029 88.8879 7.06249e-05L88.9271 31.15C75.2892 31.1672 62.0958 36.0021 51.676 44.8011C41.2563 53.6001 34.2802 65.7975 31.9793 79.2399C29.6784 92.6824 32.2006 106.506 39.1007 118.269C46.0008 130.033 56.8351 138.98 69.6909 143.532L59.2937 172.896Z" fill="#46C2E6"/>
</svg>
