<svg width="25" height="25" viewBox="0 0 25 25" fill="none" xmlns="http://www.w3.org/2000/svg">
<g clip-path="url(#clip0_412_117)">
<path d="M3.12516 21.875C2.8489 21.875 2.58394 21.7653 2.38859 21.5699C2.19324 21.3746 2.0835 21.1096 2.0835 20.8333V4.16667C2.0835 3.8904 2.19324 3.62545 2.38859 3.4301C2.58394 3.23475 2.8489 3.125 3.12516 3.125H21.8752C22.1514 3.125 22.4164 3.23475 22.6117 3.4301C22.8071 3.62545 22.9168 3.8904 22.9168 4.16667V20.8333C22.9168 21.1096 22.8071 21.3746 22.6117 21.5699C22.4164 21.7653 22.1514 21.875 21.8752 21.875H3.12516ZM7.29183 10.4167H4.16683V19.7917H7.29183V10.4167ZM20.8335 10.4167H9.37516V19.7917H20.8335V10.4167ZM20.8335 5.20833H4.16683V8.33333H20.8335V5.20833Z" fill="white"/>
</g>
<defs>
<clipPath id="clip0_412_117">
<rect width="25" height="25" fill="white"/>
</clipPath>
</defs>
</svg>
