<svg width="259" height="188" viewBox="0 0 259 188" fill="none" xmlns="http://www.w3.org/2000/svg">
<mask id="mask0_773_1680" style="mask-type:alpha" maskUnits="userSpaceOnUse" x="0" y="0" width="259" height="188">
<rect width="259" height="188" fill="#C4C4C4"/>
</mask>
<g mask="url(#mask0_773_1680)">
<path d="M7.52 174.3V178.59C7.52 180.09 6.44 181.15 4.82 181.15C3.3 181.15 2.34 180.24 2.14 178.9L3.74 178.58C3.81 179.26 4.18 179.68 4.82 179.68C5.45 179.68 5.87 179.23 5.87 178.59V174.3H7.52ZM13.944 175.98V181H12.344V180.6C11.954 180.95 11.434 181.15 10.784 181.15C9.45398 181.15 8.33398 180.08 8.33398 178.49C8.33398 176.91 9.45398 175.83 10.784 175.83C11.434 175.83 11.954 176.03 12.344 176.38V175.98H13.944ZM11.114 179.79C11.764 179.79 12.344 179.27 12.344 178.49C12.344 177.72 11.764 177.19 11.114 177.19C10.414 177.19 9.90398 177.72 9.90398 178.49C9.90398 179.27 10.414 179.79 11.114 179.79ZM18.2395 175.83C19.4095 175.83 20.1895 176.66 20.1895 177.92V181H18.5995V178.26C18.5995 177.67 18.2495 177.27 17.7395 177.27C17.1095 177.27 16.6995 177.7 16.6995 178.67V181H15.0995V175.98H16.6995V176.46C17.0795 176.06 17.6095 175.83 18.2395 175.83Z" fill="#222222"/>
<path d="M52.23 175.75V177.16H55.37V178.6H52.23V181H50.58V174.3H55.76V175.75H52.23ZM61.3301 178.49V178.9H57.6501C57.7801 179.5 58.1901 179.87 58.7301 179.87C59.1001 179.87 59.5301 179.78 59.8001 179.29L61.2201 179.58C60.7901 180.64 59.8801 181.15 58.7301 181.15C57.2801 181.15 56.0801 180.08 56.0801 178.49C56.0801 176.91 57.2801 175.83 58.7401 175.83C60.1601 175.83 61.3001 176.85 61.3301 178.49ZM58.7401 177.13C58.2901 177.13 57.8301 177.41 57.6801 177.92H59.7501C59.6001 177.38 59.2001 177.13 58.7401 177.13ZM65.322 175.83C66.652 175.83 67.772 176.91 67.772 178.49C67.772 180.08 66.652 181.15 65.322 181.15C64.672 181.15 64.152 180.95 63.762 180.6V181H62.162V173.8H63.762V176.38C64.152 176.03 64.672 175.83 65.322 175.83ZM64.992 179.79C65.692 179.79 66.202 179.27 66.202 178.49C66.202 177.72 65.692 177.19 64.992 177.19C64.342 177.19 63.762 177.72 63.762 178.49C63.762 179.27 64.342 179.79 64.992 179.79Z" fill="#222222"/>
<path d="M106.31 174.3V181H104.71V177.43L102.83 181H102.07L100.18 177.41V181H98.58V174.3H100.2L102.45 178.55L104.7 174.3H106.31ZM112.747 175.98V181H111.147V180.6C110.757 180.95 110.237 181.15 109.587 181.15C108.257 181.15 107.137 180.08 107.137 178.49C107.137 176.91 108.257 175.83 109.587 175.83C110.237 175.83 110.757 176.03 111.147 176.38V175.98H112.747ZM109.917 179.79C110.567 179.79 111.147 179.27 111.147 178.49C111.147 177.72 110.567 177.19 109.917 177.19C109.217 177.19 108.707 177.72 108.707 178.49C108.707 179.27 109.217 179.79 109.917 179.79ZM117.232 175.91C117.372 175.91 117.472 175.92 117.592 175.95L117.522 177.55H117.232C116.112 177.55 115.502 178.13 115.502 179.43V181H113.902V175.98H115.502V176.94C115.862 176.34 116.412 175.91 117.232 175.91Z" fill="#222222"/>
<path d="M153.29 181H151.53L151.06 179.78H148.24L147.77 181H146L148.8 174.3H150.49L153.29 181ZM150.51 178.36L149.65 176.16L148.8 178.36H150.51ZM157.025 175.83C158.355 175.83 159.475 176.91 159.475 178.49C159.475 180.08 158.355 181.15 157.025 181.15C156.375 181.15 155.855 180.95 155.465 180.6V182.7H153.865V175.98H155.465V176.38C155.855 176.03 156.375 175.83 157.025 175.83ZM156.695 179.79C157.395 179.79 157.905 179.27 157.905 178.49C157.905 177.72 157.395 177.19 156.695 177.19C156.045 177.19 155.465 177.72 155.465 178.49C155.465 179.27 156.045 179.79 156.695 179.79ZM163.631 175.91C163.771 175.91 163.871 175.92 163.991 175.95L163.921 177.55H163.631C162.511 177.55 161.901 178.13 161.901 179.43V181H160.301V175.98H161.901V176.94C162.261 176.34 162.811 175.91 163.631 175.91Z" fill="#222222"/>
<path d="M202.31 174.3V181H200.71V177.43L198.83 181H198.07L196.18 177.41V181H194.58V174.3H196.2L198.45 178.55L200.7 174.3H202.31ZM208.747 175.98V181H207.147V180.6C206.757 180.95 206.237 181.15 205.587 181.15C204.257 181.15 203.137 180.08 203.137 178.49C203.137 176.91 204.257 175.83 205.587 175.83C206.237 175.83 206.757 176.03 207.147 176.38V175.98H208.747ZM205.917 179.79C206.567 179.79 207.147 179.27 207.147 178.49C207.147 177.72 206.567 177.19 205.917 177.19C205.217 177.19 204.707 177.72 204.707 178.49C204.707 179.27 205.217 179.79 205.917 179.79ZM215.292 175.97L212.392 182.7H210.662L211.472 180.83L209.392 175.97H211.112L212.302 178.9L213.572 175.97H215.292Z" fill="#222222"/>
<path d="M247.52 174.3V178.59C247.52 180.09 246.44 181.15 244.82 181.15C243.3 181.15 242.34 180.24 242.14 178.9L243.74 178.58C243.81 179.26 244.18 179.68 244.82 179.68C245.45 179.68 245.87 179.23 245.87 178.59V174.3H247.52ZM253.684 175.98V181H252.084V180.52C251.704 180.92 251.174 181.15 250.544 181.15C249.374 181.15 248.594 180.32 248.594 179.06V175.98H250.184V178.72C250.184 179.31 250.534 179.71 251.044 179.71C251.674 179.71 252.084 179.28 252.084 178.31V175.98H253.684ZM257.986 175.83C259.156 175.83 259.936 176.66 259.936 177.92V181H258.346V178.26C258.346 177.67 257.996 177.27 257.486 177.27C256.856 177.27 256.446 177.7 256.446 178.67V181H254.846V175.98H256.446V176.46C256.826 176.06 257.356 175.83 257.986 175.83Z" fill="#222222"/>
<line opacity="0.4" x1="-5.5" y1="15.5" x2="289.5" y2="15.5" stroke="#DFF6E4" stroke-opacity="0.7" stroke-linecap="round"/>
<line opacity="0.4" x1="-5.5" y1="51.5" x2="289.5" y2="51.5" stroke="#DFF6E4" stroke-opacity="0.7" stroke-linecap="round"/>
<line opacity="0.4" x1="-5.5" y1="122.5" x2="289.5" y2="122.5" stroke="#DFF6E4" stroke-opacity="0.7" stroke-linecap="round"/>
<line opacity="0.4" x1="-5.5" y1="158.5" x2="289.5" y2="158.5" stroke="#DFF6E4" stroke-opacity="0.7" stroke-linecap="round"/>
<line x1="-6" y1="86.5" x2="290" y2="86.5" stroke="#AAAAAA"/>
<path d="M2 63C2 61.8954 2.89543 61 4 61H8C9.10457 61 10 61.8954 10 63V86H2V63Z" fill="#46C2E6"/>
<path d="M146 63C146 61.8954 146.895 61 148 61H152C153.105 61 154 61.8954 154 63V86H146V63Z" fill="#46C2E6"/>
<path d="M14 51C14 49.8954 14.8954 49 16 49H20C21.1046 49 22 49.8954 22 51V86H14V51Z" fill="#46C2E6"/>
<path d="M158 51C158 49.8954 158.895 49 160 49H164C165.105 49 166 49.8954 166 51V86H158V51Z" fill="#46C2E6"/>
<path d="M26 57C26 55.8954 26.8954 55 28 55H32C33.1046 55 34 55.8954 34 57V86H26V57Z" fill="#46C2E6"/>
<path d="M170 57C170 55.8954 170.895 55 172 55H176C177.105 55 178 55.8954 178 57V86H170V57Z" fill="#46C2E6"/>
<path d="M38 76C38 74.8954 38.8954 74 40 74H44C45.1046 74 46 74.8954 46 76V86H38V76Z" fill="#46C2E6"/>
<path d="M182 76C182 74.8954 182.895 74 184 74H188C189.105 74 190 74.8954 190 76V86H182V76Z" fill="#46C2E6"/>
<path d="M50 64C50 62.8954 50.8954 62 52 62H56C57.1046 62 58 62.8954 58 64V86H50V64Z" fill="#46C2E6"/>
<path d="M194 79C194 77.8954 194.895 77 196 77H200C201.105 77 202 77.8954 202 79V86H194V79Z" fill="#46C2E6"/>
<path d="M62 68C62 66.8954 62.8954 66 64 66H68C69.1046 66 70 66.8954 70 68V86H62V68Z" fill="#46C2E6"/>
<path d="M206 68C206 66.8954 206.895 66 208 66H212C213.105 66 214 66.8954 214 68V86H206V68Z" fill="#46C2E6"/>
<path opacity="0.4" d="M254 103C254 104.105 254.895 105 256 105H260C261.105 105 262 104.105 262 103V87H254V103Z" fill="#46C2E6"/>
<path d="M74 29C74 27.8954 74.8954 27 76 27H80C81.1046 27 82 27.8954 82 29V86H74V29Z" fill="#46C2E6"/>
<path d="M218 62C218 60.8954 218.895 60 220 60H224C225.105 60 226 60.8954 226 62V86H218V62Z" fill="#46C2E6"/>
<path opacity="0.4" d="M74 87H82V101C82 102.105 81.1046 103 80 103H76C74.8954 103 74 102.105 74 101V87Z" fill="#46C2E6"/>
<path opacity="0.4" d="M62 87H70V123C70 124.105 69.1046 125 68 125H64C62.8954 125 62 124.105 62 123V87Z" fill="#46C2E6"/>
<path opacity="0.4" d="M98 87H106V129C106 130.105 105.105 131 104 131H100C98.8954 131 98 130.105 98 129V87Z" fill="#46C2E6"/>
<path opacity="0.4" d="M2 87H10V101C10 102.105 9.10457 103 8 103H4C2.89543 103 2 102.105 2 101V87Z" fill="#46C2E6"/>
<path opacity="0.4" d="M14 87H22V117C22 118.105 21.1046 119 20 119H16C14.8954 119 14 118.105 14 117V87Z" fill="#46C2E6"/>
<path opacity="0.4" d="M26 87H34V129C34 130.105 33.1046 131 32 131H28C26.8954 131 26 130.105 26 129V87Z" fill="#46C2E6"/>
<path opacity="0.4" d="M38 87H46V93C46 94.1046 45.1046 95 44 95H40C38.8954 95 38 94.1046 38 93V87Z" fill="#46C2E6"/>
<path opacity="0.4" d="M86 87H94V154C94 155.105 93.1046 156 92 156H88C86.8954 156 86 155.105 86 154V87Z" fill="#46C2E6"/>
<path opacity="0.4" d="M122 87H130V119C130 120.105 129.105 121 128 121H124C122.895 121 122 120.105 122 119V87Z" fill="#46C2E6"/>
<path opacity="0.4" d="M134 87H142V109C142 110.105 141.105 111 140 111H136C134.895 111 134 110.105 134 109V87Z" fill="#46C2E6"/>
<path opacity="0.4" d="M146 87H154V102C154 103.105 153.105 104 152 104H148C146.895 104 146 103.105 146 102V87Z" fill="#46C2E6"/>
<path opacity="0.4" d="M158 87H166V93C166 94.1046 165.105 95 164 95H160C158.895 95 158 94.1046 158 93V87Z" fill="#46C2E6"/>
<path opacity="0.4" d="M170 87H178V105C178 106.105 177.105 107 176 107H172C170.895 107 170 106.105 170 105V87Z" fill="#46C2E6"/>
<path opacity="0.4" d="M194 87H202V90C202 91.1046 201.105 92 200 92H196C194.895 92 194 91.1046 194 90V87Z" fill="#46C2E6"/>
<path opacity="0.4" d="M218 87H226V96C226 97.1046 225.105 98 224 98H220C218.895 98 218 97.1046 218 96V87Z" fill="#46C2E6"/>
<path opacity="0.4" d="M230 87H238V91C238 92.1046 237.105 93 236 93H232C230.895 93 230 92.1046 230 91V87Z" fill="#46C2E6"/>
<path opacity="0.4" d="M242 87H250V89C250 90.1046 249.105 91 248 91H244C242.895 91 242 90.1046 242 89V87Z" fill="#46C2E6"/>
<path opacity="0.4" d="M182 87H190V99C190 100.105 189.105 101 188 101H184C182.895 101 182 100.105 182 99V87Z" fill="#46C2E6"/>
<path opacity="0.4" d="M206 87H214V93C214 94.1046 213.105 95 212 95H208C206.895 95 206 94.1046 206 93V87Z" fill="#46C2E6"/>
<path opacity="0.4" d="M50 87H58V110C58 111.105 57.1046 112 56 112H52C50.8954 112 50 111.105 50 110V87Z" fill="#46C2E6"/>
<path opacity="0.4" d="M110 87H118V96C118 97.1046 117.105 98 116 98H112C110.895 98 110 97.1046 110 96V87Z" fill="#46C2E6"/>
<path d="M86 46C86 44.8954 86.8954 44 88 44H92C93.1046 44 94 44.8954 94 46V86H86V46Z" fill="#46C2E6"/>
<path d="M230 74C230 72.8954 230.895 72 232 72H236C237.105 72 238 72.8954 238 74V86H230V74Z" fill="#46C2E6"/>
<path d="M98 57C98 55.8954 98.8954 55 100 55H104C105.105 55 106 55.8954 106 57V86H98V57Z" fill="#46C2E6"/>
<path d="M242 80C242 78.8954 242.895 78 244 78H248C249.105 78 250 78.8954 250 80V86H242V80Z" fill="#46C2E6"/>
<path d="M110 45C110 43.8954 110.895 43 112 43H116C117.105 43 118 43.8954 118 45V86H110V45Z" fill="#46C2E6"/>
<path d="M254 53C254 51.8954 254.895 51 256 51H260C261.105 51 262 51.8954 262 53V86H254V53Z" fill="#46C2E6"/>
<path d="M122 63C122 61.8954 122.895 61 124 61H128C129.105 61 130 61.8954 130 63V86H122V63Z" fill="#46C2E6"/>
<path d="M134 41C134 39.8954 134.895 39 136 39H140C141.105 39 142 39.8954 142 41V86H134V41Z" fill="#46C2E6"/>
<line x1="1.75" y1="159" x2="1.75001" y2="15" stroke="#2E279D" stroke-opacity="0.2" stroke-width="0.5" stroke-dasharray="2 2"/>
<line x1="49.75" y1="159" x2="49.75" y2="15" stroke="#2E279D" stroke-opacity="0.2" stroke-width="0.5" stroke-dasharray="2 2"/>
<line x1="97.75" y1="159" x2="97.75" y2="15" stroke="#2E279D" stroke-opacity="0.2" stroke-width="0.5" stroke-dasharray="2 2"/>
<line x1="145.75" y1="159" x2="145.75" y2="15" stroke="#2E279D" stroke-opacity="0.2" stroke-width="0.5" stroke-dasharray="2 2"/>
<line x1="193.75" y1="159" x2="193.75" y2="15" stroke="#2E279D" stroke-opacity="0.2" stroke-width="0.5" stroke-dasharray="2 2"/>
<line x1="241.75" y1="159" x2="241.75" y2="15" stroke="#2E279D" stroke-opacity="0.2" stroke-width="0.5" stroke-dasharray="2 2"/>
</g>
</svg>
