<svg width="25" height="25" viewBox="0 0 25 25" fill="none" xmlns="http://www.w3.org/2000/svg">
<g opacity="0.6" clip-path="url(#clip0_412_120)">
<path d="M16.6668 20.8334V4.16671H4.16683V19.7917C4.16683 20.068 4.27658 20.3329 4.47193 20.5283C4.66728 20.7236 4.93223 20.8334 5.2085 20.8334H16.6668ZM19.7918 22.9167H5.2085C4.37969 22.9167 3.58484 22.5875 2.99879 22.0014C2.41274 21.4154 2.0835 20.6205 2.0835 19.7917V3.12504C2.0835 2.84877 2.19324 2.58382 2.38859 2.38847C2.58394 2.19312 2.8489 2.08337 3.12516 2.08337H17.7085C17.9848 2.08337 18.2497 2.19312 18.4451 2.38847C18.6404 2.58382 18.7502 2.84877 18.7502 3.12504V10.4167H22.9168V19.7917C22.9168 20.6205 22.5876 21.4154 22.0015 22.0014C21.4155 22.5875 20.6206 22.9167 19.7918 22.9167ZM18.7502 12.5V19.7917C18.7502 20.068 18.8599 20.3329 19.0553 20.5283C19.2506 20.7236 19.5156 20.8334 19.7918 20.8334C20.0681 20.8334 20.3331 20.7236 20.5284 20.5283C20.7238 20.3329 20.8335 20.068 20.8335 19.7917V12.5H18.7502ZM6.25016 6.25004H12.5002V12.5H6.25016V6.25004ZM8.3335 8.33337V10.4167H10.4168V8.33337H8.3335ZM6.25016 13.5417H14.5835V15.625H6.25016V13.5417ZM6.25016 16.6667H14.5835V18.75H6.25016V16.6667Z" fill="white" fill-opacity="0.7"/>
</g>
<defs>
<clipPath id="clip0_412_120">
<rect width="25" height="25" fill="white"/>
</clipPath>
</defs>
</svg>
