<svg width="25" height="25" viewBox="0 0 25 25" fill="none" xmlns="http://www.w3.org/2000/svg">
<g opacity="0.6" clip-path="url(#clip0_412_121)">
<path d="M5.20833 8.33337V20.8334H9.375V8.33337H5.20833ZM3.125 7.29171L7.29167 2.08337L11.4583 7.29171V22.9167H3.125V7.29171ZM19.7917 16.6667V14.5834H16.6667V12.5H19.7917V10.4167H17.7083V8.33337H19.7917V6.25004H15.625V20.8334H19.7917V18.75H17.7083V16.6667H19.7917ZM14.5833 4.16671H20.8333C21.1096 4.16671 21.3746 4.27645 21.5699 4.4718C21.7653 4.66716 21.875 4.93211 21.875 5.20837V21.875C21.875 22.1513 21.7653 22.4163 21.5699 22.6116C21.3746 22.807 21.1096 22.9167 20.8333 22.9167H14.5833C14.3071 22.9167 14.0421 22.807 13.8468 22.6116C13.6514 22.4163 13.5417 22.1513 13.5417 21.875V5.20837C13.5417 4.93211 13.6514 4.66716 13.8468 4.4718C14.0421 4.27645 14.3071 4.16671 14.5833 4.16671Z" fill="white" fill-opacity="0.7"/>
</g>
<defs>
<clipPath id="clip0_412_121">
<rect width="25" height="25" fill="white"/>
</clipPath>
</defs>
</svg>
