<svg width="25" height="25" viewBox="0 0 25 25" fill="none" xmlns="http://www.w3.org/2000/svg">
<g opacity="0.6" clip-path="url(#clip0_412_119)">
<path d="M3.125 7.29169L11.9219 1.42711C12.0931 1.3129 12.2942 1.25195 12.5 1.25195C12.7058 1.25195 12.9069 1.3129 13.0781 1.42711L21.875 7.29169V21.875C21.875 22.1513 21.7653 22.4162 21.5699 22.6116C21.3746 22.8069 21.1096 22.9167 20.8333 22.9167H4.16667C3.8904 22.9167 3.62545 22.8069 3.4301 22.6116C3.23475 22.4162 3.125 22.1513 3.125 21.875V7.29169ZM5.20833 8.40628V20.8334H19.7917V8.40628L12.5 3.54586L5.20833 8.40628ZM8.33333 16.6667H16.6667V18.75H8.33333V16.6667ZM8.33333 13.5417H16.6667V15.625H8.33333V13.5417ZM12.5 11.4584C11.9475 11.4584 11.4176 11.2389 11.0269 10.8482C10.6362 10.4575 10.4167 9.92756 10.4167 9.37503C10.4167 8.82249 10.6362 8.29259 11.0269 7.90189C11.4176 7.51119 11.9475 7.29169 12.5 7.29169C13.0525 7.29169 13.5824 7.51119 13.9731 7.90189C14.3638 8.29259 14.5833 8.82249 14.5833 9.37503C14.5833 9.92756 14.3638 10.4575 13.9731 10.8482C13.5824 11.2389 13.0525 11.4584 12.5 11.4584Z" fill="white" fill-opacity="0.7"/>
</g>
<defs>
<clipPath id="clip0_412_119">
<rect width="25" height="25" fill="white"/>
</clipPath>
</defs>
</svg>
