<svg width="48" height="47" viewBox="0 0 48 47" fill="none" xmlns="http://www.w3.org/2000/svg">
<path d="M23.551 47C36.5578 47 47.1019 36.4787 47.1019 23.5C47.1019 10.5213 36.5578 0 23.551 0C10.5441 0 0 10.5213 0 23.5C0 36.4787 10.5441 47 23.551 47Z" fill="white"/>
<path fill-rule="evenodd" clip-rule="evenodd" d="M18.5305 13.986C18.5305 13.986 18.5305 13.986 18.5305 13.986C18.5304 13.9869 18.5301 13.9885 18.5297 13.9908C18.5283 13.9989 18.5255 14.0158 18.5217 14.0408C18.5139 14.0908 18.5019 14.1729 18.4883 14.2823C18.4609 14.502 18.4277 14.8265 18.4091 15.2192C18.3709 16.0229 18.3979 17.0238 18.609 17.969C18.8223 18.9241 19.1815 19.6393 19.6638 20.0992C20.0879 20.5037 20.8215 20.9202 22.2749 20.8997C24.8452 20.8636 26.9028 21.6488 28.402 23.0787C29.8431 24.4531 30.5395 26.205 30.8787 27.7239C31.2201 29.2527 31.2427 30.7331 31.1924 31.7919C31.1668 32.3306 31.1211 32.7827 31.0808 33.1069C31.0605 33.2694 31.0414 33.4011 31.0266 33.4967C31.0191 33.5446 31.0127 33.5836 31.0077 33.6131L31.0014 33.6502L30.999 33.6632L30.9981 33.6683L30.9977 33.6706C30.9975 33.6715 30.9974 33.6725 28.544 33.2274L30.9974 33.6725C30.751 35.0245 29.4529 35.9213 28.0979 35.6755C26.7452 35.4301 25.8473 34.1387 26.0893 32.7892C26.0895 32.7883 26.0898 32.7867 26.0901 32.7846C26.0915 32.7764 26.0943 32.7595 26.0982 32.7345C26.106 32.6845 26.118 32.6024 26.1316 32.4931C26.159 32.2733 26.1921 31.9488 26.2108 31.5561C26.249 30.7524 26.222 29.7516 26.0109 28.8064C25.7976 27.8512 25.4384 27.1361 24.9561 26.6762C24.532 26.2716 23.7985 25.8552 22.3451 25.8756C19.7747 25.9117 17.7171 25.1265 16.2179 23.6967C14.7768 22.3223 14.0805 20.5704 13.7412 19.0515C13.3998 17.5227 13.3771 16.0423 13.4275 14.9835C13.4531 14.4448 13.4988 13.9926 13.5391 13.6685C13.5593 13.506 13.5785 13.3743 13.5933 13.2786C13.6007 13.2307 13.6072 13.1918 13.6122 13.1623L13.6185 13.1252L13.6208 13.1122L13.6217 13.1071L13.6221 13.1048C13.6224 13.1038 13.6225 13.1029 16.0759 13.548L13.6225 13.1029C13.8688 11.7509 15.167 10.8541 16.5219 11.0999C17.8745 11.3453 18.7725 12.6365 18.5305 13.986Z" fill="#2E279D"/>
<path d="M16.8071 35.941C18.1842 35.941 19.3007 34.827 19.3007 33.4528C19.3007 32.0786 18.1842 30.9646 16.8071 30.9646C15.4299 30.9646 14.3135 32.0786 14.3135 33.4528C14.3135 34.827 15.4299 35.941 16.8071 35.941Z" fill="#2E279D"/>
<path d="M30.6354 14.2254C30.6354 15.9744 29.2145 17.3922 27.4618 17.3922C25.709 17.3922 24.2881 15.9744 24.2881 14.2254C24.2881 12.4764 25.709 11.0586 27.4618 11.0586C29.2145 11.0586 30.6354 12.4764 30.6354 14.2254Z" fill="#2E279D"/>
</svg>
