<svg width="64" height="40" viewBox="0 0 64 40" fill="none" xmlns="http://www.w3.org/2000/svg">
<rect opacity="0.2" width="64" height="40" rx="11" fill="#4D6EE4"/>
<g clip-path="url(#clip0_2227_4081)">
<path d="M49 23L44.757 18.757L46.172 17.343L49 20.172L51.828 17.343L53.243 18.757L49 23Z" fill="black"/>
</g>
<rect x="6" y="5" width="29" height="29" rx="7" fill="white"/>
<path d="M12.0336 15.337C12.3296 15.337 12.6018 15.3814 12.8503 15.4702C13.1048 15.553 13.309 15.6684 13.4629 15.8164V17.0148C13.309 16.9201 13.1344 16.8313 12.9391 16.7485C12.7438 16.6597 12.5337 16.6153 12.3088 16.6153C12.1668 16.6153 12.0396 16.6449 11.9271 16.7041C11.8206 16.7573 11.7673 16.8432 11.7673 16.9615C11.7673 17.0444 11.7999 17.1065 11.865 17.1479C11.9301 17.1894 12.0573 17.2337 12.2467 17.2811L12.5219 17.3521C13.309 17.5533 13.7025 17.9765 13.7025 18.6215C13.7025 18.9174 13.6138 19.1808 13.4362 19.4116C13.2646 19.6365 13.0368 19.814 12.7527 19.9442C12.4745 20.0685 12.1727 20.1306 11.8472 20.1306C11.5099 20.1306 11.1962 20.0833 10.9063 19.9886C10.6163 19.888 10.3677 19.7667 10.1606 19.6247V18.4351C10.3736 18.5653 10.6133 18.6748 10.8796 18.7636C11.1519 18.8523 11.3945 18.8967 11.6075 18.8967C11.7792 18.8967 11.9034 18.876 11.9804 18.8346C12.0632 18.7932 12.1047 18.7192 12.1047 18.6127C12.1047 18.5298 12.0573 18.4677 11.9626 18.4262C11.8679 18.3789 11.7318 18.3256 11.5543 18.2665L11.1016 18.1244C10.7701 18.0238 10.5275 17.867 10.3736 17.6539C10.2198 17.435 10.1428 17.1686 10.1428 16.855C10.1428 16.5413 10.2257 16.2721 10.3914 16.0472C10.5571 15.8223 10.782 15.6477 11.066 15.5234C11.356 15.3991 11.6786 15.337 12.0336 15.337Z" fill="black"/>
<path d="M11.9862 21.1412C12.3452 21.1412 12.6566 21.1953 12.9204 21.3034C13.1885 21.4072 13.3961 21.5542 13.5432 21.7445C13.6945 21.9348 13.7702 22.1554 13.7702 22.4062C13.7702 22.6268 13.7161 22.8171 13.608 22.9771C13.5042 23.1371 13.368 23.2647 13.1993 23.3598C13.3334 23.4074 13.4588 23.4701 13.5756 23.548C13.6924 23.6215 13.7853 23.7188 13.8545 23.8399C13.9281 23.961 13.9648 24.1188 13.9648 24.3134C13.9648 24.5556 13.887 24.7827 13.7313 24.9946C13.5756 25.2022 13.3615 25.3708 13.0891 25.5006C12.8166 25.626 12.5052 25.6887 12.1549 25.6887C11.956 25.6887 11.7332 25.6779 11.4867 25.6563C11.2402 25.639 11.0045 25.6152 10.7796 25.5849C10.5591 25.5546 10.3796 25.5244 10.2412 25.4941V21.3099C10.505 21.258 10.784 21.2169 11.078 21.1866C11.3721 21.1564 11.6749 21.1412 11.9862 21.1412ZM12.0317 22.2376C11.8111 22.2376 11.6186 22.2549 11.4543 22.2895V23.0355H12.0641C12.2068 23.0355 12.3279 23.0009 12.4274 22.9317C12.5268 22.8625 12.5766 22.7609 12.5766 22.6268C12.5766 22.51 12.5247 22.417 12.4209 22.3478C12.3214 22.2743 12.1917 22.2376 12.0317 22.2376ZM11.4543 24.5405C11.5451 24.5708 11.6532 24.5924 11.7787 24.6054C11.9041 24.614 12.0014 24.6183 12.0706 24.6183C12.2479 24.6183 12.3906 24.5837 12.4987 24.5145C12.6112 24.4453 12.6674 24.3437 12.6674 24.2096C12.6674 24.0799 12.6047 23.9869 12.4793 23.9307C12.3538 23.8745 12.2025 23.8464 12.0252 23.8464H11.4543V24.5405Z" fill="black"/>
<path d="M16.0107 21.2894C16.404 21.2894 16.7536 21.3768 17.0595 21.5516C17.3655 21.7264 17.6031 21.9723 17.7724 22.2891C17.9473 22.6005 18.0347 22.972 18.0347 23.4035V23.887H15.1913C15.2513 24.0891 15.3715 24.2393 15.5518 24.3377C15.7321 24.436 15.9397 24.4852 16.1746 24.4852C16.4914 24.4852 16.7646 24.4415 16.994 24.3541C17.2289 24.2612 17.4037 24.182 17.5184 24.1164V25.321C17.3764 25.4084 17.1797 25.4958 16.9284 25.5832C16.6826 25.6706 16.404 25.7143 16.0926 25.7143C15.7976 25.7143 15.5108 25.6651 15.2322 25.5668C14.9591 25.4685 14.7133 25.3264 14.4947 25.1407C14.2762 24.955 14.1042 24.731 13.9785 24.4688C13.8529 24.2011 13.79 23.9006 13.79 23.5674C13.79 23.1522 13.8856 22.7726 14.0768 22.4284C14.2735 22.0842 14.5384 21.8084 14.8717 21.6008C15.2104 21.3932 15.59 21.2894 16.0107 21.2894ZM15.9697 22.453C15.7894 22.453 15.6337 22.5022 15.5026 22.6005C15.3715 22.6934 15.2759 22.8381 15.2158 23.0348H16.699C16.699 22.8381 16.6225 22.6934 16.4696 22.6005C16.3221 22.5022 16.1554 22.453 15.9697 22.453Z" fill="black"/>
<path d="M19.6951 21.2894C19.9136 21.2894 20.1267 21.3386 20.3343 21.4369C20.5473 21.5298 20.7221 21.65 20.8587 21.7974V21.4123H22.2681V25.5914H20.8587V24.8949C20.7549 25.1243 20.5965 25.3182 20.3834 25.4767C20.1704 25.6351 19.9136 25.7143 19.6132 25.7143C19.3018 25.7143 19.0095 25.6351 18.7364 25.4767C18.4632 25.3182 18.2393 25.0752 18.0644 24.7474C17.8951 24.4141 17.8104 23.9962 17.8104 23.4937C17.8104 23.0239 17.8951 22.6251 18.0644 22.2973C18.2393 21.9695 18.4687 21.721 18.7528 21.5516C19.0423 21.3768 19.3564 21.2894 19.6951 21.2894ZM19.9901 22.666C19.788 22.666 19.6186 22.748 19.4821 22.9119C19.3509 23.0758 19.2854 23.2697 19.2854 23.4937C19.2854 23.7176 19.3537 23.9061 19.4902 24.0591C19.6268 24.212 19.8071 24.2885 20.0311 24.2885C20.1513 24.2885 20.2742 24.2585 20.3998 24.1984C20.5255 24.1328 20.632 24.0372 20.7194 23.9116C20.8123 23.7805 20.8587 23.6138 20.8587 23.4117V23.0102C20.7385 22.9119 20.6019 22.8299 20.449 22.7644C20.3015 22.6988 20.1485 22.666 19.9901 22.666Z" fill="black"/>
<path d="M23.5275 21.4123V21.9531C23.6586 21.7729 23.7979 21.6172 23.9454 21.4861C24.0929 21.355 24.3059 21.2894 24.5845 21.2894C24.8631 21.2894 25.1117 21.355 25.3302 21.4861C25.5487 21.6117 25.7208 21.8002 25.8464 22.0515C25.9775 21.833 26.1496 21.6527 26.3627 21.5107C26.5812 21.3632 26.8243 21.2894 27.092 21.2894C27.5181 21.2894 27.8649 21.4342 28.1326 21.7237C28.4058 22.0132 28.5423 22.4421 28.5423 23.0102V25.5914H27.1329L27.1247 23.2314C27.1247 23.0239 27.0701 22.8791 26.9608 22.7971C26.8571 22.7097 26.7341 22.666 26.5921 22.666C26.4665 22.666 26.3572 22.7043 26.2643 22.7808C26.1769 22.8572 26.1005 22.9446 26.0349 23.043V25.5914H24.6255L24.6173 23.2314C24.6173 23.0239 24.5627 22.8791 24.4534 22.7971C24.3496 22.7097 24.2267 22.666 24.0847 22.666C23.959 22.666 23.8525 22.707 23.7651 22.789C23.6831 22.8654 23.6039 22.9583 23.5275 23.0676V25.5914H22.118V21.4123H23.5275Z" fill="black"/>
<path d="M18.4125 15.4702V18.1866C18.4125 18.5949 18.3178 18.9441 18.1284 19.2341C17.9449 19.5241 17.6905 19.746 17.365 19.8999C17.0395 20.0537 16.6666 20.1307 16.2465 20.1307C15.8263 20.1307 15.4534 20.0537 15.1279 19.8999C14.8024 19.746 14.545 19.5241 14.3556 19.2341C14.1722 18.9441 14.0804 18.5949 14.0804 18.1866V15.4702H15.6073L15.6162 17.7782C15.6162 18.086 15.6635 18.3109 15.7582 18.4529C15.8588 18.5949 16.0216 18.666 16.2465 18.666C16.4713 18.666 16.6311 18.5949 16.7258 18.4529C16.8264 18.3109 16.8767 18.086 16.8767 17.7782L16.8856 15.4702H18.4125Z" fill="black"/>
<path d="M20.7208 15.4701V16.056C20.8629 15.8607 21.0345 15.6921 21.2357 15.55C21.4428 15.408 21.6973 15.337 21.9991 15.337C22.4607 15.337 22.8365 15.4938 23.1265 15.8075C23.4224 16.1211 23.5704 16.5857 23.5704 17.2012V19.9975H22.0435L22.0346 17.4409C22.0346 17.216 21.9725 17.0591 21.8482 16.9704C21.7239 16.8757 21.5849 16.8283 21.431 16.8283C21.2653 16.8283 21.1262 16.8727 21.0138 16.9615C20.9013 17.0443 20.8037 17.145 20.7208 17.2633V19.9975H19.194V15.4701H20.7208Z" fill="black"/>
<path d="M24.3586 14.7205L24.4164 13.005L23.1118 13.8179L23.1178 12.4571L21.8942 14.5766C23.0361 14.8409 23.5994 15.1665 24.4678 16.0625L25.6915 13.943L24.3586 14.7205Z" fill="url(#paint0_linear_2227_4081)"/>
<path d="M29.808 24.1393C29.7143 24.1393 29.6214 24.1577 29.5348 24.1936C29.4482 24.2295 29.3695 24.2821 29.3032 24.3484C29.1693 24.4822 29.0941 24.6638 29.0941 24.8532C29.0941 25.0425 29.1693 25.2241 29.3032 25.358C29.3695 25.4243 29.4482 25.4769 29.5348 25.5127C29.6214 25.5486 29.7143 25.5671 29.808 25.5671C29.9974 25.5671 30.179 25.4919 30.3128 25.358C30.4467 25.2241 30.5219 25.0425 30.5219 24.8532C30.5219 24.7594 30.5035 24.6666 30.4676 24.58C30.4317 24.4934 30.3791 24.4147 30.3128 24.3484C30.2465 24.2821 30.1678 24.2295 30.0812 24.1936C29.9946 24.1577 29.9018 24.1393 29.808 24.1393ZM29.808 25.4243C29.4932 25.4243 29.2369 25.168 29.2369 24.8532C29.2369 24.5383 29.4932 24.282 29.808 24.282C30.1229 24.282 30.3792 24.5383 30.3792 24.8532C30.3792 25.168 30.1229 25.4243 29.808 25.4243ZM29.8259 24.9438H29.7231V25.1744H29.5939V24.5469H29.8266C29.9001 24.5469 29.9572 24.5633 29.9979 24.5962C30.0379 24.6297 30.0579 24.6747 30.0579 24.7361C30.0579 24.7789 30.0486 24.8146 30.03 24.8432C30.0115 24.8717 29.9836 24.8946 29.9458 24.911L30.0815 25.1673V25.1744H29.943L29.8259 24.9438ZM29.7231 24.8396H29.8273C29.8594 24.8396 29.8844 24.831 29.9023 24.8146C29.9201 24.7982 29.9287 24.7754 29.9287 24.7461C29.9287 24.7168 29.9208 24.694 29.9037 24.6768C29.8873 24.6597 29.8616 24.6519 29.8266 24.6519H29.7231V24.8396Z" fill="black"/>
<defs>
<linearGradient id="paint0_linear_2227_4081" x1="23.7928" y1="12.4571" x2="23.7928" y2="16.0625" gradientUnits="userSpaceOnUse">
<stop offset="0.427083" stop-color="#FFD540"/>
<stop offset="1" stop-color="#FF9A02"/>
</linearGradient>
<clipPath id="clip0_2227_4081">
<rect width="24" height="24" fill="white" transform="translate(37 8)"/>
</clipPath>
</defs>
</svg>
