<svg width="169" height="47" viewBox="0 0 169 47" fill="none" xmlns="http://www.w3.org/2000/svg">
<rect opacity="0.2" width="169" height="47" rx="11" fill="#4D6EE4"/>
<path d="M53.852 19.78C52.892 19.78 52.124 20.008 51.548 20.464C50.96 20.92 50.672 21.544 50.672 22.312C50.672 23.536 51.392 24.316 52.832 24.64L54.512 25C54.788 25.06 54.98 25.144 55.088 25.252C55.196 25.372 55.256 25.516 55.256 25.708C55.256 25.96 55.148 26.164 54.932 26.308C54.716 26.464 54.428 26.536 54.068 26.536C53.204 26.536 52.676 26.14 52.484 25.348L50.444 25.744C50.54 26.512 50.924 27.112 51.572 27.544C52.22 27.976 53.024 28.18 53.96 28.18C54.896 28.18 55.688 27.952 56.324 27.496C56.948 27.04 57.272 26.404 57.272 25.576C57.272 24.352 56.528 23.572 55.064 23.236L53.396 22.864C52.964 22.768 52.748 22.552 52.748 22.192C52.748 21.964 52.844 21.772 53.048 21.616C53.24 21.46 53.504 21.376 53.828 21.376C54.164 21.376 54.464 21.484 54.728 21.676C54.992 21.868 55.16 22.144 55.232 22.504L57.176 22.108C57.02 21.388 56.648 20.812 56.06 20.404C55.46 19.996 54.728 19.78 53.852 19.78ZM64.3606 21.976H62.4406V24.772C62.4406 25.348 62.3206 25.768 62.1046 26.044C61.8886 26.32 61.5766 26.452 61.1926 26.452C60.8806 26.452 60.6406 26.344 60.4486 26.128C60.2566 25.912 60.1606 25.624 60.1606 25.264V21.976H58.2526V25.672C58.2526 26.428 58.4566 27.04 58.8886 27.496C59.3206 27.952 59.8846 28.18 60.5926 28.18C61.3366 28.18 61.9606 27.928 62.4406 27.424V28H64.3606V21.976ZM69.5226 21.796C68.7666 21.796 68.1546 22.048 67.6746 22.552V21.976H65.7546V28H67.6746V25.204C67.6746 24.64 67.7826 24.22 67.9986 23.944C68.2146 23.668 68.5266 23.524 68.9226 23.524C69.2226 23.524 69.4746 23.644 69.6666 23.86C69.8586 24.076 69.9546 24.364 69.9546 24.712V28H71.8626V24.304C71.8626 23.56 71.6466 22.948 71.2146 22.492C70.7826 22.036 70.2186 21.796 69.5226 21.796ZM76.9646 21.796C76.1966 21.796 75.5726 22.024 75.0926 22.456V19.36H73.1726V28H75.0926V27.52C75.5726 27.964 76.1966 28.18 76.9646 28.18C77.7806 28.18 78.4646 27.892 79.0406 27.292C79.6166 26.692 79.9046 25.924 79.9046 24.988C79.9046 24.064 79.6166 23.296 79.0406 22.696C78.4646 22.096 77.7806 21.796 76.9646 21.796ZM76.5686 26.548C76.1606 26.548 75.8126 26.404 75.5246 26.116C75.2366 25.828 75.0926 25.444 75.0926 24.988C75.0926 24.544 75.2366 24.172 75.5246 23.872C75.8126 23.584 76.1606 23.428 76.5686 23.428C76.9886 23.428 77.3366 23.584 77.6126 23.872C77.8766 24.16 78.0206 24.532 78.0206 24.988C78.0206 25.456 77.8766 25.828 77.6126 26.116C77.3366 26.404 76.9886 26.548 76.5686 26.548ZM86.7992 24.988C86.7752 24.028 86.4752 23.26 85.8872 22.672C85.2872 22.096 84.5552 21.796 83.6912 21.796C82.7912 21.796 82.0352 22.096 81.4232 22.696C80.7992 23.296 80.4992 24.064 80.4992 24.988C80.4992 25.924 80.7992 26.692 81.4232 27.292C82.0352 27.892 82.7912 28.18 83.6792 28.18C84.3752 28.18 84.9872 28.024 85.5032 27.712C86.0192 27.4 86.4032 26.92 86.6672 26.296L84.9632 25.948C84.6992 26.416 84.2792 26.644 83.6792 26.644C83.3552 26.644 83.0792 26.548 82.8512 26.332C82.6112 26.128 82.4552 25.84 82.3832 25.48H86.7992V24.988ZM83.6912 23.356C83.9792 23.356 84.2312 23.44 84.4472 23.596C84.6632 23.764 84.8072 23.992 84.9032 24.304H82.4192C82.5032 24.016 82.6712 23.776 82.9112 23.608C83.1512 23.44 83.4032 23.356 83.6912 23.356ZM94.1336 21.976H92.2136V22.456C91.7216 22.024 91.0976 21.796 90.3416 21.796C89.5256 21.796 88.8296 22.096 88.2536 22.696C87.6776 23.296 87.4016 24.064 87.4016 24.988C87.4016 25.924 87.6776 26.692 88.2536 27.292C88.8296 27.892 89.5256 28.18 90.3416 28.18C91.0976 28.18 91.7216 27.964 92.2136 27.52V28H94.1336V21.976ZM90.7376 26.548C90.3056 26.548 89.9576 26.404 89.6936 26.116C89.4176 25.828 89.2856 25.456 89.2856 24.988C89.2856 24.532 89.4176 24.16 89.6936 23.872C89.9576 23.584 90.3056 23.428 90.7376 23.428C91.1336 23.428 91.4816 23.584 91.7696 23.872C92.0576 24.172 92.2136 24.544 92.2136 24.988C92.2136 25.444 92.0576 25.828 91.7696 26.116C91.4816 26.404 91.1336 26.548 90.7376 26.548ZM103.32 21.796C102.408 21.796 101.7 22.144 101.184 22.816C100.752 22.144 100.104 21.796 99.2162 21.796C98.4722 21.796 97.8722 22.048 97.4402 22.528V21.976H95.5202V28H97.4402V25.048C97.4402 24.556 97.5362 24.184 97.7402 23.92C97.9442 23.656 98.2322 23.524 98.5922 23.524C98.8802 23.524 99.1322 23.632 99.3242 23.836C99.5162 24.04 99.6122 24.304 99.6122 24.64V28H101.532V25.048C101.532 24.556 101.628 24.184 101.844 23.92C102.06 23.656 102.348 23.524 102.708 23.524C102.996 23.524 103.236 23.632 103.428 23.836C103.62 24.04 103.716 24.304 103.716 24.64V28H105.624V24.232C105.624 23.512 105.396 22.936 104.964 22.48C104.52 22.024 103.968 21.796 103.32 21.796ZM109.723 19.96V28H111.703V25.54H113.599C114.523 25.54 115.255 25.288 115.807 24.772C116.359 24.268 116.635 23.584 116.635 22.732C116.635 21.904 116.359 21.232 115.831 20.728C115.303 20.224 114.583 19.96 113.683 19.96H109.723ZM111.703 23.884V21.652H113.455C113.827 21.652 114.127 21.76 114.355 21.964C114.571 22.168 114.691 22.432 114.691 22.756C114.691 23.104 114.571 23.38 114.355 23.584C114.139 23.788 113.839 23.884 113.455 23.884H111.703ZM121.688 21.892C120.8 21.892 120.104 22.312 119.612 23.128V21.976H117.692V28H119.612V26.116C119.612 24.616 120.296 23.86 121.688 23.86H122.036L122.12 21.94C121.988 21.916 121.844 21.892 121.688 21.892ZM122.996 25.9C122.684 25.9 122.42 26.008 122.216 26.224C122 26.44 121.904 26.692 121.904 26.98C121.904 27.292 122 27.556 122.216 27.76C122.42 27.964 122.684 28.06 122.996 28.06C123.308 28.06 123.572 27.964 123.788 27.748C123.992 27.544 124.1 27.292 124.1 26.98C124.1 26.692 123.992 26.44 123.776 26.224C123.56 26.008 123.308 25.9 122.996 25.9ZM125.949 25.9C125.637 25.9 125.373 26.008 125.169 26.224C124.953 26.44 124.857 26.692 124.857 26.98C124.857 27.292 124.953 27.556 125.169 27.76C125.373 27.964 125.637 28.06 125.949 28.06C126.261 28.06 126.525 27.964 126.741 27.748C126.945 27.544 127.053 27.292 127.053 26.98C127.053 26.692 126.945 26.44 126.729 26.224C126.513 26.008 126.261 25.9 125.949 25.9ZM128.902 25.9C128.59 25.9 128.326 26.008 128.122 26.224C127.906 26.44 127.81 26.692 127.81 26.98C127.81 27.292 127.906 27.556 128.122 27.76C128.326 27.964 128.59 28.06 128.902 28.06C129.214 28.06 129.478 27.964 129.694 27.748C129.898 27.544 130.006 27.292 130.006 26.98C130.006 26.692 129.898 26.44 129.682 26.224C129.466 26.008 129.214 25.9 128.902 25.9Z" fill="black"/>
<g clip-path="url(#clip0_354_30)">
<path d="M147 26L142.757 21.757L144.172 20.343L147 23.172L149.828 20.343L151.243 21.757L147 26Z" fill="black"/>
</g>
<rect x="6" y="6" width="35" height="35" rx="7" fill="white"/>
<path d="M13.282 18.4757C13.6392 18.4757 13.9677 18.5293 14.2677 18.6364C14.5748 18.7364 14.8212 18.8757 15.0069 19.0543V20.5006C14.8212 20.3863 14.6105 20.2792 14.3748 20.1792C14.1391 20.0721 13.8856 20.0185 13.6142 20.0185C13.4427 20.0185 13.2892 20.0542 13.1535 20.1256C13.0249 20.1899 12.9606 20.2935 12.9606 20.4363C12.9606 20.5363 12.9999 20.6113 13.0785 20.6613C13.157 20.7113 13.3106 20.7649 13.5392 20.822L13.8713 20.9077C14.8212 21.1506 15.2962 21.6613 15.2962 22.4398C15.2962 22.7969 15.1891 23.1148 14.9748 23.3933C14.7677 23.6647 14.4927 23.879 14.1498 24.0361C13.8141 24.1861 13.4499 24.2611 13.057 24.2611C12.6499 24.2611 12.2714 24.204 11.9214 24.0897C11.5714 23.9683 11.2714 23.8219 11.0214 23.6505V22.2148C11.2786 22.3719 11.5678 22.5041 11.8892 22.6112C12.2178 22.7184 12.5106 22.7719 12.7678 22.7719C12.9749 22.7719 13.1249 22.7469 13.2177 22.6969C13.3177 22.6469 13.3677 22.5576 13.3677 22.4291C13.3677 22.3291 13.3106 22.2541 13.1963 22.2041C13.082 22.147 12.9178 22.0827 12.7035 22.0112L12.1571 21.8398C11.7571 21.7184 11.4643 21.5291 11.2786 21.272C11.0929 21.0077 11 20.6863 11 20.3078C11 19.9292 11.1 19.6042 11.3 19.3328C11.5 19.0614 11.7714 18.8507 12.1142 18.7007C12.4642 18.5507 12.8535 18.4757 13.282 18.4757Z" fill="black"/>
<path d="M13.2252 25.4808C13.6584 25.4808 14.0342 25.5461 14.3526 25.6766C14.6762 25.8018 14.9268 25.9793 15.1042 26.209C15.2869 26.4386 15.3783 26.7048 15.3783 27.0075C15.3783 27.2737 15.313 27.5034 15.1825 27.6965C15.0573 27.8896 14.8929 28.0436 14.6893 28.1584C14.8511 28.2159 15.0025 28.2915 15.1434 28.3855C15.2843 28.4742 15.3965 28.5917 15.4801 28.7378C15.5688 28.884 15.6131 29.0745 15.6131 29.3094C15.6131 29.6016 15.5192 29.8757 15.3313 30.1314C15.1434 30.382 14.885 30.5855 14.5562 30.7421C14.2274 30.8935 13.8516 30.9692 13.4288 30.9692C13.1887 30.9692 12.9199 30.9561 12.6224 30.93C12.3248 30.9091 12.0404 30.8804 11.769 30.8439C11.5028 30.8074 11.2862 30.7708 11.1191 30.7343V25.6844C11.4375 25.6218 11.7742 25.5722 12.1291 25.5356C12.484 25.4991 12.8494 25.4808 13.2252 25.4808ZM13.28 26.804C13.0138 26.804 12.7816 26.8249 12.5832 26.8666V27.767H13.3192C13.4914 27.767 13.6376 27.7252 13.7576 27.6417C13.8777 27.5582 13.9377 27.4355 13.9377 27.2737C13.9377 27.1328 13.875 27.0206 13.7498 26.9371C13.6297 26.8483 13.4731 26.804 13.28 26.804ZM12.5832 29.5834C12.6928 29.6199 12.8233 29.646 12.9747 29.6617C13.126 29.6721 13.2435 29.6773 13.327 29.6773C13.541 29.6773 13.7132 29.6356 13.8437 29.5521C13.9794 29.4685 14.0473 29.3459 14.0473 29.1841C14.0473 29.0275 13.9716 28.9153 13.8202 28.8474C13.6689 28.7796 13.4862 28.7456 13.2722 28.7456H12.5832V29.5834Z" fill="black"/>
<path d="M18.0824 25.6597C18.5571 25.6597 18.9791 25.7652 19.3483 25.9761C19.7175 26.1871 20.0043 26.4838 20.2087 26.8662C20.4197 27.242 20.5252 27.6903 20.5252 28.2112V28.7947H17.0935C17.166 29.0386 17.311 29.2199 17.5286 29.3386C17.7462 29.4573 17.9967 29.5166 18.2802 29.5166C18.6626 29.5166 18.9923 29.4639 19.2692 29.3584C19.5527 29.2463 19.7637 29.1507 19.9021 29.0716V30.5254C19.7307 30.6308 19.4933 30.7363 19.1901 30.8418C18.8934 30.9473 18.5571 31.0001 18.1813 31.0001C17.8253 31.0001 17.4792 30.9407 17.1429 30.822C16.8133 30.7034 16.5166 30.532 16.2529 30.3078C15.9891 30.0836 15.7814 29.8133 15.6298 29.4968C15.4782 29.1738 15.4023 28.8112 15.4023 28.409C15.4023 27.9079 15.5177 27.4497 15.7485 27.0343C15.9858 26.619 16.3056 26.286 16.7078 26.0355C17.1165 25.7849 17.5748 25.6597 18.0824 25.6597ZM18.033 27.064C17.8154 27.064 17.6275 27.1233 17.4693 27.242C17.311 27.3541 17.1957 27.5288 17.1231 27.7662H18.9132C18.9132 27.5288 18.8209 27.3541 18.6362 27.242C18.4582 27.1233 18.2571 27.064 18.033 27.064Z" fill="black"/>
<path d="M22.5285 25.6597C22.7922 25.6597 23.0494 25.719 23.2999 25.8377C23.557 25.9498 23.768 26.0948 23.9328 26.2728V25.808H25.6339V30.8517H23.9328V30.0111C23.8076 30.288 23.6164 30.5221 23.3592 30.7133C23.1021 30.9045 22.7922 31.0001 22.4296 31.0001C22.0538 31.0001 21.7011 30.9045 21.3714 30.7133C21.0418 30.5221 20.7715 30.2287 20.5605 29.8331C20.3561 29.4309 20.2539 28.9265 20.2539 28.32C20.2539 27.753 20.3561 27.2717 20.5605 26.8761C20.7715 26.4805 21.0484 26.1805 21.3912 25.9761C21.7406 25.7652 22.1197 25.6597 22.5285 25.6597ZM22.8845 27.3211C22.6406 27.3211 22.4362 27.42 22.2714 27.6178C22.1132 27.8156 22.034 28.0497 22.034 28.32C22.034 28.5903 22.1165 28.8178 22.2813 29.0024C22.4461 29.187 22.6637 29.2793 22.934 29.2793C23.079 29.2793 23.2274 29.243 23.379 29.1705C23.5307 29.0914 23.6592 28.976 23.7647 28.8243C23.8768 28.6661 23.9328 28.465 23.9328 28.2211V27.7365C23.7878 27.6178 23.623 27.5189 23.4384 27.4398C23.2604 27.3607 23.0757 27.3211 22.8845 27.3211Z" fill="black"/>
<path d="M27.1541 25.808V26.4607C27.3124 26.2432 27.4805 26.0553 27.6585 25.897C27.8365 25.7388 28.0937 25.6597 28.4299 25.6597C28.7661 25.6597 29.0661 25.7388 29.3299 25.897C29.5936 26.0487 29.8013 26.2761 29.9529 26.5794C30.1111 26.3157 30.3188 26.0981 30.5759 25.9267C30.8397 25.7487 31.1331 25.6597 31.4561 25.6597C31.9704 25.6597 32.389 25.8344 32.7121 26.1838C33.0418 26.5333 33.2066 27.0508 33.2066 27.7365V30.8517H31.5056L31.4957 28.0035C31.4957 27.753 31.4298 27.5783 31.2979 27.4794C31.1726 27.3739 31.0243 27.3211 30.8529 27.3211C30.7012 27.3211 30.5694 27.3673 30.4573 27.4596C30.3518 27.5519 30.2595 27.6574 30.1804 27.776V30.8517H28.4793L28.4695 28.0035C28.4695 27.753 28.4035 27.5783 28.2717 27.4794C28.1464 27.3739 27.9981 27.3211 27.8266 27.3211C27.675 27.3211 27.5464 27.3706 27.4409 27.4695C27.342 27.5618 27.2464 27.6739 27.1541 27.8057V30.8517H25.4531V25.808H27.1541Z" fill="black"/>
<path d="M20.9803 18.6365V21.9149C20.9803 22.4077 20.866 22.8291 20.6374 23.1791C20.416 23.5291 20.1089 23.7969 19.716 23.9826C19.3232 24.1683 18.8732 24.2612 18.3661 24.2612C17.859 24.2612 17.409 24.1683 17.0162 23.9826C16.6233 23.7969 16.3126 23.5291 16.0841 23.1791C15.8627 22.8291 15.752 22.4077 15.752 21.9149V18.6365H17.5947L17.6054 21.4221C17.6054 21.7935 17.6626 22.0649 17.7769 22.2363C17.8983 22.4077 18.0947 22.4934 18.3661 22.4934C18.6375 22.4934 18.8304 22.4077 18.9447 22.2363C19.0661 22.0649 19.1268 21.7935 19.1268 21.4221L19.1375 18.6365H20.9803Z" fill="black"/>
<path d="M23.7666 18.6364V19.3435C23.938 19.1078 24.1451 18.9043 24.388 18.7328C24.638 18.5614 24.9451 18.4757 25.3094 18.4757C25.8665 18.4757 26.32 18.665 26.67 19.0435C27.0271 19.4221 27.2057 19.9828 27.2057 20.7256V24.1004H25.3629L25.3522 21.0149C25.3522 20.7435 25.2772 20.5542 25.1272 20.447C24.9772 20.3328 24.8094 20.2756 24.6237 20.2756C24.4237 20.2756 24.2559 20.3292 24.1201 20.4363C23.9844 20.5363 23.8666 20.6577 23.7666 20.8006V24.1004H21.9238V18.6364H23.7666Z" fill="black"/>
<path d="M28.157 17.7316L28.2267 15.6612L26.6522 16.6423L26.6595 15L25.1826 17.558C26.5608 17.8769 27.2407 18.2699 28.2887 19.3513L29.7656 16.7933L28.157 17.7316Z" fill="url(#paint0_linear_354_30)"/>
<path d="M34.7337 29.0991C34.6205 29.0991 34.5085 29.1214 34.404 29.1647C34.2994 29.208 34.2044 29.2715 34.1244 29.3515C33.9628 29.5131 33.8721 29.7322 33.8721 29.9607C33.8721 30.1892 33.9628 30.4084 34.1244 30.57C34.2044 30.65 34.2994 30.7135 34.404 30.7568C34.5085 30.8001 34.6205 30.8223 34.7337 30.8223C34.9622 30.8223 35.1814 30.7316 35.3429 30.57C35.5045 30.4084 35.5953 30.1892 35.5953 29.9607C35.5953 29.8476 35.573 29.7355 35.5297 29.631C35.4864 29.5265 35.4229 29.4315 35.3429 29.3515C35.2629 29.2715 35.1679 29.208 35.0634 29.1647C34.9589 29.1214 34.8468 29.0991 34.7337 29.0991ZM34.7337 30.65C34.3537 30.65 34.0444 30.3407 34.0444 29.9607C34.0444 29.5808 34.3537 29.2714 34.7337 29.2714C35.1137 29.2714 35.423 29.5808 35.423 29.9607C35.423 30.3407 35.1137 30.65 34.7337 30.65ZM34.7552 30.0702H34.6312V30.3485H34.4752V29.5911H34.7561C34.8448 29.5911 34.9138 29.6109 34.9629 29.6506C35.0111 29.691 35.0352 29.7453 35.0352 29.8194C35.0352 29.8711 35.024 29.9142 35.0016 29.9487C34.9792 29.9831 34.9456 30.0107 34.9 30.0305L35.0637 30.3398V30.3485H34.8965L34.7552 30.0702ZM34.6312 29.9444H34.7569C34.7957 29.9444 34.8259 29.934 34.8474 29.9142C34.869 29.8944 34.8793 29.8668 34.8793 29.8315C34.8793 29.7962 34.8698 29.7686 34.8491 29.7479C34.8293 29.7272 34.7983 29.7178 34.7561 29.7178H34.6312V29.9444Z" fill="black"/>
<defs>
<linearGradient id="paint0_linear_354_30" x1="27.4741" y1="15" x2="27.4741" y2="19.3513" gradientUnits="userSpaceOnUse">
<stop offset="0.427083" stop-color="#FFD540"/>
<stop offset="1" stop-color="#FF9A02"/>
</linearGradient>
<clipPath id="clip0_354_30">
<rect width="24" height="24" fill="white" transform="translate(135 11)"/>
</clipPath>
</defs>
</svg>
