<svg width="40" height="40" viewBox="0 0 40 40" fill="none" xmlns="http://www.w3.org/2000/svg">
<path d="M13.3337 8.33331H26.667C29.7612 8.33331 32.7286 9.56248 34.9166 11.7504C37.1045 13.9383 38.3337 16.9058 38.3337 20C38.3337 23.0942 37.1045 26.0616 34.9166 28.2496C32.7286 30.4375 29.7612 31.6666 26.667 31.6666H13.3337C10.2395 31.6666 7.272 30.4375 5.08408 28.2496C2.89616 26.0616 1.66699 23.0942 1.66699 20C1.66699 16.9058 2.89616 13.9383 5.08408 11.7504C7.272 9.56248 10.2395 8.33331 13.3337 8.33331ZM26.667 25C27.9931 25 29.2648 24.4732 30.2025 23.5355C31.1402 22.5978 31.667 21.3261 31.667 20C31.667 18.6739 31.1402 17.4021 30.2025 16.4644C29.2648 15.5268 27.9931 15 26.667 15C25.3409 15 24.0691 15.5268 23.1315 16.4644C22.1938 17.4021 21.667 18.6739 21.667 20C21.667 21.3261 22.1938 22.5978 23.1315 23.5355C24.0691 24.4732 25.3409 25 26.667 25Z" fill="#46C2E6"/>
</svg>
